<svg width="20" height="15" viewBox="0 0 20 15" fill="none" xmlns="http://www.w3.org/2000/svg">
<path d="M-0.614258 0H4.69141V15H-0.614258V0ZM15.3057 0H20.6113V15H15.3086L15.3057 0ZM6.28222 7.24805L5.86621 7.38867L7.78515 9.07324C7.93164 9.50391 7.73535 9.62988 7.60937 9.8584L9.68945 9.59473L9.63965 11.6895L10.0732 11.6777L9.97656 9.59766L12.0625 9.84668C11.9336 9.57422 11.8193 9.43066 11.9365 8.99707L13.8525 7.40039L13.5186 7.27734C13.2432 7.06641 13.6357 6.26074 13.6943 5.75098C13.6943 5.75098 12.5781 6.13477 12.5049 5.93262L12.2178 5.38477L11.2012 6.50391C11.0898 6.53027 11.043 6.48633 11.0166 6.39258L11.4853 4.05469L10.7412 4.47363C10.6797 4.50293 10.6182 4.47949 10.5771 4.40625L9.85937 2.9707L9.12109 4.46191C9.06543 4.51465 9.00976 4.52051 8.96289 4.48535L8.2539 4.08691L8.68164 6.4043C8.64648 6.49805 8.56445 6.52148 8.4707 6.47168L7.49511 5.36719C7.36914 5.57227 7.28418 5.90332 7.11426 5.97949C6.94726 6.0498 6.38183 5.83887 6.0039 5.75684C6.13281 6.22266 6.53711 6.99609 6.28222 7.25098V7.24805Z" fill="#D52B1E"/>
</svg>
