<svg width="25" height="25" viewBox="0 0 25 25" fill="none" xmlns="http://www.w3.org/2000/svg">
<g opacity="0.5">
<path d="M17.206 1.20569C13.5673 1.20569 10.6176 4.15538 10.6176 7.79403C10.6176 8.63247 10.7806 9.43146 11.0661 10.1691L4.97046 16.2648C2.90234 16.2648 1.20569 17.9614 1.20569 20.0295C1.20569 22.0976 2.90234 23.7943 4.97046 23.7943C7.03857 23.7943 8.73523 22.0976 8.73523 20.0295L14.8309 13.9338C15.5685 14.2194 16.3675 14.3824 17.206 14.3824C20.8446 14.3824 23.7943 11.4327 23.7943 7.79403C23.7943 6.95543 23.6309 6.15689 23.3458 5.41899L20.0295 8.73523H16.2648V4.97046L19.581 1.65423C18.8431 1.36904 18.0446 1.20569 17.206 1.20569ZM4.97046 18.1471C6.02145 18.1471 6.85284 18.9785 6.85284 20.0295C6.85284 21.0805 6.02145 21.9119 4.97046 21.9119C3.91946 21.9119 3.08807 21.0805 3.08807 20.0295C3.08807 18.9785 3.91946 18.1471 4.97046 18.1471Z" fill="white"/>
</g>
</svg>
