<svg width="25" height="25" viewBox="0 0 25 25" fill="none" xmlns="http://www.w3.org/2000/svg">
<g opacity="0.5">
<path d="M23.6861 11.9673H20.5329L21.9715 10.1696C22.1552 9.93964 22.1177 9.60464 21.8883 9.4205C21.6584 9.23843 21.3239 9.27485 21.1392 9.50373L19.1684 11.9673H13.7859L17.5146 8.23864H20.4901C20.7845 8.23864 21.0227 8.00039 21.0227 7.70597C21.0227 7.41154 20.7845 7.1733 20.4901 7.1733H18.5799L20.8656 4.8876C21.0737 4.67952 21.0737 4.34244 20.8656 4.13437C20.6576 3.92629 20.3205 3.92629 20.1124 4.13437L17.8267 6.42007V4.50994C17.8267 4.21552 17.5885 3.97727 17.294 3.97727C16.9996 3.97727 16.7614 4.21552 16.7614 4.50994V7.48541L13.0327 11.2141V5.83161L15.4963 3.86075C15.7257 3.67661 15.7631 3.34161 15.5795 3.11168C15.3948 2.8828 15.0609 2.84535 14.8304 3.02845L13.0327 4.46664V1.31392C13.0327 1.0195 12.7944 0.78125 12.5 0.78125C12.2056 0.78125 11.9673 1.0195 11.9673 1.31392V4.46664L10.1696 3.02845C9.93964 2.84639 9.60464 2.8828 9.4205 3.11168C9.23687 3.34161 9.27433 3.67661 9.50372 3.86075L11.9673 5.83161V11.2141L8.23864 7.48541V4.50994C8.23864 4.21552 8.00039 3.97727 7.70597 3.97727C7.41154 3.97727 7.1733 4.21552 7.1733 4.50994V6.42007L4.88656 4.13333C4.67848 3.92525 4.3414 3.92525 4.13333 4.13333C3.92525 4.3414 3.92525 4.67848 4.13333 4.88656L6.42007 7.1733H4.50994C4.21552 7.1733 3.97727 7.41154 3.97727 7.70597C3.97727 8.00039 4.21552 8.23864 4.50994 8.23864H7.48541L11.2141 11.9673H5.83161L3.86075 9.50373C3.67608 9.27485 3.34213 9.23739 3.11168 9.4205C2.88228 9.60464 2.84483 9.93964 3.02845 10.1696L4.46709 11.9673H1.31392C1.0195 11.9673 0.78125 12.2056 0.78125 12.5C0.78125 12.7944 1.0195 13.0327 1.31392 13.0327H4.46709L3.02845 14.8304C2.84483 15.0604 2.88228 15.3954 3.11168 15.5795C3.21 15.6575 3.32756 15.696 3.44408 15.696C3.60066 15.696 3.75515 15.6274 3.86075 15.4963L5.83161 13.0327H11.2141L7.48541 16.7614H4.50994C4.21552 16.7614 3.97727 16.9996 3.97727 17.294C3.97727 17.5885 4.21552 17.8267 4.50994 17.8267H6.42007L4.13229 20.1145C3.92421 20.3226 3.92421 20.6596 4.13229 20.8677C4.23633 20.9717 4.37261 21.0238 4.5089 21.0238C4.64519 21.0238 4.78148 20.9717 4.88552 20.8677L7.1733 18.5799V20.4901C7.1733 20.7845 7.41154 21.0227 7.70597 21.0227C8.00039 21.0227 8.23864 20.7845 8.23864 20.4901V17.5146L11.9673 13.7859V19.1684L9.50372 21.1392C9.27433 21.3234 9.23687 21.6584 9.4205 21.8883C9.60464 22.1172 9.93912 22.1536 10.1696 21.9715L11.9673 20.5334V23.6861C11.9673 23.9805 12.2056 24.2187 12.5 24.2187C12.7944 24.2187 13.0327 23.9805 13.0327 23.6861V20.5334L14.8304 21.9715C14.9287 22.0496 15.0463 22.0881 15.1628 22.0881C15.3194 22.0881 15.4739 22.0194 15.5795 21.8883C15.7631 21.6584 15.7257 21.3234 15.4963 21.1392L13.0327 19.1684V13.7859L16.7614 17.5146V20.4901C16.7614 20.7845 16.9996 21.0227 17.294 21.0227C17.5885 21.0227 17.8267 20.7845 17.8267 20.4901V18.5799L20.1134 20.8667C20.2175 20.9707 20.3538 21.0227 20.4901 21.0227C20.6263 21.0227 20.7626 20.9707 20.8667 20.8667C21.0747 20.6586 21.0747 20.3215 20.8667 20.1134L18.5799 17.8267H20.4901C20.7845 17.8267 21.0227 17.5885 21.0227 17.294C21.0227 16.9996 20.7845 16.7614 20.4901 16.7614H17.5146L13.7859 13.0327H19.1684L21.1392 15.4963C21.2448 15.6274 21.3993 15.696 21.5559 15.696C21.6724 15.696 21.79 15.6575 21.8883 15.5795C22.1177 15.3954 22.1552 15.0604 21.9715 14.8304L20.5329 13.0327H23.6861C23.9805 13.0327 24.2187 12.7944 24.2187 12.5C24.2187 12.2056 23.9805 11.9673 23.6861 11.9673Z" fill="white"/>
</g>
</svg>
