<svg width="25" height="25" viewBox="0 0 25 25" fill="none" xmlns="http://www.w3.org/2000/svg">
<g opacity="0.5">
<path fill-rule="evenodd" clip-rule="evenodd" d="M23.2416 12.813V13.6926C23.2416 14.016 23.223 14.2783 22.8996 14.2783C22.6472 17.802 21.1129 20.5124 19.2579 20.5124H18.8407V20.8827C18.8407 21.1253 18.6441 21.322 18.4015 21.322H17.3386C17.096 21.322 16.8993 21.1253 16.8993 20.8827V20.5124H13.235V20.8827C13.235 21.1253 13.0384 21.322 12.7958 21.322H11.7329C11.4903 21.322 11.2936 21.1253 11.2936 20.8827V20.5124H7.62933V20.8827C7.62933 21.1253 7.43268 21.322 7.19009 21.322H6.12718C5.88459 21.322 5.68794 21.1253 5.68794 20.8827V20.5106C3.87098 20.4298 2.37929 17.7484 2.13072 14.2783C1.80727 14.2783 1.75842 14.016 1.75842 13.6926V12.813C1.75842 12.4896 1.80727 12.2274 2.13072 12.2274C2.38313 8.70361 3.91735 5.99323 5.77235 5.99323H12.8193V5.14212C12.8193 4.3335 13.4748 3.67798 14.2834 3.67798H17.7938C18.6024 3.67798 19.2579 4.3335 19.2579 5.14212V5.99323C21.1129 5.99323 22.6472 8.70361 22.8996 12.2274C23.223 12.2274 23.2416 12.4896 23.2416 12.813ZM20.4676 16.8768C20.7214 16.4372 20.8801 16.1621 21.0493 15.671C21.1655 15.3336 20.874 15.001 20.5172 15.008C17.7437 15.0626 14.3603 13.5572 11.3403 12.2134C6.36077 9.99782 2.36914 8.22176 3.72817 14.603C3.9587 15.6854 4.25844 16.6313 4.74517 17.248C5.88306 18.6898 6.49061 19.0265 10.4433 19.0265L17.819 19.0249L17.8328 19.0243C18.8921 18.9772 19.7231 18.1873 20.2817 17.2011C20.3492 17.0819 20.4108 16.9753 20.4676 16.8768Z" fill="white"/>
</g>
</svg>
