<svg id="Layer_1" data-name="Layer 1" xmlns="http://www.w3.org/2000/svg" xmlns:xlink="http://www.w3.org/1999/xlink"
    viewBox="0 0 140 75" preserveAspectRatio="none">
    <defs>
        <style>
            .cls-1,
            .cls-4 {
                fill: none;
            }

            .cls-2 {
                clip-path: url(#clip-path);
            }

            .cls-3 {
                fill: #148eff;
            }

            .cls-4 {
                stroke: #011f3a;
                opacity: 0.05;
                isolation: isolate;
            }
        </style>
        <clipPath id="clip-path">
            <rect class="cls-1" width="140" height="150" />
        </clipPath>
    </defs>
    <g class="cls-2">
        <path class="cls-3"
            d="M100.72-145.88C113.81-74.71,51.57-34.13-4.89-36.7L-5.6,73.69c36.48,7.1,135-30.87,153.65-91.7Z" />
        <path class="cls-4"
            d="M-4.89-36.7c56.46,2.57,118.7-38,105.61-109.18M-5.6,73.69c36.48,7.1,135-30.87,153.65-91.7m-153-13.43C50.58-28.66,114.55-69.12,103-139.79M-4.95-26.18c54.55,3,120.25-37.34,110.17-107.53M-5-20.93c53.6,3.21,121-37,112.47-106.69M-5-15.67c52.65,3.43,121.8-36.66,114.75-105.86M-5-10.41c51.69,3.64,122.58-36.32,117-105M-5.09-5.16c50.75,3.86,123.36-36,119.33-104.19M-5.12.1C44.67,4.17,119-35.54,116.49-103.26M-5.16,5.36C43.69,9.65,119.76-29.94,118.75-97.17M-5.19,10.61C42.7,15.12,120.5-24.34,121-91.08M-5.22,15.87C41.72,20.59,121.24-18.75,123.25-85M-5.26,21.13c46,4.94,127.25-34.28,130.77-100M-5.29,26.38c45,5.16,128-33.93,133.05-99.19M-5.33,31.64C38.76,37,123.47-2,130-66.72M-5.36,36.9C37.78,42.48,124.22,3.64,132.27-60.63M-5.39,42.15C36.79,48,125,9.24,134.52-54.54M-5.43,47.41c41.24,6,131.14-32.58,142.21-95.86M-5.46,52.67C34.82,58.9,126.45,20.43,139-42.36M-5.5,57.92C33.84,64.38,127.19,26,141.29-36.27M-5.53,63.18c38.38,6.67,133.47-31.56,149.07-93.36M-5.56,68.44C31.87,75.32,128.68,37.22,145.79-24.1" />
    </g>
</svg>