<svg width="55" height="55" viewBox="0 0 55 55" fill="none" xmlns="http://www.w3.org/2000/svg">
<path d="M12.0696 41.6735C11.9142 41.4998 14.1632 39.2213 15.6125 37.7934C15.0397 37.3987 14.5202 37.1721 14.5202 37.1721C14.5202 37.1721 9.25126 36.9503 7.31176 42.2829C5.92209 46.1038 1.85473 49.8376 1.85473 49.8376C1.85473 49.8376 5.61396 46.8896 9.97866 46.4051C14.343 45.9202 16.7673 43.2525 17.0877 40.0489C17.1465 39.4614 16.8516 38.9335 16.4437 38.4958C14.8712 39.7687 12.2273 41.8508 12.0696 41.6735Z" fill="#148EFF"/>
<path d="M44.5095 12.8879C44.2269 12.5711 43.9574 12.2503 43.6962 11.9267C35.6971 17.9887 24.3592 26.7729 21.632 29.8787C21.632 29.8787 29.7213 17.1899 42.2043 9.86604C41.8991 9.39538 41.6121 8.92235 41.3497 8.44889C35.0348 11.8504 32.1982 13.6018 29.4943 16.202C28.6194 17.0435 27.0302 19.1495 25.2295 21.6928L19.3058 20.8413L5.51691 33.1455L11.2772 29.9447L15.7599 29.1759L18.2598 31.9776C16.6464 34.429 15.5329 36.1605 15.5329 36.1605L16.3478 37.0756C16.5839 36.847 16.7437 36.6944 16.7843 36.6586L29.5514 25.2632C29.7999 25.0434 30.1823 25.066 30.4029 25.3133C30.6251 25.5613 30.6028 25.9429 30.3552 26.164L17.587 37.5573C17.5465 37.5931 17.3771 37.735 17.1235 37.9433L17.137 37.9588L18.1006 39.0369C18.1006 39.0369 19.9419 38.1369 22.5774 36.8148L25.0662 39.6037L23.7937 43.9684L19.9609 49.3293L33.7498 37.0251L33.6083 31.1002C36.5387 29.5098 39.0538 28.0533 40.222 27.1537C44.0509 24.2062 44.4658 22.421 48.5642 16.5328C47.1614 15.5302 45.7849 14.3167 44.5108 12.888L44.5095 12.8879Z" fill="#148EFF"/>
<path d="M43.8918 7.19795C44.1518 7.63044 44.4308 8.06254 44.7262 8.49105C47.0023 7.3506 49.4041 6.4097 51.9128 5.76411C51.9128 5.76411 49.4892 7.55646 46.0014 10.1841C46.216 10.446 46.4374 10.706 46.6664 10.9632C47.7497 12.176 48.9064 13.2381 50.0913 14.146C51.7458 11.3185 52.9669 8.24735 53.1426 5.1846C50.0778 5.01049 46.8882 5.87506 43.8918 7.19795Z" fill="#148EFF"/>
</svg>
