<svg width="25" height="25" viewBox="0 0 25 25" fill="none" xmlns="http://www.w3.org/2000/svg">
<g opacity="0.5">
<path d="M10.6494 1.66668C11.107 1.1589 11.7626 0.833344 12.5 0.833344C13.2374 0.833344 13.893 1.1589 14.3506 1.66668H16.665C17.2542 1.66668 17.6589 2.26259 17.4398 2.80925L16.6667 5.00001H8.33333L7.56022 2.80925C7.34105 2.26259 7.74579 1.66668 8.33496 1.66668H10.6494Z" fill="white"/>
<path d="M11.2858 12.1707H13.1798C13.748 12.1707 14.1386 12.2693 14.3517 12.4666C14.5726 12.656 14.6831 12.9993 14.6831 13.4965C14.6831 14.0015 14.5608 14.3606 14.3162 14.5736C14.0794 14.7788 13.7085 14.8814 13.2035 14.8814H11.2858V12.1707Z" fill="white"/>
<path fill-rule="evenodd" clip-rule="evenodd" d="M2.5 17.5C2.5 11.6667 8.33333 6.66668 8.33333 6.66668H16.6667C16.6667 6.66668 22.5 11.6667 22.5 17.5C22.5 20.8333 20 22.5 18.3333 22.5H6.66667C5 22.5 2.5 20.8333 2.5 17.5ZM15.0737 17.9117V16.799H11.2858V15.9941H13.4639C14.4266 15.9941 15.1408 15.7889 15.6064 15.3786C16.0799 14.9682 16.3166 14.329 16.3166 13.4609C16.3166 12.5219 16.0878 11.8432 15.6301 11.4249C15.1803 10.9988 14.4503 10.7857 13.4402 10.7857H9.67597V14.8814H8.68164V15.9941H9.67597V16.799H8.68164V17.9117H9.67597V18.9534H11.2858V17.9117H15.0737Z" fill="white"/>
</g>
</svg>
