<svg width="25" height="25" viewBox="0 0 25 25" fill="none" xmlns="http://www.w3.org/2000/svg">
<g opacity="0.5">
<path d="M8.11606 14.5099V2.37281C8.11606 2.02438 7.83352 1.74216 7.48396 1.74216H0V15.1405H7.48396C7.83286 15.1405 8.11606 14.858 8.11606 14.5099Z" fill="white"/>
<path fill-rule="evenodd" clip-rule="evenodd" d="M9.62789 15.6758C9.62789 16.0239 9.3447 16.3065 8.9958 16.3065H0V20.4038H12.1322V20.0524C12.1322 17.9976 13.8016 16.3315 15.8611 16.3315C17.9205 16.3315 19.5905 17.9975 19.5905 20.0524V20.4039H21.3168C21.6674 20.4039 21.9512 20.1207 21.9512 19.7709V12.4391C21.9512 12.3558 21.9341 12.2732 21.9023 12.1962L19.1642 5.65984C19.0657 5.42547 18.836 5.27272 18.5811 5.27272H10.26C9.91109 5.27272 9.62789 5.55527 9.62789 5.90338V15.6758ZM13.1564 11.6959C13.1564 12.044 13.4396 12.3265 13.7885 12.3265H19.3411C19.7928 12.3265 20.099 11.8673 19.9236 11.4517L18.2958 7.59002C18.1972 7.35598 17.9676 7.20389 17.7133 7.20389H13.7886C13.4397 7.20389 13.1565 7.48644 13.1565 7.83454L13.1564 11.6959Z" fill="white"/>
<path d="M13.4962 19.9921C13.4962 21.3168 14.5725 22.3906 15.9002 22.3906C17.2279 22.3906 18.3044 21.3168 18.3044 19.9921C18.3044 18.6674 17.2279 17.5934 15.9002 17.5934C14.5724 17.5934 13.4962 18.6675 13.4962 19.9921Z" fill="white"/>
</g>
</svg>
