<svg width="25" height="25" viewBox="0 0 25 25" fill="none" xmlns="http://www.w3.org/2000/svg">
<g opacity="0.5">
<path fill-rule="evenodd" clip-rule="evenodd" d="M12.5 22.9167C18.2529 22.9167 22.9166 18.253 22.9166 12.5C22.9166 6.74704 18.2529 2.08334 12.5 2.08334C6.74701 2.08334 2.08331 6.74704 2.08331 12.5C2.08331 18.253 6.74701 22.9167 12.5 22.9167ZM9.51558 16.8031C9.71596 17.0034 9.97967 17.1043 10.2426 17.1043C10.5045 17.1043 10.7691 17.0043 10.9701 16.8024L18.122 9.65062C18.5235 9.24911 18.5235 8.59815 18.122 8.19664C17.7205 7.79514 17.0695 7.79514 16.668 8.19664L10.2426 14.6221L8.33385 12.7134C7.93235 12.3119 7.28139 12.3119 6.87988 12.7134C6.47838 13.1149 6.47838 13.7659 6.87988 14.1674L9.51558 16.8031Z" fill="white"/>
</g>
</svg>
