<svg width="25" height="25" viewBox="0 0 25 25" fill="none" xmlns="http://www.w3.org/2000/svg">
<g opacity="0.5">
<path d="M10 2.5C9.07919 2.5 8.33336 3.24583 8.33336 4.16667V4.17155C7.21211 4.19532 6.23207 4.96847 5.95868 6.05957L5.00002 9.89746V10V10.8333V13.3333H6.66669V12.5C6.66669 12.04 7.04002 11.6667 7.50002 11.6667H8.33336C8.79336 11.6667 9.16669 12.04 9.16669 12.5V13.3333H15.8334V12.5C15.8334 12.04 16.2067 11.6667 16.6667 11.6667H17.5C17.96 11.6667 18.3334 12.04 18.3334 12.5V13.3333H20V10.8333V10V9.89746L19.0414 6.0612C18.7689 4.96888 17.7886 4.19463 16.6667 4.17155V4.16667C16.6667 3.24583 15.9209 2.5 15 2.5H10ZM8.38544 5.83333H16.6162C17.003 5.83333 17.3301 6.09043 17.4235 6.46484L18.3073 10H6.69273L7.57652 6.46484C7.67051 6.08974 7.99868 5.83333 8.38544 5.83333ZM3.32033 8.32194C3.09961 8.32539 2.88926 8.41627 2.73547 8.57464C2.58168 8.73301 2.497 8.94593 2.50002 9.16667V10.8333C2.49846 10.9438 2.51886 11.0534 2.56004 11.1559C2.60122 11.2583 2.66235 11.3516 2.73989 11.4303C2.81743 11.5089 2.90982 11.5713 3.0117 11.614C3.11358 11.6566 3.22292 11.6785 3.33336 11.6785C3.44379 11.6785 3.55313 11.6566 3.65501 11.614C3.75689 11.5713 3.84929 11.5089 3.92682 11.4303C4.00436 11.3516 4.06549 11.2583 4.10667 11.1559C4.14785 11.0534 4.16825 10.9438 4.16669 10.8333V9.16667C4.16822 9.05518 4.14735 8.94451 4.10534 8.84123C4.06333 8.73794 4.00102 8.64414 3.9221 8.56537C3.84318 8.48661 3.74926 8.42448 3.64589 8.38266C3.54253 8.34085 3.43182 8.3202 3.32033 8.32194V8.32194ZM21.6537 8.32194C21.4329 8.32539 21.2226 8.41627 21.0688 8.57464C20.915 8.73301 20.8303 8.94593 20.8334 9.16667V10.8333C20.8318 10.9438 20.8522 11.0534 20.8934 11.1559C20.9346 11.2583 20.9957 11.3516 21.0732 11.4303C21.1508 11.5089 21.2432 11.5713 21.345 11.614C21.4469 11.6566 21.5563 11.6785 21.6667 11.6785C21.7771 11.6785 21.8865 11.6566 21.9883 11.614C22.0902 11.5713 22.1826 11.5089 22.2602 11.4303C22.3377 11.3516 22.3988 11.2583 22.44 11.1559C22.4812 11.0534 22.5016 10.9438 22.5 10.8333V9.16667C22.5015 9.05518 22.4807 8.94451 22.4387 8.84123C22.3967 8.73794 22.3343 8.64414 22.2554 8.56537C22.1765 8.48661 22.0826 8.42448 21.9792 8.38266C21.8759 8.34085 21.7652 8.3202 21.6537 8.32194ZM4.16669 15C3.97702 14.9999 3.79299 15.0646 3.64503 15.1832C3.49706 15.3019 3.39401 15.4675 3.35289 15.6527L3.35126 15.6592C3.34935 15.6716 3.34772 15.6841 3.34638 15.6966L2.53095 20.6055L2.53257 20.6071C2.51138 20.6807 2.50043 20.7568 2.50002 20.8333C2.50002 21.0543 2.58782 21.2663 2.7441 21.4226C2.90038 21.5789 3.11234 21.6667 3.33336 21.6667H21.6667C21.8877 21.6667 22.0997 21.5789 22.2559 21.4226C22.4122 21.2663 22.5 21.0543 22.5 20.8333C22.4996 20.7568 22.4887 20.6807 22.4675 20.6071L22.4691 20.6055L21.6585 15.7259C21.6565 15.7068 21.6538 15.6878 21.6504 15.6689L21.6472 15.6527L21.6455 15.651C21.6041 15.4665 21.5012 15.3014 21.3536 15.1831C21.206 15.0648 21.0225 15.0002 20.8334 15H4.16669Z" fill="white"/>
</g>
</svg>
