<svg id="Layer_1" data-name="Layer 1" xmlns="http://www.w3.org/2000/svg" viewBox="0 0 60 60"><defs><style>.cls-1{fill:#0680f1;}.cls-2{fill:#379fff;}.cls-3{fill:#5bb0ff;}.cls-4{fill:#006bce;}</style></defs><path class="cls-1" d="M20.91,8.92l.75-2.33A2.28,2.28,0,0,1,23.81,5H36.38a2.26,2.26,0,0,1,2.14,1.59l.76,2.33A2.32,2.32,0,0,1,37.13,12H23.05A2.31,2.31,0,0,1,20.91,8.92Z"/><path class="cls-2" d="M26.6,12H24.28v4.65H26.6Z"/><path class="cls-2" d="M35.91,12H33.58v4.65h2.33Z"/><path class="cls-3" d="M46.16,29.12l-2.53-8.41a5.62,5.62,0,0,0-5.34-4.08H21.9a5.62,5.62,0,0,0-5.34,4.08L14,29.12c-1.22,4-1.63,6-1.23,10.16l.51,5.25,2.83,2.33H44.05l2.83-2.33.5-5.25C47.79,35.08,47.37,33.15,46.16,29.12Z"/><path class="cls-1" d="M42.89,55H17.3a3.19,3.19,0,0,1-1.36-.31L10,51.78A2.73,2.73,0,0,1,8.5,49.72L8,46.49a2.81,2.81,0,0,1,2.9-3.12,6.09,6.09,0,0,1,4,1.45l.55.47a3,3,0,0,0,2.61.66,58.25,58.25,0,0,1,12-1.42A58.27,58.27,0,0,1,42.14,46a3,3,0,0,0,2.61-.66l.55-.47a6.07,6.07,0,0,1,4-1.45,2.82,2.82,0,0,1,2.9,3.12l-.47,3.23a2.75,2.75,0,0,1-1.54,2.06l-5.91,2.91A3.14,3.14,0,0,1,42.89,55Z"/><path class="cls-4" d="M39.4,41.05H37.07c0-5.31-1.33-14.49-2.08-15.57-.92-1.18-3-1.92-5.16-1.87s-3.82.74-4.61,1.84-2.1,10.34-2.1,15.6H20.79c0-4.42,1.18-15.06,2.55-17,1.22-1.7,3.63-2.75,6.45-2.81s5.65,1,7,2.77S39.4,37,39.4,41.05Z"/><path class="cls-4" d="M19.59,45.64V55H17.27V46a3,3,0,0,0,.78-.06C18.51,45.86,19,45.74,19.59,45.64Z"/><path class="cls-4" d="M42.88,46v9H40.56V45.63l1.58.32A3.09,3.09,0,0,0,42.88,46Z"/></svg>