<svg id="Layer_1" data-name="Layer 1" xmlns="http://www.w3.org/2000/svg" viewBox="0 0 60 60"><defs><style>.cls-1{fill:#1c92ff;}.cls-2{fill:#e2f1ff;}.cls-3{fill:#003b71;}.cls-4{fill:#007aea;}.cls-5{fill:#5bb0ff;}.cls-6{fill:#6eb9ff;}</style></defs><path class="cls-1" d="M55,30A25,25,0,1,1,30,5,25,25,0,0,1,55,30Z"/><path class="cls-2" d="M50,30A20,20,0,1,1,30,10,20,20,0,0,1,50,30Z"/><path class="cls-3" d="M28.1,26.77a3.74,3.74,0,0,0-1.32,5.14A3.81,3.81,0,0,0,32,33.26a3.73,3.73,0,0,0,1.31-5.14A3.8,3.8,0,0,0,28.1,26.77Z"/><path class="cls-3" d="M44.13,21.81,32.41,31.55l-2.58-4.33Z"/><path class="cls-4" d="M10.06,31.27H15V28.75H10.06c0,.42-.06.83-.06,1.25S10,30.85,10.06,31.27ZM13,40.5l4.36-2.33L16.18,36l-4.37,2.33A21.55,21.55,0,0,0,13,40.5Z"/><path class="cls-5" d="M21.47,17.6l2.19-1.25-2.45-4.3A20.61,20.61,0,0,0,19,13.3Zm-9.38,3.53,4.29,2.48,1.26-2.19-4.3-2.48A22.5,22.5,0,0,0,12.09,21.13ZM45,31.25h4.95c0-.42.06-.83.06-1.25s0-.85-.06-1.27H45v2.52ZM48.34,38l-4.41-2.26L42.77,38l4.4,2.26A19.81,19.81,0,0,0,48.34,38ZM39,12.16,36.5,16.43l2.18,1.28,2.52-4.28A21.53,21.53,0,0,0,39,12.16Zm-7.76-2.1C30.83,10,30.42,10,30,10s-.85,0-1.28.06V15h2.53Z"/><path class="cls-6" d="M29.39,28.93a1.26,1.26,0,1,0,1.29,2.16,1.24,1.24,0,0,0,.44-1.71A1.27,1.27,0,0,0,29.39,28.93Z"/></svg>