<svg id="Layer_1" data-name="Layer 1" xmlns="http://www.w3.org/2000/svg" viewBox="0 0 60 60"><defs><style>.cls-1{fill:#319cff;}.cls-2{fill:#8ac7ff;}.cls-3{fill:#0054a1;}.cls-4{fill:#006acc;}</style></defs><path class="cls-1" d="M30,5A25,25,0,1,0,55,30,25,25,0,0,0,30,5Zm0,42.5A17.5,17.5,0,1,1,47.5,30,17.5,17.5,0,0,1,30,47.5Z"/><path class="cls-2" d="M35,30a5,5,0,1,1-5-5A5,5,0,0,1,35,30Z"/><path class="cls-2" d="M30.66,28.93l-1.33,2.12-15.1-6.49,4-6.36Zm-1.32,2.12,1.32-2.11,15.11,6.49-4,6.36Z"/><path class="cls-2" d="M29.34,28.93l1.32,2.12,15.11-6.49-4-6.36Zm1.32,2.12-1.33-2.11-15.1,6.49,4,6.36Z"/><path class="cls-2" d="M31.25,30h-2.5l-2.5-16.25h7.5Zm-2.5,0h2.5l2.5,16.25h-7.5Z"/><path class="cls-1" d="M30,13.75A16.25,16.25,0,1,1,13.75,30,16.25,16.25,0,0,1,30,13.75Zm0-2.5A18.75,18.75,0,1,0,48.75,30,18.77,18.77,0,0,0,30,11.25Z"/><path class="cls-3" d="M32.5,30A2.5,2.5,0,1,1,30,27.5,2.5,2.5,0,0,1,32.5,30Z"/><path class="cls-4" d="M20.82,9.47l-1-2.28c-.4.18-.8.37-1.19.57l-.73.38-.41.25,1.26,2.16A19.79,19.79,0,0,1,20.82,9.47ZM25.34,8l-.57-2.44c-.84.18-1.67.41-2.48.67l.77,2.38A22.54,22.54,0,0,1,25.34,8ZM30,7.49h.05V5H29.9a22.76,22.76,0,0,0-2.48.13l.26,2.48C28.44,7.54,29.22,7.49,30,7.49ZM13.24,15l-1.87-1.65c-.13.14-.26.27-.38.42s-.38.45-.56.68-.47.62-.7.94l2,1.46A21.92,21.92,0,0,1,13.24,15Zm3.49-3.17-1.47-2c-.18.12-.35.25-.51.38-.4.3-.78.62-1.15.94l-.38.34,1.68,1.85A22.12,22.12,0,0,1,16.73,11.85Zm-6.26,7L8.29,17.62c-.07.13-.15.24-.22.37L8,18.11H8v0a0,0,0,0,1,0,0H8c-.31.58-.59,1.17-.85,1.77L9.4,21A23.36,23.36,0,0,1,10.47,18.85ZM8.56,23.18l-2.38-.76a1.17,1.17,0,0,1,0,.11v0a0,0,0,0,1,0,0h0C6,23,5.9,23.4,5.8,23.8s-.21.77-.29,1.16l2.44.5C8.12,24.68,8.32,23.92,8.56,23.18Zm30-14,1-2.31-.63-.23c-.55-.21-1.1-.41-1.67-.59L37,6l-.7,2.4A20.94,20.94,0,0,1,38.53,9.18ZM51.2,22.51l2.35-.83c-.11-.34-.23-.67-.36-1-.07-.18-.14-.36-.22-.54s-.28-.59-.42-.89l-2.26,1.07A23.45,23.45,0,0,1,51.2,22.51Zm-2-4.26,2.13-1.31c-.08-.14-.16-.28-.25-.41-.28-.44-.57-.85-.87-1.26l-.37-.5-2,1.53A20.37,20.37,0,0,1,49.16,18.25ZM34,7.87l.44-2.46c-.58-.1-1.16-.2-1.75-.27h-.28l-.23,0c-.11,0-.23,0-.34,0l-.19,2.49A22.85,22.85,0,0,1,34,7.87ZM52.29,27.1l2.48-.32c-.07-.56-.14-1.11-.25-1.65,0-.13-.05-.25-.08-.37s-.1-.38-.15-.57l-2.42.58A22.24,22.24,0,0,1,52.29,27.1ZM7.5,30c0-.74,0-1.47.11-2.19l-2.49-.24c-.07.76-.11,1.54-.11,2.32H5s0,0,0,0,0,.13,0,.19l2.5,0C7.51,30.11,7.5,30.06,7.5,30ZM46.29,14.5l1.8-1.73-.25-.27c-.12-.13-.25-.26-.38-.38-.41-.4-.83-.78-1.27-1.15l-1.62,1.9C45.17,13.38,45.74,13.93,46.29,14.5Zm-3.6-3.08,1.42-2.06,0,0-.23-.15c-.51-.35-1-.66-1.58-1L41.87,8h0l-1.18,2.2A23,23,0,0,1,42.69,11.42Zm.87,36.5,1.5,2c.27-.2.54-.39.79-.6l.07,0c.4-.33.78-.69,1.16-1.05L45.37,46.4A21.73,21.73,0,0,1,43.56,47.92ZM7.65,32.54l-2.48.28c.07.63.17,1.25.28,1.86l.09.47c0,.09,0,.18.07.26l2.44-.53A22.86,22.86,0,0,1,7.65,32.54ZM47,44.7l1.89,1.63.22-.24q.42-.51.81-1.05c.2-.26.4-.51.58-.78l-2-1.43C48,43.48,47.52,44.1,47,44.7Zm4.53-8.23,2.4.72c.07-.25.13-.51.19-.76.14-.52.28-1,.39-1.57l0-.23-2.45-.46A22,22,0,0,1,51.54,36.47Zm-1.82,4.36L51.91,42,52,42c.39-.73.75-1.48,1.08-2.24a.08.08,0,0,1,0,0l-2.31-1A23.21,23.21,0,0,1,49.72,40.83ZM55,29.4l-2.5.06c0,.18,0,.35,0,.54,0,.61,0,1.22-.09,1.83l2.49.2c.05-.67.1-1.35.1-2C55,29.79,55,29.6,55,29.4ZM35.05,51.9l.56,2.44.79-.2c.48-.13,1-.25,1.42-.41l.31-.11-.81-2.37A19.07,19.07,0,0,1,35.05,51.9Zm4.46-1.54,1.06,2.27c.33-.16.66-.31,1-.48l.55-.28c.27-.15.53-.33.79-.49l-1.3-2.13A19.7,19.7,0,0,1,39.51,50.36Zm-26-5.13-1.84,1.69a23.32,23.32,0,0,0,1.88,1.84l1.64-1.88A21.8,21.8,0,0,1,13.48,45.23Zm-2.83-3.79L8.5,42.71c.45.76.94,1.48,1.46,2.19l2-1.5A21.56,21.56,0,0,1,10.65,41.44Zm-2-4.29-2.37.79a26,26,0,0,0,1,2.45l2.27-1C9.23,38.63,8.93,37.9,8.68,37.15ZM21.14,50.68l-1,2.29.07,0c.65.27,1.33.51,2,.74l.39.13.73-2.39A20.79,20.79,0,0,1,21.14,50.68Zm4.51,1.39-.48,2.45c.72.14,1.44.26,2.18.33l.12,0h.3L28,52.39A22,22,0,0,1,25.65,52.07Zm4.71.41,0,2.49c.68,0,1.35,0,2-.1l.24,0c.12,0,.24,0,.36-.06l-.3-2.48A22.79,22.79,0,0,1,30.36,52.48ZM17,48.35l-1.45,2,.39.29.17.11c.54.36,1.09.69,1.65,1L19,49.62A21.64,21.64,0,0,1,17,48.35Z"/></svg>