<svg id="Layer_1" data-name="Layer 1" xmlns="http://www.w3.org/2000/svg" viewBox="0 0 60 60"><defs><style>.cls-1{fill:#b3dbff;}.cls-2{fill:#39a0ff;}.cls-3{fill:#82c3ff;}.cls-4{fill:#2395ff;}.cls-5{fill:#aed8ff;}.cls-6{fill:#0067c6;}</style></defs><path class="cls-1" d="M27.71,13V6.75A1.24,1.24,0,0,0,26.47,5.5h-5a1.25,1.25,0,0,0-1.25,1.25V13Z"/><path class="cls-2" d="M26,16H22a8,8,0,0,0-8,8V56.75A1.25,1.25,0,0,0,15.25,58H32.7A1.25,1.25,0,0,0,34,56.75V24A8,8,0,0,0,26,16Z"/><path class="cls-3" d="M31.45,16.75A1.24,1.24,0,0,1,30.21,18H17.74a1.25,1.25,0,1,1,0-2.5H30.21A1.24,1.24,0,0,1,31.45,16.75Zm-6.23-7.5a2.5,2.5,0,0,0,2.49,2.5v-5A2.5,2.5,0,0,0,25.22,9.25Z"/><path class="cls-4" d="M22.73,13h2.49v2.5H22.73Zm3.74-3.75a1.24,1.24,0,0,0,1.24,1.25V8A1.24,1.24,0,0,0,26.47,9.25Z"/><path class="cls-5" d="M33.32,8a1.88,1.88,0,0,0,0,3.75,1.9,1.9,0,0,0,1.33-.55,1.9,1.9,0,0,0,0-2.65A1.9,1.9,0,0,0,33.32,8Zm5-2.5a2,2,0,0,0-.72.14,2.06,2.06,0,0,0-.6.41,1.82,1.82,0,0,0-.41.61,1.9,1.9,0,0,0,0,1.43A1.82,1.82,0,0,0,37,8.7a2.06,2.06,0,0,0,.6.41,1.92,1.92,0,0,0,1.44,0,2.06,2.06,0,0,0,.6-.41A1.82,1.82,0,0,0,40,8.09a1.9,1.9,0,0,0,0-1.43,1.82,1.82,0,0,0-.41-.61,2.06,2.06,0,0,0-.6-.41A2,2,0,0,0,38.31,5.5Zm0,5a1.86,1.86,0,0,0-1.32.55,1.87,1.87,0,0,0,0,2.65,1.87,1.87,0,0,0,3.19-1.32,1.88,1.88,0,0,0-.55-1.33A1.86,1.86,0,0,0,38.31,10.5Zm5,2.5a1.88,1.88,0,1,0,1.32.55A1.88,1.88,0,0,0,43.3,13Zm0-10a2,2,0,0,0-.72.14,2.11,2.11,0,0,0-.61.41,1.8,1.8,0,0,0-.4.61,1.75,1.75,0,0,0-.14.72,1.73,1.73,0,0,0,.14.71,1.8,1.8,0,0,0,.4.61,2.11,2.11,0,0,0,.61.41,2,2,0,0,0,.72.14A1.91,1.91,0,0,0,44,6.61a2,2,0,0,0,.61-.41,1.8,1.8,0,0,0,.4-.61,1.78,1.78,0,0,0,0-1.43,1.8,1.8,0,0,0-.4-.61A2,2,0,0,0,44,3.14,1.91,1.91,0,0,0,43.3,3Zm0,5a1.88,1.88,0,1,0,1.32.55A1.88,1.88,0,0,0,43.3,8Z"/><path class="cls-6" d="M14,46.74a12.65,12.65,0,0,1,5-1.24,12.39,12.39,0,0,1,4.75,1.21A13.74,13.74,0,0,0,29,48a13,13,0,0,0,5-1.21V45.46l-.24.08A12.39,12.39,0,0,1,29,46.75a12.39,12.39,0,0,1-4.75-1.21A13.74,13.74,0,0,0,19,44.25a13.25,13.25,0,0,0-5,1.13Zm20,10V54.06l-.93.37A11,11,0,0,1,29,55.5a11,11,0,0,1-4.06-1.07A15.29,15.29,0,0,0,19,53a14.34,14.34,0,0,0-5,1v2.76A1.25,1.25,0,0,0,15.25,58H32.7A1.25,1.25,0,0,0,34,56.75ZM23.51,51.66A14.06,14.06,0,0,0,29,53a13,13,0,0,0,5-1.16V49.16l-.47.18A11.85,11.85,0,0,1,29,50.5a11.85,11.85,0,0,1-4.52-1.16A14.06,14.06,0,0,0,19,48a13.57,13.57,0,0,0-5,1.08V51.8a12.23,12.23,0,0,1,5-1.3A11.9,11.9,0,0,1,23.51,51.66Z"/></svg>