<svg width="570" height="560" viewBox="0 0 570 560" fill="none" xmlns="http://www.w3.org/2000/svg">
<mask id="mask0_1127_214364" style="mask-type:alpha" maskUnits="userSpaceOnUse" x="245" y="264" width="64" height="83">
<path d="M245 264V347H309V264H245Z" fill="#C4C4C4"/>
</mask>
<g mask="url(#mask0_1127_214364)">
<line y1="-0.5" x2="286.681" y2="-0.5" transform="matrix(-0.498226 0.867047 -0.864997 -0.501776 317.516 93.9648)" stroke="#148EFF"/>
<line y1="-0.5" x2="286.681" y2="-0.5" transform="matrix(-0.498226 0.867047 -0.864997 -0.501776 321.348 96.9053)" stroke="#148EFF"/>
<line y1="-0.5" x2="286.681" y2="-0.5" transform="matrix(-0.498226 0.867047 -0.864997 -0.501776 325.18 99.8467)" stroke="#148EFF"/>
<line y1="-0.5" x2="286.681" y2="-0.5" transform="matrix(-0.498226 0.867047 -0.864997 -0.501776 329.012 102.787)" stroke="#148EFF"/>
<line y1="-0.5" x2="286.681" y2="-0.5" transform="matrix(-0.498226 0.867047 -0.864998 -0.501776 332.844 105.728)" stroke="#148EFF"/>
<line y1="-0.5" x2="286.681" y2="-0.5" transform="matrix(-0.498226 0.867047 -0.864998 -0.501776 336.676 108.669)" stroke="#148EFF"/>
<line y1="-0.5" x2="286.681" y2="-0.5" transform="matrix(-0.498226 0.867047 -0.864997 -0.501776 340.508 111.609)" stroke="#148EFF"/>
<line y1="-0.5" x2="286.681" y2="-0.5" transform="matrix(-0.498226 0.867047 -0.864998 -0.501776 344.34 114.55)" stroke="#148EFF"/>
<line y1="-0.5" x2="286.681" y2="-0.5" transform="matrix(-0.498226 0.867047 -0.864997 -0.501776 348.172 117.491)" stroke="#148EFF"/>
<line y1="-0.5" x2="286.681" y2="-0.5" transform="matrix(-0.498226 0.867047 -0.864997 -0.501776 352.004 120.432)" stroke="#148EFF"/>
<line y1="-0.5" x2="286.681" y2="-0.5" transform="matrix(-0.498226 0.867047 -0.864997 -0.501776 355.836 123.372)" stroke="#148EFF"/>
<line y1="-0.5" x2="286.681" y2="-0.5" transform="matrix(-0.498226 0.867047 -0.864997 -0.501776 359.668 126.313)" stroke="#148EFF"/>
<line y1="-0.5" x2="286.681" y2="-0.5" transform="matrix(-0.498226 0.867047 -0.864998 -0.501776 363.5 129.254)" stroke="#148EFF"/>
<line y1="-0.5" x2="286.681" y2="-0.5" transform="matrix(-0.498226 0.867047 -0.864997 -0.501776 367.332 132.195)" stroke="#148EFF"/>
<line y1="-0.5" x2="286.681" y2="-0.5" transform="matrix(-0.498226 0.867047 -0.864998 -0.501776 371.164 135.136)" stroke="#148EFF"/>
<line y1="-0.5" x2="286.681" y2="-0.5" transform="matrix(-0.498226 0.867047 -0.864997 -0.501776 374.996 138.076)" stroke="#148EFF"/>
<line y1="-0.5" x2="286.681" y2="-0.5" transform="matrix(-0.498226 0.867047 -0.864998 -0.501776 378.828 141.018)" stroke="#148EFF"/>
<line y1="-0.5" x2="286.681" y2="-0.5" transform="matrix(-0.498226 0.867047 -0.864998 -0.501776 382.66 143.958)" stroke="#148EFF"/>
<line y1="-0.5" x2="286.681" y2="-0.5" transform="matrix(-0.498226 0.867047 -0.864997 -0.501776 386.492 146.898)" stroke="#148EFF"/>
<line y1="-0.5" x2="286.681" y2="-0.5" transform="matrix(-0.498226 0.867047 -0.864998 -0.501776 390.324 149.84)" stroke="#148EFF"/>
<line y1="-0.5" x2="286.681" y2="-0.5" transform="matrix(-0.498226 0.867047 -0.864997 -0.501776 394.156 152.78)" stroke="#148EFF"/>
<line y1="-0.5" x2="286.681" y2="-0.5" transform="matrix(-0.498226 0.867047 -0.864997 -0.501776 397.988 155.721)" stroke="#148EFF"/>
<line y1="-0.5" x2="286.681" y2="-0.5" transform="matrix(-0.498226 0.867047 -0.864997 -0.501776 401.82 158.662)" stroke="#148EFF"/>
<line y1="-0.5" x2="286.681" y2="-0.5" transform="matrix(-0.498226 0.867047 -0.864997 -0.501776 405.652 161.603)" stroke="#148EFF"/>
<line y1="-0.5" x2="286.681" y2="-0.5" transform="matrix(-0.498226 0.867047 -0.864997 -0.501776 409.484 164.543)" stroke="#148EFF"/>
<line y1="-0.5" x2="286.681" y2="-0.5" transform="matrix(-0.498226 0.867047 -0.864997 -0.501776 413.316 167.484)" stroke="#148EFF"/>
<line y1="-0.5" x2="286.681" y2="-0.5" transform="matrix(-0.498226 0.867047 -0.864997 -0.501776 417.148 170.425)" stroke="#148EFF"/>
<line y1="-0.5" x2="286.681" y2="-0.5" transform="matrix(-0.498226 0.867047 -0.864998 -0.501776 420.98 173.365)" stroke="#148EFF"/>
<line y1="-0.5" x2="286.681" y2="-0.5" transform="matrix(-0.498226 0.867047 -0.864998 -0.501776 424.812 176.307)" stroke="#148EFF"/>
<line y1="-0.5" x2="286.681" y2="-0.5" transform="matrix(-0.498226 0.867047 -0.864997 -0.501776 428.645 179.247)" stroke="#148EFF"/>
<line y1="-0.5" x2="286.681" y2="-0.5" transform="matrix(-0.498226 0.867047 -0.864997 -0.501776 432.477 182.188)" stroke="#148EFF"/>
<line y1="-0.5" x2="286.681" y2="-0.5" transform="matrix(-0.498226 0.867047 -0.864998 -0.501776 436.309 185.129)" stroke="#148EFF"/>
<line y1="-0.5" x2="286.681" y2="-0.5" transform="matrix(-0.498226 0.867047 -0.864997 -0.501776 440.141 188.069)" stroke="#148EFF"/>
<line y1="-0.5" x2="286.681" y2="-0.5" transform="matrix(-0.498226 0.867047 -0.864998 -0.501776 443.973 191.01)" stroke="#148EFF"/>
<line y1="-0.5" x2="286.681" y2="-0.5" transform="matrix(-0.498226 0.867047 -0.864997 -0.501776 447.805 193.951)" stroke="#148EFF"/>
<line y1="-0.5" x2="286.681" y2="-0.5" transform="matrix(-0.498226 0.867047 -0.864997 -0.501776 451.637 196.892)" stroke="#148EFF"/>
</g>
<g clip-path="url(#clip0_1127_214364)">
<mask id="mask1_1127_214364" style="mask-type:alpha" maskUnits="userSpaceOnUse" x="308" y="264" width="41" height="83">
<path d="M348.48 347V264H308.48V347H348.48Z" fill="#C4C4C4"/>
</mask>
<g mask="url(#mask1_1127_214364)">
<line y1="-0.5" x2="286.681" y2="-0.5" transform="matrix(-0.498226 0.867047 -0.864997 -0.501776 381.516 89)" stroke="#ED5835"/>
<line y1="-0.5" x2="286.681" y2="-0.5" transform="matrix(-0.498226 0.867047 -0.864997 -0.501776 385.348 91.9404)" stroke="#ED5835"/>
<line y1="-0.5" x2="286.681" y2="-0.5" transform="matrix(-0.498226 0.867047 -0.864997 -0.501776 389.18 94.8818)" stroke="#ED5835"/>
<line y1="-0.5" x2="286.681" y2="-0.5" transform="matrix(-0.498226 0.867047 -0.864997 -0.501776 393.012 97.8223)" stroke="#ED5835"/>
<line y1="-0.5" x2="286.681" y2="-0.5" transform="matrix(-0.498226 0.867047 -0.864998 -0.501776 396.844 100.763)" stroke="#ED5835"/>
<line y1="-0.5" x2="286.681" y2="-0.5" transform="matrix(-0.498226 0.867047 -0.864998 -0.501776 400.676 103.704)" stroke="#ED5835"/>
<line y1="-0.5" x2="286.681" y2="-0.5" transform="matrix(-0.498226 0.867047 -0.864997 -0.501776 404.508 106.645)" stroke="#ED5835"/>
<line y1="-0.5" x2="286.681" y2="-0.5" transform="matrix(-0.498226 0.867047 -0.864998 -0.501776 408.34 109.585)" stroke="#ED5835"/>
<line y1="-0.5" x2="286.681" y2="-0.5" transform="matrix(-0.498226 0.867047 -0.864997 -0.501776 412.172 112.526)" stroke="#ED5835"/>
<line y1="-0.5" x2="286.681" y2="-0.5" transform="matrix(-0.498226 0.867047 -0.864997 -0.501776 416.004 115.467)" stroke="#ED5835"/>
<line y1="-0.5" x2="286.681" y2="-0.5" transform="matrix(-0.498226 0.867047 -0.864997 -0.501776 419.836 118.407)" stroke="#ED5835"/>
<line y1="-0.5" x2="286.681" y2="-0.5" transform="matrix(-0.498226 0.867047 -0.864997 -0.501776 423.668 121.349)" stroke="#ED5835"/>
<line y1="-0.5" x2="286.681" y2="-0.5" transform="matrix(-0.498226 0.867047 -0.864998 -0.501776 427.5 124.289)" stroke="#ED5835"/>
<line y1="-0.5" x2="286.681" y2="-0.5" transform="matrix(-0.498226 0.867047 -0.864997 -0.501776 431.332 127.23)" stroke="#ED5835"/>
<line y1="-0.5" x2="286.681" y2="-0.5" transform="matrix(-0.498226 0.867047 -0.864998 -0.501776 435.164 130.171)" stroke="#ED5835"/>
<line y1="-0.5" x2="286.681" y2="-0.5" transform="matrix(-0.498226 0.867047 -0.864997 -0.501776 438.996 133.111)" stroke="#ED5835"/>
<line y1="-0.5" x2="286.681" y2="-0.5" transform="matrix(-0.498226 0.867047 -0.864998 -0.501776 442.828 136.053)" stroke="#ED5835"/>
<line y1="-0.5" x2="286.681" y2="-0.5" transform="matrix(-0.498226 0.867047 -0.864998 -0.501776 446.66 138.993)" stroke="#ED5835"/>
<line y1="-0.5" x2="286.681" y2="-0.5" transform="matrix(-0.498226 0.867047 -0.864997 -0.501776 450.492 141.934)" stroke="#ED5835"/>
<line y1="-0.5" x2="286.681" y2="-0.5" transform="matrix(-0.498226 0.867047 -0.864998 -0.501776 454.324 144.875)" stroke="#ED5835"/>
<line y1="-0.5" x2="286.681" y2="-0.5" transform="matrix(-0.498226 0.867047 -0.864997 -0.501776 458.156 147.815)" stroke="#ED5835"/>
<line y1="-0.5" x2="286.681" y2="-0.5" transform="matrix(-0.498226 0.867047 -0.864997 -0.501776 461.988 150.756)" stroke="#ED5835"/>
<line y1="-0.5" x2="286.681" y2="-0.5" transform="matrix(-0.498226 0.867047 -0.864997 -0.501776 465.82 153.697)" stroke="#ED5835"/>
<line y1="-0.5" x2="286.681" y2="-0.5" transform="matrix(-0.498226 0.867047 -0.864997 -0.501776 469.652 156.638)" stroke="#ED5835"/>
<line y1="-0.5" x2="286.681" y2="-0.5" transform="matrix(-0.498226 0.867047 -0.864997 -0.501776 473.484 159.578)" stroke="#ED5835"/>
<line y1="-0.5" x2="286.681" y2="-0.5" transform="matrix(-0.498226 0.867047 -0.864997 -0.501776 477.316 162.52)" stroke="#ED5835"/>
<line y1="-0.5" x2="286.681" y2="-0.5" transform="matrix(-0.498226 0.867047 -0.864997 -0.501776 481.148 165.46)" stroke="#ED5835"/>
<line y1="-0.5" x2="286.681" y2="-0.5" transform="matrix(-0.498226 0.867047 -0.864998 -0.501776 484.98 168.4)" stroke="#ED5835"/>
<line y1="-0.5" x2="286.681" y2="-0.5" transform="matrix(-0.498226 0.867047 -0.864998 -0.501776 488.812 171.342)" stroke="#ED5835"/>
</g>
</g>
<path d="M328.746 81.9943L329.386 82.7624L330.13 82.1419L329.534 81.3784L328.746 81.9943ZM113.969 261.041L113.177 261.651L113.812 262.474L114.61 261.809L113.969 261.041ZM92.9758 233.809L92.1839 234.42L92.184 234.42L92.9758 233.809ZM76.9158 212.985L76.1232 213.595L76.124 213.596L76.9158 212.985ZM75.9734 197.087L76.8305 197.602L76.8306 197.602L75.9734 197.087ZM78.6832 192.578L79.5403 193.093L80.0329 192.273L79.2363 191.744L78.6832 192.578ZM66.9831 184.812L66.3495 184.038L65.3018 184.896L66.43 185.645L66.9831 184.812ZM275.593 14L276.381 13.3841L275.751 12.5783L274.959 13.2263L275.593 14ZM244.415 347.67L243.426 347.818L243.553 348.67H244.415V347.67ZM241.848 330.958L242.821 330.728L242.821 330.728L241.848 330.958ZM186.211 304.596L185.798 303.685L185.798 303.685L186.211 304.596ZM164.255 336.868L163.26 336.77L163.259 336.78L163.258 336.791L164.255 336.868ZM164.089 346.329L165.088 346.308L165.088 346.297L165.088 346.287L164.089 346.329ZM156.579 353.825L156.666 352.829H156.666L156.579 353.825ZM123.379 350.166H122.379V351.059L123.267 351.159L123.379 350.166ZM123.379 327.128H124.379V326.128H123.379V327.128ZM101.942 327.128H100.942V328.128H101.942V327.128ZM101.942 264.03V263.03H100.942V264.03H101.942ZM403.087 264.03V265.03H404.087V264.03H403.087ZM403.087 175.986V174.986H402.087V175.986H403.087ZM424.772 175.986L425.756 175.807L425.607 174.986H424.772V175.986ZM433.257 215.23L434.257 215.245V215.245L433.257 215.23ZM432.947 297.604L433.947 297.61V297.607L432.947 297.604ZM432.944 301.352L432.99 302.351L433.944 302.307V301.352H432.944ZM428.424 301.552L428.422 300.552H428.422L428.424 301.552ZM387.881 301.487L387.928 300.488L387.919 300.487L387.91 300.487L387.881 301.487ZM351.079 331.909L352.059 332.108L352.062 332.091L352.065 332.074L351.079 331.909ZM349.07 347.67V348.67H349.954L350.062 347.793L349.07 347.67ZM525.986 373.419V374.419H526.929L526.984 373.477L525.986 373.419ZM491.146 373.422L491.147 374.422H491.147L491.146 373.422ZM426.864 373.314L426.776 374.31L426.812 374.313L426.848 374.314L426.864 373.314ZM412.213 370.08L412.552 369.14L412.521 369.129L412.489 369.119L412.213 370.08ZM412.744 363.594L412.226 362.739L412.225 362.739L412.744 363.594ZM433.412 351.096L434.001 351.904L434.013 351.896L433.412 351.096ZM470.837 340.661L470.736 341.656L470.746 341.657L470.756 341.658L470.837 340.661ZM510.532 340.868L510.547 341.868L510.609 341.867L510.669 341.858L510.532 340.868ZM517.419 345.115L516.474 345.441L516.488 345.482L516.506 345.522L517.419 345.115ZM10 256.54L9.11656 256.071L8.6341 256.981L9.55751 257.437L10 256.54ZM49.7243 181.653L50.1687 180.757L49.2969 180.324L48.8409 181.184L49.7243 181.653ZM72.8474 193.127L73.7379 193.582L74.1983 192.681L73.2919 192.231L72.8474 193.127ZM34.3166 268.536L33.8742 269.433L34.7584 269.869L35.2071 268.991L34.3166 268.536ZM436.542 298.492H435.542V299.492H436.542V298.492ZM436.542 282.272V281.272H435.542V282.272H436.542ZM465.883 282.272V283.272H466.883V282.272H465.883ZM465.883 234.092V233.092H464.883V234.092H465.883ZM504.065 234.092L505.038 233.862L504.856 233.092H504.065V234.092ZM504.147 235.577L505.101 235.876L505.128 235.789L505.139 235.7L504.147 235.577ZM493.754 268.433L494.689 268.79L494.698 268.766L494.706 268.741L493.754 268.433ZM491.599 271.841L490.877 271.149L490.865 271.161L490.853 271.174L491.599 271.841ZM469.307 296.511L468.572 295.834L468.567 295.838L469.307 296.511ZM465.593 298.407L465.61 299.407L465.656 299.406L465.703 299.401L465.593 298.407ZM424.197 341.615L425.191 341.725L425.197 341.665L425.197 341.605L424.197 341.615ZM423.316 349.335L422.33 349.171L422.327 349.19L422.324 349.208L423.316 349.335ZM415.92 358.944L416.282 359.876L416.294 359.871L415.92 358.944ZM409.099 362.593L408.524 361.775L408.504 361.789L408.486 361.803L409.099 362.593ZM406.904 366.857L405.939 367.12L405.94 367.121L406.904 366.857ZM402.851 372.638L403.215 373.569L403.223 373.566L403.231 373.563L402.851 372.638ZM390.632 305.483L390.657 304.484L390.649 304.483L390.641 304.483L390.632 305.483ZM389.018 362.869L389.016 363.869L389.024 363.869L389.018 362.869ZM366.691 340.323L365.691 340.313L365.691 340.321L366.691 340.323ZM237.426 339.005L236.426 339.004L236.426 339.012L237.426 339.005ZM203.992 372.71L203.996 371.71L203.988 371.71L203.992 372.71ZM180.592 338.884L181.592 338.892L181.592 338.88L180.592 338.884ZM203.783 362.603L203.775 363.603L203.787 363.603L203.783 362.603ZM227.346 339.133L228.346 339.147L228.346 339.137L227.346 339.133ZM204.034 315.541L204.02 316.541L204.032 316.541L204.034 315.541ZM462.724 278.91V279.91H463.724V278.91H462.724ZM436.601 278.91H435.601V279.91H436.601V278.91ZM436.601 272.367V271.367H435.601V272.367H436.601ZM454.927 272.367V273.367H455.927V272.367H454.927ZM454.927 244.414H455.927V243.414H454.927V244.414ZM436.535 244.414H435.535V245.414H436.535V244.414ZM436.535 214.06V213.06H435.535V214.06H436.535ZM482.749 214.06L483.464 214.759L485.125 213.06H482.749V214.06ZM479.146 216.93L479.425 217.89L479.553 217.853L479.667 217.783L479.146 216.93ZM474.743 217.756L474.655 216.76L474.615 216.764L474.575 216.77L474.743 217.756ZM462.727 231.966L463.727 231.966V231.966L462.727 231.966ZM492.006 337.047V338.047H493.781L492.861 336.529L492.006 337.047ZM477.508 336.883L477.268 337.854L477.334 337.87L477.402 337.877L477.508 336.883ZM473.099 333.439L472.186 333.846L472.2 333.878L472.216 333.909L473.099 333.439ZM460.975 326.946L461.031 327.945L461.089 327.941L461.146 327.932L460.975 326.946ZM430.27 327.248L430.247 326.248L430.198 326.249L430.148 326.255L430.27 327.248ZM424.228 323.664L425.156 323.292L425.14 323.25L425.12 323.211L424.228 323.664ZM417.817 312.573V311.573H416.075L416.954 313.077L417.817 312.573ZM439.163 312.57L439.161 311.57H439.16L439.163 312.57ZM473.973 312.537L473.967 313.537L474.002 313.537L474.038 313.535L473.973 312.537ZM477.844 313.894L478.686 313.356L478.615 313.244L478.517 313.155L477.844 313.894ZM465.992 230.063L464.993 230.075L465.004 231.063H465.992V230.063ZM474.174 221.3L474.225 222.299L474.254 222.297L474.283 222.294L474.174 221.3ZM492.888 220.375L492.878 221.375L492.891 221.375L492.903 221.375L492.888 220.375ZM504.445 211.072L503.474 210.833L503.474 210.834L504.445 211.072ZM509.186 192.396L510.148 192.672L510.163 192.617L510.173 192.561L509.186 192.396ZM521.216 182.663L522.186 182.905L522.481 181.724L521.265 181.664L521.216 182.663ZM517.58 197.246L518.55 197.489L518.55 197.489L517.58 197.246ZM510.002 227.049L510.967 227.308L510.968 227.308L510.002 227.049ZM507.132 229.935L507.119 228.935H507.118L507.132 229.935ZM98.7323 331.81V330.81H97.7323V331.81H98.7323ZM118.969 331.81H119.969V330.81H118.969V331.81ZM118.969 350.164V351.164H119.969V350.164H118.969ZM98.7323 350.164H97.7323V351.164H98.7323V350.164ZM436.599 247.208V246.208H435.599V247.208H436.599ZM452.441 247.208H453.441V246.208H452.441V247.208ZM452.441 268.986V269.986H453.441V268.986H452.441ZM436.599 268.986H435.599V269.986H436.599V268.986ZM472.558 197.347H471.558V198.347H472.558V197.347ZM472.558 193.15V192.15H471.558V193.15H472.558ZM495.831 193.15V194.15H496.665L496.815 193.329L495.831 193.15ZM499.131 185.896H500.131V184.671L498.931 184.916L499.131 185.896ZM499.131 197.121V198.121H500.131V197.121H499.131ZM489.851 197.121V196.121H488.851V197.121H489.851ZM489.746 213.187L490.744 213.25L490.745 213.248L489.746 213.187ZM487.751 218.971L487.773 217.972L487.773 217.972L487.751 218.971ZM486.104 213.305L485.105 213.356L485.105 213.358L486.104 213.305ZM486.013 197.347H487.013V196.347H486.013V197.347ZM430.287 169.645L429.981 168.693L429.026 169L429.337 169.954L430.287 169.645ZM434.716 168.218L435.678 167.946L435.396 166.948L434.409 167.266L434.716 168.218ZM445.34 205.859L445.661 206.806L446.56 206.501L446.302 205.587L445.34 205.859ZM440.84 207.387L439.879 207.663L440.168 208.672L441.162 208.333L440.84 207.387ZM437.093 194.63L436.146 194.953L436.147 194.954L437.093 194.63ZM434.429 191.37L435.277 190.841L435.276 190.84L434.429 191.37ZM432.583 187.31L431.942 186.543L431.942 186.543L432.583 187.31ZM432.414 178.122L433.407 178.006L433.403 177.976L433.398 177.946L432.414 178.122ZM490.142 282.639H491.142V281.887L490.42 281.678L490.142 282.639ZM490.142 325.976L490.764 326.759L491.142 326.459V325.976H490.142ZM489.441 326.527L488.611 327.085L489.211 327.977L490.057 327.315L489.441 326.527ZM487.074 321.149L486.075 321.192L486.079 321.29L486.102 321.384L487.074 321.149ZM486.232 287.503L485.247 287.329L485.232 287.419L485.232 287.509L486.232 287.503ZM488.166 282.065L488.444 281.105L487.681 280.884L487.293 281.578L488.166 282.065ZM411.977 163.614V162.614H410.977V163.614H411.977ZM422.535 163.614H423.535V162.614H422.535V163.614ZM422.535 173.197V174.197H423.535V173.197H422.535ZM411.977 173.197H410.977V174.197H411.977V173.197ZM407.632 340.574L408.632 340.582L408.632 340.58L407.632 340.574ZM389.067 321.682L389.074 320.682L389.072 320.682L389.067 321.682ZM223.391 339.203L222.391 339.182L222.391 339.195L222.391 339.208L223.391 339.203ZM203.904 358.693L203.914 357.693L203.901 357.693L203.904 358.693ZM203.894 319.232L203.892 320.232H203.897L203.894 319.232ZM244.539 347.567H243.539V348.567H244.539V347.567ZM244.539 264.037V263.037H243.539V264.037H244.539ZM348.952 264.037H349.952V263.037H348.952V264.037ZM348.952 347.567V348.567H349.952V347.567H348.952ZM328.105 81.2262C256.408 140.996 184.816 200.678 113.329 260.273L114.61 261.809C186.096 202.214 257.689 142.532 329.386 82.7624L328.105 81.2262ZM114.761 260.43C107.623 251.17 100.697 242.181 93.7675 233.198L92.184 234.42C99.1132 243.402 106.039 252.39 113.177 261.651L114.761 260.43ZM93.7676 233.198C88.4132 226.256 83.0599 219.315 77.7077 212.374L76.124 213.596C81.4762 220.536 86.8295 227.477 92.1839 234.42L93.7676 233.198ZM77.7085 212.375C75.1385 209.034 74.0315 207.065 73.9199 205.156C73.8085 203.248 74.6783 201.182 76.8305 197.602L75.1164 196.572C72.987 200.114 71.7715 202.674 71.9233 205.273C72.0751 207.87 73.5801 210.289 76.1232 213.595L77.7085 212.375ZM76.8306 197.602C77.6719 196.201 78.5132 194.801 79.5403 193.093L77.8262 192.062C76.7989 193.771 75.9576 195.171 75.1162 196.572L76.8306 197.602ZM79.2363 191.744C75.3903 189.191 71.6981 186.742 67.5361 183.979L66.43 185.645C70.5964 188.411 74.2804 190.855 78.1301 193.411L79.2363 191.744ZM67.6166 185.586C137.289 128.538 206.577 71.8051 276.226 14.7737L274.959 13.2263C205.31 70.2577 136.022 126.991 66.3495 184.038L67.6166 185.586ZM274.805 14.6159C292.525 37.2829 310.108 59.7762 327.958 82.6102L329.534 81.3784C311.683 58.5443 294.101 36.0513 276.381 13.3841L274.805 14.6159ZM245.403 347.522C244.534 341.717 244.089 336.082 242.821 330.728L240.875 331.189C242.118 336.44 242.527 341.818 243.426 347.818L245.403 347.522ZM242.821 330.728C239.076 314.916 230.207 305.661 219.498 301.634C208.835 297.624 196.486 298.846 185.798 303.685L186.623 305.507C196.933 300.839 208.725 299.719 218.794 303.506C228.815 307.275 237.267 315.955 240.875 331.189L242.821 330.728ZM185.798 303.685C171.708 310.067 164.74 321.712 163.26 336.77L165.25 336.966C166.672 322.497 173.289 311.547 186.623 305.507L185.798 303.685ZM163.258 336.791C163.012 339.978 162.956 343.177 163.09 346.371L165.088 346.287C164.957 343.172 165.012 340.053 165.252 336.945L163.258 336.791ZM163.089 346.35C163.146 349.036 162.663 350.689 161.753 351.639C160.869 352.562 159.341 353.063 156.666 352.829L156.492 354.822C159.409 355.077 161.694 354.591 163.197 353.023C164.672 351.483 165.149 349.144 165.088 346.308L163.089 346.35ZM156.666 352.829C145.709 351.873 134.808 350.447 123.491 349.172L123.267 351.159C134.536 352.429 145.503 353.863 156.492 354.822L156.666 352.829ZM124.379 350.166V327.128H122.379V350.166H124.379ZM123.379 326.128H101.942V328.128H123.379V326.128ZM102.942 327.128V264.03H100.942V327.128H102.942ZM101.942 265.03H403.087V263.03H101.942V265.03ZM404.087 264.03V175.986H402.087V264.03H404.087ZM403.087 176.986H424.772V174.986H403.087V176.986ZM423.788 176.164C424.987 182.768 427.19 189.183 429.022 195.546C430.865 201.951 432.359 208.378 432.257 215.215L434.257 215.245C434.363 208.105 432.802 201.448 430.944 194.993C429.074 188.497 426.931 182.278 425.756 175.807L423.788 176.164ZM432.257 215.215C431.846 242.678 432.016 270.155 431.947 297.602L433.947 297.607C434.016 270.137 433.846 242.691 434.257 215.245L432.257 215.215ZM431.947 297.598C431.941 298.694 431.944 299.789 431.944 301.352H433.944C433.944 299.781 433.941 298.698 433.947 297.61L431.947 297.598ZM432.898 300.353C431.209 300.431 429.836 300.549 428.422 300.552L428.427 302.552C429.895 302.549 431.405 302.424 432.99 302.351L432.898 300.353ZM428.422 300.552C414.856 300.589 401.383 301.113 387.928 300.488L387.835 302.486C401.354 303.114 414.96 302.588 428.427 302.552L428.422 300.552ZM387.91 300.487C378.915 300.232 370.132 303.256 363.182 309.002L364.456 310.543C371.034 305.106 379.344 302.245 387.853 302.486L387.91 300.487ZM363.182 309.002C356.232 314.747 351.583 322.825 350.092 331.745L352.065 332.074C353.477 323.628 357.879 315.98 364.456 310.543L363.182 309.002ZM350.099 331.711C349.059 336.834 348.741 342.18 348.078 347.547L350.062 347.793C350.749 342.246 351.038 337.137 352.059 332.108L350.099 331.711ZM349.07 346.67H244.415V348.67H349.07V346.67ZM525.986 372.419C514.055 372.419 502.598 372.412 491.145 372.422L491.147 374.422C502.599 374.412 514.053 374.419 525.986 374.419V372.419ZM491.146 372.422C469.702 372.432 448.29 372.652 426.88 372.314L426.848 374.314C448.28 374.652 469.729 374.432 491.147 374.422L491.146 372.422ZM426.951 372.318C422.036 371.886 417.196 370.818 412.552 369.14L411.873 371.021C416.679 372.758 421.688 373.863 426.776 374.31L426.951 372.318ZM412.489 369.119C411.924 368.957 411.495 368.347 411.587 367.251C411.676 366.185 412.274 365.049 413.263 364.448L412.225 362.739C410.612 363.719 409.728 365.477 409.594 367.085C409.462 368.663 410.068 370.505 411.937 371.042L412.489 369.119ZM413.263 364.449C420.041 360.337 427.483 356.661 434.001 351.904L432.822 350.288C426.382 354.989 419.221 358.495 412.226 362.739L413.263 364.449ZM434.013 351.896C444.548 343.978 457.652 340.325 470.736 341.656L470.938 339.666C457.353 338.284 443.748 342.078 432.811 350.297L434.013 351.896ZM470.756 341.658C483.974 342.729 497.361 342.07 510.547 341.868L510.517 339.868C497.238 340.072 484.009 340.725 470.918 339.664L470.756 341.658ZM510.669 341.858C511.898 341.688 513.148 341.951 514.206 342.604L515.256 340.901C513.802 340.005 512.085 339.643 510.395 339.877L510.669 341.858ZM514.206 342.604C515.264 343.256 516.066 344.259 516.474 345.441L518.365 344.789C517.807 343.172 516.709 341.797 515.256 340.901L514.206 342.604ZM516.506 345.522C517.299 347.302 519.525 352.705 521.504 358.479C522.492 361.365 523.414 364.328 524.064 366.968C524.72 369.636 525.073 371.877 524.987 373.361L526.984 373.477C527.089 371.672 526.668 369.182 526.006 366.49C525.336 363.771 524.395 360.747 523.396 357.831C521.398 352.001 519.15 346.541 518.333 344.707L516.506 345.522ZM10.8834 257.009C24.2565 231.793 37.3846 207.051 50.6077 182.121L48.8409 181.184C35.6181 206.113 22.4895 230.857 9.11656 256.071L10.8834 257.009ZM49.2799 182.548C57.0343 186.395 64.4591 190.081 72.4029 194.023L73.2919 192.231C65.3486 188.29 57.9232 184.603 50.1687 180.757L49.2799 182.548ZM71.957 192.672C59.1383 217.756 46.4142 242.663 33.4261 268.081L35.2071 268.991C48.1953 243.572 60.9193 218.666 73.7379 193.582L71.957 192.672ZM34.759 267.639C26.6817 263.655 18.8034 259.769 10.4425 255.643L9.55751 257.437C17.9185 261.562 25.7969 265.448 33.8742 269.433L34.759 267.639ZM437.542 298.492V282.272H435.542V298.492H437.542ZM436.542 283.272H465.883V281.272H436.542V283.272ZM466.883 282.272V234.092H464.883V282.272H466.883ZM465.883 235.092H504.065V233.092H465.883V235.092ZM503.092 234.322C503.18 234.693 503.201 235.077 503.154 235.455L505.139 235.7C505.215 235.086 505.181 234.463 505.038 233.862L503.092 234.322ZM503.192 235.279C499.765 246.242 496.333 257.201 492.803 268.126L494.706 268.741C498.239 257.806 501.674 246.838 505.101 235.876L503.192 235.279ZM492.82 268.077C492.383 269.222 491.722 270.266 490.877 271.149L492.321 272.532C493.352 271.456 494.157 270.184 494.689 268.79L492.82 268.077ZM490.853 271.174C483.471 279.441 476.073 287.687 468.572 295.834L470.043 297.189C477.555 289.03 484.961 280.775 492.345 272.507L490.853 271.174ZM468.567 295.838C467.763 296.723 466.666 297.282 465.484 297.413L465.703 299.401C467.372 299.217 468.916 298.428 470.047 297.184L468.567 295.838ZM465.577 297.407C456.053 297.564 446.527 297.492 436.542 297.492V299.492C446.507 299.492 456.064 299.564 465.61 299.407L465.577 297.407ZM423.203 341.506C422.913 344.139 422.748 346.654 422.33 349.171L424.303 349.499C424.732 346.913 424.914 344.24 425.191 341.725L423.203 341.506ZM422.324 349.208C422.076 351.151 421.316 352.992 420.125 354.54L421.71 355.76C423.118 353.93 424.015 351.756 424.308 349.462L422.324 349.208ZM420.125 354.54C418.933 356.089 417.352 357.288 415.547 358.016L416.294 359.871C418.432 359.01 420.301 357.59 421.71 355.76L420.125 354.54ZM415.559 358.011C413.071 358.975 410.709 360.239 408.524 361.775L409.674 363.412C411.726 361.969 413.945 360.781 416.282 359.876L415.559 358.011ZM408.486 361.803C407.763 362.364 407.052 363.253 406.561 364.15C406.312 364.605 406.101 365.093 405.977 365.577C405.856 366.048 405.796 366.595 405.939 367.12L407.869 366.593C407.852 366.533 407.839 366.369 407.914 366.074C407.987 365.793 408.123 365.461 408.315 365.111C408.705 364.398 409.251 363.741 409.712 363.384L408.486 361.803ZM405.94 367.121C406.183 368.009 406.195 368.635 406.102 369.085C406.013 369.518 405.815 369.847 405.524 370.134C405.218 370.434 404.799 370.697 404.26 370.957C403.714 371.22 403.13 371.442 402.471 371.713L403.231 373.563C403.825 373.319 404.511 373.056 405.129 372.758C405.756 372.456 406.396 372.081 406.926 371.56C407.471 371.025 407.884 370.349 408.061 369.488C408.235 368.643 408.168 367.685 407.869 366.592L405.94 367.121ZM402.487 371.707C397.879 373.508 392.933 374.263 388.001 373.919L387.862 375.914C393.089 376.279 398.331 375.479 403.215 373.569L402.487 371.707ZM388.001 373.919C383.07 373.574 378.275 372.138 373.959 369.713L372.979 371.456C377.553 374.026 382.635 375.549 387.862 375.914L388.001 373.919ZM373.959 369.713C369.643 367.288 365.912 363.933 363.035 359.889L361.405 361.049C364.453 365.332 368.405 368.887 372.979 371.456L373.959 369.713ZM363.035 359.889C360.157 355.845 358.203 351.211 357.313 346.318L355.345 346.676C356.288 351.857 358.357 356.765 361.405 361.049L363.035 359.889ZM357.313 346.318C356.422 341.426 356.618 336.396 357.886 331.588L355.952 331.078C354.609 336.169 354.402 341.495 355.345 346.676L357.313 346.318ZM357.886 331.588C359.153 326.78 361.461 322.314 364.644 318.508L363.11 317.225C359.738 321.257 357.294 325.987 355.952 331.078L357.886 331.588ZM364.644 318.508C367.827 314.703 371.806 311.652 376.297 309.573L375.457 307.758C370.698 309.961 366.482 313.194 363.11 317.225L364.644 318.508ZM376.297 309.573C380.788 307.495 385.68 306.44 390.623 306.483L390.641 304.483C385.402 304.437 380.217 305.555 375.457 307.758L376.297 309.573ZM390.607 306.483C409.497 306.96 422.98 321.473 423.197 341.626L425.197 341.605C424.97 320.49 410.735 304.991 390.657 304.484L390.607 306.483ZM389.024 363.869C393.596 363.84 398.057 362.454 401.846 359.884L400.724 358.229C397.261 360.577 393.187 361.843 389.012 361.869L389.024 363.869ZM401.846 359.884C405.636 357.315 408.585 353.677 410.325 349.429L408.474 348.671C406.883 352.556 404.187 355.881 400.724 358.229L401.846 359.884ZM410.325 349.429C412.065 345.181 412.517 340.51 411.626 336.005L409.664 336.393C410.479 340.514 410.065 344.786 408.474 348.671L410.325 349.429ZM411.626 336.005C410.734 331.499 408.539 327.358 405.314 324.101L403.893 325.509C406.84 328.485 408.848 332.271 409.664 336.393L411.626 336.005ZM405.314 324.101C402.089 320.845 397.979 318.619 393.499 317.704L393.099 319.663C397.19 320.499 400.945 322.533 403.893 325.509L405.314 324.101ZM393.499 317.704C389.019 316.788 384.37 317.225 380.136 318.958L380.894 320.809C384.761 319.226 389.007 318.827 393.099 319.663L393.499 317.704ZM380.136 318.958C375.902 320.691 372.273 323.643 369.703 327.442L371.36 328.563C373.709 325.089 377.026 322.392 380.894 320.809L380.136 318.958ZM369.703 327.442C367.133 331.242 365.738 335.719 365.691 340.313L367.691 340.334C367.734 336.132 369.01 332.036 371.36 328.563L369.703 327.442ZM365.691 340.321C365.683 343.406 366.28 346.464 367.448 349.318L369.299 348.56C368.23 345.949 367.683 343.15 367.691 340.326L365.691 340.321ZM367.448 349.318C368.615 352.172 370.331 354.766 372.497 356.954L373.918 355.546C371.937 353.546 370.367 351.172 369.299 348.56L367.448 349.318ZM372.497 356.954C374.663 359.141 377.237 360.877 380.072 362.064L380.844 360.219C378.253 359.135 375.9 357.547 373.918 355.546L372.497 356.954ZM380.072 362.064C382.906 363.251 385.946 363.864 389.016 363.869L389.02 361.869C386.213 361.865 383.435 361.304 380.844 360.219L380.072 362.064ZM236.426 339.012C236.455 343.308 235.636 347.567 234.017 351.543L235.87 352.297C237.588 348.078 238.457 343.557 238.426 338.998L236.426 339.012ZM234.017 351.543C232.399 355.519 230.012 359.131 226.995 362.172L228.415 363.581C231.618 360.352 234.152 356.517 235.87 352.297L234.017 351.543ZM226.995 362.172C223.979 365.213 220.393 367.622 216.445 369.259L217.211 371.106C221.404 369.368 225.212 366.81 228.415 363.581L226.995 362.172ZM216.445 369.259C212.497 370.896 208.266 371.729 203.996 371.71L203.987 373.71C208.523 373.73 213.018 372.845 217.211 371.106L216.445 369.259ZM203.988 371.71C197.546 371.733 191.241 369.832 185.873 366.247L184.762 367.91C190.46 371.715 197.154 373.734 203.995 373.71L203.988 371.71ZM185.873 366.247C180.504 362.662 176.314 357.555 173.833 351.572L171.986 352.338C174.618 358.685 179.064 364.105 184.762 367.91L185.873 366.247ZM173.833 351.572C171.353 345.589 170.694 339 171.94 332.639L169.977 332.255C168.655 339.001 169.354 345.991 171.986 352.338L173.833 351.572ZM171.94 332.639C173.187 326.279 176.282 320.435 180.833 315.846L179.413 314.438C174.583 319.307 171.3 325.508 169.977 332.255L171.94 332.639ZM180.833 315.846C185.385 311.258 191.187 308.132 197.506 306.864L197.112 304.903C190.403 306.249 184.244 309.568 179.413 314.438L180.833 315.846ZM197.506 306.864C203.824 305.596 210.374 306.242 216.327 308.721L217.096 306.875C210.776 304.242 203.821 303.556 197.112 304.903L197.506 306.864ZM216.327 308.721C222.28 311.2 227.369 315.401 230.947 320.792L232.613 319.686C228.817 313.965 223.416 309.507 217.096 306.875L216.327 308.721ZM230.947 320.792C234.525 326.183 236.432 332.521 236.426 339.004L238.426 339.006C238.433 332.13 236.41 325.406 232.613 319.686L230.947 320.792ZM179.592 338.875C179.564 342.095 180.167 345.288 181.367 348.274L183.223 347.528C182.121 344.785 181.566 341.851 181.592 338.892L179.592 338.875ZM181.367 348.274C182.567 351.259 184.341 353.978 186.586 356.274L188.016 354.876C185.954 352.767 184.325 350.27 183.223 347.528L181.367 348.274ZM186.586 356.274C188.832 358.571 191.505 360.4 194.455 361.658L195.239 359.818C192.532 358.664 190.078 356.985 188.016 354.876L186.586 356.274ZM194.455 361.658C197.404 362.916 200.571 363.577 203.775 363.603L203.791 361.603C200.852 361.579 197.946 360.973 195.239 359.818L194.455 361.658ZM203.787 363.603C210.254 363.576 216.45 360.997 221.043 356.422L219.632 355.005C215.41 359.21 209.718 361.579 203.779 361.603L203.787 363.603ZM221.043 356.422C225.636 351.848 228.257 345.644 228.346 339.147L226.346 339.119C226.265 345.096 223.853 350.801 219.632 355.005L221.043 356.422ZM228.346 339.137C228.36 335.917 227.742 332.726 226.527 329.746L224.675 330.501C225.791 333.238 226.359 336.17 226.346 339.129L228.346 339.137ZM226.527 329.746C225.312 326.766 223.525 324.056 221.267 321.772L219.845 323.177C221.918 325.275 223.559 327.764 224.675 330.501L226.527 329.746ZM221.267 321.772C219.009 319.487 216.325 317.672 213.369 316.431L212.595 318.275C215.308 319.414 217.772 321.08 219.845 323.177L221.267 321.772ZM213.369 316.431C210.412 315.19 207.241 314.548 204.036 314.541L204.032 316.541C206.972 316.547 209.881 317.137 212.595 318.275L213.369 316.431ZM204.048 314.541C200.844 314.496 197.663 315.094 194.691 316.299L195.442 318.152C198.167 317.048 201.083 316.5 204.02 316.541L204.048 314.541ZM194.691 316.299C191.719 317.504 189.015 319.292 186.739 321.559L188.15 322.976C190.238 320.897 192.717 319.257 195.442 318.152L194.691 316.299ZM186.739 321.559C184.462 323.826 182.658 326.526 181.431 329.501L183.28 330.264C184.406 327.533 186.062 325.056 188.15 322.976L186.739 321.559ZM181.431 329.501C180.204 332.476 179.579 335.667 179.592 338.888L181.592 338.88C181.58 335.923 182.154 332.994 183.28 330.264L181.431 329.501ZM462.724 277.91H436.601V279.91H462.724V277.91ZM437.601 278.91V272.367H435.601V278.91H437.601ZM436.601 273.367H454.927V271.367H436.601V273.367ZM455.927 272.367V244.414H453.927V272.367H455.927ZM454.927 243.414H436.535V245.414H454.927V243.414ZM437.535 244.414V214.06H435.535V244.414H437.535ZM436.535 215.06H482.749V213.06H436.535V215.06ZM482.034 213.361C481.014 214.405 479.868 215.317 478.625 216.076L479.667 217.783C481.052 216.937 482.328 215.921 483.464 214.759L482.034 213.361ZM478.867 215.969C477.491 216.369 476.081 216.633 474.655 216.76L474.832 218.752C476.387 218.614 477.925 218.325 479.425 217.89L478.867 215.969ZM474.575 216.77C470.211 217.515 466.945 218.981 464.79 221.526C462.635 224.072 461.73 227.534 461.727 231.965L463.727 231.966C463.73 227.779 464.588 224.861 466.317 222.819C468.046 220.776 470.785 219.446 474.912 218.742L474.575 216.77ZM461.727 231.965C461.714 247.441 461.724 262.914 461.724 278.91H463.724C463.724 262.912 463.714 247.441 463.727 231.966L461.727 231.965ZM492.006 336.047C486.377 336.047 481.982 336.353 477.614 335.888L477.402 337.877C481.91 338.357 486.561 338.047 492.006 338.047V336.047ZM477.748 335.912C476.951 335.715 476.204 335.351 475.555 334.845L474.324 336.421C475.194 337.101 476.197 337.589 477.268 337.854L477.748 335.912ZM475.555 334.845C474.906 334.338 474.37 333.699 473.982 332.97L472.216 333.909C472.736 334.885 473.453 335.741 474.324 336.421L475.555 334.845ZM474.013 333.032C472.905 330.548 471.007 328.504 468.615 327.223L467.671 328.986C469.67 330.056 471.259 331.766 472.186 333.846L474.013 333.032ZM468.615 327.223C466.223 325.942 463.475 325.498 460.804 325.961L461.146 327.932C463.377 327.545 465.672 327.916 467.671 328.986L468.615 327.223ZM460.919 325.948C455.848 326.233 450.757 326.249 445.639 326.223C440.529 326.196 435.384 326.128 430.247 326.248L430.294 328.248C435.393 328.128 440.496 328.196 445.629 328.223C450.752 328.249 455.895 328.234 461.031 327.945L460.919 325.948ZM430.148 326.255C429.109 326.383 428.057 326.163 427.154 325.627L426.134 327.347C427.417 328.108 428.913 328.422 430.392 328.241L430.148 326.255ZM427.154 325.627C426.252 325.092 425.549 324.271 425.156 323.292L423.3 324.036C423.856 325.422 424.852 326.587 426.134 327.347L427.154 325.627ZM425.12 323.211C423.266 319.563 421.018 316.07 418.681 312.069L416.954 313.077C419.351 317.182 421.518 320.537 423.336 324.117L425.12 323.211ZM417.817 313.573C425.324 313.573 432.244 313.586 439.165 313.57L439.16 311.57C432.242 311.586 425.329 311.573 417.817 311.573V313.573ZM439.165 313.57C450.775 313.55 462.366 313.465 473.967 313.537L473.979 311.537C462.369 311.465 450.756 311.55 439.161 311.57L439.165 313.57ZM474.038 313.535C474.606 313.498 475.176 313.576 475.714 313.765L476.376 311.878C475.585 311.6 474.745 311.485 473.908 311.539L474.038 313.535ZM475.714 313.765C476.252 313.953 476.747 314.249 477.171 314.634L478.517 313.155C477.896 312.59 477.168 312.155 476.376 311.878L475.714 313.765ZM477.001 314.433C481.691 321.765 486.118 329.256 491.151 337.565L492.861 336.529C487.844 328.244 483.394 320.715 478.686 313.356L477.001 314.433ZM466.992 230.051C466.969 228.067 467.71 226.151 469.059 224.706L467.597 223.341C465.896 225.164 464.963 227.577 464.993 230.075L466.992 230.051ZM469.059 224.706C470.408 223.262 472.26 222.399 474.225 222.299L474.123 220.301C471.638 220.429 469.299 221.519 467.597 223.341L469.059 224.706ZM474.283 222.294C480.458 221.619 486.667 221.312 492.878 221.375L492.898 219.375C486.608 219.312 480.319 219.622 474.065 220.306L474.283 222.294ZM492.903 221.375C495.205 221.34 497.011 221.32 498.416 221.157C499.831 220.993 500.993 220.67 501.93 219.923C502.865 219.176 503.446 218.108 503.932 216.746C504.416 215.391 504.854 213.602 505.416 211.31L503.474 210.834C502.901 213.168 502.49 214.838 502.049 216.073C501.61 217.301 501.188 217.955 500.682 218.36C500.176 218.763 499.456 219.023 498.186 219.17C496.906 219.319 495.225 219.34 492.873 219.376L492.903 221.375ZM505.416 211.31C506.954 205.05 508.384 198.816 510.148 192.672L508.225 192.12C506.447 198.313 505.002 204.613 503.474 210.833L505.416 211.31ZM510.173 192.561C510.604 189.978 511.963 187.646 513.99 186.006L512.732 184.451C510.324 186.4 508.712 189.168 508.2 192.231L510.173 192.561ZM513.99 186.006C516.016 184.366 518.57 183.533 521.166 183.661L521.265 181.664C518.177 181.511 515.14 182.503 512.732 184.451L513.99 186.006ZM520.246 182.421C519.009 187.378 517.816 192.193 516.61 197.003L518.55 197.489C519.757 192.678 520.951 187.858 522.186 182.905L520.246 182.421ZM516.61 197.003C514.113 206.954 511.687 216.9 509.036 226.79L510.968 227.308C513.625 217.397 516.057 207.424 518.55 197.489L516.61 197.003ZM509.036 226.789C508.938 227.155 508.591 227.729 508.104 228.234C507.871 228.476 507.637 228.667 507.434 228.792C507.215 228.927 507.112 228.935 507.119 228.935L507.145 230.935C507.653 230.928 508.119 230.719 508.482 230.496C508.862 230.262 509.224 229.954 509.543 229.623C510.162 228.982 510.749 228.12 510.967 227.308L509.036 226.789ZM507.118 228.935C493.506 229.125 479.897 229.063 465.992 229.063V231.063C479.884 231.063 493.516 231.125 507.146 230.935L507.118 228.935ZM98.7323 332.81H118.969V330.81H98.7323V332.81ZM117.969 331.81V350.164H119.969V331.81H117.969ZM118.969 349.164H98.7323V351.164H118.969V349.164ZM99.7323 350.164V331.81H97.7323V350.164H99.7323ZM436.599 248.208H452.441V246.208H436.599V248.208ZM451.441 247.208V268.986H453.441V247.208H451.441ZM452.441 267.986H436.599V269.986H452.441V267.986ZM437.599 268.986V247.208H435.599V268.986H437.599ZM473.558 197.347V193.15H471.558V197.347H473.558ZM472.558 194.15H495.831V192.15H472.558V194.15ZM496.815 193.329C497.333 190.49 497.711 188.89 498.133 187.956C498.334 187.511 498.517 187.285 498.673 187.156C498.823 187.032 499.013 186.941 499.331 186.876L498.931 184.916C498.39 185.027 497.867 185.226 497.397 185.616C496.934 186 496.591 186.511 496.311 187.132C495.769 188.33 495.356 190.182 494.848 192.97L496.815 193.329ZM498.131 185.896V197.121H500.131V185.896H498.131ZM499.131 196.121H489.851V198.121H499.131V196.121ZM488.851 197.121C488.851 202.728 489.065 207.925 488.748 213.126L490.745 213.248C491.067 207.967 490.851 202.618 490.851 197.121H488.851ZM488.748 213.124C488.708 213.767 488.837 214.51 488.942 215.12C489.057 215.791 489.157 216.368 489.159 216.868C489.16 217.373 489.056 217.596 488.957 217.702C488.871 217.793 488.602 217.991 487.773 217.972L487.728 219.971C488.843 219.997 489.78 219.744 490.412 219.074C491.031 218.417 491.16 217.565 491.159 216.864C491.157 216.159 491.019 215.398 490.913 214.782C490.797 214.105 490.721 213.612 490.744 213.25L488.748 213.124ZM487.773 217.972C487.106 217.957 486.923 217.776 486.867 217.707C486.781 217.599 486.692 217.365 486.702 216.866C486.711 216.376 486.809 215.819 486.917 215.175C487.017 214.583 487.136 213.874 487.103 213.252L485.105 213.358C485.124 213.718 485.054 214.198 484.945 214.842C484.845 215.433 484.715 216.156 484.702 216.827C484.689 217.489 484.781 218.299 485.304 218.954C485.857 219.647 486.71 219.948 487.728 219.971L487.773 217.972ZM487.103 213.253C486.837 208.125 487.013 203.004 487.013 197.347H485.013C485.013 202.913 484.836 208.161 485.105 213.356L487.103 213.253ZM486.013 196.347H472.558V198.347H486.013V196.347ZM430.594 170.596C432.13 170.101 433.363 169.704 435.022 169.17L434.409 167.266C432.749 167.801 431.517 168.198 429.981 168.693L430.594 170.596ZM433.753 168.49C437.314 181.099 440.784 193.399 444.377 206.13L446.302 205.587C442.709 192.857 439.239 180.555 435.678 167.946L433.753 168.49ZM445.019 204.911C443.577 205.4 442.253 205.85 440.518 206.44L441.162 208.333C442.896 207.743 444.22 207.294 445.661 206.806L445.019 204.911ZM441.801 207.111C440.528 202.675 439.449 198.42 438.039 194.306L436.147 194.954C437.535 199.005 438.582 203.146 439.879 207.663L441.801 207.111ZM438.039 194.307C437.742 193.435 437.092 192.768 436.58 192.266C436.006 191.702 435.567 191.306 435.277 190.841L433.58 191.899C434.031 192.622 434.712 193.234 435.179 193.693C435.709 194.213 436.02 194.582 436.146 194.953L438.039 194.307ZM435.276 190.84C434.885 190.215 434.364 189.296 433.984 188.512C433.791 188.116 433.651 187.787 433.577 187.561C433.538 187.442 433.535 187.401 433.536 187.416C433.537 187.424 433.543 187.492 433.522 187.593C433.5 187.694 433.433 187.903 433.225 188.078L431.942 186.543C431.695 186.75 431.601 187.009 431.566 187.176C431.53 187.342 431.535 187.492 431.544 187.595C431.563 187.802 431.619 188.009 431.675 188.181C431.792 188.537 431.979 188.963 432.185 189.386C432.601 190.243 433.157 191.224 433.581 191.901L435.276 190.84ZM433.224 188.078C434.312 187.17 434.952 186.205 435.206 185.17C435.459 184.145 435.302 183.176 435.03 182.318C434.767 181.486 434.353 180.646 434.043 179.95C433.711 179.206 433.474 178.584 433.407 178.006L431.42 178.237C431.526 179.145 431.88 180.011 432.216 180.765C432.573 181.565 432.905 182.232 433.124 182.922C433.334 183.586 433.397 184.156 433.264 184.692C433.135 185.219 432.786 185.838 431.942 186.543L433.224 188.078ZM433.398 177.946C432.877 175.029 432.155 172.152 431.238 169.335L429.337 169.954C430.225 172.683 430.924 175.471 431.429 178.298L433.398 177.946ZM489.142 282.639V325.976H491.142V282.639H489.142ZM489.521 325.193C489.292 325.374 489.06 325.555 488.825 325.739L490.057 327.315C490.291 327.131 490.529 326.946 490.764 326.759L489.521 325.193ZM490.271 325.969C489.237 324.43 488.483 322.718 488.045 320.913L486.102 321.384C486.595 323.419 487.445 325.349 488.611 327.085L490.271 325.969ZM488.073 321.105C487.587 309.909 487.307 298.706 487.232 287.496L485.232 287.509C485.307 298.743 485.588 309.971 486.075 321.192L488.073 321.105ZM487.217 287.676C487.534 285.877 488.15 284.145 489.039 282.553L487.293 281.578C486.294 283.366 485.603 285.31 485.247 287.329L487.217 287.676ZM487.889 283.026C488.512 283.206 489.236 283.418 489.865 283.6L490.42 281.678C489.731 281.48 489.138 281.305 488.444 281.105L487.889 283.026ZM411.977 164.614H422.535V162.614H411.977V164.614ZM421.535 163.614V173.197H423.535V163.614H421.535ZM422.535 172.197H411.977V174.197H422.535V172.197ZM412.977 173.197V163.614H410.977V173.197H412.977ZM406.632 340.567C406.606 344.078 405.547 347.503 403.588 350.408L405.246 351.526C407.426 348.294 408.603 344.486 408.632 340.582L406.632 340.567ZM403.588 350.408C401.629 353.313 398.858 355.568 395.626 356.889L396.383 358.74C399.982 357.269 403.066 354.758 405.246 351.526L403.588 350.408ZM395.626 356.889C392.395 358.21 388.847 358.538 385.43 357.832L385.026 359.791C388.832 360.577 392.784 360.211 396.383 358.74L395.626 356.889ZM385.43 357.832C382.014 357.126 378.881 355.418 376.428 352.922L375.002 354.323C377.732 357.102 381.22 359.004 385.026 359.791L385.43 357.832ZM376.428 352.922C373.975 350.425 372.312 347.253 371.65 343.806L369.686 344.183C370.422 348.016 372.272 351.545 375.002 354.323L376.428 352.922ZM371.65 343.806C370.988 340.358 371.357 336.791 372.71 333.555L370.865 332.784C369.36 336.383 368.95 340.35 369.686 344.183L371.65 343.806ZM372.71 333.555C374.063 330.319 376.339 327.559 379.25 325.624L378.142 323.959C374.902 326.113 372.37 329.184 370.865 332.784L372.71 333.555ZM379.25 325.624C382.16 323.689 385.575 322.666 389.063 322.682L389.072 320.682C385.186 320.664 381.383 321.804 378.142 323.959L379.25 325.624ZM389.061 322.682C393.746 322.713 398.229 324.613 401.524 327.966L402.95 326.564C399.283 322.833 394.293 320.716 389.074 320.682L389.061 322.682ZM401.524 327.966C404.819 331.319 406.657 335.852 406.632 340.569L408.632 340.58C408.659 335.336 406.617 330.295 402.95 326.564L401.524 327.966ZM222.391 339.208C222.403 341.648 221.932 344.066 221.006 346.322L222.856 347.081C223.882 344.582 224.404 341.902 224.391 339.198L222.391 339.208ZM221.006 346.322C220.08 348.577 218.717 350.624 216.997 352.344L218.412 353.758C220.319 351.85 221.829 349.581 222.856 347.081L221.006 346.322ZM216.997 352.344C215.278 354.063 213.235 355.422 210.989 356.34L211.746 358.191C214.239 357.172 216.504 355.665 218.412 353.758L216.997 352.344ZM210.989 356.34C208.743 357.258 206.338 357.718 203.914 357.693L203.893 359.693C206.584 359.721 209.253 359.21 211.746 358.191L210.989 356.34ZM203.901 357.693C201.452 357.699 199.027 357.221 196.762 356.283L195.997 358.131C198.506 359.17 201.194 359.7 203.907 359.693L203.901 357.693ZM196.762 356.283C194.498 355.346 192.439 353.968 190.705 352.229L189.289 353.641C191.209 355.567 193.489 357.093 195.997 358.131L196.762 356.283ZM190.705 352.229C188.97 350.49 187.593 348.423 186.654 346.147L184.805 346.911C185.845 349.429 187.368 351.716 189.289 353.641L190.705 352.229ZM186.654 346.147C185.714 343.872 185.23 341.432 185.229 338.967L183.229 338.968C183.23 341.694 183.765 344.393 184.805 346.911L186.654 346.147ZM185.229 338.967C185.229 336.503 185.711 334.062 186.65 331.786L184.801 331.024C183.763 333.542 183.229 336.241 183.229 338.968L185.229 338.967ZM186.65 331.786C187.589 329.51 188.964 327.442 190.698 325.702L189.282 324.291C187.362 326.217 185.84 328.505 184.801 331.024L186.65 331.786ZM190.698 325.702C192.432 323.962 194.49 322.584 196.754 321.645L195.988 319.797C193.48 320.837 191.201 322.364 189.282 324.291L190.698 325.702ZM196.754 321.645C199.018 320.706 201.443 320.226 203.892 320.232L203.896 318.232C201.183 318.226 198.496 318.758 195.988 319.797L196.754 321.645ZM203.897 320.232C206.356 320.224 208.792 320.711 211.062 321.664L211.836 319.82C209.32 318.763 206.618 318.223 203.891 318.232L203.897 320.232ZM211.062 321.664C213.331 322.618 215.389 324.018 217.112 325.784L218.543 324.387C216.633 322.43 214.353 320.877 211.836 319.82L211.062 321.664ZM217.112 325.784C218.836 327.549 220.191 329.644 221.098 331.945L222.959 331.212C221.955 328.664 220.454 326.343 218.543 324.387L217.112 325.784ZM221.098 331.945C222.005 334.246 222.444 336.707 222.391 339.182L224.391 339.225C224.45 336.485 223.963 333.76 222.959 331.212L221.098 331.945ZM245.539 347.567V264.037H243.539V347.567H245.539ZM347.952 264.037V347.567H349.952V264.037H347.952ZM244.539 265.037H308.521V263.037H244.539V265.037ZM308.521 265.037H348.952V263.037H308.521V265.037ZM348.952 346.567H308.521V348.567H348.952V346.567ZM308.521 346.567H244.539V348.567H308.521V346.567ZM307.521 264.037V347.567H309.521V264.037H307.521Z" fill="#495F73"/>
<path opacity="0.5" d="M10 428L10 263" stroke="#011F3A" stroke-width="0.75" stroke-dasharray="3 3"/>
<path opacity="0.5" d="M526 428L526 380" stroke="#011F3A" stroke-width="0.75" stroke-dasharray="3 3"/>
<path opacity="0.5" d="M15 428L18.75 430.165L18.75 425.835L15 428ZM521 428L517.25 425.835L517.25 430.165L521 428ZM18.375 428.375L517.625 428.375L517.625 427.625L18.375 427.625L18.375 428.375Z" fill="#011F3A"/>
<rect width="64" height="25" transform="translate(236 415)" fill="white"/>
<path opacity="0.5" d="M251.331 430.615H249.471V433H247.581V430.615H241.821V429.265L246.996 422.5H249.081L244.206 428.965H247.641V426.85H249.471V428.965H251.331V430.615ZM259.397 422.5V423.805L255.317 433H253.232L257.177 424.15H253.052V425.935H251.237V422.5H259.397ZM264.69 433.15C263.85 433.15 263.1 432.94 262.44 432.52C261.78 432.09 261.26 431.47 260.88 430.66C260.5 429.84 260.31 428.87 260.31 427.75C260.31 426.63 260.5 425.665 260.88 424.855C261.26 424.035 261.78 423.415 262.44 422.995C263.1 422.565 263.85 422.35 264.69 422.35C265.53 422.35 266.28 422.565 266.94 422.995C267.61 423.415 268.135 424.035 268.515 424.855C268.895 425.665 269.085 426.63 269.085 427.75C269.085 428.87 268.895 429.84 268.515 430.66C268.135 431.47 267.61 432.09 266.94 432.52C266.28 432.94 265.53 433.15 264.69 433.15ZM264.69 431.455C265.44 431.455 266.03 431.145 266.46 430.525C266.9 429.905 267.12 428.98 267.12 427.75C267.12 426.52 266.9 425.595 266.46 424.975C266.03 424.355 265.44 424.045 264.69 424.045C263.95 424.045 263.36 424.355 262.92 424.975C262.49 425.595 262.275 426.52 262.275 427.75C262.275 428.98 262.49 429.905 262.92 430.525C263.36 431.145 263.95 431.455 264.69 431.455ZM278.794 433.105C277.964 433.105 277.219 432.93 276.559 432.58C275.899 432.23 275.384 431.745 275.014 431.125C274.644 430.495 274.459 429.785 274.459 428.995C274.459 428.205 274.644 427.5 275.014 426.88C275.384 426.26 275.894 425.775 276.544 425.425C277.204 425.075 277.954 424.9 278.794 424.9C279.584 424.9 280.274 425.06 280.864 425.38C281.464 425.7 281.914 426.16 282.214 426.76L280.774 427.6C280.544 427.23 280.254 426.955 279.904 426.775C279.564 426.585 279.189 426.49 278.779 426.49C278.079 426.49 277.499 426.72 277.039 427.18C276.579 427.63 276.349 428.235 276.349 428.995C276.349 429.755 276.574 430.365 277.024 430.825C277.484 431.275 278.069 431.5 278.779 431.5C279.189 431.5 279.564 431.41 279.904 431.23C280.254 431.04 280.544 430.76 280.774 430.39L282.214 431.23C281.904 431.83 281.449 432.295 280.849 432.625C280.259 432.945 279.574 433.105 278.794 433.105ZM291.739 433V427.69L289.039 432.16H288.229L285.574 427.675V433H283.864V424.99H285.829L288.679 430L291.664 424.99H293.419L293.434 433H291.739Z" fill="#011F3A"/>
<path opacity="0.5" d="M98 405L98 356" stroke="#011F3A" stroke-width="0.75" stroke-dasharray="3 3"/>
<path opacity="0.5" d="M203 405L203 380" stroke="#011F3A" stroke-width="0.75" stroke-dasharray="3 3"/>
<path opacity="0.5" d="M103 405L106.75 407.165L106.75 402.835L103 405ZM198 405L194.25 402.835L194.25 407.165L198 405ZM106.375 405.375L194.625 405.375L194.625 404.625L106.375 404.625L106.375 405.375Z" fill="#011F3A"/>
<rect width="60" height="25" transform="translate(121 392)" fill="white"/>
<path opacity="0.5" d="M130.388 399.5V410H128.438V401.135H126.218V399.5H130.388ZM136.851 410.15C136.011 410.15 135.261 409.94 134.601 409.52C133.941 409.09 133.421 408.47 133.041 407.66C132.661 406.84 132.471 405.87 132.471 404.75C132.471 403.63 132.661 402.665 133.041 401.855C133.421 401.035 133.941 400.415 134.601 399.995C135.261 399.565 136.011 399.35 136.851 399.35C137.691 399.35 138.441 399.565 139.101 399.995C139.771 400.415 140.296 401.035 140.676 401.855C141.056 402.665 141.246 403.63 141.246 404.75C141.246 405.87 141.056 406.84 140.676 407.66C140.296 408.47 139.771 409.09 139.101 409.52C138.441 409.94 137.691 410.15 136.851 410.15ZM136.851 408.455C137.601 408.455 138.191 408.145 138.621 407.525C139.061 406.905 139.281 405.98 139.281 404.75C139.281 403.52 139.061 402.595 138.621 401.975C138.191 401.355 137.601 401.045 136.851 401.045C136.111 401.045 135.521 401.355 135.081 401.975C134.651 402.595 134.436 403.52 134.436 404.75C134.436 405.98 134.651 406.905 135.081 407.525C135.521 408.145 136.111 408.455 136.851 408.455ZM150.41 399.5V400.805L146.33 410H144.245L148.19 401.15H144.065V402.935H142.25V399.5H150.41ZM160.007 410.105C159.177 410.105 158.432 409.93 157.772 409.58C157.112 409.23 156.597 408.745 156.227 408.125C155.857 407.495 155.672 406.785 155.672 405.995C155.672 405.205 155.857 404.5 156.227 403.88C156.597 403.26 157.107 402.775 157.757 402.425C158.417 402.075 159.167 401.9 160.007 401.9C160.797 401.9 161.487 402.06 162.077 402.38C162.677 402.7 163.127 403.16 163.427 403.76L161.987 404.6C161.757 404.23 161.467 403.955 161.117 403.775C160.777 403.585 160.402 403.49 159.992 403.49C159.292 403.49 158.712 403.72 158.252 404.18C157.792 404.63 157.562 405.235 157.562 405.995C157.562 406.755 157.787 407.365 158.237 407.825C158.697 408.275 159.282 408.5 159.992 408.5C160.402 408.5 160.777 408.41 161.117 408.23C161.467 408.04 161.757 407.76 161.987 407.39L163.427 408.23C163.117 408.83 162.662 409.295 162.062 409.625C161.472 409.945 160.787 410.105 160.007 410.105ZM172.952 410V404.69L170.252 409.16H169.442L166.787 404.675V410H165.077V401.99H167.042L169.892 407L172.877 401.99H174.632L174.647 410H172.952Z" fill="#011F3A"/>
<path opacity="0.5" d="M565 374L533 374" stroke="#011F3A" stroke-width="0.75" stroke-dasharray="3 3"/>
<path opacity="0.5" d="M565 13L281 13" stroke="#011F3A" stroke-width="0.75" stroke-dasharray="3 3"/>
<path opacity="0.5" d="M565 369L567.165 365.25L562.835 365.25L565 369ZM565 18L562.835 21.75L567.165 21.75L565 18ZM565.375 365.625L565.375 21.375L564.625 21.375L564.625 365.625L565.375 365.625Z" fill="#011F3A"/>
<rect width="63" height="25" transform="translate(507 30)" fill="white"/>
<path opacity="0.5" d="M517.409 41.835C518.379 41.955 519.119 42.285 519.629 42.825C520.139 43.365 520.394 44.04 520.394 44.85C520.394 45.46 520.239 46.015 519.929 46.515C519.619 47.015 519.149 47.415 518.519 47.715C517.899 48.005 517.139 48.15 516.239 48.15C515.489 48.15 514.764 48.045 514.064 47.835C513.374 47.615 512.784 47.315 512.294 46.935L513.134 45.42C513.514 45.74 513.974 45.995 514.514 46.185C515.064 46.365 515.629 46.455 516.209 46.455C516.899 46.455 517.439 46.315 517.829 46.035C518.229 45.745 518.429 45.355 518.429 44.865C518.429 44.375 518.239 43.995 517.859 43.725C517.489 43.445 516.919 43.305 516.149 43.305H515.189V41.97L517.574 39.135H512.804V37.5H519.959V38.805L517.409 41.835ZM531.03 45.615H529.17V48H527.28V45.615H521.52V44.265L526.695 37.5H528.78L523.905 43.965H527.34V41.85H529.17V43.965H531.03V45.615ZM536.174 41.835C537.144 41.955 537.884 42.285 538.394 42.825C538.904 43.365 539.159 44.04 539.159 44.85C539.159 45.46 539.004 46.015 538.694 46.515C538.384 47.015 537.914 47.415 537.284 47.715C536.664 48.005 535.904 48.15 535.004 48.15C534.254 48.15 533.529 48.045 532.829 47.835C532.139 47.615 531.549 47.315 531.059 46.935L531.899 45.42C532.279 45.74 532.739 45.995 533.279 46.185C533.829 46.365 534.394 46.455 534.974 46.455C535.664 46.455 536.204 46.315 536.594 46.035C536.994 45.745 537.194 45.355 537.194 44.865C537.194 44.375 537.004 43.995 536.624 43.725C536.254 43.445 535.684 43.305 534.914 43.305H533.954V41.97L536.339 39.135H531.569V37.5H538.724V38.805L536.174 41.835ZM548.825 48.105C547.995 48.105 547.25 47.93 546.59 47.58C545.93 47.23 545.415 46.745 545.045 46.125C544.675 45.495 544.49 44.785 544.49 43.995C544.49 43.205 544.675 42.5 545.045 41.88C545.415 41.26 545.925 40.775 546.575 40.425C547.235 40.075 547.985 39.9 548.825 39.9C549.615 39.9 550.305 40.06 550.895 40.38C551.495 40.7 551.945 41.16 552.245 41.76L550.805 42.6C550.575 42.23 550.285 41.955 549.935 41.775C549.595 41.585 549.22 41.49 548.81 41.49C548.11 41.49 547.53 41.72 547.07 42.18C546.61 42.63 546.38 43.235 546.38 43.995C546.38 44.755 546.605 45.365 547.055 45.825C547.515 46.275 548.1 46.5 548.81 46.5C549.22 46.5 549.595 46.41 549.935 46.23C550.285 46.04 550.575 45.76 550.805 45.39L552.245 46.23C551.935 46.83 551.48 47.295 550.88 47.625C550.29 47.945 549.605 48.105 548.825 48.105ZM561.771 48V42.69L559.071 47.16H558.261L555.606 42.675V48H553.896V39.99H555.861L558.711 45L561.696 39.99H563.451L563.466 48H561.771Z" fill="#011F3A"/>
<path opacity="0.5" d="M543 82L335 82" stroke="#011F3A" stroke-width="0.75" stroke-dasharray="3 3"/>
<path opacity="0.5" d="M543 369L545.165 365.25H540.835L543 369ZM543 87L540.835 90.75H545.165L543 87ZM543.375 365.625V90.375H542.625V365.625H543.375Z" fill="#011F3A"/>
<rect width="62" height="25" transform="translate(498 293)" fill="white"/>
<path opacity="0.5" d="M511.286 309.35V311H503.546V309.695L507.716 305.735C508.186 305.285 508.501 304.895 508.661 304.565C508.831 304.225 508.916 303.89 508.916 303.56C508.916 303.07 508.751 302.695 508.421 302.435C508.091 302.175 507.606 302.045 506.966 302.045C505.896 302.045 505.076 302.41 504.506 303.14L503.141 302.09C503.551 301.54 504.101 301.115 504.791 300.815C505.491 300.505 506.271 300.35 507.131 300.35C508.271 300.35 509.181 300.62 509.861 301.16C510.541 301.7 510.881 302.435 510.881 303.365C510.881 303.935 510.761 304.47 510.521 304.97C510.281 305.47 509.821 306.04 509.141 306.68L506.336 309.35H511.286ZM520.288 300.5V301.805L516.208 311H514.123L518.068 302.15H513.943V303.935H512.128V300.5H520.288ZM529.872 308.615H528.012V311H526.122V308.615H520.362V307.265L525.537 300.5H527.622L522.747 306.965H526.182V304.85H528.012V306.965H529.872V308.615ZM539.083 311.105C538.253 311.105 537.508 310.93 536.848 310.58C536.188 310.23 535.673 309.745 535.303 309.125C534.933 308.495 534.748 307.785 534.748 306.995C534.748 306.205 534.933 305.5 535.303 304.88C535.673 304.26 536.183 303.775 536.833 303.425C537.493 303.075 538.243 302.9 539.083 302.9C539.873 302.9 540.563 303.06 541.153 303.38C541.753 303.7 542.203 304.16 542.503 304.76L541.063 305.6C540.833 305.23 540.543 304.955 540.193 304.775C539.853 304.585 539.478 304.49 539.068 304.49C538.368 304.49 537.788 304.72 537.328 305.18C536.868 305.63 536.638 306.235 536.638 306.995C536.638 307.755 536.863 308.365 537.313 308.825C537.773 309.275 538.358 309.5 539.068 309.5C539.478 309.5 539.853 309.41 540.193 309.23C540.543 309.04 540.833 308.76 541.063 308.39L542.503 309.23C542.193 309.83 541.738 310.295 541.138 310.625C540.548 310.945 539.863 311.105 539.083 311.105ZM552.029 311V305.69L549.329 310.16H548.519L545.864 305.675V311H544.154V302.99H546.119L548.969 308L551.954 302.99H553.709L553.724 311H552.029Z" fill="#011F3A"/>
<rect x="160" y="120" width="235" height="100" rx="25" fill="white"/>
<path d="M259.72 174.08V182H227.98V175.7L244.18 160.4C245.9 158.76 247.06 157.36 247.66 156.2C248.26 155 248.56 153.82 248.56 152.66C248.56 150.98 247.98 149.7 246.82 148.82C245.7 147.9 244.04 147.44 241.84 147.44C240 147.44 238.34 147.8 236.86 148.52C235.38 149.2 234.14 150.24 233.14 151.64L226.06 147.08C227.7 144.64 229.96 142.74 232.84 141.38C235.72 139.98 239.02 139.28 242.74 139.28C245.86 139.28 248.58 139.8 250.9 140.84C253.26 141.84 255.08 143.28 256.36 145.16C257.68 147 258.34 149.18 258.34 151.7C258.34 153.98 257.86 156.12 256.9 158.12C255.94 160.12 254.08 162.4 251.32 164.96L241.66 174.08H259.72ZM281.731 140V182H272.011V147.8H263.611V140H281.731ZM319.567 159.92C321.647 160.96 323.227 162.32 324.307 164C325.427 165.68 325.987 167.62 325.987 169.82C325.987 172.42 325.247 174.7 323.767 176.66C322.287 178.58 320.207 180.08 317.527 181.16C314.847 182.2 311.747 182.72 308.227 182.72C304.707 182.72 301.607 182.2 298.927 181.16C296.287 180.08 294.227 178.58 292.747 176.66C291.307 174.7 290.587 172.42 290.587 169.82C290.587 167.62 291.127 165.68 292.207 164C293.327 162.32 294.907 160.96 296.947 159.92C295.387 158.96 294.187 157.76 293.347 156.32C292.507 154.84 292.087 153.16 292.087 151.28C292.087 148.84 292.767 146.72 294.127 144.92C295.487 143.12 297.387 141.74 299.827 140.78C302.267 139.78 305.067 139.28 308.227 139.28C311.427 139.28 314.247 139.78 316.687 140.78C319.167 141.74 321.087 143.12 322.447 144.92C323.807 146.72 324.487 148.84 324.487 151.28C324.487 153.16 324.067 154.84 323.227 156.32C322.387 157.76 321.167 158.96 319.567 159.92ZM308.227 146.42C306.267 146.42 304.687 146.9 303.487 147.86C302.327 148.78 301.747 150.06 301.747 151.7C301.747 153.3 302.327 154.56 303.487 155.48C304.647 156.4 306.227 156.86 308.227 156.86C310.227 156.86 311.827 156.4 313.027 155.48C314.227 154.56 314.827 153.3 314.827 151.7C314.827 150.06 314.227 148.78 313.027 147.86C311.827 146.9 310.227 146.42 308.227 146.42ZM308.227 175.58C310.667 175.58 312.587 175.04 313.987 173.96C315.427 172.84 316.147 171.36 316.147 169.52C316.147 167.68 315.427 166.22 313.987 165.14C312.587 164.06 310.667 163.52 308.227 163.52C305.827 163.52 303.927 164.06 302.527 165.14C301.127 166.22 300.427 167.68 300.427 169.52C300.427 171.4 301.127 172.88 302.527 173.96C303.927 175.04 305.827 175.58 308.227 175.58Z" fill="#148EFF"/>
<path d="M178.76 204.04C178.76 204.17 178.75 204.355 178.73 204.595H172.445C172.555 205.185 172.84 205.655 173.3 206.005C173.77 206.345 174.35 206.515 175.04 206.515C175.92 206.515 176.645 206.225 177.215 205.645L178.22 206.8C177.86 207.23 177.405 207.555 176.855 207.775C176.305 207.995 175.685 208.105 174.995 208.105C174.115 208.105 173.34 207.93 172.67 207.58C172 207.23 171.48 206.745 171.11 206.125C170.75 205.495 170.57 204.785 170.57 203.995C170.57 203.215 170.745 202.515 171.095 201.895C171.455 201.265 171.95 200.775 172.58 200.425C173.21 200.075 173.92 199.9 174.71 199.9C175.49 199.9 176.185 200.075 176.795 200.425C177.415 200.765 177.895 201.25 178.235 201.88C178.585 202.5 178.76 203.22 178.76 204.04ZM174.71 201.4C174.11 201.4 173.6 201.58 173.18 201.94C172.77 202.29 172.52 202.76 172.43 203.35H176.975C176.895 202.77 176.65 202.3 176.24 201.94C175.83 201.58 175.32 201.4 174.71 201.4ZM173.21 198.73C172.95 198.73 172.735 198.645 172.565 198.475C172.395 198.305 172.31 198.09 172.31 197.83C172.31 197.56 172.395 197.34 172.565 197.17C172.735 197 172.95 196.915 173.21 196.915C173.47 196.915 173.685 197 173.855 197.17C174.025 197.34 174.11 197.56 174.11 197.83C174.11 198.09 174.025 198.305 173.855 198.475C173.685 198.645 173.47 198.73 173.21 198.73ZM176.12 198.73C175.86 198.73 175.645 198.645 175.475 198.475C175.305 198.305 175.22 198.09 175.22 197.83C175.22 197.56 175.305 197.34 175.475 197.17C175.645 197 175.86 196.915 176.12 196.915C176.38 196.915 176.595 197 176.765 197.17C176.935 197.34 177.02 197.56 177.02 197.83C177.02 198.09 176.935 198.305 176.765 198.475C176.595 198.645 176.38 198.73 176.12 198.73ZM188.686 208V202.69L185.986 207.16H185.176L182.521 202.675V208H180.811V199.99H182.776L185.626 205L188.611 199.99H190.366L190.381 208H188.686ZM196.226 204.79H194.771V208H192.896V199.99H194.771V203.23H196.271L198.641 199.99H200.651L197.741 203.845L200.846 208H198.641L196.226 204.79ZM205.475 208.105C204.665 208.105 203.935 207.93 203.285 207.58C202.635 207.23 202.125 206.745 201.755 206.125C201.395 205.495 201.215 204.785 201.215 203.995C201.215 203.205 201.395 202.5 201.755 201.88C202.125 201.26 202.635 200.775 203.285 200.425C203.935 200.075 204.665 199.9 205.475 199.9C206.295 199.9 207.03 200.075 207.68 200.425C208.33 200.775 208.835 201.26 209.195 201.88C209.565 202.5 209.75 203.205 209.75 203.995C209.75 204.785 209.565 205.495 209.195 206.125C208.835 206.745 208.33 207.23 207.68 207.58C207.03 207.93 206.295 208.105 205.475 208.105ZM205.475 206.5C206.165 206.5 206.735 206.27 207.185 205.81C207.635 205.35 207.86 204.745 207.86 203.995C207.86 203.245 207.635 202.64 207.185 202.18C206.735 201.72 206.165 201.49 205.475 201.49C204.785 201.49 204.215 201.72 203.765 202.18C203.325 202.64 203.105 203.245 203.105 203.995C203.105 204.745 203.325 205.35 203.765 205.81C204.215 206.27 204.785 206.5 205.475 206.5ZM215.247 208.105C214.417 208.105 213.672 207.93 213.012 207.58C212.352 207.23 211.837 206.745 211.467 206.125C211.097 205.495 210.912 204.785 210.912 203.995C210.912 203.205 211.097 202.5 211.467 201.88C211.837 201.26 212.347 200.775 212.997 200.425C213.657 200.075 214.407 199.9 215.247 199.9C216.037 199.9 216.727 200.06 217.317 200.38C217.917 200.7 218.367 201.16 218.667 201.76L217.227 202.6C216.997 202.23 216.707 201.955 216.357 201.775C216.017 201.585 215.642 201.49 215.232 201.49C214.532 201.49 213.952 201.72 213.492 202.18C213.032 202.63 212.802 203.235 212.802 203.995C212.802 204.755 213.027 205.365 213.477 205.825C213.937 206.275 214.522 206.5 215.232 206.5C215.642 206.5 216.017 206.41 216.357 206.23C216.707 206.04 216.997 205.76 217.227 205.39L218.667 206.23C218.357 206.83 217.902 207.295 217.302 207.625C216.712 207.945 216.027 208.105 215.247 208.105ZM226.589 201.58H223.784V208H221.909V201.58H219.089V199.99H226.589V201.58ZM231.969 202.63C232.989 202.63 233.769 202.86 234.309 203.32C234.859 203.78 235.134 204.43 235.134 205.27C235.134 206.15 234.834 206.83 234.234 207.31C233.634 207.79 232.789 208.025 231.699 208.015L227.949 208V199.99H229.824V202.615L231.969 202.63ZM231.534 206.635C232.084 206.645 232.504 206.53 232.794 206.29C233.084 206.05 233.229 205.7 233.229 205.24C233.229 204.79 233.089 204.46 232.809 204.25C232.529 204.04 232.104 203.93 231.534 203.92L229.824 203.905V206.62L231.534 206.635ZM249.478 206.41V209.785H247.723V208H241.543V209.785H239.803V206.41H240.178C240.688 206.39 241.033 206.065 241.213 205.435C241.403 204.795 241.528 203.895 241.588 202.735L241.693 199.99H248.293V206.41H249.478ZM243.298 202.87C243.258 203.79 243.183 204.54 243.073 205.12C242.963 205.7 242.763 206.13 242.473 206.41H246.418V201.58H243.343L243.298 202.87ZM258.413 199.99V208H256.538V201.58H253.538L253.463 203.17C253.413 204.23 253.313 205.12 253.163 205.84C253.023 206.55 252.778 207.115 252.428 207.535C252.088 207.945 251.618 208.15 251.018 208.15C250.738 208.15 250.393 208.095 249.983 207.985L250.073 206.41C250.213 206.44 250.333 206.455 250.433 206.455C250.813 206.455 251.098 206.305 251.288 206.005C251.478 205.695 251.598 205.33 251.648 204.91C251.708 204.48 251.758 203.87 251.798 203.08L251.933 199.99H258.413ZM267.703 199.99V208H266.023V205.585H263.908L262.273 208H260.263L262.153 205.33C261.573 205.13 261.128 204.825 260.818 204.415C260.518 203.995 260.368 203.48 260.368 202.87C260.368 201.95 260.693 201.24 261.343 200.74C261.993 200.24 262.888 199.99 264.028 199.99H267.703ZM264.088 201.565C262.878 201.565 262.273 202.02 262.273 202.93C262.273 203.83 262.858 204.28 264.028 204.28H266.023V201.565H264.088ZM282.245 208V202.69L279.545 207.16H278.735L276.08 202.675V208H274.37V199.99H276.335L279.185 205L282.17 199.99H283.925L283.94 208H282.245ZM290.025 208.105C289.215 208.105 288.485 207.93 287.835 207.58C287.185 207.23 286.675 206.745 286.305 206.125C285.945 205.495 285.765 204.785 285.765 203.995C285.765 203.205 285.945 202.5 286.305 201.88C286.675 201.26 287.185 200.775 287.835 200.425C288.485 200.075 289.215 199.9 290.025 199.9C290.845 199.9 291.58 200.075 292.23 200.425C292.88 200.775 293.385 201.26 293.745 201.88C294.115 202.5 294.3 203.205 294.3 203.995C294.3 204.785 294.115 205.495 293.745 206.125C293.385 206.745 292.88 207.23 292.23 207.58C291.58 207.93 290.845 208.105 290.025 208.105ZM290.025 206.5C290.715 206.5 291.285 206.27 291.735 205.81C292.185 205.35 292.41 204.745 292.41 203.995C292.41 203.245 292.185 202.64 291.735 202.18C291.285 201.72 290.715 201.49 290.025 201.49C289.335 201.49 288.765 201.72 288.315 202.18C287.875 202.64 287.655 203.245 287.655 203.995C287.655 204.745 287.875 205.35 288.315 205.81C288.765 206.27 289.335 206.5 290.025 206.5ZM296.153 199.99H298.028V205.27L302.453 199.99H304.163V208H302.288V202.72L297.878 208H296.153V199.99ZM300.038 199.045C299.228 199.045 298.608 198.86 298.178 198.49C297.758 198.11 297.543 197.56 297.533 196.84H298.778C298.788 197.2 298.898 197.485 299.108 197.695C299.328 197.905 299.633 198.01 300.023 198.01C300.403 198.01 300.703 197.905 300.923 197.695C301.153 197.485 301.273 197.2 301.283 196.84H302.558C302.548 197.56 302.328 198.11 301.898 198.49C301.468 198.86 300.848 199.045 300.038 199.045ZM310.015 204.79H308.56V208H306.685V199.99H308.56V203.23H310.06L312.43 199.99H314.44L311.53 203.845L314.635 208H312.43L310.015 204.79ZM315.957 199.99H317.832V205.27L322.257 199.99H323.967V208H322.092V202.72L317.682 208H315.957V199.99ZM337.895 199.99V208H336.02V201.58H333.02L332.945 203.17C332.895 204.23 332.795 205.12 332.645 205.84C332.505 206.55 332.26 207.115 331.91 207.535C331.57 207.945 331.1 208.15 330.5 208.15C330.22 208.15 329.875 208.095 329.465 207.985L329.555 206.41C329.695 206.44 329.815 206.455 329.915 206.455C330.295 206.455 330.58 206.305 330.77 206.005C330.96 205.695 331.08 205.33 331.13 204.91C331.19 204.48 331.24 203.87 331.28 203.08L331.415 199.99H337.895ZM344.44 202.63C345.46 202.63 346.24 202.86 346.78 203.32C347.33 203.78 347.605 204.43 347.605 205.27C347.605 206.15 347.305 206.83 346.705 207.31C346.105 207.79 345.26 208.025 344.17 208.015L340.42 208V199.99H342.295V202.615L344.44 202.63ZM344.005 206.635C344.555 206.645 344.975 206.53 345.265 206.29C345.555 206.05 345.7 205.7 345.7 205.24C345.7 204.79 345.56 204.46 345.28 204.25C345 204.04 344.575 203.93 344.005 203.92L342.295 203.905V206.62L344.005 206.635ZM357.627 206.41V209.785H355.872V208H349.692V209.785H347.952V206.41H348.327C348.837 206.39 349.182 206.065 349.362 205.435C349.552 204.795 349.677 203.895 349.737 202.735L349.842 199.99H356.442V206.41H357.627ZM351.447 202.87C351.407 203.79 351.332 204.54 351.222 205.12C351.112 205.7 350.912 206.13 350.622 206.41H354.567V201.58H351.492L351.447 202.87ZM362.287 199.9C363.467 199.9 364.367 200.185 364.987 200.755C365.617 201.315 365.932 202.165 365.932 203.305V208H364.162V207.025C363.932 207.375 363.602 207.645 363.172 207.835C362.752 208.015 362.242 208.105 361.642 208.105C361.042 208.105 360.517 208.005 360.067 207.805C359.617 207.595 359.267 207.31 359.017 206.95C358.777 206.58 358.657 206.165 358.657 205.705C358.657 204.985 358.922 204.41 359.452 203.98C359.992 203.54 360.837 203.32 361.987 203.32H364.057V203.2C364.057 202.64 363.887 202.21 363.547 201.91C363.217 201.61 362.722 201.46 362.062 201.46C361.612 201.46 361.167 201.53 360.727 201.67C360.297 201.81 359.932 202.005 359.632 202.255L358.897 200.89C359.317 200.57 359.822 200.325 360.412 200.155C361.002 199.985 361.627 199.9 362.287 199.9ZM362.032 206.74C362.502 206.74 362.917 206.635 363.277 206.425C363.647 206.205 363.907 205.895 364.057 205.495V204.565H362.122C361.042 204.565 360.502 204.92 360.502 205.63C360.502 205.97 360.637 206.24 360.907 206.44C361.177 206.64 361.552 206.74 362.032 206.74ZM368.837 205.615C369.187 205.615 369.477 205.73 369.707 205.96C369.937 206.19 370.052 206.49 370.052 206.86C370.052 207.02 370.027 207.19 369.977 207.37C369.937 207.54 369.847 207.8 369.707 208.15L368.942 210.265H367.727L368.327 207.97C368.107 207.88 367.932 207.74 367.802 207.55C367.682 207.35 367.622 207.12 367.622 206.86C367.622 206.49 367.737 206.19 367.967 205.96C368.197 205.73 368.487 205.615 368.837 205.615ZM383.32 199.99V208H381.445V201.58H378.445L378.37 203.17C378.32 204.23 378.22 205.12 378.07 205.84C377.93 206.55 377.685 207.115 377.335 207.535C376.995 207.945 376.525 208.15 375.925 208.15C375.645 208.15 375.3 208.095 374.89 207.985L374.98 206.41C375.12 206.44 375.24 206.455 375.34 206.455C375.72 206.455 376.005 206.305 376.195 206.005C376.385 205.695 376.505 205.33 376.555 204.91C376.615 204.48 376.665 203.87 376.705 203.08L376.84 199.99H383.32Z" fill="#011F3A"/>
<rect x="204" y="458" width="250" height="100" rx="25" fill="white"/>
<path d="M294.06 493.66C296.74 493.66 299.18 494.2 301.38 495.28C303.58 496.36 305.32 497.9 306.6 499.9C307.88 501.86 308.52 504.14 308.52 506.74C308.52 509.54 307.82 512 306.42 514.12C305.02 516.24 303.1 517.88 300.66 519.04C298.26 520.16 295.58 520.72 292.62 520.72C286.74 520.72 282.14 518.92 278.82 515.32C275.5 511.72 273.84 506.58 273.84 499.9C273.84 495.14 274.74 491.06 276.54 487.66C278.34 484.26 280.84 481.68 284.04 479.92C287.28 478.16 291.02 477.28 295.26 477.28C297.5 477.28 299.64 477.54 301.68 478.06C303.76 478.54 305.52 479.24 306.96 480.16L303.36 487.3C301.28 485.9 298.66 485.2 295.5 485.2C291.94 485.2 289.12 486.24 287.04 488.32C284.96 490.4 283.84 493.42 283.68 497.38C286.16 494.9 289.62 493.66 294.06 493.66ZM292.08 513.46C294.16 513.46 295.84 512.9 297.12 511.78C298.44 510.66 299.1 509.14 299.1 507.22C299.1 505.3 298.44 503.78 297.12 502.66C295.84 501.5 294.12 500.92 291.96 500.92C289.84 500.92 288.1 501.52 286.74 502.72C285.38 503.88 284.7 505.38 284.7 507.22C284.7 509.06 285.36 510.56 286.68 511.72C288 512.88 289.8 513.46 292.08 513.46ZM345.223 512.08V520H313.483V513.7L329.683 498.4C331.403 496.76 332.563 495.36 333.163 494.2C333.763 493 334.063 491.82 334.063 490.66C334.063 488.98 333.483 487.7 332.323 486.82C331.203 485.9 329.543 485.44 327.343 485.44C325.503 485.44 323.843 485.8 322.363 486.52C320.883 487.2 319.643 488.24 318.643 489.64L311.563 485.08C313.203 482.64 315.463 480.74 318.343 479.38C321.223 477.98 324.523 477.28 328.243 477.28C331.363 477.28 334.083 477.8 336.403 478.84C338.763 479.84 340.583 481.28 341.863 483.16C343.183 485 343.843 487.18 343.843 489.7C343.843 491.98 343.363 494.12 342.403 496.12C341.443 498.12 339.583 500.4 336.823 502.96L327.163 512.08H345.223ZM383.797 478V484.3L368.197 520H357.637L372.697 485.92H358.777V492.76H350.137V478H383.797Z" fill="#ED5835"/>
<path d="M222.76 542.04C222.76 542.17 222.75 542.355 222.73 542.595H216.445C216.555 543.185 216.84 543.655 217.3 544.005C217.77 544.345 218.35 544.515 219.04 544.515C219.92 544.515 220.645 544.225 221.215 543.645L222.22 544.8C221.86 545.23 221.405 545.555 220.855 545.775C220.305 545.995 219.685 546.105 218.995 546.105C218.115 546.105 217.34 545.93 216.67 545.58C216 545.23 215.48 544.745 215.11 544.125C214.75 543.495 214.57 542.785 214.57 541.995C214.57 541.215 214.745 540.515 215.095 539.895C215.455 539.265 215.95 538.775 216.58 538.425C217.21 538.075 217.92 537.9 218.71 537.9C219.49 537.9 220.185 538.075 220.795 538.425C221.415 538.765 221.895 539.25 222.235 539.88C222.585 540.5 222.76 541.22 222.76 542.04ZM218.71 539.4C218.11 539.4 217.6 539.58 217.18 539.94C216.77 540.29 216.52 540.76 216.43 541.35H220.975C220.895 540.77 220.65 540.3 220.24 539.94C219.83 539.58 219.32 539.4 218.71 539.4ZM217.21 536.73C216.95 536.73 216.735 536.645 216.565 536.475C216.395 536.305 216.31 536.09 216.31 535.83C216.31 535.56 216.395 535.34 216.565 535.17C216.735 535 216.95 534.915 217.21 534.915C217.47 534.915 217.685 535 217.855 535.17C218.025 535.34 218.11 535.56 218.11 535.83C218.11 536.09 218.025 536.305 217.855 536.475C217.685 536.645 217.47 536.73 217.21 536.73ZM220.12 536.73C219.86 536.73 219.645 536.645 219.475 536.475C219.305 536.305 219.22 536.09 219.22 535.83C219.22 535.56 219.305 535.34 219.475 535.17C219.645 535 219.86 534.915 220.12 534.915C220.38 534.915 220.595 535 220.765 535.17C220.935 535.34 221.02 535.56 221.02 535.83C221.02 536.09 220.935 536.305 220.765 536.475C220.595 536.645 220.38 536.73 220.12 536.73ZM232.686 546V540.69L229.986 545.16H229.176L226.521 540.675V546H224.811V537.99H226.776L229.626 543L232.611 537.99H234.366L234.381 546H232.686ZM240.226 542.79H238.771V546H236.896V537.99H238.771V541.23H240.271L242.641 537.99H244.651L241.741 541.845L244.846 546H242.641L240.226 542.79ZM249.475 546.105C248.665 546.105 247.935 545.93 247.285 545.58C246.635 545.23 246.125 544.745 245.755 544.125C245.395 543.495 245.215 542.785 245.215 541.995C245.215 541.205 245.395 540.5 245.755 539.88C246.125 539.26 246.635 538.775 247.285 538.425C247.935 538.075 248.665 537.9 249.475 537.9C250.295 537.9 251.03 538.075 251.68 538.425C252.33 538.775 252.835 539.26 253.195 539.88C253.565 540.5 253.75 541.205 253.75 541.995C253.75 542.785 253.565 543.495 253.195 544.125C252.835 544.745 252.33 545.23 251.68 545.58C251.03 545.93 250.295 546.105 249.475 546.105ZM249.475 544.5C250.165 544.5 250.735 544.27 251.185 543.81C251.635 543.35 251.86 542.745 251.86 541.995C251.86 541.245 251.635 540.64 251.185 540.18C250.735 539.72 250.165 539.49 249.475 539.49C248.785 539.49 248.215 539.72 247.765 540.18C247.325 540.64 247.105 541.245 247.105 541.995C247.105 542.745 247.325 543.35 247.765 543.81C248.215 544.27 248.785 544.5 249.475 544.5ZM259.247 546.105C258.417 546.105 257.672 545.93 257.012 545.58C256.352 545.23 255.837 544.745 255.467 544.125C255.097 543.495 254.912 542.785 254.912 541.995C254.912 541.205 255.097 540.5 255.467 539.88C255.837 539.26 256.347 538.775 256.997 538.425C257.657 538.075 258.407 537.9 259.247 537.9C260.037 537.9 260.727 538.06 261.317 538.38C261.917 538.7 262.367 539.16 262.667 539.76L261.227 540.6C260.997 540.23 260.707 539.955 260.357 539.775C260.017 539.585 259.642 539.49 259.232 539.49C258.532 539.49 257.952 539.72 257.492 540.18C257.032 540.63 256.802 541.235 256.802 541.995C256.802 542.755 257.027 543.365 257.477 543.825C257.937 544.275 258.522 544.5 259.232 544.5C259.642 544.5 260.017 544.41 260.357 544.23C260.707 544.04 260.997 543.76 261.227 543.39L262.667 544.23C262.357 544.83 261.902 545.295 261.302 545.625C260.712 545.945 260.027 546.105 259.247 546.105ZM270.589 539.58H267.784V546H265.909V539.58H263.089V537.99H270.589V539.58ZM275.969 540.63C276.989 540.63 277.769 540.86 278.309 541.32C278.859 541.78 279.134 542.43 279.134 543.27C279.134 544.15 278.834 544.83 278.234 545.31C277.634 545.79 276.789 546.025 275.699 546.015L271.949 546V537.99H273.824V540.615L275.969 540.63ZM275.534 544.635C276.084 544.645 276.504 544.53 276.794 544.29C277.084 544.05 277.229 543.7 277.229 543.24C277.229 542.79 277.089 542.46 276.809 542.25C276.529 542.04 276.104 541.93 275.534 541.92L273.824 541.905V544.62L275.534 544.635ZM293.478 544.41V547.785H291.723V546H285.543V547.785H283.803V544.41H284.178C284.688 544.39 285.033 544.065 285.213 543.435C285.403 542.795 285.528 541.895 285.588 540.735L285.693 537.99H292.293V544.41H293.478ZM287.298 540.87C287.258 541.79 287.183 542.54 287.073 543.12C286.963 543.7 286.763 544.13 286.473 544.41H290.418V539.58H287.343L287.298 540.87ZM302.413 537.99V546H300.538V539.58H297.538L297.463 541.17C297.413 542.23 297.313 543.12 297.163 543.84C297.023 544.55 296.778 545.115 296.428 545.535C296.088 545.945 295.618 546.15 295.018 546.15C294.738 546.15 294.393 546.095 293.983 545.985L294.073 544.41C294.213 544.44 294.333 544.455 294.433 544.455C294.813 544.455 295.098 544.305 295.288 544.005C295.478 543.695 295.598 543.33 295.648 542.91C295.708 542.48 295.758 541.87 295.798 541.08L295.933 537.99H302.413ZM311.703 537.99V546H310.023V543.585H307.908L306.273 546H304.263L306.153 543.33C305.573 543.13 305.128 542.825 304.818 542.415C304.518 541.995 304.368 541.48 304.368 540.87C304.368 539.95 304.693 539.24 305.343 538.74C305.993 538.24 306.888 537.99 308.028 537.99H311.703ZM308.088 539.565C306.878 539.565 306.273 540.02 306.273 540.93C306.273 541.83 306.858 542.28 308.028 542.28H310.023V539.565H308.088ZM323.155 541.83C323.655 541.97 324.04 542.2 324.31 542.52C324.59 542.83 324.73 543.205 324.73 543.645C324.73 544.135 324.565 544.57 324.235 544.95C323.905 545.32 323.45 545.61 322.87 545.82C322.29 546.03 321.63 546.135 320.89 546.135C320.27 546.135 319.665 546.065 319.075 545.925C318.485 545.775 317.95 545.565 317.47 545.295L318.01 543.9C318.4 544.12 318.84 544.29 319.33 544.41C319.82 544.53 320.31 544.59 320.8 544.59C321.43 544.59 321.92 544.495 322.27 544.305C322.63 544.105 322.81 543.835 322.81 543.495C322.81 543.185 322.67 542.945 322.39 542.775C322.12 542.605 321.735 542.52 321.235 542.52H319.675V541.26H321.085C321.555 541.26 321.92 541.18 322.18 541.02C322.45 540.86 322.585 540.635 322.585 540.345C322.585 540.055 322.425 539.825 322.105 539.655C321.785 539.485 321.345 539.4 320.785 539.4C319.985 539.4 319.14 539.595 318.25 539.985L317.77 538.605C318.82 538.115 319.88 537.87 320.95 537.87C321.63 537.87 322.24 537.965 322.78 538.155C323.32 538.335 323.74 538.595 324.04 538.935C324.35 539.265 324.505 539.645 324.505 540.075C324.505 540.465 324.385 540.815 324.145 541.125C323.905 541.425 323.575 541.66 323.155 541.83ZM329.661 537.9C330.841 537.9 331.741 538.185 332.361 538.755C332.991 539.315 333.306 540.165 333.306 541.305V546H331.536V545.025C331.306 545.375 330.976 545.645 330.546 545.835C330.126 546.015 329.616 546.105 329.016 546.105C328.416 546.105 327.891 546.005 327.441 545.805C326.991 545.595 326.641 545.31 326.391 544.95C326.151 544.58 326.031 544.165 326.031 543.705C326.031 542.985 326.296 542.41 326.826 541.98C327.366 541.54 328.211 541.32 329.361 541.32H331.431V541.2C331.431 540.64 331.261 540.21 330.921 539.91C330.591 539.61 330.096 539.46 329.436 539.46C328.986 539.46 328.541 539.53 328.101 539.67C327.671 539.81 327.306 540.005 327.006 540.255L326.271 538.89C326.691 538.57 327.196 538.325 327.786 538.155C328.376 537.985 329.001 537.9 329.661 537.9ZM329.406 544.74C329.876 544.74 330.291 544.635 330.651 544.425C331.021 544.205 331.281 543.895 331.431 543.495V542.565H329.496C328.416 542.565 327.876 542.92 327.876 543.63C327.876 543.97 328.011 544.24 328.281 544.44C328.551 544.64 328.926 544.74 329.406 544.74ZM342.886 537.99V546H341.011V539.58H338.011L337.936 541.17C337.886 542.23 337.786 543.12 337.636 543.84C337.496 544.55 337.251 545.115 336.901 545.535C336.561 545.945 336.091 546.15 335.491 546.15C335.211 546.15 334.866 546.095 334.456 545.985L334.546 544.41C334.686 544.44 334.806 544.455 334.906 544.455C335.286 544.455 335.571 544.305 335.761 544.005C335.951 543.695 336.071 543.33 336.121 542.91C336.181 542.48 336.231 541.87 336.271 541.08L336.406 537.99H342.886ZM345.411 537.99H347.286V543.27L351.711 537.99H353.421V546H351.546V540.72L347.136 546H345.411V537.99ZM361.749 541.83C362.739 542.13 363.234 542.77 363.234 543.75C363.234 544.47 362.964 545.025 362.424 545.415C361.884 545.805 361.084 546 360.024 546H355.944V537.99H359.859C360.839 537.99 361.604 538.17 362.154 538.53C362.704 538.89 362.979 539.4 362.979 540.06C362.979 540.47 362.869 540.825 362.649 541.125C362.439 541.425 362.139 541.66 361.749 541.83ZM357.729 541.335H359.694C360.664 541.335 361.149 541 361.149 540.33C361.149 539.68 360.664 539.355 359.694 539.355H357.729V541.335ZM359.874 544.635C360.904 544.635 361.419 544.3 361.419 543.63C361.419 543.28 361.299 543.02 361.059 542.85C360.819 542.67 360.444 542.58 359.934 542.58H357.729V544.635H359.874ZM368.561 542.79H367.106V546H365.231V537.99H367.106V541.23H368.606L370.976 537.99H372.986L370.076 541.845L373.181 546H370.976L368.561 542.79ZM374.503 537.99H376.378V543.27L380.803 537.99H382.513V546H380.638V540.72L376.228 546H374.503V537.99ZM396.441 537.99V546H394.566V539.58H391.566L391.491 541.17C391.441 542.23 391.341 543.12 391.191 543.84C391.051 544.55 390.806 545.115 390.456 545.535C390.116 545.945 389.646 546.15 389.046 546.15C388.766 546.15 388.421 546.095 388.011 545.985L388.101 544.41C388.241 544.44 388.361 544.455 388.461 544.455C388.841 544.455 389.126 544.305 389.316 544.005C389.506 543.695 389.626 543.33 389.676 542.91C389.736 542.48 389.786 541.87 389.826 541.08L389.961 537.99H396.441ZM402.986 540.63C404.006 540.63 404.786 540.86 405.326 541.32C405.876 541.78 406.151 542.43 406.151 543.27C406.151 544.15 405.851 544.83 405.251 545.31C404.651 545.79 403.806 546.025 402.716 546.015L398.966 546V537.99H400.841V540.615L402.986 540.63ZM402.551 544.635C403.101 544.645 403.521 544.53 403.811 544.29C404.101 544.05 404.246 543.7 404.246 543.24C404.246 542.79 404.106 542.46 403.826 542.25C403.546 542.04 403.121 541.93 402.551 541.92L400.841 541.905V544.62L402.551 544.635ZM416.173 544.41V547.785H414.418V546H408.238V547.785H406.498V544.41H406.873C407.383 544.39 407.728 544.065 407.908 543.435C408.098 542.795 408.223 541.895 408.283 540.735L408.388 537.99H414.988V544.41H416.173ZM409.993 540.87C409.953 541.79 409.878 542.54 409.768 543.12C409.658 543.7 409.458 544.13 409.168 544.41H413.113V539.58H410.038L409.993 540.87ZM420.833 537.9C422.013 537.9 422.913 538.185 423.533 538.755C424.163 539.315 424.478 540.165 424.478 541.305V546H422.708V545.025C422.478 545.375 422.148 545.645 421.718 545.835C421.298 546.015 420.788 546.105 420.188 546.105C419.588 546.105 419.063 546.005 418.613 545.805C418.163 545.595 417.813 545.31 417.563 544.95C417.323 544.58 417.203 544.165 417.203 543.705C417.203 542.985 417.468 542.41 417.998 541.98C418.538 541.54 419.383 541.32 420.533 541.32H422.603V541.2C422.603 540.64 422.433 540.21 422.093 539.91C421.763 539.61 421.268 539.46 420.608 539.46C420.158 539.46 419.713 539.53 419.273 539.67C418.843 539.81 418.478 540.005 418.178 540.255L417.443 538.89C417.863 538.57 418.368 538.325 418.958 538.155C419.548 537.985 420.173 537.9 420.833 537.9ZM420.578 544.74C421.048 544.74 421.463 544.635 421.823 544.425C422.193 544.205 422.453 543.895 422.603 543.495V542.565H420.668C419.588 542.565 419.048 542.92 419.048 543.63C419.048 543.97 419.183 544.24 419.453 544.44C419.723 544.64 420.098 544.74 420.578 544.74ZM427.383 543.615C427.733 543.615 428.023 543.73 428.253 543.96C428.483 544.19 428.598 544.49 428.598 544.86C428.598 545.02 428.573 545.19 428.523 545.37C428.483 545.54 428.393 545.8 428.253 546.15L427.488 548.265H426.273L426.873 545.97C426.653 545.88 426.478 545.74 426.348 545.55C426.228 545.35 426.168 545.12 426.168 544.86C426.168 544.49 426.283 544.19 426.513 543.96C426.743 543.73 427.033 543.615 427.383 543.615ZM441.866 537.99V546H439.991V539.58H436.991L436.916 541.17C436.866 542.23 436.766 543.12 436.616 543.84C436.476 544.55 436.231 545.115 435.881 545.535C435.541 545.945 435.071 546.15 434.471 546.15C434.191 546.15 433.846 546.095 433.436 545.985L433.526 544.41C433.666 544.44 433.786 544.455 433.886 544.455C434.266 544.455 434.551 544.305 434.741 544.005C434.931 543.695 435.051 543.33 435.101 542.91C435.161 542.48 435.211 541.87 435.251 541.08L435.386 537.99H441.866Z" fill="#011F3A"/>
<circle r="9.5" transform="matrix(1 0 0 -1 329 348)" fill="#ED5835" stroke="#ED5835"/>
<circle r="5" transform="matrix(1 0 0 -1 329 348)" fill="white"/>
<path d="M329 357L329 458" stroke="#ED5835"/>
<circle cx="278" cy="264" r="9.5" fill="#148EFF" stroke="#148EFF"/>
<circle cx="278" cy="264" r="5" fill="white"/>
<path d="M278 255L278 225" stroke="#148EFF"/>
<defs>
<clipPath id="clip0_1127_214364">
<rect width="40" height="83" fill="white" transform="translate(309 264)"/>
</clipPath>
</defs>
</svg>
