<svg width="570" height="568" viewBox="0 0 570 568" fill="none" xmlns="http://www.w3.org/2000/svg">
<mask id="mask0_1127_214538" style="mask-type:alpha" maskUnits="userSpaceOnUse" x="130" y="356" width="340" height="64">
<path d="M300 419.413C393.888 419.413 470 405.982 470 389.413C470 380.5 447.973 372.494 413 367C324.874 353.154 275.702 353.063 187 367C152.027 372.494 130 380.5 130 389.413C130 405.982 206.112 419.413 300 419.413Z" fill="url(#paint0_linear_1127_214538)"/>
</mask>
<g mask="url(#mask0_1127_214538)">
<line y1="-0.5" x2="289.119" y2="-0.5" transform="matrix(-0.636285 0.771454 -0.927145 -0.374701 194.352 185.983)" stroke="#ED5835"/>
<line y1="-0.5" x2="289.119" y2="-0.5" transform="matrix(-0.636285 0.771454 -0.927145 -0.374701 198.07 187.486)" stroke="#ED5835"/>
<line y1="-0.5" x2="289.119" y2="-0.5" transform="matrix(-0.636285 0.771454 -0.927145 -0.374701 201.789 188.989)" stroke="#ED5835"/>
<line y1="-0.5" x2="289.119" y2="-0.5" transform="matrix(-0.636285 0.771454 -0.927145 -0.374701 205.508 190.492)" stroke="#ED5835"/>
<line y1="-0.5" x2="289.119" y2="-0.5" transform="matrix(-0.636285 0.771454 -0.927145 -0.374701 209.23 191.995)" stroke="#ED5835"/>
<line y1="-0.5" x2="289.119" y2="-0.5" transform="matrix(-0.636285 0.771454 -0.927146 -0.374701 212.945 193.498)" stroke="#ED5835"/>
<line y1="-0.5" x2="289.119" y2="-0.5" transform="matrix(-0.636285 0.771454 -0.927145 -0.374701 216.664 195.001)" stroke="#ED5835"/>
<line y1="-0.5" x2="289.119" y2="-0.5" transform="matrix(-0.636285 0.771454 -0.927145 -0.374701 220.379 196.503)" stroke="#ED5835"/>
<line y1="-0.5" x2="289.119" y2="-0.5" transform="matrix(-0.636285 0.771454 -0.927145 -0.374701 224.102 198.006)" stroke="#ED5835"/>
<line y1="-0.5" x2="289.119" y2="-0.5" transform="matrix(-0.636285 0.771454 -0.927145 -0.374701 227.816 199.51)" stroke="#ED5835"/>
<line y1="-0.5" x2="289.119" y2="-0.5" transform="matrix(-0.636285 0.771454 -0.927146 -0.374701 231.539 201.013)" stroke="#ED5835"/>
<line y1="-0.5" x2="289.119" y2="-0.5" transform="matrix(-0.636285 0.771454 -0.927145 -0.374701 235.254 202.516)" stroke="#ED5835"/>
<line y1="-0.5" x2="289.119" y2="-0.5" transform="matrix(-0.636285 0.771454 -0.927145 -0.374701 238.977 204.019)" stroke="#ED5835"/>
<line y1="-0.5" x2="289.119" y2="-0.5" transform="matrix(-0.636285 0.771454 -0.927145 -0.374701 242.691 205.521)" stroke="#ED5835"/>
<line y1="-0.5" x2="289.119" y2="-0.5" transform="matrix(-0.636285 0.771454 -0.927145 -0.374701 246.414 207.024)" stroke="#ED5835"/>
<line y1="-0.5" x2="289.119" y2="-0.5" transform="matrix(-0.636285 0.771454 -0.927145 -0.374701 250.133 208.527)" stroke="#ED5835"/>
<line y1="-0.5" x2="289.119" y2="-0.5" transform="matrix(-0.636285 0.771454 -0.927145 -0.374701 253.852 210.03)" stroke="#ED5835"/>
<line y1="-0.5" x2="289.119" y2="-0.5" transform="matrix(-0.636285 0.771454 -0.927145 -0.374701 257.57 211.533)" stroke="#ED5835"/>
<line y1="-0.5" x2="289.119" y2="-0.5" transform="matrix(-0.636285 0.771454 -0.927145 -0.374701 261.289 213.035)" stroke="#ED5835"/>
<line y1="-0.5" x2="289.119" y2="-0.5" transform="matrix(-0.636285 0.771454 -0.927145 -0.374701 265.008 214.539)" stroke="#ED5835"/>
<line y1="-0.5" x2="289.119" y2="-0.5" transform="matrix(-0.636285 0.771454 -0.927145 -0.374701 268.727 216.041)" stroke="#ED5835"/>
<line y1="-0.5" x2="289.119" y2="-0.5" transform="matrix(-0.636285 0.771454 -0.927145 -0.374701 272.449 217.544)" stroke="#ED5835"/>
<line y1="-0.5" x2="289.119" y2="-0.5" transform="matrix(-0.636285 0.771454 -0.927145 -0.374701 276.164 219.047)" stroke="#ED5835"/>
<line y1="-0.5" x2="289.119" y2="-0.5" transform="matrix(-0.636285 0.771454 -0.927145 -0.374701 279.887 220.55)" stroke="#ED5835"/>
<line y1="-0.5" x2="289.119" y2="-0.5" transform="matrix(-0.636285 0.771454 -0.927145 -0.374701 283.602 222.053)" stroke="#ED5835"/>
<line y1="-0.5" x2="289.119" y2="-0.5" transform="matrix(-0.636285 0.771454 -0.927145 -0.374701 287.324 223.556)" stroke="#ED5835"/>
<line y1="-0.5" x2="289.119" y2="-0.5" transform="matrix(-0.636285 0.771454 -0.927145 -0.374701 291.039 225.059)" stroke="#ED5835"/>
<line y1="-0.5" x2="289.119" y2="-0.5" transform="matrix(-0.636285 0.771454 -0.927145 -0.374701 294.762 226.562)" stroke="#ED5835"/>
<line y1="-0.5" x2="289.119" y2="-0.5" transform="matrix(-0.636285 0.771454 -0.927145 -0.374701 298.477 228.064)" stroke="#ED5835"/>
<line y1="-0.5" x2="289.119" y2="-0.5" transform="matrix(-0.636285 0.771454 -0.927145 -0.374701 302.199 229.568)" stroke="#ED5835"/>
<line y1="-0.5" x2="289.119" y2="-0.5" transform="matrix(-0.636285 0.771454 -0.927145 -0.374701 305.918 231.07)" stroke="#ED5835"/>
<line y1="-0.5" x2="289.119" y2="-0.5" transform="matrix(-0.636285 0.771454 -0.927145 -0.374701 309.637 232.573)" stroke="#ED5835"/>
<line y1="-0.5" x2="289.119" y2="-0.5" transform="matrix(-0.636285 0.771454 -0.927145 -0.374701 313.355 234.076)" stroke="#ED5835"/>
<line y1="-0.5" x2="289.119" y2="-0.5" transform="matrix(-0.636285 0.771454 -0.927145 -0.374701 317.074 235.579)" stroke="#ED5835"/>
<line y1="-0.5" x2="289.119" y2="-0.5" transform="matrix(-0.636285 0.771454 -0.927145 -0.374701 320.793 237.082)" stroke="#ED5835"/>
<line y1="-0.5" x2="289.119" y2="-0.5" transform="matrix(-0.636285 0.771454 -0.927145 -0.374701 324.512 238.585)" stroke="#ED5835"/>
<line y1="-0.5" x2="289.119" y2="-0.5" transform="matrix(-0.636285 0.771454 -0.927145 -0.374701 328.227 240.088)" stroke="#ED5835"/>
<line y1="-0.5" x2="289.119" y2="-0.5" transform="matrix(-0.636285 0.771454 -0.927145 -0.374701 331.945 241.591)" stroke="#ED5835"/>
<line y1="-0.5" x2="289.119" y2="-0.5" transform="matrix(-0.636285 0.771454 -0.927145 -0.374701 335.664 243.095)" stroke="#ED5835"/>
<line y1="-0.5" x2="289.119" y2="-0.5" transform="matrix(-0.636285 0.771454 -0.927145 -0.374701 339.383 244.598)" stroke="#ED5835"/>
<line y1="-0.5" x2="289.119" y2="-0.5" transform="matrix(-0.636285 0.771454 -0.927145 -0.374701 343.102 246.101)" stroke="#ED5835"/>
<line y1="-0.5" x2="289.119" y2="-0.5" transform="matrix(-0.636285 0.771454 -0.927145 -0.374701 346.82 247.604)" stroke="#ED5835"/>
<line y1="-0.5" x2="289.119" y2="-0.5" transform="matrix(-0.636285 0.771454 -0.927145 -0.374701 350.539 249.106)" stroke="#ED5835"/>
<line y1="-0.5" x2="289.119" y2="-0.5" transform="matrix(-0.636285 0.771454 -0.927145 -0.374701 354.258 250.609)" stroke="#ED5835"/>
<line y1="-0.5" x2="289.119" y2="-0.5" transform="matrix(-0.636285 0.771454 -0.927145 -0.374701 357.977 252.112)" stroke="#ED5835"/>
<line y1="-0.5" x2="289.119" y2="-0.5" transform="matrix(-0.636285 0.771454 -0.927145 -0.374701 361.699 253.615)" stroke="#ED5835"/>
<line y1="-0.5" x2="289.119" y2="-0.5" transform="matrix(-0.636285 0.771454 -0.927145 -0.374701 365.418 255.118)" stroke="#ED5835"/>
<line y1="-0.5" x2="289.119" y2="-0.5" transform="matrix(-0.636285 0.771454 -0.927145 -0.374701 369.137 256.621)" stroke="#ED5835"/>
<line y1="-0.5" x2="289.119" y2="-0.5" transform="matrix(-0.636285 0.771454 -0.927145 -0.374701 372.855 258.124)" stroke="#ED5835"/>
<line y1="-0.5" x2="289.119" y2="-0.5" transform="matrix(-0.636285 0.771454 -0.927145 -0.374701 376.574 259.628)" stroke="#ED5835"/>
<line y1="-0.5" x2="289.119" y2="-0.5" transform="matrix(-0.636285 0.771454 -0.927145 -0.374701 380.289 261.131)" stroke="#ED5835"/>
<line y1="-0.5" x2="289.119" y2="-0.5" transform="matrix(-0.636285 0.771454 -0.927145 -0.374701 384.012 262.634)" stroke="#ED5835"/>
<line y1="-0.5" x2="289.119" y2="-0.5" transform="matrix(-0.636285 0.771454 -0.927145 -0.374701 387.727 264.136)" stroke="#ED5835"/>
<line y1="-0.5" x2="289.119" y2="-0.5" transform="matrix(-0.636285 0.771454 -0.927145 -0.374701 391.449 265.639)" stroke="#ED5835"/>
<line y1="-0.5" x2="289.119" y2="-0.5" transform="matrix(-0.636285 0.771454 -0.927145 -0.374701 395.168 267.142)" stroke="#ED5835"/>
<line y1="-0.5" x2="289.119" y2="-0.5" transform="matrix(-0.636285 0.771454 -0.927145 -0.374701 398.887 268.645)" stroke="#ED5835"/>
<line y1="-0.5" x2="289.119" y2="-0.5" transform="matrix(-0.636285 0.771454 -0.927145 -0.374701 402.605 270.147)" stroke="#ED5835"/>
<line y1="-0.5" x2="289.119" y2="-0.5" transform="matrix(-0.636285 0.771454 -0.927145 -0.374701 406.324 271.65)" stroke="#ED5835"/>
<line y1="-0.5" x2="289.119" y2="-0.5" transform="matrix(-0.636285 0.771454 -0.927145 -0.374701 410.043 273.154)" stroke="#ED5835"/>
<line y1="-0.5" x2="289.119" y2="-0.5" transform="matrix(-0.636285 0.771454 -0.927145 -0.374701 413.762 274.657)" stroke="#ED5835"/>
<line y1="-0.5" x2="289.119" y2="-0.5" transform="matrix(-0.636285 0.771454 -0.927145 -0.374701 417.48 276.16)" stroke="#ED5835"/>
<line y1="-0.5" x2="289.119" y2="-0.5" transform="matrix(-0.636285 0.771454 -0.927145 -0.374701 421.199 277.662)" stroke="#ED5835"/>
<line y1="-0.5" x2="289.119" y2="-0.5" transform="matrix(-0.636285 0.771454 -0.927145 -0.374701 424.922 279.165)" stroke="#ED5835"/>
<line y1="-0.5" x2="289.119" y2="-0.5" transform="matrix(-0.636285 0.771454 -0.927145 -0.374701 428.637 280.667)" stroke="#ED5835"/>
<line y1="-0.5" x2="289.119" y2="-0.5" transform="matrix(-0.636285 0.771454 -0.927145 -0.374701 432.43 282.2)" stroke="#ED5835"/>
<line y1="-0.5" x2="289.119" y2="-0.5" transform="matrix(-0.636285 0.771454 -0.927145 -0.374701 436.227 283.734)" stroke="#ED5835"/>
<line y1="-0.5" x2="289.119" y2="-0.5" transform="matrix(-0.636285 0.771454 -0.927145 -0.374701 440.023 285.268)" stroke="#ED5835"/>
<line y1="-0.5" x2="289.119" y2="-0.5" transform="matrix(-0.636285 0.771454 -0.927145 -0.374701 443.816 286.802)" stroke="#ED5835"/>
<line y1="-0.5" x2="289.119" y2="-0.5" transform="matrix(-0.636285 0.771454 -0.927145 -0.374701 447.605 288.335)" stroke="#ED5835"/>
<line y1="-0.5" x2="289.119" y2="-0.5" transform="matrix(-0.636285 0.771454 -0.927145 -0.374701 451.402 289.868)" stroke="#ED5835"/>
<line y1="-0.5" x2="289.119" y2="-0.5" transform="matrix(-0.636285 0.771454 -0.927145 -0.374701 455.199 291.401)" stroke="#ED5835"/>
<line y1="-0.5" x2="289.119" y2="-0.5" transform="matrix(-0.636285 0.771454 -0.927145 -0.374701 458.992 292.935)" stroke="#ED5835"/>
<line y1="-0.5" x2="289.119" y2="-0.5" transform="matrix(-0.636285 0.771454 -0.927145 -0.374701 462.785 294.468)" stroke="#ED5835"/>
<line y1="-0.5" x2="289.119" y2="-0.5" transform="matrix(-0.636285 0.771454 -0.927145 -0.374701 466.578 296.002)" stroke="#ED5835"/>
<line y1="-0.5" x2="289.119" y2="-0.5" transform="matrix(-0.636285 0.771454 -0.927145 -0.374701 470.371 297.535)" stroke="#ED5835"/>
<line y1="-0.5" x2="289.119" y2="-0.5" transform="matrix(-0.636285 0.771454 -0.927145 -0.374701 474.172 299.069)" stroke="#ED5835"/>
<line y1="-0.5" x2="289.119" y2="-0.5" transform="matrix(-0.636285 0.771454 -0.927145 -0.374701 477.965 300.603)" stroke="#ED5835"/>
<line y1="-0.5" x2="289.119" y2="-0.5" transform="matrix(-0.636285 0.771454 -0.927146 -0.374701 481.754 302.137)" stroke="#ED5835"/>
<line y1="-0.5" x2="289.119" y2="-0.5" transform="matrix(-0.636285 0.771454 -0.927145 -0.374701 485.551 303.67)" stroke="#ED5835"/>
<line y1="-0.5" x2="289.119" y2="-0.5" transform="matrix(-0.636285 0.771454 -0.927146 -0.374701 489.348 305.203)" stroke="#ED5835"/>
<line y1="-0.5" x2="289.119" y2="-0.5" transform="matrix(-0.636285 0.771454 -0.927145 -0.374701 493.141 306.737)" stroke="#ED5835"/>
<line y1="-0.5" x2="289.119" y2="-0.5" transform="matrix(-0.636285 0.771454 -0.927145 -0.374701 496.938 308.271)" stroke="#ED5835"/>
<line y1="-0.5" x2="289.119" y2="-0.5" transform="matrix(-0.636285 0.771454 -0.927145 -0.374701 500.73 309.804)" stroke="#ED5835"/>
<line y1="-0.5" x2="289.119" y2="-0.5" transform="matrix(-0.636285 0.771454 -0.927146 -0.374701 504.523 311.337)" stroke="#ED5835"/>
<line y1="-0.5" x2="289.119" y2="-0.5" transform="matrix(-0.636285 0.771454 -0.927145 -0.374701 508.32 312.87)" stroke="#ED5835"/>
<line y1="-0.5" x2="289.119" y2="-0.5" transform="matrix(-0.636285 0.771454 -0.927146 -0.374701 512.113 314.404)" stroke="#ED5835"/>
<line y1="-0.5" x2="289.119" y2="-0.5" transform="matrix(-0.636285 0.771454 -0.927145 -0.374701 515.906 315.938)" stroke="#ED5835"/>
<line y1="-0.5" x2="289.119" y2="-0.5" transform="matrix(-0.636285 0.771454 -0.927145 -0.374701 519.703 317.471)" stroke="#ED5835"/>
<line y1="-0.5" x2="289.119" y2="-0.5" transform="matrix(-0.636285 0.771454 -0.927145 -0.374701 523.496 319.005)" stroke="#ED5835"/>
<line y1="-0.5" x2="289.119" y2="-0.5" transform="matrix(-0.636285 0.771454 -0.927145 -0.374701 527.289 320.538)" stroke="#ED5835"/>
<line y1="-0.5" x2="289.119" y2="-0.5" transform="matrix(-0.636285 0.771454 -0.927145 -0.374701 531.082 322.071)" stroke="#ED5835"/>
<line y1="-0.5" x2="289.119" y2="-0.5" transform="matrix(-0.636285 0.771454 -0.927145 -0.374701 534.879 323.604)" stroke="#ED5835"/>
<line y1="-0.5" x2="289.119" y2="-0.5" transform="matrix(-0.636285 0.771454 -0.927145 -0.374701 538.672 325.138)" stroke="#ED5835"/>
<line y1="-0.5" x2="289.119" y2="-0.5" transform="matrix(-0.636285 0.771454 -0.927145 -0.374701 542.465 326.672)" stroke="#ED5835"/>
<line y1="-0.5" x2="289.119" y2="-0.5" transform="matrix(-0.636285 0.771454 -0.927145 -0.374701 546.262 328.206)" stroke="#ED5835"/>
<line y1="-0.5" x2="289.119" y2="-0.5" transform="matrix(-0.636285 0.771454 -0.927145 -0.374701 550.059 329.738)" stroke="#ED5835"/>
<line y1="-0.5" x2="289.119" y2="-0.5" transform="matrix(-0.636285 0.771454 -0.927145 -0.374701 553.848 331.271)" stroke="#ED5835"/>
<line y1="-0.5" x2="289.119" y2="-0.5" transform="matrix(-0.636285 0.771454 -0.927145 -0.374702 557.645 332.806)" stroke="#ED5835"/>
<line y1="-0.5" x2="289.119" y2="-0.5" transform="matrix(-0.636285 0.771454 -0.927146 -0.374701 561.441 334.339)" stroke="#ED5835"/>
<line y1="-0.5" x2="289.119" y2="-0.5" transform="matrix(-0.636285 0.771454 -0.927145 -0.374701 565.23 335.872)" stroke="#ED5835"/>
<line y1="-0.5" x2="289.119" y2="-0.5" transform="matrix(-0.636285 0.771454 -0.927145 -0.374701 569.027 337.406)" stroke="#ED5835"/>
<line y1="-0.5" x2="289.119" y2="-0.5" transform="matrix(-0.636285 0.771454 -0.927145 -0.374701 572.824 338.938)" stroke="#ED5835"/>
<line y1="-0.5" x2="289.119" y2="-0.5" transform="matrix(-0.636285 0.771454 -0.927145 -0.374701 576.613 340.473)" stroke="#ED5835"/>
</g>
<path d="M469.625 389.414C469.625 391.33 468.526 393.257 466.301 395.176C464.079 397.092 460.78 398.957 456.496 400.745C447.931 404.318 435.514 407.545 420.143 410.257C389.406 415.682 346.929 419.039 300 419.039V419.789C346.959 419.789 389.482 416.43 420.273 410.996C435.666 408.28 448.145 405.042 456.785 401.437C461.103 399.635 464.484 397.733 466.791 395.744C469.096 393.756 470.375 391.639 470.375 389.414H469.625ZM300 419.039C253.071 419.039 210.594 415.682 179.857 410.257C164.486 407.545 152.069 404.318 143.504 400.745C139.22 398.957 135.921 397.092 133.699 395.176C131.474 393.257 130.375 391.33 130.375 389.414H129.625C129.625 391.639 130.904 393.756 133.209 395.744C135.516 397.733 138.897 399.635 143.215 401.437C151.855 405.042 164.334 408.28 179.727 410.996C210.518 416.43 253.041 419.789 300 419.789V419.039ZM130.375 389.414C130.375 387.352 131.649 385.276 134.223 383.217C136.791 381.161 140.597 379.17 145.52 377.275C155.362 373.486 169.582 370.116 187.058 367.37L186.942 366.63C169.445 369.379 155.165 372.759 145.251 376.575C140.295 378.482 136.409 380.507 133.754 382.631C131.105 384.751 129.625 387.019 129.625 389.414H130.375ZM412.942 367.37C430.418 370.116 444.638 373.486 454.48 377.275C459.403 379.17 463.209 381.161 465.777 383.217C468.351 385.276 469.625 387.352 469.625 389.414H470.375C470.375 387.019 468.895 384.751 466.246 382.631C463.591 380.507 459.705 378.482 454.749 376.575C444.835 372.759 430.555 369.379 413.058 366.63L412.942 367.37Z" fill="#495F73"/>
<path d="M249.639 375C249.731 366.906 249.934 358.813 249.861 350.719C249.834 347.859 250.407 346.676 253.635 346.689C286.715 346.805 319.798 346.759 352.878 346.769C353.998 346.769 355.118 346.932 356.709 347.051V375H249.639Z" fill="white"/>
<path d="M178 318.582H191.738V340.309H207.301C209.923 340.353 212.444 341.333 214.41 343.075C216.376 344.816 217.658 347.204 218.026 349.809C218.371 357.753 218.119 365.724 218.119 373.917H192.056C191.963 371.749 191.874 369.734 191.771 367.343H178.912C178.58 364.251 178.292 361.511 178 358.771V318.582Z" fill="white"/>
<path d="M391.698 374.999C391.453 366.3 391.632 357.602 391.433 348.906C391.553 348.282 391.786 347.685 392.119 347.144C392.668 345.052 393.994 343.25 395.825 342.107C397.656 340.965 399.853 340.568 401.966 340.999C407.635 341.351 413.318 341.396 418.991 341.135V347.792C418.991 355.497 419.024 363.201 418.962 370.906C418.853 372.284 418.642 373.652 418.332 374.999H391.698Z" fill="white"/>
<path d="M231.153 375C228.262 374.262 225.763 372.439 224.173 369.906C222.582 367.374 222.021 364.325 222.606 361.39C223.007 356.811 222.682 352.172 222.682 347.301H245.842C245.501 354.084 245.448 360.745 244.725 367.329C244.274 371.422 240.741 373.357 237.314 375H231.153Z" fill="white"/>
<path d="M370.576 374.999C364.074 372.372 361.966 367.388 362.5 360.651C362.841 356.331 362.566 351.965 362.566 347.333H384.94C384.94 353.894 385.259 360.392 384.828 366.836C384.546 371.059 380.967 373.18 377.51 374.999H370.576Z" fill="white"/>
<path d="M381.979 173.238H224.549V249.353H381.979V173.238Z" fill="white"/>
<path d="M381.685 254.964H224.38V323.737H381.685V254.964Z" fill="white"/>
<path d="M388.079 328.559H219.105V340.66H388.079V328.559Z" fill="white"/>
<path d="M398.061 174.558H389.368V296.022H398.061V174.558Z" fill="white"/>
<path d="M217.84 174.653H209.79V296.149H217.84V174.653Z" fill="white"/>
<path d="M316.488 170.818H292.407V155.828C295.406 155.509 298.283 155.203 300.159 155C305.399 155.259 309.803 155.479 314.304 155.702C315.984 160.553 312.932 166.096 316.488 170.818Z" fill="white"/>
<path d="M211.95 333.26H195.256C195.256 328.472 195.18 323.873 195.339 319.281C195.468 318.853 195.703 318.464 196.023 318.153C196.344 317.842 196.738 317.618 197.169 317.502C202.011 317.349 206.859 317.422 211.95 317.422L211.95 333.26Z" fill="white"/>
<mask id="mask1_1127_214538" style="mask-type:alpha" maskUnits="userSpaceOnUse" x="178" y="318" width="241" height="57">
<path d="M249.639 374.749C249.731 366.682 249.934 358.615 249.861 350.548C249.834 347.698 250.407 346.518 253.635 346.531C286.715 346.647 319.798 346.601 352.878 346.61C353.998 346.61 355.118 346.773 356.709 346.892V374.749H249.639Z" fill="#C4C4C4"/>
<path d="M178 318.517H191.738V340.172H207.301C209.923 340.216 212.444 341.193 214.41 342.929C216.376 344.664 217.658 347.044 218.026 349.641C218.371 357.559 218.119 365.503 218.119 373.669H192.056C191.963 371.508 191.874 369.5 191.771 367.117H178.912C178.58 364.035 178.292 361.304 178 358.573V318.517Z" fill="#C4C4C4"/>
<path d="M391.698 374.748C391.453 366.078 391.632 357.408 391.433 348.741C391.553 348.119 391.786 347.523 392.119 346.984C392.668 344.899 393.994 343.103 395.825 341.964C397.656 340.825 399.853 340.43 401.966 340.86C407.635 341.211 413.318 341.256 418.991 340.995V347.631C418.991 355.31 419.024 362.989 418.962 370.668C418.853 372.042 418.642 373.405 418.332 374.748H391.698Z" fill="#C4C4C4"/>
<path d="M231.153 374.749C228.262 374.013 225.763 372.196 224.173 369.672C222.582 367.147 222.021 364.109 222.606 361.183C223.007 356.62 222.682 351.996 222.682 347.141H245.842C245.501 353.902 245.448 360.54 244.725 367.103C244.274 371.183 240.741 373.111 237.314 374.749H231.153Z" fill="#C4C4C4"/>
<path d="M370.576 374.748C364.074 372.13 361.966 367.162 362.5 360.447C362.841 356.142 362.566 351.79 362.566 347.173H384.94C384.94 353.712 385.259 360.188 384.828 366.611C384.546 370.821 380.967 372.935 377.51 374.748H370.576Z" fill="#C4C4C4"/>
</mask>
<g mask="url(#mask1_1127_214538)">
<line y1="-0.5" x2="286.768" y2="-0.5" transform="matrix(-0.498074 0.866783 -0.86476 -0.501565 249.516 130.965)" stroke="#148EFF"/>
<line y1="-0.5" x2="286.768" y2="-0.5" transform="matrix(-0.498074 0.866783 -0.86476 -0.501565 253.348 133.905)" stroke="#148EFF"/>
<line y1="-0.5" x2="286.768" y2="-0.5" transform="matrix(-0.498074 0.866783 -0.86476 -0.501565 257.18 136.847)" stroke="#148EFF"/>
<line y1="-0.5" x2="286.768" y2="-0.5" transform="matrix(-0.498074 0.866783 -0.86476 -0.501565 261.012 139.787)" stroke="#148EFF"/>
<line y1="-0.5" x2="286.768" y2="-0.5" transform="matrix(-0.498074 0.866783 -0.86476 -0.501565 264.844 142.728)" stroke="#148EFF"/>
<line y1="-0.5" x2="286.768" y2="-0.5" transform="matrix(-0.498074 0.866783 -0.86476 -0.501565 268.676 145.669)" stroke="#148EFF"/>
<line y1="-0.5" x2="286.768" y2="-0.5" transform="matrix(-0.498074 0.866783 -0.86476 -0.501565 272.508 148.609)" stroke="#148EFF"/>
<line y1="-0.5" x2="286.768" y2="-0.5" transform="matrix(-0.498074 0.866783 -0.86476 -0.501565 276.34 151.55)" stroke="#148EFF"/>
<line y1="-0.5" x2="286.768" y2="-0.5" transform="matrix(-0.498074 0.866783 -0.86476 -0.501565 280.172 154.491)" stroke="#148EFF"/>
<line y1="-0.5" x2="286.768" y2="-0.5" transform="matrix(-0.498074 0.866783 -0.86476 -0.501565 284.004 157.432)" stroke="#148EFF"/>
<line y1="-0.5" x2="286.768" y2="-0.5" transform="matrix(-0.498074 0.866783 -0.86476 -0.501565 287.836 160.372)" stroke="#148EFF"/>
<line y1="-0.5" x2="286.768" y2="-0.5" transform="matrix(-0.498074 0.866783 -0.86476 -0.501565 291.668 163.313)" stroke="#148EFF"/>
<line y1="-0.5" x2="286.768" y2="-0.5" transform="matrix(-0.498074 0.866783 -0.86476 -0.501565 295.5 166.254)" stroke="#148EFF"/>
<line y1="-0.5" x2="286.768" y2="-0.5" transform="matrix(-0.498074 0.866783 -0.86476 -0.501565 299.332 169.195)" stroke="#148EFF"/>
<line y1="-0.5" x2="286.768" y2="-0.5" transform="matrix(-0.498074 0.866783 -0.86476 -0.501565 303.164 172.136)" stroke="#148EFF"/>
<line y1="-0.5" x2="286.768" y2="-0.5" transform="matrix(-0.498074 0.866783 -0.86476 -0.501565 306.996 175.076)" stroke="#148EFF"/>
<line y1="-0.5" x2="286.768" y2="-0.5" transform="matrix(-0.498074 0.866783 -0.86476 -0.501565 310.828 178.018)" stroke="#148EFF"/>
<line y1="-0.5" x2="286.768" y2="-0.5" transform="matrix(-0.498074 0.866783 -0.86476 -0.501565 314.66 180.958)" stroke="#148EFF"/>
<line y1="-0.5" x2="286.768" y2="-0.5" transform="matrix(-0.498074 0.866783 -0.86476 -0.501565 318.492 183.898)" stroke="#148EFF"/>
<line y1="-0.5" x2="286.768" y2="-0.5" transform="matrix(-0.498074 0.866783 -0.86476 -0.501565 322.324 186.84)" stroke="#148EFF"/>
<line y1="-0.5" x2="286.768" y2="-0.5" transform="matrix(-0.498074 0.866783 -0.86476 -0.501565 326.156 189.78)" stroke="#148EFF"/>
<line y1="-0.5" x2="286.768" y2="-0.5" transform="matrix(-0.498074 0.866783 -0.86476 -0.501565 329.988 192.721)" stroke="#148EFF"/>
<line y1="-0.5" x2="286.768" y2="-0.5" transform="matrix(-0.498074 0.866783 -0.86476 -0.501565 333.82 195.662)" stroke="#148EFF"/>
<line y1="-0.5" x2="286.768" y2="-0.5" transform="matrix(-0.498074 0.866783 -0.86476 -0.501565 337.652 198.603)" stroke="#148EFF"/>
<line y1="-0.5" x2="286.768" y2="-0.5" transform="matrix(-0.498074 0.866783 -0.86476 -0.501565 341.484 201.543)" stroke="#148EFF"/>
<line y1="-0.5" x2="286.768" y2="-0.5" transform="matrix(-0.498074 0.866783 -0.86476 -0.501565 345.316 204.484)" stroke="#148EFF"/>
<line y1="-0.5" x2="286.768" y2="-0.5" transform="matrix(-0.498074 0.866783 -0.86476 -0.501565 349.148 207.425)" stroke="#148EFF"/>
<line y1="-0.5" x2="286.768" y2="-0.5" transform="matrix(-0.498074 0.866783 -0.86476 -0.501565 352.98 210.365)" stroke="#148EFF"/>
<line y1="-0.5" x2="286.768" y2="-0.5" transform="matrix(-0.498074 0.866783 -0.86476 -0.501565 356.812 213.307)" stroke="#148EFF"/>
<line y1="-0.5" x2="286.768" y2="-0.5" transform="matrix(-0.498074 0.866783 -0.86476 -0.501565 360.645 216.247)" stroke="#148EFF"/>
<line y1="-0.5" x2="286.768" y2="-0.5" transform="matrix(-0.498074 0.866783 -0.86476 -0.501565 364.477 219.188)" stroke="#148EFF"/>
<line y1="-0.5" x2="286.768" y2="-0.5" transform="matrix(-0.498074 0.866783 -0.86476 -0.501565 368.309 222.129)" stroke="#148EFF"/>
<line y1="-0.5" x2="286.768" y2="-0.5" transform="matrix(-0.498074 0.866783 -0.86476 -0.501565 372.141 225.069)" stroke="#148EFF"/>
<line y1="-0.5" x2="286.768" y2="-0.5" transform="matrix(-0.498074 0.866783 -0.86476 -0.501565 375.973 228.01)" stroke="#148EFF"/>
<line y1="-0.5" x2="286.768" y2="-0.5" transform="matrix(-0.498074 0.866783 -0.86476 -0.501565 379.805 230.951)" stroke="#148EFF"/>
<line y1="-0.5" x2="286.768" y2="-0.5" transform="matrix(-0.498074 0.866783 -0.86476 -0.501565 383.637 233.892)" stroke="#148EFF"/>
<line y1="-0.5" x2="286.768" y2="-0.5" transform="matrix(-0.498074 0.866783 -0.86476 -0.501565 387.469 236.833)" stroke="#148EFF"/>
<line y1="-0.5" x2="286.768" y2="-0.5" transform="matrix(-0.498074 0.866783 -0.86476 -0.501565 391.301 239.773)" stroke="#148EFF"/>
<line y1="-0.5" x2="286.768" y2="-0.5" transform="matrix(-0.498074 0.866783 -0.86476 -0.501565 395.133 242.714)" stroke="#148EFF"/>
<line y1="-0.5" x2="286.768" y2="-0.5" transform="matrix(-0.498074 0.866783 -0.86476 -0.501565 398.965 245.655)" stroke="#148EFF"/>
<line y1="-0.5" x2="286.768" y2="-0.5" transform="matrix(-0.498074 0.866783 -0.86476 -0.501565 402.797 248.596)" stroke="#148EFF"/>
<line y1="-0.5" x2="286.768" y2="-0.5" transform="matrix(-0.498074 0.866783 -0.86476 -0.501565 406.629 251.536)" stroke="#148EFF"/>
<line y1="-0.5" x2="286.768" y2="-0.5" transform="matrix(-0.498074 0.866783 -0.86476 -0.501565 410.461 254.478)" stroke="#148EFF"/>
<line y1="-0.5" x2="286.768" y2="-0.5" transform="matrix(-0.498074 0.866783 -0.86476 -0.501565 414.293 257.418)" stroke="#148EFF"/>
<line y1="-0.5" x2="286.768" y2="-0.5" transform="matrix(-0.498074 0.866783 -0.86476 -0.501565 418.125 260.358)" stroke="#148EFF"/>
<line y1="-0.5" x2="286.768" y2="-0.5" transform="matrix(-0.498074 0.866783 -0.86476 -0.501565 421.957 263.3)" stroke="#148EFF"/>
<line y1="-0.5" x2="286.768" y2="-0.5" transform="matrix(-0.498074 0.866783 -0.86476 -0.501565 425.789 266.24)" stroke="#148EFF"/>
<line y1="-0.5" x2="286.768" y2="-0.5" transform="matrix(-0.498074 0.866783 -0.86476 -0.501565 429.621 269.181)" stroke="#148EFF"/>
<line y1="-0.5" x2="286.768" y2="-0.5" transform="matrix(-0.498074 0.866783 -0.86476 -0.501565 433.453 272.122)" stroke="#148EFF"/>
<line y1="-0.5" x2="286.768" y2="-0.5" transform="matrix(-0.498074 0.866783 -0.86476 -0.501565 437.285 275.062)" stroke="#148EFF"/>
<line y1="-0.5" x2="286.768" y2="-0.5" transform="matrix(-0.498074 0.866783 -0.86476 -0.501565 441.117 278.003)" stroke="#148EFF"/>
<line y1="-0.5" x2="286.768" y2="-0.5" transform="matrix(-0.498074 0.866783 -0.86476 -0.501565 444.949 280.944)" stroke="#148EFF"/>
<line y1="-0.5" x2="286.768" y2="-0.5" transform="matrix(-0.498074 0.866783 -0.86476 -0.501565 448.781 283.885)" stroke="#148EFF"/>
<line y1="-0.5" x2="286.768" y2="-0.5" transform="matrix(-0.498074 0.866783 -0.86476 -0.501565 452.613 286.825)" stroke="#148EFF"/>
<line y1="-0.5" x2="286.768" y2="-0.5" transform="matrix(-0.498074 0.866783 -0.86476 -0.501565 456.445 289.767)" stroke="#148EFF"/>
<line y1="-0.5" x2="286.768" y2="-0.5" transform="matrix(-0.498074 0.866783 -0.86476 -0.501565 460.277 292.707)" stroke="#148EFF"/>
<line y1="-0.5" x2="286.768" y2="-0.5" transform="matrix(-0.498074 0.866783 -0.86476 -0.501565 464.109 295.647)" stroke="#148EFF"/>
<line y1="-0.5" x2="286.768" y2="-0.5" transform="matrix(-0.498074 0.866783 -0.86476 -0.501565 467.941 298.589)" stroke="#148EFF"/>
<line y1="-0.5" x2="286.768" y2="-0.5" transform="matrix(-0.498074 0.866783 -0.86476 -0.501565 471.773 301.529)" stroke="#148EFF"/>
<line y1="-0.5" x2="286.768" y2="-0.5" transform="matrix(-0.498074 0.866783 -0.86476 -0.501565 475.605 304.471)" stroke="#148EFF"/>
<line y1="-0.5" x2="286.768" y2="-0.5" transform="matrix(-0.498074 0.866783 -0.86476 -0.501565 479.438 307.411)" stroke="#148EFF"/>
<line y1="-0.5" x2="286.768" y2="-0.5" transform="matrix(-0.498074 0.866783 -0.86476 -0.501565 483.27 310.352)" stroke="#148EFF"/>
<line y1="-0.5" x2="286.768" y2="-0.5" transform="matrix(-0.498074 0.866783 -0.86476 -0.501565 487.102 313.293)" stroke="#148EFF"/>
<line y1="-0.5" x2="286.768" y2="-0.5" transform="matrix(-0.498074 0.866783 -0.86476 -0.501565 490.934 316.233)" stroke="#148EFF"/>
</g>
<path d="M249.639 375C249.731 366.906 249.934 358.813 249.861 350.719C249.834 347.859 250.407 346.676 253.635 346.689C286.715 346.805 319.798 346.759 352.878 346.769C353.998 346.769 355.118 346.932 356.709 347.051V375H249.639Z" stroke="#495F73" stroke-width="2" stroke-miterlimit="10"/>
<path d="M178 318.582H191.738V340.309H207.301C209.923 340.353 212.444 341.333 214.41 343.075C216.376 344.816 217.658 347.204 218.026 349.809C218.371 357.753 218.119 365.724 218.119 373.917H192.056C191.963 371.749 191.874 369.734 191.771 367.343H178.912C178.58 364.251 178.292 361.511 178 358.771V318.582Z" stroke="#495F73" stroke-width="2" stroke-miterlimit="10"/>
<path d="M391.698 374.999C391.453 366.3 391.632 357.602 391.433 348.906C391.553 348.282 391.786 347.685 392.119 347.144C392.668 345.052 393.994 343.25 395.825 342.107C397.656 340.965 399.853 340.568 401.966 340.999C407.635 341.351 413.318 341.396 418.991 341.135V347.792C418.991 355.497 419.024 363.201 418.961 370.906C418.853 372.284 418.642 373.652 418.332 374.999H391.698Z" stroke="#495F73" stroke-width="2" stroke-miterlimit="10"/>
<path d="M231.153 375C228.262 374.262 225.763 372.439 224.173 369.906C222.582 367.374 222.021 364.325 222.606 361.39C223.007 356.811 222.682 352.172 222.682 347.301H245.842C245.501 354.084 245.448 360.745 244.725 367.329C244.274 371.422 240.741 373.357 237.314 375H231.153Z" stroke="#495F73" stroke-width="2" stroke-miterlimit="10"/>
<path d="M370.576 374.999C364.074 372.372 361.966 367.388 362.5 360.651C362.841 356.331 362.566 351.965 362.566 347.333H384.94C384.94 353.894 385.259 360.392 384.828 366.836C384.546 371.059 380.967 373.18 377.51 374.999H370.576Z" stroke="#495F73" stroke-width="2" stroke-miterlimit="10"/>
<path d="M381.979 173.238H224.549V249.353H381.979V173.238Z" stroke="#495F73" stroke-width="2" stroke-miterlimit="10"/>
<path d="M381.685 254.964H224.38V323.737H381.685V254.964Z" stroke="#495F73" stroke-width="2" stroke-miterlimit="10"/>
<path d="M388.079 328.559H219.105V340.66H388.079V328.559Z" stroke="#495F73" stroke-width="2" stroke-miterlimit="10"/>
<path d="M398.061 174.558H389.368V296.022H398.061V174.558Z" stroke="#495F73" stroke-width="2" stroke-miterlimit="10"/>
<path d="M217.84 174.653H209.79V296.149H217.84V174.653Z" stroke="#495F73" stroke-width="2" stroke-miterlimit="10"/>
<path d="M316.488 170.818H292.407V155.828C295.406 155.509 298.283 155.203 300.159 155C305.399 155.259 309.803 155.479 314.304 155.702C315.984 160.553 312.932 166.096 316.488 170.818Z" stroke="#495F73" stroke-width="2" stroke-miterlimit="10"/>
<path d="M211.95 333.26H195.256C195.256 328.472 195.18 323.873 195.339 319.281C195.468 318.853 195.703 318.464 196.023 318.153C196.344 317.842 196.738 317.618 197.169 317.502C202.011 317.349 206.859 317.422 211.95 317.422L211.95 333.26Z" stroke="#495F73" stroke-width="2" stroke-miterlimit="10"/>
<path opacity="0.5" d="M178 313L178 82" stroke="#011F3A" stroke-width="0.75" stroke-dasharray="3 3"/>
<path opacity="0.5" d="M419 336L419 82" stroke="#011F3A" stroke-width="0.75" stroke-dasharray="3 3"/>
<path opacity="0.5" d="M183 82L186.75 84.1651L186.75 79.8349L183 82ZM414 82L410.25 79.8349L410.25 84.165L414 82ZM186.375 82.375L410.625 82.375L410.625 81.625L186.375 81.625L186.375 82.375Z" fill="#011F3A"/>
<rect width="59" height="25" transform="translate(269.5 69)" fill="white"/>
<path opacity="0.5" d="M283.205 85.35V87H275.465V85.695L279.635 81.735C280.105 81.285 280.42 80.895 280.58 80.565C280.75 80.225 280.835 79.89 280.835 79.56C280.835 79.07 280.67 78.695 280.34 78.435C280.01 78.175 279.525 78.045 278.885 78.045C277.815 78.045 276.995 78.41 276.425 79.14L275.06 78.09C275.47 77.54 276.02 77.115 276.71 76.815C277.41 76.505 278.19 76.35 279.05 76.35C280.19 76.35 281.1 76.62 281.78 77.16C282.46 77.7 282.8 78.435 282.8 79.365C282.8 79.935 282.68 80.47 282.44 80.97C282.2 81.47 281.74 82.04 281.06 82.68L278.255 85.35H283.205ZM287.96 76.5V87H286.01V78.135H283.79V76.5H287.96ZM294.513 80.835C295.483 80.955 296.223 81.285 296.733 81.825C297.243 82.365 297.498 83.04 297.498 83.85C297.498 84.46 297.343 85.015 297.033 85.515C296.723 86.015 296.253 86.415 295.623 86.715C295.003 87.005 294.243 87.15 293.343 87.15C292.593 87.15 291.868 87.045 291.168 86.835C290.478 86.615 289.888 86.315 289.398 85.935L290.238 84.42C290.618 84.74 291.078 84.995 291.618 85.185C292.168 85.365 292.733 85.455 293.313 85.455C294.003 85.455 294.543 85.315 294.933 85.035C295.333 84.745 295.533 84.355 295.533 83.865C295.533 83.375 295.343 82.995 294.963 82.725C294.593 82.445 294.023 82.305 293.253 82.305H292.293V80.97L294.678 78.135H289.908V76.5H297.063V77.805L294.513 80.835ZM307.164 87.105C306.334 87.105 305.589 86.93 304.929 86.58C304.269 86.23 303.754 85.745 303.384 85.125C303.014 84.495 302.829 83.785 302.829 82.995C302.829 82.205 303.014 81.5 303.384 80.88C303.754 80.26 304.264 79.775 304.914 79.425C305.574 79.075 306.324 78.9 307.164 78.9C307.954 78.9 308.644 79.06 309.234 79.38C309.834 79.7 310.284 80.16 310.584 80.76L309.144 81.6C308.914 81.23 308.624 80.955 308.274 80.775C307.934 80.585 307.559 80.49 307.149 80.49C306.449 80.49 305.869 80.72 305.409 81.18C304.949 81.63 304.719 82.235 304.719 82.995C304.719 83.755 304.944 84.365 305.394 84.825C305.854 85.275 306.439 85.5 307.149 85.5C307.559 85.5 307.934 85.41 308.274 85.23C308.624 85.04 308.914 84.76 309.144 84.39L310.584 85.23C310.274 85.83 309.819 86.295 309.219 86.625C308.629 86.945 307.944 87.105 307.164 87.105ZM320.11 87V81.69L317.41 86.16H316.6L313.945 81.675V87H312.235V78.99H314.2L317.05 84L320.035 78.99H321.79L321.805 87H320.11Z" fill="#011F3A"/>
<path opacity="0.5" d="M183 375L73 375" stroke="#011F3A" stroke-width="0.75" stroke-dasharray="3 3"/>
<path opacity="0.5" d="M204 174L73 174" stroke="#011F3A" stroke-width="0.75" stroke-dasharray="3 3"/>
<path opacity="0.5" d="M73 370L75.1651 366.25H70.8349L73 370ZM73 179L70.8349 182.75H75.1651L73 179ZM73.375 366.625L73.375 182.375H72.625L72.625 366.625H73.375Z" fill="#011F3A"/>
<rect width="64" height="25" transform="translate(41 262)" fill="white"/>
<path opacity="0.5" d="M54.7001 278.35V280H46.9601V278.695L51.1301 274.735C51.6001 274.285 51.9151 273.895 52.0751 273.565C52.2451 273.225 52.3301 272.89 52.3301 272.56C52.3301 272.07 52.1651 271.695 51.8351 271.435C51.5051 271.175 51.0201 271.045 50.3801 271.045C49.3101 271.045 48.4901 271.41 47.9201 272.14L46.5551 271.09C46.9651 270.54 47.5151 270.115 48.2051 269.815C48.9051 269.505 49.6851 269.35 50.5451 269.35C51.6851 269.35 52.5951 269.62 53.2751 270.16C53.9551 270.7 54.2951 271.435 54.2951 272.365C54.2951 272.935 54.1751 273.47 53.9351 273.97C53.6951 274.47 53.2351 275.04 52.5551 275.68L49.7501 278.35H54.7001ZM60.1616 280.15C59.3216 280.15 58.5716 279.94 57.9116 279.52C57.2516 279.09 56.7316 278.47 56.3516 277.66C55.9716 276.84 55.7816 275.87 55.7816 274.75C55.7816 273.63 55.9716 272.665 56.3516 271.855C56.7316 271.035 57.2516 270.415 57.9116 269.995C58.5716 269.565 59.3216 269.35 60.1616 269.35C61.0016 269.35 61.7516 269.565 62.4116 269.995C63.0816 270.415 63.6066 271.035 63.9866 271.855C64.3666 272.665 64.5566 273.63 64.5566 274.75C64.5566 275.87 64.3666 276.84 63.9866 277.66C63.6066 278.47 63.0816 279.09 62.4116 279.52C61.7516 279.94 61.0016 280.15 60.1616 280.15ZM60.1616 278.455C60.9116 278.455 61.5016 278.145 61.9316 277.525C62.3716 276.905 62.5916 275.98 62.5916 274.75C62.5916 273.52 62.3716 272.595 61.9316 271.975C61.5016 271.355 60.9116 271.045 60.1616 271.045C59.4216 271.045 58.8316 271.355 58.3916 271.975C57.9616 272.595 57.7466 273.52 57.7466 274.75C57.7466 275.98 57.9616 276.905 58.3916 277.525C58.8316 278.145 59.4216 278.455 60.1616 278.455ZM70.6444 273.52C71.3344 273.52 71.9544 273.655 72.5044 273.925C73.0544 274.185 73.4844 274.56 73.7944 275.05C74.1044 275.54 74.2594 276.105 74.2594 276.745C74.2594 277.425 74.0894 278.025 73.7494 278.545C73.4094 279.055 72.9494 279.45 72.3694 279.73C71.7894 280.01 71.1394 280.15 70.4194 280.15C68.9794 280.15 67.8594 279.7 67.0594 278.8C66.2694 277.9 65.8744 276.61 65.8744 274.93C65.8744 273.75 66.0894 272.745 66.5194 271.915C66.9494 271.075 67.5494 270.44 68.3194 270.01C69.0994 269.57 69.9994 269.35 71.0194 269.35C71.5594 269.35 72.0644 269.41 72.5344 269.53C73.0144 269.64 73.4294 269.805 73.7794 270.025L73.0594 271.495C72.5394 271.155 71.8744 270.985 71.0644 270.985C70.0544 270.985 69.2644 271.295 68.6944 271.915C68.1244 272.535 67.8394 273.43 67.8394 274.6V274.615C68.1494 274.255 68.5444 273.985 69.0244 273.805C69.5044 273.615 70.0444 273.52 70.6444 273.52ZM70.3144 278.62C70.9244 278.62 71.4194 278.46 71.7994 278.14C72.1794 277.81 72.3694 277.375 72.3694 276.835C72.3694 276.285 72.1794 275.85 71.7994 275.53C71.4194 275.21 70.9094 275.05 70.2694 275.05C69.6394 275.05 69.1244 275.22 68.7244 275.56C68.3344 275.9 68.1394 276.33 68.1394 276.85C68.1394 277.36 68.3294 277.785 68.7094 278.125C69.0994 278.455 69.6344 278.62 70.3144 278.62ZM83.6692 280.105C82.8392 280.105 82.0942 279.93 81.4342 279.58C80.7742 279.23 80.2592 278.745 79.8892 278.125C79.5192 277.495 79.3342 276.785 79.3342 275.995C79.3342 275.205 79.5192 274.5 79.8892 273.88C80.2592 273.26 80.7692 272.775 81.4192 272.425C82.0792 272.075 82.8292 271.9 83.6692 271.9C84.4592 271.9 85.1492 272.06 85.7392 272.38C86.3392 272.7 86.7892 273.16 87.0892 273.76L85.6492 274.6C85.4192 274.23 85.1292 273.955 84.7792 273.775C84.4392 273.585 84.0642 273.49 83.6542 273.49C82.9542 273.49 82.3742 273.72 81.9142 274.18C81.4542 274.63 81.2242 275.235 81.2242 275.995C81.2242 276.755 81.4492 277.365 81.8992 277.825C82.3592 278.275 82.9442 278.5 83.6542 278.5C84.0642 278.5 84.4392 278.41 84.7792 278.23C85.1292 278.04 85.4192 277.76 85.6492 277.39L87.0892 278.23C86.7792 278.83 86.3242 279.295 85.7242 279.625C85.1342 279.945 84.4492 280.105 83.6692 280.105ZM96.615 280V274.69L93.915 279.16H93.105L90.45 274.675V280H88.74V271.99H90.705L93.555 277L96.54 271.99H98.295L98.31 280H96.615Z" fill="#011F3A"/>
<rect x="214" y="195" width="178" height="100" rx="25" fill="white"/>
<path d="M242.54 215V257H232.82V222.8H224.42V215H242.54ZM266.396 214.28C272.276 214.28 276.876 216.08 280.196 219.68C283.516 223.24 285.176 228.38 285.176 235.1C285.176 239.86 284.276 243.94 282.476 247.34C280.716 250.74 278.216 253.32 274.976 255.08C271.736 256.84 267.996 257.72 263.756 257.72C261.516 257.72 259.376 257.48 257.336 257C255.296 256.48 253.556 255.76 252.116 254.84L255.716 247.7C257.756 249.1 260.376 249.8 263.576 249.8C267.136 249.8 269.956 248.76 272.036 246.68C274.116 244.56 275.236 241.52 275.396 237.56C272.876 240.08 269.396 241.34 264.956 241.34C262.276 241.34 259.836 240.8 257.636 239.72C255.436 238.64 253.696 237.12 252.416 235.16C251.136 233.16 250.496 230.86 250.496 228.26C250.496 225.46 251.196 223 252.596 220.88C253.996 218.76 255.896 217.14 258.296 216.02C260.736 214.86 263.436 214.28 266.396 214.28ZM267.116 234.08C269.236 234.08 270.956 233.5 272.276 232.34C273.636 231.14 274.316 229.62 274.316 227.78C274.316 225.94 273.656 224.44 272.336 223.28C271.056 222.12 269.276 221.54 266.996 221.54C264.916 221.54 263.216 222.1 261.896 223.22C260.616 224.34 259.976 225.86 259.976 227.78C259.976 229.7 260.616 231.24 261.896 232.4C263.216 233.52 264.956 234.08 267.116 234.08ZM306.039 230.78C311.959 230.78 316.319 231.96 319.119 234.32C321.959 236.68 323.379 239.84 323.379 243.8C323.379 246.36 322.739 248.7 321.459 250.82C320.179 252.9 318.219 254.58 315.579 255.86C312.979 257.1 309.759 257.72 305.919 257.72C302.959 257.72 300.039 257.34 297.159 256.58C294.319 255.78 291.899 254.66 289.899 253.22L293.739 245.78C295.339 246.98 297.179 247.92 299.259 248.6C301.339 249.24 303.479 249.56 305.679 249.56C308.119 249.56 310.039 249.08 311.439 248.12C312.839 247.16 313.539 245.82 313.539 244.1C313.539 242.3 312.799 240.94 311.319 240.02C309.879 239.1 307.359 238.64 303.759 238.64H293.019L295.179 215H320.799V222.8H303.279L302.619 230.78H306.039ZM334.703 245.84C336.383 245.84 337.763 246.38 338.843 247.46C339.923 248.5 340.463 249.88 340.463 251.6C340.463 252.4 340.363 253.2 340.163 254C339.963 254.8 339.523 256 338.843 257.6L335.423 266.24H329.483L332.123 256.7C331.123 256.3 330.323 255.66 329.723 254.78C329.163 253.86 328.883 252.8 328.883 251.6C328.883 249.88 329.423 248.5 330.503 247.46C331.623 246.38 333.023 245.84 334.703 245.84ZM366.084 230.66C368.764 230.66 371.204 231.2 373.404 232.28C375.604 233.36 377.344 234.9 378.624 236.9C379.904 238.86 380.544 241.14 380.544 243.74C380.544 246.54 379.844 249 378.444 251.12C377.044 253.24 375.124 254.88 372.684 256.04C370.284 257.16 367.604 257.72 364.644 257.72C358.764 257.72 354.164 255.92 350.844 252.32C347.524 248.72 345.864 243.58 345.864 236.9C345.864 232.14 346.764 228.06 348.564 224.66C350.364 221.26 352.864 218.68 356.064 216.92C359.304 215.16 363.044 214.28 367.284 214.28C369.524 214.28 371.664 214.54 373.704 215.06C375.784 215.54 377.544 216.24 378.984 217.16L375.384 224.3C373.304 222.9 370.684 222.2 367.524 222.2C363.964 222.2 361.144 223.24 359.064 225.32C356.984 227.4 355.864 230.42 355.704 234.38C358.184 231.9 361.644 230.66 366.084 230.66ZM364.104 250.46C366.184 250.46 367.864 249.9 369.144 248.78C370.464 247.66 371.124 246.14 371.124 244.22C371.124 242.3 370.464 240.78 369.144 239.66C367.864 238.5 366.144 237.92 363.984 237.92C361.864 237.92 360.124 238.52 358.764 239.72C357.404 240.88 356.724 242.38 356.724 244.22C356.724 246.06 357.384 247.56 358.704 248.72C360.024 249.88 361.824 250.46 364.104 250.46Z" fill="#148EFF"/>
<path d="M246.065 274.99V283H234.26V274.99H236.135V281.41H239.24V274.99H241.115V281.41H244.19V274.99H246.065ZM248.586 274.99H250.461V280.27L254.886 274.99H256.596V283H254.721V277.72L250.311 283H248.586V274.99ZM263.558 274.9C264.338 274.9 265.033 275.07 265.643 275.41C266.263 275.75 266.748 276.23 267.098 276.85C267.448 277.47 267.623 278.185 267.623 278.995C267.623 279.805 267.448 280.525 267.098 281.155C266.748 281.775 266.263 282.255 265.643 282.595C265.033 282.935 264.338 283.105 263.558 283.105C262.478 283.105 261.623 282.745 260.993 282.025V285.91H259.118V274.99H260.903V276.04C261.213 275.66 261.593 275.375 262.043 275.185C262.503 274.995 263.008 274.9 263.558 274.9ZM263.348 281.5C264.038 281.5 264.603 281.27 265.043 280.81C265.493 280.35 265.718 279.745 265.718 278.995C265.718 278.245 265.493 277.64 265.043 277.18C264.603 276.72 264.038 276.49 263.348 276.49C262.898 276.49 262.493 276.595 262.133 276.805C261.773 277.005 261.488 277.295 261.278 277.675C261.068 278.055 260.963 278.495 260.963 278.995C260.963 279.495 261.068 279.935 261.278 280.315C261.488 280.695 261.773 280.99 262.133 281.2C262.493 281.4 262.898 281.5 263.348 281.5ZM269.489 274.99H271.364V280.27L275.789 274.99H277.499V283H275.624V277.72L271.214 283H269.489V274.99ZM280.022 274.99H281.897V278.245H285.932V274.99H287.807V283H285.932V279.835H281.897V283H280.022V274.99ZM293.305 274.9C294.485 274.9 295.385 275.185 296.005 275.755C296.635 276.315 296.95 277.165 296.95 278.305V283H295.18V282.025C294.95 282.375 294.62 282.645 294.19 282.835C293.77 283.015 293.26 283.105 292.66 283.105C292.06 283.105 291.535 283.005 291.085 282.805C290.635 282.595 290.285 282.31 290.035 281.95C289.795 281.58 289.675 281.165 289.675 280.705C289.675 279.985 289.94 279.41 290.47 278.98C291.01 278.54 291.855 278.32 293.005 278.32H295.075V278.2C295.075 277.64 294.905 277.21 294.565 276.91C294.235 276.61 293.74 276.46 293.08 276.46C292.63 276.46 292.185 276.53 291.745 276.67C291.315 276.81 290.95 277.005 290.65 277.255L289.915 275.89C290.335 275.57 290.84 275.325 291.43 275.155C292.02 274.985 292.645 274.9 293.305 274.9ZM293.05 281.74C293.52 281.74 293.935 281.635 294.295 281.425C294.665 281.205 294.925 280.895 295.075 280.495V279.565H293.14C292.06 279.565 291.52 279.92 291.52 280.63C291.52 280.97 291.655 281.24 291.925 281.44C292.195 281.64 292.57 281.74 293.05 281.74ZM303.415 274.99H305.29V278.245H309.325V274.99H311.2V283H309.325V279.835H305.29V283H303.415V274.99ZM317.283 283.105C316.473 283.105 315.743 282.93 315.093 282.58C314.443 282.23 313.933 281.745 313.563 281.125C313.203 280.495 313.023 279.785 313.023 278.995C313.023 278.205 313.203 277.5 313.563 276.88C313.933 276.26 314.443 275.775 315.093 275.425C315.743 275.075 316.473 274.9 317.283 274.9C318.103 274.9 318.838 275.075 319.488 275.425C320.138 275.775 320.643 276.26 321.003 276.88C321.373 277.5 321.558 278.205 321.558 278.995C321.558 279.785 321.373 280.495 321.003 281.125C320.643 281.745 320.138 282.23 319.488 282.58C318.838 282.93 318.103 283.105 317.283 283.105ZM317.283 281.5C317.973 281.5 318.543 281.27 318.993 280.81C319.443 280.35 319.668 279.745 319.668 278.995C319.668 278.245 319.443 277.64 318.993 277.18C318.543 276.72 317.973 276.49 317.283 276.49C316.593 276.49 316.023 276.72 315.573 277.18C315.133 277.64 314.913 278.245 314.913 278.995C314.913 279.745 315.133 280.35 315.573 280.81C316.023 281.27 316.593 281.5 317.283 281.5ZM330.752 279.79H329.402V283H327.542V279.79H326.192L324.242 283H322.022L324.647 278.86L322.217 274.99H324.212L326.162 278.23H327.542V274.99H329.402V278.23H330.767L332.732 274.99H334.727L332.297 278.86L334.937 283H332.702L330.752 279.79ZM339.169 274.9C340.349 274.9 341.249 275.185 341.869 275.755C342.499 276.315 342.814 277.165 342.814 278.305V283H341.044V282.025C340.814 282.375 340.484 282.645 340.054 282.835C339.634 283.015 339.124 283.105 338.524 283.105C337.924 283.105 337.399 283.005 336.949 282.805C336.499 282.595 336.149 282.31 335.899 281.95C335.659 281.58 335.539 281.165 335.539 280.705C335.539 279.985 335.804 279.41 336.334 278.98C336.874 278.54 337.719 278.32 338.869 278.32H340.939V278.2C340.939 277.64 340.769 277.21 340.429 276.91C340.099 276.61 339.604 276.46 338.944 276.46C338.494 276.46 338.049 276.53 337.609 276.67C337.179 276.81 336.814 277.005 336.514 277.255L335.779 275.89C336.199 275.57 336.704 275.325 337.294 275.155C337.884 274.985 338.509 274.9 339.169 274.9ZM338.914 281.74C339.384 281.74 339.799 281.635 340.159 281.425C340.529 281.205 340.789 280.895 340.939 280.495V279.565H339.004C337.924 279.565 337.384 279.92 337.384 280.63C337.384 280.97 337.519 281.24 337.789 281.44C338.059 281.64 338.434 281.74 338.914 281.74ZM345.719 280.615C346.069 280.615 346.359 280.73 346.589 280.96C346.819 281.19 346.934 281.49 346.934 281.86C346.934 282.02 346.909 282.19 346.859 282.37C346.819 282.54 346.729 282.8 346.589 283.15L345.824 285.265H344.609L345.209 282.97C344.989 282.88 344.814 282.74 344.684 282.55C344.564 282.35 344.504 282.12 344.504 281.86C344.504 281.49 344.619 281.19 344.849 280.96C345.079 280.73 345.369 280.615 345.719 280.615ZM356.587 283.105C355.757 283.105 355.012 282.93 354.352 282.58C353.692 282.23 353.177 281.745 352.807 281.125C352.437 280.495 352.252 279.785 352.252 278.995C352.252 278.205 352.437 277.5 352.807 276.88C353.177 276.26 353.687 275.775 354.337 275.425C354.997 275.075 355.747 274.9 356.587 274.9C357.377 274.9 358.067 275.06 358.657 275.38C359.257 275.7 359.707 276.16 360.007 276.76L358.567 277.6C358.337 277.23 358.047 276.955 357.697 276.775C357.357 276.585 356.982 276.49 356.572 276.49C355.872 276.49 355.292 276.72 354.832 277.18C354.372 277.63 354.142 278.235 354.142 278.995C354.142 279.755 354.367 280.365 354.817 280.825C355.277 281.275 355.862 281.5 356.572 281.5C356.982 281.5 357.357 281.41 357.697 281.23C358.047 281.04 358.337 280.76 358.567 280.39L360.007 281.23C359.697 281.83 359.242 282.295 358.642 282.625C358.052 282.945 357.367 283.105 356.587 283.105ZM369.532 283V277.69L366.832 282.16H366.022L363.367 277.675V283H361.657V274.99H363.622L366.472 280L369.457 274.99H371.212L371.227 283H369.532Z" fill="#011F3A"/>
<rect x="202" y="458" width="193" height="100" rx="25" fill="white"/>
<path d="M280.3 511.18H273.46V520H263.98V511.18H241.36V504.64L261.16 478H271.36L253 503.26H264.28V495.4H273.46V503.26H280.3V511.18ZM299.29 493.78C305.21 493.78 309.57 494.96 312.37 497.32C315.21 499.68 316.63 502.84 316.63 506.8C316.63 509.36 315.99 511.7 314.71 513.82C313.43 515.9 311.47 517.58 308.83 518.86C306.23 520.1 303.01 520.72 299.17 520.72C296.21 520.72 293.29 520.34 290.41 519.58C287.57 518.78 285.15 517.66 283.15 516.22L286.99 508.78C288.59 509.98 290.43 510.92 292.51 511.6C294.59 512.24 296.73 512.56 298.93 512.56C301.37 512.56 303.29 512.08 304.69 511.12C306.09 510.16 306.79 508.82 306.79 507.1C306.79 505.3 306.05 503.94 304.57 503.02C303.13 502.1 300.61 501.64 297.01 501.64H286.27L288.43 478H314.05V485.8H296.53L295.87 493.78H299.29ZM354.55 478V484.3L338.95 520H328.39L343.45 485.92H329.53V492.76H320.89V478H354.55Z" fill="#ED5835"/>
<path d="M217.7 537.9C218.48 537.9 219.175 538.07 219.785 538.41C220.405 538.75 220.89 539.23 221.24 539.85C221.59 540.47 221.765 541.185 221.765 541.995C221.765 542.805 221.59 543.525 221.24 544.155C220.89 544.775 220.405 545.255 219.785 545.595C219.175 545.935 218.48 546.105 217.7 546.105C216.62 546.105 215.765 545.745 215.135 545.025V548.91H213.26V537.99H215.045V539.04C215.355 538.66 215.735 538.375 216.185 538.185C216.645 537.995 217.15 537.9 217.7 537.9ZM217.49 544.5C218.18 544.5 218.745 544.27 219.185 543.81C219.635 543.35 219.86 542.745 219.86 541.995C219.86 541.245 219.635 540.64 219.185 540.18C218.745 539.72 218.18 539.49 217.49 539.49C217.04 539.49 216.635 539.595 216.275 539.805C215.915 540.005 215.63 540.295 215.42 540.675C215.21 541.055 215.105 541.495 215.105 541.995C215.105 542.495 215.21 542.935 215.42 543.315C215.63 543.695 215.915 543.99 216.275 544.2C216.635 544.4 217.04 544.5 217.49 544.5ZM226.514 537.9C227.694 537.9 228.594 538.185 229.214 538.755C229.844 539.315 230.159 540.165 230.159 541.305V546H228.389V545.025C228.159 545.375 227.829 545.645 227.399 545.835C226.979 546.015 226.469 546.105 225.869 546.105C225.269 546.105 224.744 546.005 224.294 545.805C223.844 545.595 223.494 545.31 223.244 544.95C223.004 544.58 222.884 544.165 222.884 543.705C222.884 542.985 223.149 542.41 223.679 541.98C224.219 541.54 225.064 541.32 226.214 541.32H228.284V541.2C228.284 540.64 228.114 540.21 227.774 539.91C227.444 539.61 226.949 539.46 226.289 539.46C225.839 539.46 225.394 539.53 224.954 539.67C224.524 539.81 224.159 540.005 223.859 540.255L223.124 538.89C223.544 538.57 224.049 538.325 224.639 538.155C225.229 537.985 225.854 537.9 226.514 537.9ZM226.259 544.74C226.729 544.74 227.144 544.635 227.504 544.425C227.874 544.205 228.134 543.895 228.284 543.495V542.565H226.349C225.269 542.565 224.729 542.92 224.729 543.63C224.729 543.97 224.864 544.24 225.134 544.44C225.404 544.64 225.779 544.74 226.259 544.74ZM241.029 544.41V547.785H239.274V546H233.094V547.785H231.354V544.41H231.729C232.239 544.39 232.584 544.065 232.764 543.435C232.954 542.795 233.079 541.895 233.139 540.735L233.244 537.99H239.844V544.41H241.029ZM234.849 540.87C234.809 541.79 234.734 542.54 234.624 543.12C234.514 543.7 234.314 544.13 234.024 544.41H237.969V539.58H234.894L234.849 540.87ZM242.703 537.99H244.578V543.27L249.003 537.99H250.713V546H248.838V540.72L244.428 546H242.703V537.99ZM260.796 537.99L257.046 546.645C256.696 547.515 256.271 548.125 255.771 548.475C255.271 548.835 254.666 549.015 253.956 549.015C253.556 549.015 253.161 548.95 252.771 548.82C252.381 548.69 252.061 548.51 251.811 548.28L252.561 546.9C252.741 547.07 252.951 547.205 253.191 547.305C253.441 547.405 253.691 547.455 253.941 547.455C254.271 547.455 254.541 547.37 254.751 547.2C254.971 547.03 255.171 546.745 255.351 546.345L255.486 546.03L251.991 537.99H253.941L256.461 543.915L258.996 537.99H260.796ZM265.523 546.105C264.693 546.105 263.948 545.93 263.288 545.58C262.628 545.23 262.113 544.745 261.743 544.125C261.373 543.495 261.188 542.785 261.188 541.995C261.188 541.205 261.373 540.5 261.743 539.88C262.113 539.26 262.623 538.775 263.273 538.425C263.933 538.075 264.683 537.9 265.523 537.9C266.313 537.9 267.003 538.06 267.593 538.38C268.193 538.7 268.643 539.16 268.943 539.76L267.503 540.6C267.273 540.23 266.983 539.955 266.633 539.775C266.293 539.585 265.918 539.49 265.508 539.49C264.808 539.49 264.228 539.72 263.768 540.18C263.308 540.63 263.078 541.235 263.078 541.995C263.078 542.755 263.303 543.365 263.753 543.825C264.213 544.275 264.798 544.5 265.508 544.5C265.918 544.5 266.293 544.41 266.633 544.23C266.983 544.04 267.273 543.76 267.503 543.39L268.943 544.23C268.633 544.83 268.178 545.295 267.578 545.625C266.988 545.945 266.303 546.105 265.523 546.105ZM279.179 537.9C279.959 537.9 280.654 538.07 281.264 538.41C281.884 538.75 282.369 539.23 282.719 539.85C283.069 540.47 283.244 541.185 283.244 541.995C283.244 542.805 283.069 543.525 282.719 544.155C282.369 544.775 281.884 545.255 281.264 545.595C280.654 545.935 279.959 546.105 279.179 546.105C278.099 546.105 277.244 545.745 276.614 545.025V548.91H274.739V537.99H276.524V539.04C276.834 538.66 277.214 538.375 277.664 538.185C278.124 537.995 278.629 537.9 279.179 537.9ZM278.969 544.5C279.659 544.5 280.224 544.27 280.664 543.81C281.114 543.35 281.339 542.745 281.339 541.995C281.339 541.245 281.114 540.64 280.664 540.18C280.224 539.72 279.659 539.49 278.969 539.49C278.519 539.49 278.114 539.595 277.754 539.805C277.394 540.005 277.109 540.295 276.899 540.675C276.689 541.055 276.584 541.495 276.584 541.995C276.584 542.495 276.689 542.935 276.899 543.315C277.109 543.695 277.394 543.99 277.754 544.2C278.114 544.4 278.519 544.5 278.969 544.5ZM287.993 537.9C289.173 537.9 290.073 538.185 290.693 538.755C291.323 539.315 291.638 540.165 291.638 541.305V546H289.868V545.025C289.638 545.375 289.308 545.645 288.878 545.835C288.458 546.015 287.948 546.105 287.348 546.105C286.748 546.105 286.223 546.005 285.773 545.805C285.323 545.595 284.973 545.31 284.723 544.95C284.483 544.58 284.363 544.165 284.363 543.705C284.363 542.985 284.628 542.41 285.158 541.98C285.698 541.54 286.543 541.32 287.693 541.32H289.763V541.2C289.763 540.64 289.593 540.21 289.253 539.91C288.923 539.61 288.428 539.46 287.768 539.46C287.318 539.46 286.873 539.53 286.433 539.67C286.003 539.81 285.638 540.005 285.338 540.255L284.603 538.89C285.023 538.57 285.528 538.325 286.118 538.155C286.708 537.985 287.333 537.9 287.993 537.9ZM287.738 544.74C288.208 544.74 288.623 544.635 288.983 544.425C289.353 544.205 289.613 543.895 289.763 543.495V542.565H287.828C286.748 542.565 286.208 542.92 286.208 543.63C286.208 543.97 286.343 544.24 286.613 544.44C286.883 544.64 287.258 544.74 287.738 544.74ZM298.641 541.83C299.141 541.97 299.526 542.2 299.796 542.52C300.076 542.83 300.216 543.205 300.216 543.645C300.216 544.135 300.051 544.57 299.721 544.95C299.391 545.32 298.936 545.61 298.356 545.82C297.776 546.03 297.116 546.135 296.376 546.135C295.756 546.135 295.151 546.065 294.561 545.925C293.971 545.775 293.436 545.565 292.956 545.295L293.496 543.9C293.886 544.12 294.326 544.29 294.816 544.41C295.306 544.53 295.796 544.59 296.286 544.59C296.916 544.59 297.406 544.495 297.756 544.305C298.116 544.105 298.296 543.835 298.296 543.495C298.296 543.185 298.156 542.945 297.876 542.775C297.606 542.605 297.221 542.52 296.721 542.52H295.161V541.26H296.571C297.041 541.26 297.406 541.18 297.666 541.02C297.936 540.86 298.071 540.635 298.071 540.345C298.071 540.055 297.911 539.825 297.591 539.655C297.271 539.485 296.831 539.4 296.271 539.4C295.471 539.4 294.626 539.595 293.736 539.985L293.256 538.605C294.306 538.115 295.366 537.87 296.436 537.87C297.116 537.87 297.726 537.965 298.266 538.155C298.806 538.335 299.226 538.595 299.526 538.935C299.836 539.265 299.991 539.645 299.991 540.075C299.991 540.465 299.871 540.815 299.631 541.125C299.391 541.425 299.061 541.66 298.641 541.83ZM307.966 541.83C308.956 542.13 309.451 542.77 309.451 543.75C309.451 544.47 309.181 545.025 308.641 545.415C308.101 545.805 307.301 546 306.241 546H302.161V537.99H306.076C307.056 537.99 307.821 538.17 308.371 538.53C308.921 538.89 309.196 539.4 309.196 540.06C309.196 540.47 309.086 540.825 308.866 541.125C308.656 541.425 308.356 541.66 307.966 541.83ZM303.946 541.335H305.911C306.881 541.335 307.366 541 307.366 540.33C307.366 539.68 306.881 539.355 305.911 539.355H303.946V541.335ZM306.091 544.635C307.121 544.635 307.636 544.3 307.636 543.63C307.636 543.28 307.516 543.02 307.276 542.85C307.036 542.67 306.661 542.58 306.151 542.58H303.946V544.635H306.091ZM315.018 546.105C314.208 546.105 313.478 545.93 312.828 545.58C312.178 545.23 311.668 544.745 311.298 544.125C310.938 543.495 310.758 542.785 310.758 541.995C310.758 541.205 310.938 540.5 311.298 539.88C311.668 539.26 312.178 538.775 312.828 538.425C313.478 538.075 314.208 537.9 315.018 537.9C315.838 537.9 316.573 538.075 317.223 538.425C317.873 538.775 318.378 539.26 318.738 539.88C319.108 540.5 319.293 541.205 319.293 541.995C319.293 542.785 319.108 543.495 318.738 544.125C318.378 544.745 317.873 545.23 317.223 545.58C316.573 545.93 315.838 546.105 315.018 546.105ZM315.018 544.5C315.708 544.5 316.278 544.27 316.728 543.81C317.178 543.35 317.403 542.745 317.403 541.995C317.403 541.245 317.178 540.64 316.728 540.18C316.278 539.72 315.708 539.49 315.018 539.49C314.328 539.49 313.758 539.72 313.308 540.18C312.868 540.64 312.648 541.245 312.648 541.995C312.648 542.745 312.868 543.35 313.308 543.81C313.758 544.27 314.328 544.5 315.018 544.5ZM325.586 537.9C326.366 537.9 327.061 538.07 327.671 538.41C328.291 538.75 328.776 539.23 329.126 539.85C329.476 540.47 329.651 541.185 329.651 541.995C329.651 542.805 329.476 543.525 329.126 544.155C328.776 544.775 328.291 545.255 327.671 545.595C327.061 545.935 326.366 546.105 325.586 546.105C324.506 546.105 323.651 545.745 323.021 545.025V548.91H321.146V537.99H322.931V539.04C323.241 538.66 323.621 538.375 324.071 538.185C324.531 537.995 325.036 537.9 325.586 537.9ZM325.376 544.5C326.066 544.5 326.631 544.27 327.071 543.81C327.521 543.35 327.746 542.745 327.746 541.995C327.746 541.245 327.521 540.64 327.071 540.18C326.631 539.72 326.066 539.49 325.376 539.49C324.926 539.49 324.521 539.595 324.161 539.805C323.801 540.005 323.516 540.295 323.306 540.675C323.096 541.055 322.991 541.495 322.991 541.995C322.991 542.495 323.096 542.935 323.306 543.315C323.516 543.695 323.801 543.99 324.161 544.2C324.521 544.4 324.926 544.5 325.376 544.5ZM335.087 546.105C334.277 546.105 333.547 545.93 332.897 545.58C332.247 545.23 331.737 544.745 331.367 544.125C331.007 543.495 330.827 542.785 330.827 541.995C330.827 541.205 331.007 540.5 331.367 539.88C331.737 539.26 332.247 538.775 332.897 538.425C333.547 538.075 334.277 537.9 335.087 537.9C335.907 537.9 336.642 538.075 337.292 538.425C337.942 538.775 338.447 539.26 338.807 539.88C339.177 540.5 339.362 541.205 339.362 541.995C339.362 542.785 339.177 543.495 338.807 544.125C338.447 544.745 337.942 545.23 337.292 545.58C336.642 545.93 335.907 546.105 335.087 546.105ZM335.087 544.5C335.777 544.5 336.347 544.27 336.797 543.81C337.247 543.35 337.472 542.745 337.472 541.995C337.472 541.245 337.247 540.64 336.797 540.18C336.347 539.72 335.777 539.49 335.087 539.49C334.397 539.49 333.827 539.72 333.377 540.18C332.937 540.64 332.717 541.245 332.717 541.995C332.717 542.745 332.937 543.35 333.377 543.81C333.827 544.27 334.397 544.5 335.087 544.5ZM347.266 539.58H344.461V546H342.586V539.58H339.766V537.99H347.266V539.58ZM351.611 537.9C352.791 537.9 353.691 538.185 354.311 538.755C354.941 539.315 355.256 540.165 355.256 541.305V546H353.486V545.025C353.256 545.375 352.926 545.645 352.496 545.835C352.076 546.015 351.566 546.105 350.966 546.105C350.366 546.105 349.841 546.005 349.391 545.805C348.941 545.595 348.591 545.31 348.341 544.95C348.101 544.58 347.981 544.165 347.981 543.705C347.981 542.985 348.246 542.41 348.776 541.98C349.316 541.54 350.161 541.32 351.311 541.32H353.381V541.2C353.381 540.64 353.211 540.21 352.871 539.91C352.541 539.61 352.046 539.46 351.386 539.46C350.936 539.46 350.491 539.53 350.051 539.67C349.621 539.81 349.256 540.005 348.956 540.255L348.221 538.89C348.641 538.57 349.146 538.325 349.736 538.155C350.326 537.985 350.951 537.9 351.611 537.9ZM351.356 544.74C351.826 544.74 352.241 544.635 352.601 544.425C352.971 544.205 353.231 543.895 353.381 543.495V542.565H351.446C350.366 542.565 349.826 542.92 349.826 543.63C349.826 543.97 349.961 544.24 350.231 544.44C350.501 544.64 350.876 544.74 351.356 544.74ZM358.161 543.615C358.511 543.615 358.801 543.73 359.031 543.96C359.261 544.19 359.376 544.49 359.376 544.86C359.376 545.02 359.351 545.19 359.301 545.37C359.261 545.54 359.171 545.8 359.031 546.15L358.266 548.265H357.051L357.651 545.97C357.431 545.88 357.256 545.74 357.126 545.55C357.006 545.35 356.946 545.12 356.946 544.86C356.946 544.49 357.061 544.19 357.291 543.96C357.521 543.73 357.811 543.615 358.161 543.615ZM369.029 546.105C368.199 546.105 367.454 545.93 366.794 545.58C366.134 545.23 365.619 544.745 365.249 544.125C364.879 543.495 364.694 542.785 364.694 541.995C364.694 541.205 364.879 540.5 365.249 539.88C365.619 539.26 366.129 538.775 366.779 538.425C367.439 538.075 368.189 537.9 369.029 537.9C369.819 537.9 370.509 538.06 371.099 538.38C371.699 538.7 372.149 539.16 372.449 539.76L371.009 540.6C370.779 540.23 370.489 539.955 370.139 539.775C369.799 539.585 369.424 539.49 369.014 539.49C368.314 539.49 367.734 539.72 367.274 540.18C366.814 540.63 366.584 541.235 366.584 541.995C366.584 542.755 366.809 543.365 367.259 543.825C367.719 544.275 368.304 544.5 369.014 544.5C369.424 544.5 369.799 544.41 370.139 544.23C370.489 544.04 370.779 543.76 371.009 543.39L372.449 544.23C372.139 544.83 371.684 545.295 371.084 545.625C370.494 545.945 369.809 546.105 369.029 546.105ZM381.975 546V540.69L379.275 545.16H378.465L375.81 540.675V546H374.1V537.99H376.065L378.915 543L381.9 537.99H383.655L383.67 546H381.975Z" fill="#011F3A"/>
<circle cx="303" cy="347" r="9.5" fill="#148EFF" stroke="#148EFF"/>
<circle cx="303" cy="347" r="5" fill="white"/>
<path d="M303 338L303 300" stroke="#148EFF"/>
<circle r="9.5" transform="matrix(1 0 0 -1 299 419)" fill="#ED5835" stroke="#ED5835"/>
<circle r="5" transform="matrix(1 0 0 -1 299 419)" fill="white"/>
<path d="M299 428L299 458" stroke="#ED5835"/>
<defs>
<linearGradient id="paint0_linear_1127_214538" x1="318" y1="430" x2="319.5" y2="383.5" gradientUnits="userSpaceOnUse">
<stop stop-color="#C4C4C4"/>
<stop offset="1" stop-color="#C4C4C4" stop-opacity="0"/>
</linearGradient>
</defs>
</svg>
