<svg width="570" height="568" viewBox="0 0 570 568" fill="none" xmlns="http://www.w3.org/2000/svg">
<mask id="mask0_1127_214145" style="mask-type:alpha" maskUnits="userSpaceOnUse" x="73" y="350" width="437" height="61">
<path d="M509.5 380.5C509.5 382.347 508.154 384.273 505.279 386.234C502.425 388.181 498.183 390.079 492.672 391.897C481.658 395.532 465.693 398.813 445.934 401.572C406.422 407.087 351.821 410.5 291.5 410.5C231.179 410.5 176.578 407.087 137.066 401.572C117.307 398.813 101.342 395.532 90.3275 391.897C84.8169 390.079 80.5751 388.181 77.7209 386.234C74.8461 384.273 73.5 382.347 73.5 380.5C73.5 378.653 74.8461 376.727 77.7209 374.766C80.5751 372.819 84.8169 370.921 90.3275 369.103C101.342 365.468 117.307 362.187 137.066 359.428C176.578 353.913 231.179 350.5 291.5 350.5C351.821 350.5 406.422 353.913 445.934 359.428C465.693 362.187 481.658 365.468 492.672 369.103C498.183 370.921 502.425 372.819 505.279 374.766C508.154 376.727 509.5 378.653 509.5 380.5Z" fill="url(#paint0_linear_1127_214145)" stroke="#AAB9C7"/>
</mask>
<g mask="url(#mask0_1127_214145)">
<line y1="-0.5" x2="289.119" y2="-0.5" transform="matrix(-0.636285 0.771454 -0.927145 -0.374701 192.379 192.174)" stroke="#ED5835"/>
<line y1="-0.5" x2="289.119" y2="-0.5" transform="matrix(-0.636285 0.771454 -0.927145 -0.374701 196.098 193.677)" stroke="#ED5835"/>
<line y1="-0.5" x2="289.119" y2="-0.5" transform="matrix(-0.636285 0.771454 -0.927145 -0.374701 199.816 195.18)" stroke="#ED5835"/>
<line y1="-0.5" x2="289.119" y2="-0.5" transform="matrix(-0.636285 0.771454 -0.927145 -0.374701 203.535 196.683)" stroke="#ED5835"/>
<line y1="-0.5" x2="289.119" y2="-0.5" transform="matrix(-0.636285 0.771454 -0.927145 -0.374701 207.258 198.186)" stroke="#ED5835"/>
<line y1="-0.5" x2="289.119" y2="-0.5" transform="matrix(-0.636285 0.771454 -0.927146 -0.374701 210.973 199.688)" stroke="#ED5835"/>
<line y1="-0.5" x2="289.119" y2="-0.5" transform="matrix(-0.636285 0.771454 -0.927145 -0.374701 214.691 201.191)" stroke="#ED5835"/>
<line y1="-0.5" x2="289.119" y2="-0.5" transform="matrix(-0.636285 0.771454 -0.927145 -0.374701 218.406 202.693)" stroke="#ED5835"/>
<line y1="-0.5" x2="289.119" y2="-0.5" transform="matrix(-0.636285 0.771454 -0.927145 -0.374701 222.129 204.196)" stroke="#ED5835"/>
<line y1="-0.5" x2="289.119" y2="-0.5" transform="matrix(-0.636285 0.771454 -0.927145 -0.374701 225.844 205.7)" stroke="#ED5835"/>
<line y1="-0.5" x2="289.119" y2="-0.5" transform="matrix(-0.636285 0.771454 -0.927146 -0.374701 229.566 207.203)" stroke="#ED5835"/>
<line y1="-0.5" x2="289.119" y2="-0.5" transform="matrix(-0.636285 0.771454 -0.927145 -0.374701 233.281 208.706)" stroke="#ED5835"/>
<line y1="-0.5" x2="289.119" y2="-0.5" transform="matrix(-0.636285 0.771454 -0.927145 -0.374701 237.004 210.209)" stroke="#ED5835"/>
<line y1="-0.5" x2="289.119" y2="-0.5" transform="matrix(-0.636285 0.771454 -0.927145 -0.374701 240.719 211.712)" stroke="#ED5835"/>
<line y1="-0.5" x2="289.119" y2="-0.5" transform="matrix(-0.636285 0.771454 -0.927145 -0.374701 244.441 213.215)" stroke="#ED5835"/>
<line y1="-0.5" x2="289.119" y2="-0.5" transform="matrix(-0.636285 0.771454 -0.927145 -0.374701 248.16 214.718)" stroke="#ED5835"/>
<line y1="-0.5" x2="289.119" y2="-0.5" transform="matrix(-0.636285 0.771454 -0.927145 -0.374701 251.879 216.221)" stroke="#ED5835"/>
<line y1="-0.5" x2="289.119" y2="-0.5" transform="matrix(-0.636285 0.771454 -0.927145 -0.374701 255.598 217.724)" stroke="#ED5835"/>
<line y1="-0.5" x2="289.119" y2="-0.5" transform="matrix(-0.636285 0.771454 -0.927145 -0.374701 259.316 219.226)" stroke="#ED5835"/>
<line y1="-0.5" x2="289.119" y2="-0.5" transform="matrix(-0.636285 0.771454 -0.927145 -0.374701 263.035 220.729)" stroke="#ED5835"/>
<line y1="-0.5" x2="289.119" y2="-0.5" transform="matrix(-0.636285 0.771454 -0.927145 -0.374701 266.754 222.231)" stroke="#ED5835"/>
<line y1="-0.5" x2="289.119" y2="-0.5" transform="matrix(-0.636285 0.771454 -0.927145 -0.374701 270.477 223.734)" stroke="#ED5835"/>
<line y1="-0.5" x2="289.119" y2="-0.5" transform="matrix(-0.636285 0.771454 -0.927145 -0.374701 274.191 225.237)" stroke="#ED5835"/>
<line y1="-0.5" x2="289.119" y2="-0.5" transform="matrix(-0.636285 0.771454 -0.927145 -0.374701 277.914 226.74)" stroke="#ED5835"/>
<line y1="-0.5" x2="289.119" y2="-0.5" transform="matrix(-0.636285 0.771454 -0.927145 -0.374701 281.629 228.243)" stroke="#ED5835"/>
<line y1="-0.5" x2="289.119" y2="-0.5" transform="matrix(-0.636285 0.771454 -0.927145 -0.374701 285.352 229.746)" stroke="#ED5835"/>
<line y1="-0.5" x2="289.119" y2="-0.5" transform="matrix(-0.636285 0.771454 -0.927145 -0.374701 289.066 231.249)" stroke="#ED5835"/>
<line y1="-0.5" x2="289.119" y2="-0.5" transform="matrix(-0.636285 0.771454 -0.927145 -0.374701 292.789 232.752)" stroke="#ED5835"/>
<line y1="-0.5" x2="289.119" y2="-0.5" transform="matrix(-0.636285 0.771454 -0.927145 -0.374701 296.504 234.255)" stroke="#ED5835"/>
<line y1="-0.5" x2="289.119" y2="-0.5" transform="matrix(-0.636285 0.771454 -0.927145 -0.374701 300.227 235.759)" stroke="#ED5835"/>
<line y1="-0.5" x2="289.119" y2="-0.5" transform="matrix(-0.636285 0.771454 -0.927145 -0.374701 303.945 237.261)" stroke="#ED5835"/>
<line y1="-0.5" x2="289.119" y2="-0.5" transform="matrix(-0.636285 0.771454 -0.927145 -0.374701 307.664 238.764)" stroke="#ED5835"/>
<line y1="-0.5" x2="289.119" y2="-0.5" transform="matrix(-0.636285 0.771454 -0.927145 -0.374701 311.383 240.267)" stroke="#ED5835"/>
<line y1="-0.5" x2="289.119" y2="-0.5" transform="matrix(-0.636285 0.771454 -0.927145 -0.374701 315.102 241.77)" stroke="#ED5835"/>
<line y1="-0.5" x2="289.119" y2="-0.5" transform="matrix(-0.636285 0.771454 -0.927145 -0.374701 318.82 243.272)" stroke="#ED5835"/>
<line y1="-0.5" x2="289.119" y2="-0.5" transform="matrix(-0.636285 0.771454 -0.927145 -0.374701 322.539 244.775)" stroke="#ED5835"/>
<line y1="-0.5" x2="289.119" y2="-0.5" transform="matrix(-0.636285 0.771454 -0.927145 -0.374701 326.254 246.278)" stroke="#ED5835"/>
<line y1="-0.5" x2="289.119" y2="-0.5" transform="matrix(-0.636285 0.771454 -0.927145 -0.374701 329.973 247.781)" stroke="#ED5835"/>
<line y1="-0.5" x2="289.119" y2="-0.5" transform="matrix(-0.636285 0.771454 -0.927145 -0.374701 333.691 249.285)" stroke="#ED5835"/>
<line y1="-0.5" x2="289.119" y2="-0.5" transform="matrix(-0.636285 0.771454 -0.927145 -0.374701 337.41 250.788)" stroke="#ED5835"/>
<line y1="-0.5" x2="289.119" y2="-0.5" transform="matrix(-0.636285 0.771454 -0.927145 -0.374701 341.129 252.291)" stroke="#ED5835"/>
<line y1="-0.5" x2="289.119" y2="-0.5" transform="matrix(-0.636285 0.771454 -0.927145 -0.374701 344.848 253.794)" stroke="#ED5835"/>
<line y1="-0.5" x2="289.119" y2="-0.5" transform="matrix(-0.636285 0.771454 -0.927145 -0.374701 348.566 255.297)" stroke="#ED5835"/>
<line y1="-0.5" x2="289.119" y2="-0.5" transform="matrix(-0.636285 0.771454 -0.927145 -0.374701 352.285 256.8)" stroke="#ED5835"/>
<line y1="-0.5" x2="289.119" y2="-0.5" transform="matrix(-0.636285 0.771454 -0.927145 -0.374701 356.004 258.303)" stroke="#ED5835"/>
<line y1="-0.5" x2="289.119" y2="-0.5" transform="matrix(-0.636285 0.771454 -0.927145 -0.374701 359.727 259.806)" stroke="#ED5835"/>
<line y1="-0.5" x2="289.119" y2="-0.5" transform="matrix(-0.636285 0.771454 -0.927145 -0.374701 363.445 261.309)" stroke="#ED5835"/>
<line y1="-0.5" x2="289.119" y2="-0.5" transform="matrix(-0.636285 0.771454 -0.927145 -0.374701 367.164 262.812)" stroke="#ED5835"/>
<line y1="-0.5" x2="289.119" y2="-0.5" transform="matrix(-0.636285 0.771454 -0.927145 -0.374701 370.883 264.314)" stroke="#ED5835"/>
<line y1="-0.5" x2="289.119" y2="-0.5" transform="matrix(-0.636285 0.771454 -0.927145 -0.374701 374.602 265.818)" stroke="#ED5835"/>
<line y1="-0.5" x2="289.119" y2="-0.5" transform="matrix(-0.636285 0.771454 -0.927145 -0.374701 378.316 267.321)" stroke="#ED5835"/>
<line y1="-0.5" x2="289.119" y2="-0.5" transform="matrix(-0.636285 0.771454 -0.927145 -0.374701 382.039 268.824)" stroke="#ED5835"/>
<line y1="-0.5" x2="289.119" y2="-0.5" transform="matrix(-0.636285 0.771454 -0.927145 -0.374701 385.754 270.326)" stroke="#ED5835"/>
<line y1="-0.5" x2="289.119" y2="-0.5" transform="matrix(-0.636285 0.771454 -0.927145 -0.374701 389.477 271.829)" stroke="#ED5835"/>
<line y1="-0.5" x2="289.119" y2="-0.5" transform="matrix(-0.636285 0.771454 -0.927145 -0.374701 393.195 273.332)" stroke="#ED5835"/>
<line y1="-0.5" x2="289.119" y2="-0.5" transform="matrix(-0.636285 0.771454 -0.927145 -0.374701 396.914 274.835)" stroke="#ED5835"/>
<line y1="-0.5" x2="289.119" y2="-0.5" transform="matrix(-0.636285 0.771454 -0.927145 -0.374701 400.633 276.338)" stroke="#ED5835"/>
<line y1="-0.5" x2="289.119" y2="-0.5" transform="matrix(-0.636285 0.771454 -0.927145 -0.374701 404.352 277.841)" stroke="#ED5835"/>
<line y1="-0.5" x2="289.119" y2="-0.5" transform="matrix(-0.636285 0.771454 -0.927145 -0.374701 408.07 279.345)" stroke="#ED5835"/>
<line y1="-0.5" x2="289.119" y2="-0.5" transform="matrix(-0.636285 0.771454 -0.927145 -0.374701 411.789 280.848)" stroke="#ED5835"/>
<line y1="-0.5" x2="289.119" y2="-0.5" transform="matrix(-0.636285 0.771454 -0.927145 -0.374701 415.508 282.351)" stroke="#ED5835"/>
<line y1="-0.5" x2="289.119" y2="-0.5" transform="matrix(-0.636285 0.771454 -0.927145 -0.374701 419.227 283.853)" stroke="#ED5835"/>
<line y1="-0.5" x2="289.119" y2="-0.5" transform="matrix(-0.636285 0.771454 -0.927145 -0.374701 422.949 285.355)" stroke="#ED5835"/>
<line y1="-0.5" x2="289.119" y2="-0.5" transform="matrix(-0.636285 0.771454 -0.927145 -0.374701 426.664 286.857)" stroke="#ED5835"/>
<line y1="-0.5" x2="289.119" y2="-0.5" transform="matrix(-0.636285 0.771454 -0.927145 -0.374701 430.457 288.391)" stroke="#ED5835"/>
<line y1="-0.5" x2="289.119" y2="-0.5" transform="matrix(-0.636285 0.771454 -0.927145 -0.374701 434.254 289.925)" stroke="#ED5835"/>
<line y1="-0.5" x2="289.119" y2="-0.5" transform="matrix(-0.636285 0.771454 -0.927145 -0.374701 438.051 291.458)" stroke="#ED5835"/>
<line y1="-0.5" x2="289.119" y2="-0.5" transform="matrix(-0.636285 0.771454 -0.927145 -0.374701 441.844 292.992)" stroke="#ED5835"/>
<line y1="-0.5" x2="289.119" y2="-0.5" transform="matrix(-0.636285 0.771454 -0.927145 -0.374701 445.633 294.525)" stroke="#ED5835"/>
<line y1="-0.5" x2="289.119" y2="-0.5" transform="matrix(-0.636285 0.771454 -0.927145 -0.374701 449.43 296.059)" stroke="#ED5835"/>
<line y1="-0.5" x2="289.119" y2="-0.5" transform="matrix(-0.636285 0.771454 -0.927145 -0.374701 453.227 297.592)" stroke="#ED5835"/>
<line y1="-0.5" x2="289.119" y2="-0.5" transform="matrix(-0.636285 0.771454 -0.927145 -0.374701 457.02 299.125)" stroke="#ED5835"/>
<line y1="-0.5" x2="289.119" y2="-0.5" transform="matrix(-0.636285 0.771454 -0.927145 -0.374701 460.812 300.658)" stroke="#ED5835"/>
<line y1="-0.5" x2="289.119" y2="-0.5" transform="matrix(-0.636285 0.771454 -0.927145 -0.374701 464.605 302.192)" stroke="#ED5835"/>
<line y1="-0.5" x2="289.119" y2="-0.5" transform="matrix(-0.636285 0.771454 -0.927145 -0.374701 468.398 303.726)" stroke="#ED5835"/>
<line y1="-0.5" x2="289.119" y2="-0.5" transform="matrix(-0.636285 0.771454 -0.927145 -0.374701 472.199 305.26)" stroke="#ED5835"/>
<line y1="-0.5" x2="289.119" y2="-0.5" transform="matrix(-0.636285 0.771454 -0.927145 -0.374701 475.992 306.793)" stroke="#ED5835"/>
<line y1="-0.5" x2="289.119" y2="-0.5" transform="matrix(-0.636285 0.771454 -0.927146 -0.374701 479.781 308.327)" stroke="#ED5835"/>
<line y1="-0.5" x2="289.119" y2="-0.5" transform="matrix(-0.636285 0.771454 -0.927145 -0.374701 483.578 309.86)" stroke="#ED5835"/>
<line y1="-0.5" x2="289.119" y2="-0.5" transform="matrix(-0.636285 0.771454 -0.927146 -0.374701 487.375 311.394)" stroke="#ED5835"/>
<line y1="-0.5" x2="289.119" y2="-0.5" transform="matrix(-0.636285 0.771454 -0.927145 -0.374701 491.168 312.928)" stroke="#ED5835"/>
<line y1="-0.5" x2="289.119" y2="-0.5" transform="matrix(-0.636285 0.771454 -0.927145 -0.374701 494.965 314.461)" stroke="#ED5835"/>
<line y1="-0.5" x2="289.119" y2="-0.5" transform="matrix(-0.636285 0.771454 -0.927145 -0.374701 498.758 315.994)" stroke="#ED5835"/>
<line y1="-0.5" x2="289.119" y2="-0.5" transform="matrix(-0.636285 0.771454 -0.927146 -0.374701 502.551 317.527)" stroke="#ED5835"/>
<line y1="-0.5" x2="289.119" y2="-0.5" transform="matrix(-0.636285 0.771454 -0.927145 -0.374701 506.348 319.061)" stroke="#ED5835"/>
<line y1="-0.5" x2="289.119" y2="-0.5" transform="matrix(-0.636285 0.771454 -0.927146 -0.374701 510.141 320.595)" stroke="#ED5835"/>
<line y1="-0.5" x2="289.119" y2="-0.5" transform="matrix(-0.636285 0.771454 -0.927145 -0.374701 513.934 322.128)" stroke="#ED5835"/>
<line y1="-0.5" x2="289.119" y2="-0.5" transform="matrix(-0.636285 0.771454 -0.927145 -0.374701 517.73 323.661)" stroke="#ED5835"/>
<line y1="-0.5" x2="289.119" y2="-0.5" transform="matrix(-0.636285 0.771454 -0.927145 -0.374701 521.523 325.195)" stroke="#ED5835"/>
<line y1="-0.5" x2="289.119" y2="-0.5" transform="matrix(-0.636285 0.771454 -0.927145 -0.374701 525.316 326.729)" stroke="#ED5835"/>
<line y1="-0.5" x2="289.119" y2="-0.5" transform="matrix(-0.636285 0.771454 -0.927145 -0.374701 529.109 328.262)" stroke="#ED5835"/>
<line y1="-0.5" x2="289.119" y2="-0.5" transform="matrix(-0.636285 0.771454 -0.927145 -0.374701 532.906 329.795)" stroke="#ED5835"/>
<line y1="-0.5" x2="289.119" y2="-0.5" transform="matrix(-0.636285 0.771454 -0.927145 -0.374701 536.699 331.328)" stroke="#ED5835"/>
<line y1="-0.5" x2="289.119" y2="-0.5" transform="matrix(-0.636285 0.771454 -0.927145 -0.374701 540.492 332.862)" stroke="#ED5835"/>
<line y1="-0.5" x2="289.119" y2="-0.5" transform="matrix(-0.636285 0.771454 -0.927145 -0.374701 544.289 334.396)" stroke="#ED5835"/>
<line y1="-0.5" x2="289.119" y2="-0.5" transform="matrix(-0.636285 0.771454 -0.927145 -0.374701 548.086 335.929)" stroke="#ED5835"/>
<line y1="-0.5" x2="289.119" y2="-0.5" transform="matrix(-0.636285 0.771454 -0.927145 -0.374701 551.875 337.462)" stroke="#ED5835"/>
<line y1="-0.5" x2="289.119" y2="-0.5" transform="matrix(-0.636285 0.771454 -0.927145 -0.374702 555.672 338.996)" stroke="#ED5835"/>
<line y1="-0.5" x2="289.119" y2="-0.5" transform="matrix(-0.636285 0.771454 -0.927146 -0.374701 559.469 340.529)" stroke="#ED5835"/>
<line y1="-0.5" x2="289.119" y2="-0.5" transform="matrix(-0.636285 0.771454 -0.927145 -0.374701 563.258 342.062)" stroke="#ED5835"/>
<line y1="-0.5" x2="289.119" y2="-0.5" transform="matrix(-0.636285 0.771454 -0.927145 -0.374701 567.055 343.597)" stroke="#ED5835"/>
<line y1="-0.5" x2="289.119" y2="-0.5" transform="matrix(-0.636285 0.771454 -0.927145 -0.374701 570.852 345.129)" stroke="#ED5835"/>
<line y1="-0.5" x2="289.119" y2="-0.5" transform="matrix(-0.636285 0.771454 -0.927145 -0.374701 574.641 346.663)" stroke="#ED5835"/>
</g>
<path d="M510 380.664C510 397.418 412.174 411 291.5 411C170.826 411 73 397.418 73 380.664C73 371.651 101.312 363.556 146.262 358" stroke="#495F73" stroke-width="0.75"/>
<path d="M107.831 173.69C197.409 174.478 283.235 175.262 372.78 176.05C372.042 204.661 371.307 233.054 370.563 261.876H103.877" fill="white"/>
<path d="M217.25 347.872C216.369 342.009 215.943 336.547 214.691 331.283C207.36 300.465 180.153 295.677 159.219 305.114C145.547 311.279 138.775 322.494 137.328 337.149C137.086 340.274 137.031 343.41 137.162 346.541C137.279 352.023 135.251 354.468 129.675 353.983C118.734 353.032 107.833 351.613 96.574 350.35V327.481H75.2004V264.846H375.452V177.447H397.072C399.439 190.426 405.74 202.53 405.532 216.404C405.122 243.657 405.291 270.917 405.223 298.174C405.217 299.258 405.22 300.338 405.22 301.894C403.588 301.969 402.151 302.09 400.714 302.093C387.237 302.129 373.738 302.65 360.291 302.028C351.565 301.781 343.044 304.702 336.3 310.253C329.557 315.803 325.045 323.608 323.598 332.227C322.57 337.266 322.268 342.455 321.595 347.872H217.25Z" fill="white"/>
<path d="M497.986 373.432C486.089 373.432 474.668 373.426 463.25 373.435C441.882 373.445 420.515 373.663 399.158 373.328C394.171 372.892 389.261 371.813 384.55 370.118C382.125 369.425 382.486 365.248 385.08 363.679C391.947 359.532 399.226 355.967 405.686 351.273C416.391 343.264 429.706 339.568 443.001 340.915C456.116 341.973 469.385 341.322 482.578 341.12C484.033 340.919 485.512 341.23 486.764 341.998C488.016 342.767 488.964 343.946 489.445 345.336C491.051 348.923 498.366 366.902 497.986 373.432Z" fill="white"/>
<path d="M73.9495 261.877C83.1277 233.817 102.082 171.673 102.082 171.673L129.035 180.635L103.139 264.257C93.3581 264.329 83.5899 263.533 73.9495 261.877Z" fill="white"/>
<path d="M408.807 299.055V282.954H438.062V235.127H476.13C476.245 235.61 476.273 236.11 476.212 236.602C472.795 247.484 469.371 258.367 465.85 269.217C465.368 270.478 464.637 271.628 463.701 272.599C456.34 280.806 448.96 288.996 441.476 297.089C440.51 298.145 439.194 298.814 437.772 298.97C428.266 299.127 418.753 299.055 408.807 299.055Z" fill="white"/>
<path d="M396.499 341.86C396.216 344.416 396.044 346.991 395.621 349.523C395.351 351.626 394.525 353.619 393.228 355.296C391.932 356.972 390.213 358.272 388.247 359.061C385.842 359.99 383.558 361.206 381.446 362.685C380.266 363.596 378.939 365.754 379.258 366.916C380.34 370.849 377.717 371.633 375.216 372.656C370.485 374.497 365.405 375.269 360.341 374.916C355.277 374.564 350.353 373.095 345.921 370.616C341.49 368.137 337.66 364.708 334.706 360.574C331.751 356.44 329.746 351.704 328.832 346.705C327.918 341.705 328.119 336.564 329.42 331.651C330.721 326.738 333.09 322.174 336.358 318.284C339.626 314.394 343.711 311.275 348.323 309.15C352.934 307.025 357.958 305.946 363.034 305.99C382.46 306.482 396.278 321.378 396.499 341.86ZM361.425 362.958C365.785 362.931 370.04 361.614 373.655 359.174C377.271 356.733 380.085 353.278 381.746 349.241C383.406 345.204 383.838 340.765 382.987 336.484C382.136 332.202 380.041 328.267 376.964 325.174C373.887 322.08 369.966 319.966 365.693 319.097C361.42 318.227 356.985 318.642 352.947 320.288C348.908 321.933 345.445 324.737 342.993 328.347C340.541 331.957 339.208 336.212 339.163 340.578C339.156 343.511 339.726 346.418 340.841 349.13C341.956 351.843 343.594 354.309 345.661 356.388C347.729 358.466 350.185 360.116 352.89 361.244C355.595 362.371 358.495 362.954 361.425 362.958Z" fill="white"/>
<path d="M210.282 339.269C210.312 343.664 209.471 348.022 207.807 352.09C206.144 356.157 203.691 359.854 200.59 362.966C197.49 366.077 193.804 368.542 189.745 370.218C185.687 371.894 181.337 372.746 176.947 372.727C170.325 372.75 163.845 370.804 158.328 367.137C152.811 363.469 148.506 358.244 145.957 352.124C143.409 346.004 142.732 339.265 144.012 332.759C145.293 326.254 148.473 320.275 153.15 315.581C157.827 310.887 163.79 307.688 170.284 306.39C176.778 305.093 183.511 305.754 189.629 308.291C195.748 310.828 200.977 315.126 204.653 320.64C208.33 326.155 210.289 332.639 210.282 339.269ZM153.616 339.149C153.59 342.215 154.167 345.257 155.315 348.1C156.463 350.943 158.159 353.531 160.306 355.718C162.453 357.904 165.01 359.646 167.829 360.843C170.649 362.04 173.677 362.669 176.739 362.694C182.923 362.669 188.85 360.213 193.244 355.855C197.638 351.498 200.148 345.588 200.233 339.396C200.245 336.33 199.654 333.29 198.492 330.453C197.33 327.615 195.621 325.035 193.462 322.86C191.303 320.685 188.737 318.957 185.91 317.776C183.084 316.595 180.052 315.984 176.989 315.978C173.928 315.935 170.888 316.503 168.048 317.65C165.208 318.796 162.625 320.498 160.449 322.655C158.273 324.812 156.548 327.381 155.375 330.213C154.202 333.045 153.604 336.083 153.616 339.149Z" fill="white"/>
<path d="M434.911 279.616H408.866V273.122H427.138V245.374H408.801V215.243H454.877C453.802 216.338 452.595 217.294 451.285 218.091C449.851 218.505 448.382 218.78 446.896 218.911C438.429 220.35 434.921 224.462 434.915 233.017C434.902 248.378 434.911 263.737 434.911 279.616Z" fill="white"/>
<path d="M464.107 337.327C458.586 337.327 454.077 337.633 449.652 337.164C448.721 336.935 447.848 336.512 447.091 335.923C446.334 335.334 445.708 334.593 445.256 333.746C444.242 331.48 442.503 329.617 440.315 328.45C438.126 327.283 435.612 326.879 433.168 327.301C422.992 327.87 412.76 327.362 402.554 327.6C401.299 327.754 400.028 327.488 398.939 326.845C397.85 326.202 397.003 325.216 396.53 324.042C394.7 320.455 392.498 317.056 390.138 313.033C397.626 313.033 404.521 313.046 411.421 313.029C422.988 313.01 434.556 312.925 446.128 312.997C446.828 312.952 447.531 313.048 448.194 313.279C448.856 313.51 449.466 313.873 449.987 314.344C454.672 321.633 459.097 329.091 464.107 337.327Z" fill="white"/>
<path d="M438.171 231.126C438.144 228.902 438.978 226.753 440.499 225.132C442.02 223.51 444.109 222.541 446.328 222.428C452.524 221.753 458.754 221.447 464.987 221.51C474.266 221.37 474.246 221.461 476.509 212.275C478.037 206.08 479.471 199.859 481.236 193.736C481.706 190.934 483.187 188.402 485.398 186.621C487.609 184.84 490.396 183.934 493.23 184.074C491.998 188.993 490.808 193.775 489.605 198.55C487.118 208.42 484.696 218.307 482.049 228.134C481.734 229.303 480.186 230.986 479.188 230.999C465.608 231.188 452.027 231.126 438.171 231.126Z" fill="white"/>
<path d="M92.1771 332.125H72V350.345H92.1771V332.125Z" fill="white"/>
<path d="M424.652 248.145H408.858V269.764H424.652V248.145Z" fill="white"/>
<path d="M444.717 198.651V194.484H467.921C468.945 188.898 469.498 187.632 471.211 187.283V198.426H461.958C461.958 203.937 462.173 209.172 461.854 214.374C461.727 216.369 463.74 220.204 459.864 220.116C456.502 220.041 458.326 216.441 458.222 214.491C457.956 209.367 458.131 204.217 458.131 198.651H444.717Z" fill="white"/>
<path d="M402.571 171.151C404.103 170.66 405.332 170.266 406.987 169.735C410.537 182.252 413.996 194.462 417.579 207.1C416.142 207.585 414.822 208.034 413.092 208.617C411.811 204.173 410.751 200.006 409.357 195.953C408.934 194.72 407.439 193.896 406.7 192.718C405.888 191.425 404.551 188.945 404.86 188.688C408.713 185.484 405.036 182.516 404.691 179.566C404.179 176.716 403.471 173.904 402.571 171.151Z" fill="white"/>
<path d="M462.249 283.317V326.336C462.018 326.518 461.784 326.7 461.55 326.883C460.454 325.257 459.655 323.449 459.189 321.544C458.705 310.417 458.425 299.284 458.35 288.145C458.685 286.25 459.337 284.425 460.278 282.747C460.935 282.936 461.592 283.128 462.249 283.317Z" fill="white"/>
<path d="M394.842 165.167H384.315V174.679H394.842V165.167Z" fill="white"/>
<path d="M379.983 340.827C379.956 344.507 378.841 348.097 376.777 351.143C374.714 354.189 371.796 356.554 368.39 357.94C364.985 359.326 361.246 359.671 357.646 358.93C354.045 358.19 350.744 356.397 348.161 353.779C345.577 351.161 343.826 347.836 343.129 344.222C342.432 340.608 342.821 336.869 344.245 333.476C345.67 330.083 348.067 327.19 351.133 325.16C354.199 323.13 357.798 322.056 361.474 322.073C366.411 322.106 371.134 324.099 374.604 327.615C378.075 331.132 380.009 335.884 379.983 340.827Z" fill="white"/>
<path d="M196.289 339.466C196.301 342.019 195.806 344.549 194.833 346.909C193.86 349.269 192.427 351.411 190.619 353.212C188.811 355.012 186.663 356.434 184.301 357.396C181.939 358.357 179.409 358.839 176.859 358.812C174.286 358.82 171.737 358.319 169.358 357.338C166.979 356.357 164.816 354.916 162.994 353.097C161.172 351.278 159.726 349.117 158.739 346.738C157.752 344.359 157.244 341.808 157.243 339.232C157.243 336.655 157.75 334.104 158.735 331.725C159.721 329.345 161.166 327.183 162.987 325.363C164.808 323.544 166.97 322.102 169.349 321.12C171.728 320.138 174.277 319.635 176.85 319.641C179.435 319.633 181.997 320.143 184.382 321.14C186.768 322.138 188.931 323.604 190.742 325.451C192.554 327.299 193.978 329.491 194.93 331.897C195.883 334.304 196.345 336.878 196.289 339.466Z" fill="white"/>
<g clip-path="url(#clip0_1127_214145)">
<mask id="mask1_1127_214145" style="mask-type:alpha" maskUnits="userSpaceOnUse" x="104" y="173" width="269" height="90">
<path d="M372.872 175.868C283.294 175.078 197.849 174.474 108.239 173.684L129.111 180.673L104.059 262H370.51C371.255 233.078 372.134 204.578 372.872 175.868Z" fill="#C4C4C4"/>
</mask>
<g mask="url(#mask1_1127_214145)">
<line y1="-0.5" x2="286.681" y2="-0.5" transform="matrix(-0.498226 0.867047 -0.864997 -0.501776 175.516 2.96484)" stroke="#148EFF"/>
<line y1="-0.5" x2="286.681" y2="-0.5" transform="matrix(-0.498226 0.867047 -0.864997 -0.501776 179.348 5.90527)" stroke="#148EFF"/>
<line y1="-0.5" x2="286.681" y2="-0.5" transform="matrix(-0.498226 0.867047 -0.864997 -0.501776 183.18 8.84668)" stroke="#148EFF"/>
<line y1="-0.5" x2="286.681" y2="-0.5" transform="matrix(-0.498226 0.867047 -0.864997 -0.501776 187.012 11.7871)" stroke="#148EFF"/>
<line y1="-0.5" x2="286.681" y2="-0.5" transform="matrix(-0.498226 0.867047 -0.864998 -0.501776 190.844 14.7275)" stroke="#148EFF"/>
<line y1="-0.5" x2="286.681" y2="-0.5" transform="matrix(-0.498226 0.867047 -0.864998 -0.501776 194.676 17.6689)" stroke="#148EFF"/>
<line y1="-0.5" x2="286.681" y2="-0.5" transform="matrix(-0.498226 0.867047 -0.864997 -0.501776 198.508 20.6094)" stroke="#148EFF"/>
<line y1="-0.5" x2="286.681" y2="-0.5" transform="matrix(-0.498226 0.867047 -0.864998 -0.501776 202.34 23.5498)" stroke="#148EFF"/>
<line y1="-0.5" x2="286.681" y2="-0.5" transform="matrix(-0.498226 0.867047 -0.864997 -0.501776 206.172 26.4912)" stroke="#148EFF"/>
<line y1="-0.5" x2="286.681" y2="-0.5" transform="matrix(-0.498226 0.867047 -0.864997 -0.501776 210.004 29.4316)" stroke="#148EFF"/>
<line y1="-0.5" x2="286.681" y2="-0.5" transform="matrix(-0.498226 0.867047 -0.864997 -0.501776 213.836 32.3721)" stroke="#148EFF"/>
<line y1="-0.5" x2="286.681" y2="-0.5" transform="matrix(-0.498226 0.867047 -0.864997 -0.501776 217.668 35.3135)" stroke="#148EFF"/>
<line y1="-0.5" x2="286.681" y2="-0.5" transform="matrix(-0.498226 0.867047 -0.864998 -0.501776 221.5 38.2539)" stroke="#148EFF"/>
<line y1="-0.5" x2="286.681" y2="-0.5" transform="matrix(-0.498226 0.867047 -0.864997 -0.501776 225.332 41.1953)" stroke="#148EFF"/>
<line y1="-0.5" x2="286.681" y2="-0.5" transform="matrix(-0.498226 0.867047 -0.864998 -0.501776 229.164 44.1357)" stroke="#148EFF"/>
<line y1="-0.5" x2="286.681" y2="-0.5" transform="matrix(-0.498226 0.867047 -0.864997 -0.501776 232.996 47.0762)" stroke="#148EFF"/>
<line y1="-0.5" x2="286.681" y2="-0.5" transform="matrix(-0.498226 0.867047 -0.864998 -0.501776 236.828 50.0176)" stroke="#148EFF"/>
<line y1="-0.5" x2="286.681" y2="-0.5" transform="matrix(-0.498226 0.867047 -0.864998 -0.501776 240.66 52.958)" stroke="#148EFF"/>
<line y1="-0.5" x2="286.681" y2="-0.5" transform="matrix(-0.498226 0.867047 -0.864997 -0.501776 244.492 55.8984)" stroke="#148EFF"/>
<line y1="-0.5" x2="286.681" y2="-0.5" transform="matrix(-0.498226 0.867047 -0.864998 -0.501776 248.324 58.8398)" stroke="#148EFF"/>
<line y1="-0.5" x2="286.681" y2="-0.5" transform="matrix(-0.498226 0.867047 -0.864997 -0.501776 252.156 61.7803)" stroke="#148EFF"/>
<line y1="-0.5" x2="286.681" y2="-0.5" transform="matrix(-0.498226 0.867047 -0.864997 -0.501776 255.988 64.7207)" stroke="#148EFF"/>
<line y1="-0.5" x2="286.681" y2="-0.5" transform="matrix(-0.498226 0.867047 -0.864997 -0.501776 259.82 67.6621)" stroke="#148EFF"/>
<line y1="-0.5" x2="286.681" y2="-0.5" transform="matrix(-0.498226 0.867047 -0.864997 -0.501776 263.652 70.6025)" stroke="#148EFF"/>
<line y1="-0.5" x2="286.681" y2="-0.5" transform="matrix(-0.498226 0.867047 -0.864997 -0.501776 267.484 73.543)" stroke="#148EFF"/>
<line y1="-0.5" x2="286.681" y2="-0.5" transform="matrix(-0.498226 0.867047 -0.864997 -0.501776 271.316 76.4844)" stroke="#148EFF"/>
<line y1="-0.5" x2="286.681" y2="-0.5" transform="matrix(-0.498226 0.867047 -0.864997 -0.501776 275.148 79.4248)" stroke="#148EFF"/>
<line y1="-0.5" x2="286.681" y2="-0.5" transform="matrix(-0.498226 0.867047 -0.864998 -0.501776 278.98 82.3652)" stroke="#148EFF"/>
<line y1="-0.5" x2="286.681" y2="-0.5" transform="matrix(-0.498226 0.867047 -0.864998 -0.501776 282.812 85.3066)" stroke="#148EFF"/>
<line y1="-0.5" x2="286.681" y2="-0.5" transform="matrix(-0.498226 0.867047 -0.864997 -0.501776 286.645 88.2471)" stroke="#148EFF"/>
<line y1="-0.5" x2="286.681" y2="-0.5" transform="matrix(-0.498226 0.867047 -0.864997 -0.501776 290.477 91.1875)" stroke="#148EFF"/>
<line y1="-0.5" x2="286.681" y2="-0.5" transform="matrix(-0.498226 0.867047 -0.864998 -0.501776 294.309 94.1289)" stroke="#148EFF"/>
<line y1="-0.5" x2="286.681" y2="-0.5" transform="matrix(-0.498226 0.867047 -0.864997 -0.501776 298.141 97.0693)" stroke="#148EFF"/>
<line y1="-0.5" x2="286.681" y2="-0.5" transform="matrix(-0.498226 0.867047 -0.864998 -0.501776 301.973 100.01)" stroke="#148EFF"/>
<line y1="-0.5" x2="286.681" y2="-0.5" transform="matrix(-0.498226 0.867047 -0.864997 -0.501776 305.805 102.951)" stroke="#148EFF"/>
<line y1="-0.5" x2="286.681" y2="-0.5" transform="matrix(-0.498226 0.867047 -0.864997 -0.501776 309.637 105.892)" stroke="#148EFF"/>
<line y1="-0.5" x2="286.681" y2="-0.5" transform="matrix(-0.498226 0.867047 -0.864997 -0.501776 313.469 108.833)" stroke="#148EFF"/>
<line y1="-0.5" x2="286.681" y2="-0.5" transform="matrix(-0.498226 0.867047 -0.864998 -0.501776 317.301 111.773)" stroke="#148EFF"/>
<line y1="-0.5" x2="286.681" y2="-0.5" transform="matrix(-0.498226 0.867047 -0.864998 -0.501776 321.133 114.714)" stroke="#148EFF"/>
<line y1="-0.5" x2="286.681" y2="-0.5" transform="matrix(-0.498226 0.867047 -0.864997 -0.501776 324.965 117.655)" stroke="#148EFF"/>
<line y1="-0.5" x2="286.681" y2="-0.5" transform="matrix(-0.498226 0.867047 -0.864997 -0.501776 328.797 120.596)" stroke="#148EFF"/>
<line y1="-0.5" x2="286.681" y2="-0.5" transform="matrix(-0.498226 0.867047 -0.864997 -0.501776 332.629 123.536)" stroke="#148EFF"/>
<line y1="-0.5" x2="286.681" y2="-0.5" transform="matrix(-0.498226 0.867047 -0.864997 -0.501776 336.461 126.478)" stroke="#148EFF"/>
<line y1="-0.5" x2="286.681" y2="-0.5" transform="matrix(-0.498226 0.867047 -0.864998 -0.501776 340.293 129.418)" stroke="#148EFF"/>
<line y1="-0.5" x2="286.681" y2="-0.5" transform="matrix(-0.498226 0.867047 -0.864998 -0.501776 344.125 132.358)" stroke="#148EFF"/>
<line y1="-0.5" x2="286.681" y2="-0.5" transform="matrix(-0.498226 0.867047 -0.864998 -0.501776 347.957 135.3)" stroke="#148EFF"/>
<line y1="-0.5" x2="286.681" y2="-0.5" transform="matrix(-0.498226 0.867047 -0.864998 -0.501776 351.789 138.24)" stroke="#148EFF"/>
<line y1="-0.5" x2="286.681" y2="-0.5" transform="matrix(-0.498226 0.867047 -0.864998 -0.501776 355.621 141.181)" stroke="#148EFF"/>
<line y1="-0.5" x2="286.681" y2="-0.5" transform="matrix(-0.498226 0.867047 -0.864997 -0.501776 359.453 144.122)" stroke="#148EFF"/>
<line y1="-0.5" x2="286.681" y2="-0.5" transform="matrix(-0.498226 0.867047 -0.864997 -0.501776 363.285 147.062)" stroke="#148EFF"/>
<line y1="-0.5" x2="286.681" y2="-0.5" transform="matrix(-0.498226 0.867047 -0.864998 -0.501776 367.117 150.003)" stroke="#148EFF"/>
<line y1="-0.5" x2="286.681" y2="-0.5" transform="matrix(-0.498226 0.867047 -0.864998 -0.501776 370.949 152.944)" stroke="#148EFF"/>
<line y1="-0.5" x2="286.681" y2="-0.5" transform="matrix(-0.498226 0.867047 -0.864997 -0.501776 374.781 155.885)" stroke="#148EFF"/>
<line y1="-0.5" x2="286.681" y2="-0.5" transform="matrix(-0.498226 0.867047 -0.864997 -0.501776 378.613 158.825)" stroke="#148EFF"/>
<line y1="-0.5" x2="286.681" y2="-0.5" transform="matrix(-0.498226 0.867047 -0.864997 -0.501776 382.445 161.767)" stroke="#148EFF"/>
<line y1="-0.5" x2="286.681" y2="-0.5" transform="matrix(-0.498226 0.867047 -0.864997 -0.501776 386.277 164.707)" stroke="#148EFF"/>
<line y1="-0.5" x2="286.681" y2="-0.5" transform="matrix(-0.498226 0.867047 -0.864998 -0.501776 390.109 167.647)" stroke="#148EFF"/>
<line y1="-0.5" x2="286.681" y2="-0.5" transform="matrix(-0.498226 0.867047 -0.864997 -0.501776 393.941 170.589)" stroke="#148EFF"/>
<line y1="-0.5" x2="286.681" y2="-0.5" transform="matrix(-0.498226 0.867047 -0.864997 -0.501776 397.773 173.529)" stroke="#148EFF"/>
<line y1="-0.5" x2="286.681" y2="-0.5" transform="matrix(-0.498226 0.867047 -0.864998 -0.501776 401.605 176.471)" stroke="#148EFF"/>
<line y1="-0.5" x2="286.681" y2="-0.5" transform="matrix(-0.498226 0.867047 -0.864997 -0.501776 405.438 179.411)" stroke="#148EFF"/>
<line y1="-0.5" x2="286.681" y2="-0.5" transform="matrix(-0.498226 0.867047 -0.864998 -0.501776 409.27 182.352)" stroke="#148EFF"/>
<line y1="-0.5" x2="286.681" y2="-0.5" transform="matrix(-0.498226 0.867047 -0.864997 -0.501776 413.102 185.293)" stroke="#148EFF"/>
<line y1="-0.5" x2="286.681" y2="-0.5" transform="matrix(-0.498226 0.867047 -0.864998 -0.501776 416.934 188.233)" stroke="#148EFF"/>
</g>
</g>
<path d="M107.831 173.69C197.409 174.478 283.235 175.262 372.78 176.05C372.042 204.661 371.307 233.054 370.563 261.876H103.877M217.25 347.872C216.369 342.009 215.943 336.547 214.691 331.283C207.36 300.465 180.153 295.677 159.219 305.114C145.547 311.279 138.775 322.494 137.328 337.149C137.086 340.274 137.031 343.41 137.162 346.541C137.279 352.023 135.251 354.468 129.675 353.983C118.734 353.032 107.833 351.613 96.574 350.35V327.481H75.2004V264.846H375.452V177.447H397.072C399.439 190.426 405.74 202.53 405.532 216.404C405.122 243.657 405.291 270.917 405.223 298.174C405.217 299.258 405.22 300.338 405.22 301.894C403.588 301.969 402.151 302.09 400.714 302.093C387.237 302.129 373.738 302.65 360.291 302.028C351.565 301.781 343.044 304.702 336.3 310.253C329.557 315.803 325.045 323.608 323.598 332.227C322.57 337.267 322.268 342.455 321.595 347.872H217.25ZM497.986 373.432C486.089 373.432 474.668 373.426 463.25 373.435C441.882 373.445 420.515 373.663 399.158 373.328C394.171 372.892 389.261 371.813 384.55 370.118C382.125 369.425 382.486 365.248 385.08 363.679C391.947 359.532 399.226 355.967 405.686 351.273C416.391 343.264 429.706 339.568 443.001 340.915C456.116 341.973 469.385 341.322 482.578 341.12C484.033 340.919 485.512 341.23 486.764 341.998C488.016 342.767 488.964 343.946 489.445 345.336C491.051 348.923 498.366 366.902 497.986 373.432ZM73.9495 261.877C83.1277 233.817 102.082 171.673 102.082 171.673L129.035 180.635L103.139 264.257C93.3581 264.329 83.5899 263.533 73.9495 261.877ZM408.807 299.055V282.954H438.062V235.127H476.13C476.245 235.61 476.273 236.11 476.212 236.602C472.795 247.484 469.371 258.367 465.85 269.217C465.368 270.478 464.637 271.628 463.701 272.599C456.34 280.806 448.96 288.996 441.476 297.089C440.51 298.145 439.194 298.814 437.772 298.97C428.266 299.127 418.753 299.055 408.807 299.055ZM396.499 341.86C396.216 344.416 396.044 346.991 395.621 349.523C395.351 351.626 394.525 353.619 393.228 355.296C391.932 356.972 390.213 358.272 388.247 359.061C385.842 359.99 383.558 361.206 381.446 362.685C380.266 363.596 378.939 365.754 379.258 366.916C380.34 370.849 377.717 371.633 375.216 372.656C370.485 374.497 365.405 375.269 360.341 374.916C355.277 374.564 350.353 373.095 345.921 370.616C341.49 368.137 337.66 364.708 334.706 360.574C331.751 356.44 329.746 351.704 328.832 346.705C327.918 341.705 328.119 336.564 329.42 331.651C330.721 326.738 333.09 322.174 336.358 318.284C339.626 314.394 343.711 311.275 348.323 309.15C352.934 307.025 357.958 305.946 363.034 305.99C382.46 306.482 396.278 321.378 396.499 341.86ZM361.425 362.958C365.785 362.931 370.04 361.614 373.655 359.174C377.271 356.733 380.085 353.278 381.746 349.241C383.406 345.204 383.838 340.765 382.987 336.484C382.136 332.202 380.041 328.267 376.964 325.174C373.887 322.08 369.966 319.966 365.693 319.097C361.42 318.227 356.985 318.642 352.947 320.288C348.908 321.933 345.445 324.737 342.993 328.347C340.541 331.957 339.208 336.212 339.163 340.578C339.156 343.511 339.726 346.418 340.841 349.13C341.956 351.843 343.594 354.309 345.661 356.388C347.729 358.466 350.185 360.116 352.89 361.244C355.595 362.371 358.495 362.954 361.425 362.958ZM210.282 339.269C210.312 343.664 209.471 348.022 207.807 352.09C206.144 356.157 203.691 359.854 200.59 362.966C197.49 366.077 193.804 368.542 189.745 370.218C185.687 371.894 181.337 372.746 176.947 372.727C170.325 372.75 163.845 370.804 158.328 367.137C152.811 363.469 148.506 358.244 145.957 352.124C143.409 346.004 142.732 339.265 144.012 332.759C145.293 326.254 148.473 320.275 153.15 315.581C157.827 310.887 163.79 307.688 170.284 306.39C176.778 305.093 183.511 305.754 189.629 308.291C195.748 310.828 200.977 315.126 204.653 320.64C208.33 326.155 210.289 332.639 210.282 339.269ZM153.616 339.149C153.59 342.215 154.167 345.257 155.315 348.1C156.463 350.943 158.159 353.531 160.306 355.718C162.453 357.904 165.01 359.646 167.829 360.843C170.649 362.04 173.677 362.669 176.739 362.694C182.923 362.669 188.85 360.213 193.244 355.855C197.638 351.498 200.148 345.588 200.233 339.396C200.245 336.33 199.654 333.29 198.492 330.453C197.33 327.615 195.621 325.035 193.462 322.86C191.303 320.685 188.737 318.957 185.91 317.776C183.084 316.595 180.052 315.984 176.989 315.978C173.928 315.935 170.888 316.503 168.048 317.65C165.208 318.796 162.625 320.498 160.449 322.655C158.273 324.812 156.548 327.381 155.375 330.213C154.202 333.045 153.604 336.083 153.616 339.149ZM434.911 279.616H408.866V273.122H427.138V245.374H408.801V215.243H454.877C453.802 216.338 452.595 217.294 451.285 218.091C449.851 218.505 448.382 218.78 446.896 218.911C438.429 220.35 434.921 224.462 434.915 233.017C434.902 248.378 434.911 263.737 434.911 279.616ZM464.107 337.327C458.586 337.327 454.077 337.633 449.652 337.164C448.721 336.935 447.848 336.512 447.091 335.923C446.334 335.334 445.708 334.593 445.256 333.746C444.242 331.48 442.503 329.617 440.315 328.45C438.126 327.283 435.612 326.879 433.168 327.301C422.992 327.87 412.76 327.362 402.554 327.6C401.299 327.754 400.028 327.488 398.939 326.845C397.85 326.202 397.003 325.216 396.53 324.042C394.7 320.455 392.498 317.056 390.138 313.033C397.626 313.033 404.521 313.046 411.421 313.029C422.988 313.01 434.556 312.925 446.128 312.997C446.828 312.952 447.531 313.048 448.194 313.279C448.856 313.51 449.466 313.873 449.987 314.344C454.672 321.633 459.097 329.091 464.107 337.327ZM438.171 231.126C438.144 228.902 438.978 226.753 440.499 225.132C442.02 223.51 444.109 222.541 446.328 222.428C452.524 221.753 458.754 221.447 464.987 221.51C474.266 221.37 474.246 221.461 476.509 212.275C478.037 206.08 479.471 199.859 481.236 193.736C481.706 190.934 483.187 188.402 485.398 186.621C487.609 184.84 490.396 183.934 493.23 184.074C491.998 188.993 490.808 193.775 489.605 198.55C487.118 208.42 484.696 218.307 482.049 228.134C481.734 229.303 480.186 230.986 479.188 230.999C465.608 231.188 452.027 231.126 438.171 231.126ZM72 332.125H92.1771V350.345H72V332.125ZM408.858 248.145H424.652V269.764H408.858V248.145ZM444.717 198.651V194.484H467.921C468.945 188.898 469.498 187.632 471.211 187.283V198.426H461.958C461.958 203.937 462.173 209.172 461.854 214.374C461.727 216.369 463.74 220.204 459.864 220.116C456.502 220.041 458.326 216.441 458.222 214.491C457.956 209.367 458.131 204.217 458.131 198.651H444.717ZM402.571 171.151C404.103 170.66 405.332 170.266 406.987 169.735C410.537 182.252 413.996 194.462 417.579 207.1C416.142 207.585 414.822 208.034 413.092 208.617C411.811 204.173 410.751 200.006 409.357 195.953C408.934 194.72 407.438 193.896 406.7 192.718C405.888 191.425 404.551 188.945 404.86 188.688C408.713 185.484 405.036 182.516 404.691 179.566C404.179 176.716 403.471 173.904 402.571 171.151ZM462.249 283.317V326.336C462.018 326.518 461.784 326.7 461.55 326.883C460.454 325.257 459.655 323.449 459.189 321.544C458.705 310.417 458.425 299.284 458.35 288.145C458.685 286.25 459.337 284.425 460.278 282.747C460.935 282.936 461.592 283.128 462.249 283.317ZM384.315 165.167H394.842V174.679H384.315V165.167ZM379.983 340.827C379.956 344.507 378.841 348.097 376.777 351.143C374.714 354.189 371.796 356.554 368.39 357.94C364.985 359.326 361.246 359.671 357.646 358.93C354.045 358.19 350.744 356.397 348.161 353.779C345.577 351.161 343.826 347.836 343.129 344.222C342.432 340.608 342.821 336.869 344.245 333.476C345.67 330.083 348.067 327.19 351.133 325.16C354.199 323.13 357.798 322.056 361.474 322.073C366.411 322.106 371.134 324.099 374.604 327.615C378.075 331.132 380.009 335.884 379.983 340.827ZM196.289 339.466C196.301 342.019 195.806 344.549 194.833 346.909C193.86 349.269 192.427 351.411 190.619 353.212C188.811 355.012 186.663 356.434 184.301 357.396C181.939 358.357 179.409 358.839 176.859 358.812C174.286 358.82 171.737 358.319 169.358 357.338C166.979 356.357 164.816 354.916 162.994 353.097C161.172 351.278 159.726 349.117 158.739 346.738C157.752 344.359 157.244 341.808 157.243 339.232C157.243 336.655 157.75 334.104 158.735 331.725C159.721 329.345 161.166 327.183 162.987 325.363C164.808 323.544 166.97 322.102 169.349 321.12C171.728 320.138 174.277 319.635 176.85 319.641C179.435 319.633 181.997 320.143 184.382 321.14C186.768 322.138 188.931 323.604 190.742 325.451C192.554 327.299 193.978 329.491 194.93 331.897C195.883 334.304 196.345 336.878 196.289 339.466Z" stroke="#495F73" stroke-width="2" stroke-miterlimit="10"/>
<g clip-path="url(#clip1_1127_214145)">
<path d="M451.323 144.235C451.665 146.596 452.677 148.809 454.239 150.61C455.801 152.412 457.846 153.726 460.133 154.395C462.419 155.065 464.849 155.063 467.134 154.389C469.419 153.715 471.462 152.397 473.021 150.593C474.579 148.789 475.587 146.574 475.925 144.212C476.262 141.85 475.915 139.441 474.924 137.271C473.934 135.102 472.342 133.263 470.337 131.974C468.333 130.684 466.001 129.999 463.619 130C460.111 130.272 456.851 131.919 454.548 134.584C452.246 137.25 451.087 140.718 451.323 144.235Z" fill="#495F73"/>
<path d="M437.171 194.996L438.745 195.621C439.208 195.806 439.703 195.899 440.202 195.892C440.701 195.886 441.194 195.781 441.652 195.584C442.111 195.386 442.526 195.1 442.874 194.742C443.222 194.384 443.496 193.961 443.681 193.496L454.154 167.139C454.339 166.674 454.431 166.178 454.424 165.678C454.417 165.178 454.312 164.685 454.115 164.225C453.918 163.766 453.632 163.351 453.274 163.002C452.916 162.653 452.493 162.379 452.03 162.194L450.453 161.566C449.989 161.381 449.494 161.289 448.995 161.296C448.496 161.303 448.003 161.409 447.545 161.607C447.087 161.805 446.672 162.091 446.325 162.45C445.977 162.809 445.704 163.232 445.52 163.697L435.047 190.052C434.674 190.989 434.689 192.037 435.087 192.964C435.485 193.891 436.235 194.622 437.171 194.996Z" fill="#495F73"/>
<path d="M407.913 190.449L407.883 192.144C407.875 192.644 407.965 193.141 408.148 193.606C408.332 194.071 408.605 194.496 408.952 194.855C409.299 195.215 409.713 195.502 410.171 195.701C410.629 195.9 411.122 196.007 411.621 196.015L439.938 196.484C440.945 196.5 441.919 196.115 442.643 195.413C443.368 194.711 443.784 193.749 443.802 192.74L443.831 191.044C443.848 190.035 443.463 189.06 442.762 188.335C442.061 187.61 441.101 187.193 440.094 187.177L411.777 186.705C410.769 186.688 409.796 187.073 409.072 187.776C408.347 188.478 407.93 189.439 407.913 190.449Z" fill="#495F73"/>
<path d="M424.933 198.41L425.358 200.053C425.483 200.537 425.702 200.991 426.002 201.391C426.302 201.79 426.678 202.126 427.108 202.38C427.538 202.634 428.014 202.8 428.508 202.87C429.003 202.94 429.506 202.911 429.989 202.786L457.406 195.687C457.889 195.563 458.343 195.344 458.742 195.044C459.141 194.743 459.477 194.367 459.73 193.937C459.984 193.506 460.15 193.029 460.219 192.534C460.289 192.039 460.26 191.536 460.134 191.052L459.713 189.406C459.46 188.428 458.831 187.591 457.962 187.079C457.094 186.566 456.058 186.42 455.082 186.673L427.662 193.772C426.686 194.025 425.851 194.655 425.339 195.525C424.827 196.395 424.681 197.433 424.933 198.41Z" fill="#495F73"/>
<path d="M466.13 153.541H461.118C460.55 153.541 460.005 153.767 459.604 154.169C459.202 154.572 458.977 155.117 458.977 155.686V162.821C458.976 163.103 459.032 163.382 459.139 163.643C459.246 163.903 459.404 164.14 459.603 164.339C459.802 164.539 460.038 164.697 460.298 164.805C460.558 164.913 460.836 164.969 461.118 164.969H466.13C466.412 164.969 466.69 164.913 466.95 164.805C467.21 164.697 467.446 164.539 467.645 164.339C467.844 164.14 468.002 163.903 468.109 163.643C468.216 163.382 468.272 163.103 468.271 162.821V155.686C468.271 155.117 468.046 154.572 467.644 154.169C467.243 153.767 466.698 153.541 466.13 153.541Z" fill="#495F73"/>
<path d="M477.189 200.47C478.128 197.562 478.657 194.537 478.763 191.483L479.493 169.86C479.493 168.615 479.248 167.381 478.773 166.231C478.297 165.08 477.6 164.035 476.72 163.154C475.841 162.273 474.798 161.575 473.649 161.098C472.5 160.622 471.269 160.377 470.025 160.377H452.913C450.402 160.377 447.994 161.376 446.218 163.155C444.443 164.933 443.445 167.345 443.445 169.86L449.314 198.113L451.326 210.891L455.831 215.969C458.091 218.516 461.67 221.804 465.046 221.382C465.046 221.382 470.394 221.215 473.226 212.74L477.189 200.47Z" fill="#495F73"/>
<path d="M465.042 221.38H430.538C428.674 221.372 426.889 220.625 425.573 219.301C424.258 217.978 423.52 216.187 423.52 214.32C423.52 212.452 424.258 210.661 425.573 209.338C426.889 208.014 428.674 207.267 430.538 207.259H465.042C466.906 207.267 468.692 208.014 470.007 209.338C471.322 210.661 472.061 212.452 472.061 214.32C472.061 216.187 471.322 217.978 470.007 219.301C468.692 220.625 466.906 221.372 465.042 221.38Z" fill="#495F73"/>
<path d="M410.671 269.795L423.163 213.804C423.362 212.897 423.739 212.038 424.27 211.277C424.802 210.515 425.478 209.867 426.26 209.368C427.042 208.869 427.915 208.529 428.828 208.369C429.742 208.208 430.678 208.23 431.583 208.433C432.488 208.635 433.344 209.015 434.103 209.549C434.861 210.084 435.507 210.763 436.002 211.548C436.498 212.333 436.834 213.209 436.992 214.124C437.149 215.04 437.125 215.977 436.919 216.883L424.431 272.874C424.021 274.699 422.905 276.287 421.327 277.288C419.749 278.29 417.839 278.623 416.016 278.215C414.193 277.807 412.607 276.692 411.604 275.113C410.602 273.534 410.267 271.621 410.671 269.795Z" fill="#495F73"/>
</g>
<path opacity="0.5" d="M102 159L102 86" stroke="#052542" stroke-width="0.75" stroke-dasharray="3 3"/>
<path opacity="0.5" d="M494 126L494 86" stroke="#052542" stroke-width="0.75" stroke-dasharray="3 3"/>
<path opacity="0.5" d="M107 86L110.75 88.1651L110.75 83.8349L107 86ZM489 86L485.25 83.8349L485.25 88.165L489 86ZM110.375 86.375L485.625 86.375L485.625 85.625L110.375 85.625L110.375 86.375Z" fill="#052542"/>
<rect width="64" height="25" transform="translate(390 73)" fill="white"/>
<path opacity="0.5" d="M400.309 84.835C401.279 84.955 402.019 85.285 402.529 85.825C403.039 86.365 403.294 87.04 403.294 87.85C403.294 88.46 403.139 89.015 402.829 89.515C402.519 90.015 402.049 90.415 401.419 90.715C400.799 91.005 400.039 91.15 399.139 91.15C398.389 91.15 397.664 91.045 396.964 90.835C396.274 90.615 395.684 90.315 395.194 89.935L396.034 88.42C396.414 88.74 396.874 88.995 397.414 89.185C397.964 89.365 398.529 89.455 399.109 89.455C399.799 89.455 400.339 89.315 400.729 89.035C401.129 88.745 401.329 88.355 401.329 87.865C401.329 87.375 401.139 86.995 400.759 86.725C400.389 86.445 399.819 86.305 399.049 86.305H398.089V84.97L400.474 82.135H395.704V80.5H402.859V81.805L400.309 84.835ZM411.379 85.48C411.929 85.73 412.349 86.07 412.639 86.5C412.939 86.92 413.089 87.415 413.089 87.985C413.089 88.625 412.909 89.185 412.549 89.665C412.199 90.145 411.699 90.515 411.049 90.775C410.399 91.025 409.644 91.15 408.784 91.15C407.924 91.15 407.169 91.025 406.519 90.775C405.879 90.515 405.384 90.145 405.034 89.665C404.684 89.185 404.509 88.625 404.509 87.985C404.509 87.415 404.654 86.92 404.944 86.5C405.234 86.07 405.649 85.73 406.189 85.48C405.769 85.25 405.444 84.95 405.214 84.58C404.994 84.2 404.884 83.765 404.884 83.275C404.884 82.685 405.044 82.17 405.364 81.73C405.694 81.29 406.154 80.95 406.744 80.71C407.334 80.47 408.014 80.35 408.784 80.35C409.564 80.35 410.249 80.47 410.839 80.71C411.429 80.95 411.889 81.29 412.219 81.73C412.549 82.17 412.714 82.685 412.714 83.275C412.714 83.765 412.599 84.195 412.369 84.565C412.139 84.935 411.809 85.24 411.379 85.48ZM408.784 81.88C408.174 81.88 407.689 82.01 407.329 82.27C406.979 82.53 406.804 82.895 406.804 83.365C406.804 83.815 406.979 84.175 407.329 84.445C407.689 84.705 408.174 84.835 408.784 84.835C409.404 84.835 409.894 84.705 410.254 84.445C410.614 84.175 410.794 83.815 410.794 83.365C410.794 82.895 410.609 82.53 410.239 82.27C409.879 82.01 409.394 81.88 408.784 81.88ZM408.784 89.62C409.504 89.62 410.074 89.47 410.494 89.17C410.914 88.87 411.124 88.455 411.124 87.925C411.124 87.405 410.914 86.995 410.494 86.695C410.074 86.395 409.504 86.245 408.784 86.245C408.064 86.245 407.499 86.395 407.089 86.695C406.679 86.995 406.474 87.405 406.474 87.925C406.474 88.455 406.679 88.87 407.089 89.17C407.499 89.47 408.064 89.62 408.784 89.62ZM423.714 88.615H421.854V91H419.964V88.615H414.204V87.265L419.379 80.5H421.464L416.589 86.965H420.024V84.85H421.854V86.965H423.714V88.615ZM432.926 91.105C432.096 91.105 431.351 90.93 430.691 90.58C430.031 90.23 429.516 89.745 429.146 89.125C428.776 88.495 428.591 87.785 428.591 86.995C428.591 86.205 428.776 85.5 429.146 84.88C429.516 84.26 430.026 83.775 430.676 83.425C431.336 83.075 432.086 82.9 432.926 82.9C433.716 82.9 434.406 83.06 434.996 83.38C435.596 83.7 436.046 84.16 436.346 84.76L434.906 85.6C434.676 85.23 434.386 84.955 434.036 84.775C433.696 84.585 433.321 84.49 432.911 84.49C432.211 84.49 431.631 84.72 431.171 85.18C430.711 85.63 430.481 86.235 430.481 86.995C430.481 87.755 430.706 88.365 431.156 88.825C431.616 89.275 432.201 89.5 432.911 89.5C433.321 89.5 433.696 89.41 434.036 89.23C434.386 89.04 434.676 88.76 434.906 88.39L436.346 89.23C436.036 89.83 435.581 90.295 434.981 90.625C434.391 90.945 433.706 91.105 432.926 91.105ZM445.871 91V85.69L443.171 90.16H442.361L439.706 85.675V91H437.996V82.99H439.961L442.811 88L445.796 82.99H447.551L447.566 91H445.871Z" fill="#052542"/>
<path opacity="0.5" d="M539 130L476 130" stroke="#052542" stroke-width="0.75" stroke-dasharray="3 3"/>
<path opacity="0.5" d="M539 373L504 373" stroke="#052542" stroke-width="0.75" stroke-dasharray="3 3"/>
<path opacity="0.5" d="M539 368L541.165 364.25L536.835 364.25L539 368ZM539 135L536.835 138.75L541.165 138.75L539 135ZM539.375 364.625L539.375 138.375L538.625 138.375L538.625 364.625L539.375 364.625Z" fill="#052542"/>
<rect width="59" height="25" transform="translate(506 239)" fill="white"/>
<path opacity="0.5" d="M519.705 255.35V257H511.965V255.695L516.135 251.735C516.605 251.285 516.92 250.895 517.08 250.565C517.25 250.225 517.335 249.89 517.335 249.56C517.335 249.07 517.17 248.695 516.84 248.435C516.51 248.175 516.025 248.045 515.385 248.045C514.315 248.045 513.495 248.41 512.925 249.14L511.56 248.09C511.97 247.54 512.52 247.115 513.21 246.815C513.91 246.505 514.69 246.35 515.55 246.35C516.69 246.35 517.6 246.62 518.28 247.16C518.96 247.7 519.3 248.435 519.3 249.365C519.3 249.935 519.18 250.47 518.94 250.97C518.7 251.47 518.24 252.04 517.56 252.68L514.755 255.35H519.705ZM525.3 250.835C526.27 250.955 527.01 251.285 527.52 251.825C528.03 252.365 528.285 253.04 528.285 253.85C528.285 254.46 528.13 255.015 527.82 255.515C527.51 256.015 527.04 256.415 526.41 256.715C525.79 257.005 525.03 257.15 524.13 257.15C523.38 257.15 522.655 257.045 521.955 256.835C521.265 256.615 520.675 256.315 520.185 255.935L521.025 254.42C521.405 254.74 521.865 254.995 522.405 255.185C522.955 255.365 523.52 255.455 524.1 255.455C524.79 255.455 525.33 255.315 525.72 255.035C526.12 254.745 526.32 254.355 526.32 253.865C526.32 253.375 526.13 252.995 525.75 252.725C525.38 252.445 524.81 252.305 524.04 252.305H523.08V250.97L525.465 248.135H520.695V246.5H527.85V247.805L525.3 250.835ZM533.191 246.5V257H531.241V248.135H529.021V246.5H533.191ZM543.664 257.105C542.834 257.105 542.089 256.93 541.429 256.58C540.769 256.23 540.254 255.745 539.884 255.125C539.514 254.495 539.329 253.785 539.329 252.995C539.329 252.205 539.514 251.5 539.884 250.88C540.254 250.26 540.764 249.775 541.414 249.425C542.074 249.075 542.824 248.9 543.664 248.9C544.454 248.9 545.144 249.06 545.734 249.38C546.334 249.7 546.784 250.16 547.084 250.76L545.644 251.6C545.414 251.23 545.124 250.955 544.774 250.775C544.434 250.585 544.059 250.49 543.649 250.49C542.949 250.49 542.369 250.72 541.909 251.18C541.449 251.63 541.219 252.235 541.219 252.995C541.219 253.755 541.444 254.365 541.894 254.825C542.354 255.275 542.939 255.5 543.649 255.5C544.059 255.5 544.434 255.41 544.774 255.23C545.124 255.04 545.414 254.76 545.644 254.39L547.084 255.23C546.774 255.83 546.319 256.295 545.719 256.625C545.129 256.945 544.444 257.105 543.664 257.105ZM556.61 257V251.69L553.91 256.16H553.1L550.445 251.675V257H548.735V248.99H550.7L553.55 254L556.535 248.99H558.29L558.305 257H556.61Z" fill="#052542"/>
<path opacity="0.5" d="M158 375L42 375" stroke="#052542" stroke-width="0.75" stroke-dasharray="3 3"/>
<path opacity="0.5" d="M67 265L42 265" stroke="#052542" stroke-width="0.75" stroke-dasharray="3 3"/>
<path opacity="0.5" d="M42 370L44.1651 366.25L39.8349 366.25L42 370ZM42 270L39.8349 273.75L44.1651 273.75L42 270ZM42.375 366.625L42.375 273.375L41.625 273.375L41.625 366.625L42.375 366.625Z" fill="#052542"/>
<rect width="61" height="25" transform="translate(12 307)" fill="white"/>
<path opacity="0.5" d="M21.3237 314.5V325H19.3737V316.135H17.1537V314.5H21.3237ZM27.7866 325.15C26.9466 325.15 26.1966 324.94 25.5366 324.52C24.8766 324.09 24.3566 323.47 23.9766 322.66C23.5966 321.84 23.4066 320.87 23.4066 319.75C23.4066 318.63 23.5966 317.665 23.9766 316.855C24.3566 316.035 24.8766 315.415 25.5366 314.995C26.1966 314.565 26.9466 314.35 27.7866 314.35C28.6266 314.35 29.3766 314.565 30.0366 314.995C30.7066 315.415 31.2316 316.035 31.6116 316.855C31.9916 317.665 32.1816 318.63 32.1816 319.75C32.1816 320.87 31.9916 321.84 31.6116 322.66C31.2316 323.47 30.7066 324.09 30.0366 324.52C29.3766 324.94 28.6266 325.15 27.7866 325.15ZM27.7866 323.455C28.5366 323.455 29.1266 323.145 29.5566 322.525C29.9966 321.905 30.2166 320.98 30.2166 319.75C30.2166 318.52 29.9966 317.595 29.5566 316.975C29.1266 316.355 28.5366 316.045 27.7866 316.045C27.0466 316.045 26.4566 316.355 26.0166 316.975C25.5866 317.595 25.3716 318.52 25.3716 319.75C25.3716 320.98 25.5866 321.905 26.0166 322.525C26.4566 323.145 27.0466 323.455 27.7866 323.455ZM42.8594 322.615H40.9994V325H39.1094V322.615H33.3494V321.265L38.5244 314.5H40.6094L35.7344 320.965H39.1694V318.85H40.9994V320.965H42.8594V322.615ZM52.0705 325.105C51.2405 325.105 50.4955 324.93 49.8355 324.58C49.1755 324.23 48.6605 323.745 48.2905 323.125C47.9205 322.495 47.7355 321.785 47.7355 320.995C47.7355 320.205 47.9205 319.5 48.2905 318.88C48.6605 318.26 49.1705 317.775 49.8205 317.425C50.4805 317.075 51.2305 316.9 52.0705 316.9C52.8605 316.9 53.5505 317.06 54.1405 317.38C54.7405 317.7 55.1905 318.16 55.4905 318.76L54.0505 319.6C53.8205 319.23 53.5305 318.955 53.1805 318.775C52.8405 318.585 52.4655 318.49 52.0555 318.49C51.3555 318.49 50.7755 318.72 50.3155 319.18C49.8555 319.63 49.6255 320.235 49.6255 320.995C49.6255 321.755 49.8505 322.365 50.3005 322.825C50.7605 323.275 51.3455 323.5 52.0555 323.5C52.4655 323.5 52.8405 323.41 53.1805 323.23C53.5305 323.04 53.8205 322.76 54.0505 322.39L55.4905 323.23C55.1805 323.83 54.7255 324.295 54.1255 324.625C53.5355 324.945 52.8505 325.105 52.0705 325.105ZM65.0163 325V319.69L62.3163 324.16H61.5063L58.8513 319.675V325H57.1413V316.99H59.1063L61.9563 322L64.9413 316.99H66.6963L66.7113 325H65.0163Z" fill="#052542"/>
<rect x="197" y="458" width="190" height="100" rx="25" fill="white"/>
<path d="M226.04 478V520H216.32V485.8H207.92V478H226.04ZM282.668 497.92C284.748 498.96 286.328 500.32 287.408 502C288.528 503.68 289.088 505.62 289.088 507.82C289.088 510.42 288.348 512.7 286.868 514.66C285.388 516.58 283.308 518.08 280.628 519.16C277.948 520.2 274.848 520.72 271.328 520.72C267.808 520.72 264.708 520.2 262.028 519.16C259.388 518.08 257.328 516.58 255.848 514.66C254.408 512.7 253.688 510.42 253.688 507.82C253.688 505.62 254.228 503.68 255.308 502C256.428 500.32 258.008 498.96 260.048 497.92C258.488 496.96 257.288 495.76 256.448 494.32C255.608 492.84 255.188 491.16 255.188 489.28C255.188 486.84 255.868 484.72 257.228 482.92C258.588 481.12 260.488 479.74 262.928 478.78C265.368 477.78 268.168 477.28 271.328 477.28C274.528 477.28 277.348 477.78 279.788 478.78C282.268 479.74 284.188 481.12 285.548 482.92C286.908 484.72 287.588 486.84 287.588 489.28C287.588 491.16 287.168 492.84 286.328 494.32C285.488 495.76 284.268 496.96 282.668 497.92ZM271.328 484.42C269.368 484.42 267.788 484.9 266.588 485.86C265.428 486.78 264.848 488.06 264.848 489.7C264.848 491.3 265.428 492.56 266.588 493.48C267.748 494.4 269.328 494.86 271.328 494.86C273.328 494.86 274.928 494.4 276.128 493.48C277.328 492.56 277.928 491.3 277.928 489.7C277.928 488.06 277.328 486.78 276.128 485.86C274.928 484.9 273.328 484.42 271.328 484.42ZM271.328 513.58C273.768 513.58 275.688 513.04 277.088 511.96C278.528 510.84 279.248 509.36 279.248 507.52C279.248 505.68 278.528 504.22 277.088 503.14C275.688 502.06 273.768 501.52 271.328 501.52C268.928 501.52 267.028 502.06 265.628 503.14C264.228 504.22 263.528 505.68 263.528 507.52C263.528 509.4 264.228 510.88 265.628 511.96C267.028 513.04 268.928 513.58 271.328 513.58ZM313.338 520.72C309.858 520.72 306.758 519.86 304.038 518.14C301.318 516.42 299.178 513.94 297.618 510.7C296.098 507.42 295.338 503.52 295.338 499C295.338 494.48 296.098 490.6 297.618 487.36C299.178 484.08 301.318 481.58 304.038 479.86C306.758 478.14 309.858 477.28 313.338 477.28C316.818 477.28 319.918 478.14 322.638 479.86C325.358 481.58 327.478 484.08 328.998 487.36C330.558 490.6 331.338 494.48 331.338 499C331.338 503.52 330.558 507.42 328.998 510.7C327.478 513.94 325.358 516.42 322.638 518.14C319.918 519.86 316.818 520.72 313.338 520.72ZM313.338 512.5C315.898 512.5 317.898 511.4 319.338 509.2C320.818 507 321.558 503.6 321.558 499C321.558 494.4 320.818 491 319.338 488.8C317.898 486.6 315.898 485.5 313.338 485.5C310.818 485.5 308.818 486.6 307.338 488.8C305.898 491 305.178 494.4 305.178 499C305.178 503.6 305.898 507 307.338 509.2C308.818 511.4 310.818 512.5 313.338 512.5ZM355.86 520.72C352.38 520.72 349.28 519.86 346.56 518.14C343.84 516.42 341.7 513.94 340.14 510.7C338.62 507.42 337.86 503.52 337.86 499C337.86 494.48 338.62 490.6 340.14 487.36C341.7 484.08 343.84 481.58 346.56 479.86C349.28 478.14 352.38 477.28 355.86 477.28C359.34 477.28 362.44 478.14 365.16 479.86C367.88 481.58 370 484.08 371.52 487.36C373.08 490.6 373.86 494.48 373.86 499C373.86 503.52 373.08 507.42 371.52 510.7C370 513.94 367.88 516.42 365.16 518.14C362.44 519.86 359.34 520.72 355.86 520.72ZM355.86 512.5C358.42 512.5 360.42 511.4 361.86 509.2C363.34 507 364.08 503.6 364.08 499C364.08 494.4 363.34 491 361.86 488.8C360.42 486.6 358.42 485.5 355.86 485.5C353.34 485.5 351.34 486.6 349.86 488.8C348.42 491 347.7 494.4 347.7 499C347.7 503.6 348.42 507 349.86 509.2C351.34 511.4 353.34 512.5 355.86 512.5Z" fill="#ED5835"/>
<path d="M215.94 537.99V546H214.08V539.58H210.135V546H208.26V537.99H215.94ZM225.73 537.99V546H223.855V539.58H220.855L220.78 541.17C220.73 542.23 220.63 543.12 220.48 543.84C220.34 544.55 220.095 545.115 219.745 545.535C219.405 545.945 218.935 546.15 218.335 546.15C218.055 546.15 217.71 546.095 217.3 545.985L217.39 544.41C217.53 544.44 217.65 544.455 217.75 544.455C218.13 544.455 218.415 544.305 218.605 544.005C218.795 543.695 218.915 543.33 218.965 542.91C219.025 542.48 219.075 541.87 219.115 541.08L219.25 537.99H225.73ZM231.825 546.105C231.015 546.105 230.285 545.93 229.635 545.58C228.985 545.23 228.475 544.745 228.105 544.125C227.745 543.495 227.565 542.785 227.565 541.995C227.565 541.205 227.745 540.5 228.105 539.88C228.475 539.26 228.985 538.775 229.635 538.425C230.285 538.075 231.015 537.9 231.825 537.9C232.645 537.9 233.38 538.075 234.03 538.425C234.68 538.775 235.185 539.26 235.545 539.88C235.915 540.5 236.1 541.205 236.1 541.995C236.1 542.785 235.915 543.495 235.545 544.125C235.185 544.745 234.68 545.23 234.03 545.58C233.38 545.93 232.645 546.105 231.825 546.105ZM231.825 544.5C232.515 544.5 233.085 544.27 233.535 543.81C233.985 543.35 234.21 542.745 234.21 541.995C234.21 541.245 233.985 540.64 233.535 540.18C233.085 539.72 232.515 539.49 231.825 539.49C231.135 539.49 230.565 539.72 230.115 540.18C229.675 540.64 229.455 541.245 229.455 541.995C229.455 542.745 229.675 543.35 230.115 543.81C230.565 544.27 231.135 544.5 231.825 544.5ZM249.757 537.99V546H237.952V537.99H239.827V544.41H242.932V537.99H244.807V544.41H247.882V537.99H249.757ZM250.912 544.41V547.65H249.157V546H247.822V544.41H250.912ZM255.264 537.9C256.444 537.9 257.344 538.185 257.964 538.755C258.594 539.315 258.909 540.165 258.909 541.305V546H257.139V545.025C256.909 545.375 256.579 545.645 256.149 545.835C255.729 546.015 255.219 546.105 254.619 546.105C254.019 546.105 253.494 546.005 253.044 545.805C252.594 545.595 252.244 545.31 251.994 544.95C251.754 544.58 251.634 544.165 251.634 543.705C251.634 542.985 251.899 542.41 252.429 541.98C252.969 541.54 253.814 541.32 254.964 541.32H257.034V541.2C257.034 540.64 256.864 540.21 256.524 539.91C256.194 539.61 255.699 539.46 255.039 539.46C254.589 539.46 254.144 539.53 253.704 539.67C253.274 539.81 252.909 540.005 252.609 540.255L251.874 538.89C252.294 538.57 252.799 538.325 253.389 538.155C253.979 537.985 254.604 537.9 255.264 537.9ZM255.009 544.74C255.479 544.74 255.894 544.635 256.254 544.425C256.624 544.205 256.884 543.895 257.034 543.495V542.565H255.099C254.019 542.565 253.479 542.92 253.479 543.63C253.479 543.97 253.614 544.24 253.884 544.44C254.154 544.64 254.529 544.74 255.009 544.74ZM269.779 544.41V547.785H268.024V546H261.844V547.785H260.104V544.41H260.479C260.989 544.39 261.334 544.065 261.514 543.435C261.704 542.795 261.829 541.895 261.889 540.735L261.994 537.99H268.594V544.41H269.779ZM263.599 540.87C263.559 541.79 263.484 542.54 263.374 543.12C263.264 543.7 263.064 544.13 262.774 544.41H266.719V539.58H263.644L263.599 540.87ZM275.473 540.63C276.493 540.63 277.273 540.86 277.813 541.32C278.363 541.78 278.638 542.43 278.638 543.27C278.638 544.15 278.338 544.83 277.738 545.31C277.138 545.79 276.293 546.025 275.203 546.015L271.453 546V537.99H273.328V540.615L275.473 540.63ZM275.038 544.635C275.588 544.645 276.008 544.53 276.298 544.29C276.588 544.05 276.733 543.7 276.733 543.24C276.733 542.79 276.593 542.46 276.313 542.25C276.033 542.04 275.608 541.93 275.038 541.92L273.328 541.905V544.62L275.038 544.635ZM289.217 541.83C289.717 541.97 290.102 542.2 290.372 542.52C290.652 542.83 290.792 543.205 290.792 543.645C290.792 544.135 290.627 544.57 290.297 544.95C289.967 545.32 289.512 545.61 288.932 545.82C288.352 546.03 287.692 546.135 286.952 546.135C286.332 546.135 285.727 546.065 285.137 545.925C284.547 545.775 284.012 545.565 283.532 545.295L284.072 543.9C284.462 544.12 284.902 544.29 285.392 544.41C285.882 544.53 286.372 544.59 286.862 544.59C287.492 544.59 287.982 544.495 288.332 544.305C288.692 544.105 288.872 543.835 288.872 543.495C288.872 543.185 288.732 542.945 288.452 542.775C288.182 542.605 287.797 542.52 287.297 542.52H285.737V541.26H287.147C287.617 541.26 287.982 541.18 288.242 541.02C288.512 540.86 288.647 540.635 288.647 540.345C288.647 540.055 288.487 539.825 288.167 539.655C287.847 539.485 287.407 539.4 286.847 539.4C286.047 539.4 285.202 539.595 284.312 539.985L283.832 538.605C284.882 538.115 285.942 537.87 287.012 537.87C287.692 537.87 288.302 537.965 288.842 538.155C289.382 538.335 289.802 538.595 290.102 538.935C290.412 539.265 290.567 539.645 290.567 540.075C290.567 540.465 290.447 540.815 290.207 541.125C289.967 541.425 289.637 541.66 289.217 541.83ZM295.723 537.9C296.903 537.9 297.803 538.185 298.423 538.755C299.053 539.315 299.368 540.165 299.368 541.305V546H297.598V545.025C297.368 545.375 297.038 545.645 296.608 545.835C296.188 546.015 295.678 546.105 295.078 546.105C294.478 546.105 293.953 546.005 293.503 545.805C293.053 545.595 292.703 545.31 292.453 544.95C292.213 544.58 292.093 544.165 292.093 543.705C292.093 542.985 292.358 542.41 292.888 541.98C293.428 541.54 294.273 541.32 295.423 541.32H297.493V541.2C297.493 540.64 297.323 540.21 296.983 539.91C296.653 539.61 296.158 539.46 295.498 539.46C295.048 539.46 294.603 539.53 294.163 539.67C293.733 539.81 293.368 540.005 293.068 540.255L292.333 538.89C292.753 538.57 293.258 538.325 293.848 538.155C294.438 537.985 295.063 537.9 295.723 537.9ZM295.468 544.74C295.938 544.74 296.353 544.635 296.713 544.425C297.083 544.205 297.343 543.895 297.493 543.495V542.565H295.558C294.478 542.565 293.938 542.92 293.938 543.63C293.938 543.97 294.073 544.24 294.343 544.44C294.613 544.64 294.988 544.74 295.468 544.74ZM308.948 537.99V546H307.073V539.58H304.073L303.998 541.17C303.948 542.23 303.848 543.12 303.698 543.84C303.558 544.55 303.313 545.115 302.963 545.535C302.623 545.945 302.153 546.15 301.553 546.15C301.273 546.15 300.928 546.095 300.518 545.985L300.608 544.41C300.748 544.44 300.868 544.455 300.968 544.455C301.348 544.455 301.633 544.305 301.823 544.005C302.013 543.695 302.133 543.33 302.183 542.91C302.243 542.48 302.293 541.87 302.333 541.08L302.468 537.99H308.948ZM311.473 537.99H313.348V543.27L317.773 537.99H319.483V546H317.608V540.72L313.198 546H311.473V537.99ZM327.81 541.83C328.8 542.13 329.295 542.77 329.295 543.75C329.295 544.47 329.025 545.025 328.485 545.415C327.945 545.805 327.145 546 326.085 546H322.005V537.99H325.92C326.9 537.99 327.665 538.17 328.215 538.53C328.765 538.89 329.04 539.4 329.04 540.06C329.04 540.47 328.93 540.825 328.71 541.125C328.5 541.425 328.2 541.66 327.81 541.83ZM323.79 541.335H325.755C326.725 541.335 327.21 541 327.21 540.33C327.21 539.68 326.725 539.355 325.755 539.355H323.79V541.335ZM325.935 544.635C326.965 544.635 327.48 544.3 327.48 543.63C327.48 543.28 327.36 543.02 327.12 542.85C326.88 542.67 326.505 542.58 325.995 542.58H323.79V544.635H325.935ZM334.622 542.79H333.167V546H331.292V537.99H333.167V541.23H334.667L337.037 537.99H339.047L336.137 541.845L339.242 546H337.037L334.622 542.79ZM340.565 537.99H342.44V543.27L346.865 537.99H348.575V546H346.7V540.72L342.29 546H340.565V537.99ZM351.682 543.615C352.032 543.615 352.322 543.73 352.552 543.96C352.782 544.19 352.897 544.49 352.897 544.86C352.897 545.02 352.872 545.19 352.822 545.37C352.782 545.54 352.692 545.8 352.552 546.15L351.787 548.265H350.572L351.172 545.97C350.952 545.88 350.777 545.74 350.647 545.55C350.527 545.35 350.467 545.12 350.467 544.86C350.467 544.49 350.582 544.19 350.812 543.96C351.042 543.73 351.332 543.615 351.682 543.615ZM366.78 546V540.69L364.08 545.16H363.27L360.615 540.675V546H358.905V537.99H360.87L363.72 543L366.705 537.99H368.46L368.475 546H366.78ZM375.489 540.03V541.095H370.389V540.255L373.074 537.915C373.384 537.635 373.594 537.41 373.704 537.24C373.824 537.06 373.884 536.88 373.884 536.7C373.884 536.46 373.774 536.265 373.554 536.115C373.344 535.965 373.024 535.89 372.594 535.89C372.254 535.89 371.949 535.945 371.679 536.055C371.409 536.165 371.194 536.33 371.034 536.55L370.089 535.875C370.349 535.525 370.699 535.255 371.139 535.065C371.579 534.865 372.099 534.765 372.699 534.765C373.489 534.765 374.109 534.935 374.559 535.275C375.009 535.615 375.234 536.06 375.234 536.61C375.234 536.93 375.154 537.23 374.994 537.51C374.844 537.79 374.539 538.13 374.079 538.53L372.369 540.03H375.489Z" fill="#011F3A"/>
<rect x="144" y="40" width="195" height="100" rx="25" fill="white"/>
<path d="M204.96 77.1C208.64 77.7 211.46 79.08 213.42 81.24C215.38 83.36 216.36 86 216.36 89.16C216.36 91.6 215.72 93.86 214.44 95.94C213.16 97.98 211.2 99.62 208.56 100.86C205.96 102.1 202.76 102.72 198.96 102.72C196 102.72 193.08 102.34 190.2 101.58C187.36 100.78 184.94 99.66 182.94 98.22L186.72 90.78C188.32 91.98 190.16 92.92 192.24 93.6C194.36 94.24 196.52 94.56 198.72 94.56C201.16 94.56 203.08 94.1 204.48 93.18C205.88 92.22 206.58 90.88 206.58 89.16C206.58 85.72 203.96 84 198.72 84H194.28V77.58L202.92 67.8H185.04V60H214.44V66.3L204.96 77.1ZM228.228 90.84C229.908 90.84 231.288 91.38 232.368 92.46C233.448 93.5 233.988 94.88 233.988 96.6C233.988 97.4 233.888 98.2 233.688 99C233.488 99.8 233.048 101 232.368 102.6L228.948 111.24H223.008L225.648 101.7C224.648 101.3 223.848 100.66 223.248 99.78C222.688 98.86 222.408 97.8 222.408 96.6C222.408 94.88 222.948 93.5 224.028 92.46C225.148 91.38 226.548 90.84 228.228 90.84ZM255.413 60V102H245.693V67.8H237.293V60H255.413ZM297.39 60V66.3L281.79 102H271.23L286.29 67.92H272.37V74.76H263.73V60H297.39Z" fill="#148EFF"/>
<path d="M162.76 124.04C162.76 124.17 162.75 124.355 162.73 124.595H156.445C156.555 125.185 156.84 125.655 157.3 126.005C157.77 126.345 158.35 126.515 159.04 126.515C159.92 126.515 160.645 126.225 161.215 125.645L162.22 126.8C161.86 127.23 161.405 127.555 160.855 127.775C160.305 127.995 159.685 128.105 158.995 128.105C158.115 128.105 157.34 127.93 156.67 127.58C156 127.23 155.48 126.745 155.11 126.125C154.75 125.495 154.57 124.785 154.57 123.995C154.57 123.215 154.745 122.515 155.095 121.895C155.455 121.265 155.95 120.775 156.58 120.425C157.21 120.075 157.92 119.9 158.71 119.9C159.49 119.9 160.185 120.075 160.795 120.425C161.415 120.765 161.895 121.25 162.235 121.88C162.585 122.5 162.76 123.22 162.76 124.04ZM158.71 121.4C158.11 121.4 157.6 121.58 157.18 121.94C156.77 122.29 156.52 122.76 156.43 123.35H160.975C160.895 122.77 160.65 122.3 160.24 121.94C159.83 121.58 159.32 121.4 158.71 121.4ZM157.21 118.73C156.95 118.73 156.735 118.645 156.565 118.475C156.395 118.305 156.31 118.09 156.31 117.83C156.31 117.56 156.395 117.34 156.565 117.17C156.735 117 156.95 116.915 157.21 116.915C157.47 116.915 157.685 117 157.855 117.17C158.025 117.34 158.11 117.56 158.11 117.83C158.11 118.09 158.025 118.305 157.855 118.475C157.685 118.645 157.47 118.73 157.21 118.73ZM160.12 118.73C159.86 118.73 159.645 118.645 159.475 118.475C159.305 118.305 159.22 118.09 159.22 117.83C159.22 117.56 159.305 117.34 159.475 117.17C159.645 117 159.86 116.915 160.12 116.915C160.38 116.915 160.595 117 160.765 117.17C160.935 117.34 161.02 117.56 161.02 117.83C161.02 118.09 160.935 118.305 160.765 118.475C160.595 118.645 160.38 118.73 160.12 118.73ZM172.686 128V122.69L169.986 127.16H169.176L166.521 122.675V128H164.811V119.99H166.776L169.626 125L172.611 119.99H174.366L174.381 128H172.686ZM180.226 124.79H178.771V128H176.896V119.99H178.771V123.23H180.271L182.641 119.99H184.651L181.741 123.845L184.846 128H182.641L180.226 124.79ZM189.475 128.105C188.665 128.105 187.935 127.93 187.285 127.58C186.635 127.23 186.125 126.745 185.755 126.125C185.395 125.495 185.215 124.785 185.215 123.995C185.215 123.205 185.395 122.5 185.755 121.88C186.125 121.26 186.635 120.775 187.285 120.425C187.935 120.075 188.665 119.9 189.475 119.9C190.295 119.9 191.03 120.075 191.68 120.425C192.33 120.775 192.835 121.26 193.195 121.88C193.565 122.5 193.75 123.205 193.75 123.995C193.75 124.785 193.565 125.495 193.195 126.125C192.835 126.745 192.33 127.23 191.68 127.58C191.03 127.93 190.295 128.105 189.475 128.105ZM189.475 126.5C190.165 126.5 190.735 126.27 191.185 125.81C191.635 125.35 191.86 124.745 191.86 123.995C191.86 123.245 191.635 122.64 191.185 122.18C190.735 121.72 190.165 121.49 189.475 121.49C188.785 121.49 188.215 121.72 187.765 122.18C187.325 122.64 187.105 123.245 187.105 123.995C187.105 124.745 187.325 125.35 187.765 125.81C188.215 126.27 188.785 126.5 189.475 126.5ZM199.247 128.105C198.417 128.105 197.672 127.93 197.012 127.58C196.352 127.23 195.837 126.745 195.467 126.125C195.097 125.495 194.912 124.785 194.912 123.995C194.912 123.205 195.097 122.5 195.467 121.88C195.837 121.26 196.347 120.775 196.997 120.425C197.657 120.075 198.407 119.9 199.247 119.9C200.037 119.9 200.727 120.06 201.317 120.38C201.917 120.7 202.367 121.16 202.667 121.76L201.227 122.6C200.997 122.23 200.707 121.955 200.357 121.775C200.017 121.585 199.642 121.49 199.232 121.49C198.532 121.49 197.952 121.72 197.492 122.18C197.032 122.63 196.802 123.235 196.802 123.995C196.802 124.755 197.027 125.365 197.477 125.825C197.937 126.275 198.522 126.5 199.232 126.5C199.642 126.5 200.017 126.41 200.357 126.23C200.707 126.04 200.997 125.76 201.227 125.39L202.667 126.23C202.357 126.83 201.902 127.295 201.302 127.625C200.712 127.945 200.027 128.105 199.247 128.105ZM210.589 121.58H207.784V128H205.909V121.58H203.089V119.99H210.589V121.58ZM215.969 122.63C216.989 122.63 217.769 122.86 218.309 123.32C218.859 123.78 219.134 124.43 219.134 125.27C219.134 126.15 218.834 126.83 218.234 127.31C217.634 127.79 216.789 128.025 215.699 128.015L211.949 128V119.99H213.824V122.615L215.969 122.63ZM215.534 126.635C216.084 126.645 216.504 126.53 216.794 126.29C217.084 126.05 217.229 125.7 217.229 125.24C217.229 124.79 217.089 124.46 216.809 124.25C216.529 124.04 216.104 123.93 215.534 123.92L213.824 123.905V126.62L215.534 126.635ZM233.478 126.41V129.785H231.723V128H225.543V129.785H223.803V126.41H224.178C224.688 126.39 225.033 126.065 225.213 125.435C225.403 124.795 225.528 123.895 225.588 122.735L225.693 119.99H232.293V126.41H233.478ZM227.298 122.87C227.258 123.79 227.183 124.54 227.073 125.12C226.963 125.7 226.763 126.13 226.473 126.41H230.418V121.58H227.343L227.298 122.87ZM242.413 119.99V128H240.538V121.58H237.538L237.463 123.17C237.413 124.23 237.313 125.12 237.163 125.84C237.023 126.55 236.778 127.115 236.428 127.535C236.088 127.945 235.618 128.15 235.018 128.15C234.738 128.15 234.393 128.095 233.983 127.985L234.073 126.41C234.213 126.44 234.333 126.455 234.433 126.455C234.813 126.455 235.098 126.305 235.288 126.005C235.478 125.695 235.598 125.33 235.648 124.91C235.708 124.48 235.758 123.87 235.798 123.08L235.933 119.99H242.413ZM251.703 119.99V128H250.023V125.585H247.908L246.273 128H244.263L246.153 125.33C245.573 125.13 245.128 124.825 244.818 124.415C244.518 123.995 244.368 123.48 244.368 122.87C244.368 121.95 244.693 121.24 245.343 120.74C245.993 120.24 246.888 119.99 248.028 119.99H251.703ZM248.088 121.565C246.878 121.565 246.273 122.02 246.273 122.93C246.273 123.83 246.858 124.28 248.028 124.28H250.023V121.565H248.088ZM262.015 128.105C261.185 128.105 260.44 127.93 259.78 127.58C259.12 127.23 258.605 126.745 258.235 126.125C257.865 125.495 257.68 124.785 257.68 123.995C257.68 123.205 257.865 122.5 258.235 121.88C258.605 121.26 259.115 120.775 259.765 120.425C260.425 120.075 261.175 119.9 262.015 119.9C262.805 119.9 263.495 120.06 264.085 120.38C264.685 120.7 265.135 121.16 265.435 121.76L263.995 122.6C263.765 122.23 263.475 121.955 263.125 121.775C262.785 121.585 262.41 121.49 262 121.49C261.3 121.49 260.72 121.72 260.26 122.18C259.8 122.63 259.57 123.235 259.57 123.995C259.57 124.755 259.795 125.365 260.245 125.825C260.705 126.275 261.29 126.5 262 126.5C262.41 126.5 262.785 126.41 263.125 126.23C263.475 126.04 263.765 125.76 263.995 125.39L265.435 126.23C265.125 126.83 264.67 127.295 264.07 127.625C263.48 127.945 262.795 128.105 262.015 128.105ZM267.086 119.99H268.961V123.245H272.996V119.99H274.871V128H272.996V124.835H268.961V128H267.086V119.99ZM284.884 124.04C284.884 124.17 284.874 124.355 284.854 124.595H278.569C278.679 125.185 278.964 125.655 279.424 126.005C279.894 126.345 280.474 126.515 281.164 126.515C282.044 126.515 282.769 126.225 283.339 125.645L284.344 126.8C283.984 127.23 283.529 127.555 282.979 127.775C282.429 127.995 281.809 128.105 281.119 128.105C280.239 128.105 279.464 127.93 278.794 127.58C278.124 127.23 277.604 126.745 277.234 126.125C276.874 125.495 276.694 124.785 276.694 123.995C276.694 123.215 276.869 122.515 277.219 121.895C277.579 121.265 278.074 120.775 278.704 120.425C279.334 120.075 280.044 119.9 280.834 119.9C281.614 119.9 282.309 120.075 282.919 120.425C283.539 120.765 284.019 121.25 284.359 121.88C284.709 122.5 284.884 123.22 284.884 124.04ZM280.834 121.4C280.234 121.4 279.724 121.58 279.304 121.94C278.894 122.29 278.644 122.76 278.554 123.35H283.099C283.019 122.77 282.774 122.3 282.364 121.94C281.954 121.58 281.444 121.4 280.834 121.4ZM293.085 121.58H288.81V128H286.935V119.99H293.085V121.58ZM297.434 119.9C298.614 119.9 299.514 120.185 300.134 120.755C300.764 121.315 301.079 122.165 301.079 123.305V128H299.309V127.025C299.079 127.375 298.749 127.645 298.319 127.835C297.899 128.015 297.389 128.105 296.789 128.105C296.189 128.105 295.664 128.005 295.214 127.805C294.764 127.595 294.414 127.31 294.164 126.95C293.924 126.58 293.804 126.165 293.804 125.705C293.804 124.985 294.069 124.41 294.599 123.98C295.139 123.54 295.984 123.32 297.134 123.32H299.204V123.2C299.204 122.64 299.034 122.21 298.694 121.91C298.364 121.61 297.869 121.46 297.209 121.46C296.759 121.46 296.314 121.53 295.874 121.67C295.444 121.81 295.079 122.005 294.779 122.255L294.044 120.89C294.464 120.57 294.969 120.325 295.559 120.155C296.149 119.985 296.774 119.9 297.434 119.9ZM297.179 126.74C297.649 126.74 298.064 126.635 298.424 126.425C298.794 126.205 299.054 125.895 299.204 125.495V124.565H297.269C296.189 124.565 295.649 124.92 295.649 125.63C295.649 125.97 295.784 126.24 296.054 126.44C296.324 126.64 296.699 126.74 297.179 126.74ZM303.985 125.615C304.335 125.615 304.625 125.73 304.855 125.96C305.085 126.19 305.2 126.49 305.2 126.86C305.2 127.02 305.175 127.19 305.125 127.37C305.085 127.54 304.995 127.8 304.855 128.15L304.09 130.265H302.875L303.475 127.97C303.255 127.88 303.08 127.74 302.95 127.55C302.83 127.35 302.77 127.12 302.77 126.86C302.77 126.49 302.885 126.19 303.115 125.96C303.345 125.73 303.635 125.615 303.985 125.615ZM319.082 128V122.69L316.382 127.16H315.572L312.917 122.675V128H311.207V119.99H313.172L316.022 125L319.007 119.99H320.762L320.777 128H319.082ZM325.887 119.405C326.527 119.475 327.017 119.675 327.357 120.005C327.697 120.325 327.867 120.73 327.867 121.22C327.867 121.58 327.757 121.91 327.537 122.21C327.327 122.51 327.012 122.75 326.592 122.93C326.172 123.11 325.657 123.2 325.047 123.2C324.507 123.2 323.992 123.135 323.502 123.005C323.012 122.865 322.632 122.685 322.362 122.465L322.887 121.46C323.147 121.65 323.467 121.8 323.847 121.91C324.227 122.02 324.627 122.075 325.047 122.075C325.527 122.075 325.892 122 326.142 121.85C326.392 121.7 326.517 121.49 326.517 121.22C326.517 120.95 326.402 120.74 326.172 120.59C325.942 120.44 325.592 120.365 325.122 120.365H324.342V119.495L325.842 117.935H322.602V116.87H327.537V117.71L325.887 119.405Z" fill="#011F3A"/>
<circle cx="238" cy="174" r="9.5" fill="#148EFF" stroke="#148EFF"/>
<circle cx="238" cy="174" r="5" fill="white"/>
<path d="M238 165L238 145" stroke="#148EFF"/>
<circle r="9.5" transform="matrix(1 0 0 -1 292 411)" fill="#ED5835" stroke="#ED5835"/>
<circle r="5" transform="matrix(1 0 0 -1 292 411)" fill="white"/>
<path d="M292 420L292 458" stroke="#ED5835"/>
<defs>
<linearGradient id="paint0_linear_1127_214145" x1="317.58" y1="405.42" x2="309.919" y2="351.48" gradientUnits="userSpaceOnUse">
<stop stop-color="#C4C4C4"/>
<stop offset="1" stop-color="#C4C4C4" stop-opacity="0"/>
</linearGradient>
<clipPath id="clip0_1127_214145">
<rect width="269" height="89" fill="white" transform="translate(103 173)"/>
</clipPath>
<clipPath id="clip1_1127_214145">
<rect width="71.6101" height="148.385" fill="white" transform="translate(407.883 130)"/>
</clipPath>
</defs>
</svg>
