<svg id="Layer_1" data-name="Layer 1" xmlns="http://www.w3.org/2000/svg" xmlns:xlink="http://www.w3.org/1999/xlink" viewBox="0 0 25 25"><defs><style>.cls-1{fill:none;}.cls-2{clip-path:url(#clip-path);}.cls-3{fill-rule:evenodd;}</style><clipPath id="clip-path"><rect class="cls-1" width="25" height="25"/></clipPath></defs><g class="cls-2"><path class="cls-3" d="M24.38,18h-.61v.07h0v0s0,.06,0,.1v.36a3.83,3.83,0,0,1-.2,1.08,2.06,2.06,0,0,1-.66,1,2.32,2.32,0,0,1-1.51.44H13.06V16.39a3.94,3.94,0,0,0,0-7.78V4h8.42l.28,0a3.17,3.17,0,0,1,.85.29,2.1,2.1,0,0,1,.79.7,2.48,2.48,0,0,1,.37,1.41v2.3a5.75,5.75,0,0,0-1.26.5,3.58,3.58,0,0,0-2,3.26,3.71,3.71,0,0,0,2,3.31,6.28,6.28,0,0,0,1.25.54V18Zm.6,0V6.41a3.73,3.73,0,0,0-.56-2.08,3.32,3.32,0,0,0-1.25-1.11A4.26,4.26,0,0,0,22,2.82l-.39-.06h-.17v0H3.76a3.49,3.49,0,0,0-2.17.68A3.76,3.76,0,0,0,.46,4.9a6,6,0,0,0-.4,1.39c0,.18,0,.34,0,.45s0,.1,0,.13v.06H0V18.67a3.27,3.27,0,0,0,.73,2.16,3.66,3.66,0,0,0,1.54,1.06,6,6,0,0,0,1.45.33l.47,0H21.41a3.54,3.54,0,0,0,2.26-.7A3.28,3.28,0,0,0,24.73,20,4.67,4.67,0,0,0,25,18.58a3.64,3.64,0,0,0,0-.47V18ZM4.88,21h7V16.39a3.94,3.94,0,0,1,0-7.78V4H3.76a2.25,2.25,0,0,0-1.43.43,2.47,2.47,0,0,0-.75,1,4,4,0,0,0-.31,1.07,1.94,1.94,0,0,0,0,.36.34.34,0,0,0,0,.09V8.77a6.62,6.62,0,0,1,1.14.5,3.74,3.74,0,0,1,2,3.32,3.61,3.61,0,0,1-2,3.26,5.61,5.61,0,0,1-1.15.46v2.36a2.08,2.08,0,0,0,.45,1.39,2.47,2.47,0,0,0,1,.69A5.21,5.21,0,0,0,3.84,21l.38,0h.66ZM1.22,15a5.51,5.51,0,0,0,.57-.25,2.39,2.39,0,0,0,1.38-2.19,2.52,2.52,0,0,0-1.41-2.26c-.19-.1-.37-.19-.54-.26Zm22.55,0V10a4.33,4.33,0,0,0-.68.29,2.39,2.39,0,0,0-1.38,2.19,2.5,2.5,0,0,0,1.41,2.25A4.24,4.24,0,0,0,23.77,15Zm-8.6-2.53a2.72,2.72,0,1,0-2.71,2.72A2.71,2.71,0,0,0,15.17,12.5Z"/></g></svg>