<svg id="Layer_1" data-name="Layer 1" xmlns="http://www.w3.org/2000/svg" viewBox="0 0 15 16"><path d="M7.5,1.91a27.07,27.07,0,0,0-3.28.23V4.25A8.29,8.29,0,0,0,5.81,8.3C4.41,7.57,2.58,6,2.58,4.48v-.7H3.5l-.26-.94H1.64V4.48c0,2.57,3.49,4.91,5.14,5.14l0,0V11a3.74,3.74,0,0,1,.63-.11,5,5,0,0,1,.77,0V9.64l0,0c1.65-.23,5.14-2.57,5.14-5.14V2.84h-1.6l-.26.94h.92v.7c0,1.5-1.83,3.09-3.23,3.82a8.29,8.29,0,0,0,1.59-4.05V2.14A27.07,27.07,0,0,0,7.5,1.91Zm0,9.61A3.63,3.63,0,0,0,5.63,12l-.47,1.41-.08,0a.7.7,0,0,0-.39.63v.27h5.62v-.27a.7.7,0,0,0-.39-.63l-.08,0L9.38,12A3.7,3.7,0,0,0,7.5,11.52Z"/></svg>