<svg id="Layer_1" data-name="Layer 1" xmlns="http://www.w3.org/2000/svg" xmlns:xlink="http://www.w3.org/1999/xlink" viewBox="0 0 15 16"><defs><style>.cls-1{fill:none;}.cls-2{clip-path:url(#clip-path);}</style><clipPath id="clip-path"><rect class="cls-1" y="0.5" width="15" height="15"/></clipPath></defs><g class="cls-2"><path d="M6.46.55c-1,4.65-4.15,6.77-4.15,10.23A4.61,4.61,0,0,0,5.8,15.21a3.54,3.54,0,0,1-1.41-2.4c0-1.77.91-2.3,1.38-4.23a3.37,3.37,0,0,1,1.15,2.3A8,8,0,0,0,8.08,5.69c4.61,4,2.73,8.34.9,9.59a4.51,4.51,0,0,0,3.71-4.54C12.69,7.28,11,4.72,6.46.55Z"/></g></svg>