<svg id="Layer_1" data-name="Layer 1" xmlns="http://www.w3.org/2000/svg" viewBox="0 0 16.67 16.67"><path d="M8.33,0a8.34,8.34,0,1,0,8.34,8.33A8.34,8.34,0,0,0,8.33,0Zm0,1.25A7.09,7.09,0,1,1,1.25,8.33,7.08,7.08,0,0,1,8.33,1.25Zm0,2.92a.82.82,0,0,0-.59.24.85.85,0,0,0,0,1.18.82.82,0,0,0,.59.24.81.81,0,0,0,.59-.24.82.82,0,0,0,0-1.18A.81.81,0,0,0,8.33,4.17Zm0,2.9a.73.73,0,0,0-.44.19.66.66,0,0,0-.17.45v4.58a.64.64,0,0,0,0,.24.6.6,0,0,0,.14.21.66.66,0,0,0,.2.14.69.69,0,0,0,.24,0,.6.6,0,0,0,.24,0,.6.6,0,0,0,.21-.14.57.57,0,0,0,.13-.21A.64.64,0,0,0,9,12.29V7.71a.7.7,0,0,0-.05-.25.86.86,0,0,0-.13-.2.6.6,0,0,0-.21-.14A.7.7,0,0,0,8.32,7.07Z"/></svg>