<svg width="45" height="45" viewBox="0 0 45 45" fill="none" xmlns="http://www.w3.org/2000/svg">
<g clip-path="url(#clip0_1081_73507)">
<path d="M32.0195 28.5181C32.0195 28.1914 31.7547 27.9265 31.428 27.9265H29.0934C28.8709 27.9265 28.6691 28.0522 28.5668 28.2498C27.0962 31.0894 23.7416 32.988 19.8545 32.7021C17.9722 32.5632 17.0883 30.3029 18.3742 28.9231C18.7395 28.531 18.4483 27.9265 17.9429 27.9265H15.8945C13.4092 27.9265 11.3945 25.9118 11.3945 23.4265V14.3618C11.3945 14.0351 11.1297 13.7703 10.803 13.7703H2.95703C1.30019 13.7703 -0.0429688 15.1134 -0.0429688 16.7703V34.5828C-0.0429688 36.2396 1.30019 37.5828 2.95703 37.5828H14.7498C15.6279 40.6279 18.6215 42.3866 21.8186 42.3856C21.8437 42.3856 21.8687 42.3856 21.8936 42.3857C22.4405 42.3867 22.9185 42.3876 23.1142 41.8878C23.2192 41.6187 23.1611 41.314 22.9642 41.1021C22.0667 40.14 21.4703 38.9187 21.2973 37.5828H29.0195C30.6742 37.5828 32.0195 36.2365 32.0195 34.5828V28.5181Z" fill="white"/>
<path fill-rule="evenodd" clip-rule="evenodd" d="M44.957 23.4265V5.61401C44.957 3.96026 43.6117 2.61401 41.957 2.61401H15.8945C14.2398 2.61401 12.8945 3.96026 12.8945 5.61401V23.4265C12.8945 25.0803 14.2398 26.4265 15.8945 26.4265H21.138C20.9647 27.7654 20.3665 28.986 19.4711 29.9459C19.2742 30.1578 19.2161 30.4624 19.3211 30.7315C19.5162 31.2315 19.9948 31.2305 20.5397 31.2294C20.5652 31.2294 20.5909 31.2293 20.6167 31.2293C23.7988 31.2293 26.8039 29.4835 27.6855 26.4265H41.957C43.6117 26.4265 44.957 25.0803 44.957 23.4265ZM29.714 20.2277C29.852 20.2277 29.964 20.1158 29.964 19.9777V18.267C29.964 18.129 29.852 18.017 29.714 18.017H27.8732C27.7351 18.017 27.6232 18.129 27.6232 18.267V19.9777C27.6232 20.1158 27.7351 20.2277 27.8732 20.2277H29.714ZM29.7868 16.6028C29.8386 16.6028 29.8891 16.5867 29.9314 16.5568L30.7605 15.9689C31.6816 15.297 32.3264 14.6739 32.6948 14.0995C33.0741 13.5252 33.2638 12.875 33.2638 12.1489C33.2638 11.1628 32.9116 10.3554 32.2072 9.72688C31.5028 9.08751 30.4191 8.76782 28.9561 8.76782C27.504 8.76782 26.3878 9.10918 25.6076 9.7919C24.8795 10.4277 24.5347 11.4273 24.5732 12.7908C24.577 12.9232 24.6869 13.0267 24.8193 13.0267H26.5768C26.721 13.0267 26.8346 12.9048 26.8327 12.7606C26.8232 12.0355 26.9783 11.5228 27.2981 11.2224C27.6557 10.8864 28.1976 10.7184 28.9236 10.7184C30.2782 10.7184 30.9555 11.244 30.9555 12.2952C30.9555 12.772 30.8146 13.2001 30.5329 13.5794C30.262 13.9478 29.8177 14.3596 29.2 14.8148L27.9512 15.7476C27.888 15.7948 27.8508 15.869 27.8508 15.9479V16.3528C27.8508 16.4909 27.9627 16.6028 28.1008 16.6028H29.7868Z" fill="white"/>
</g>
<defs>
<clipPath id="clip0_1081_73507">
<rect width="45" height="45" fill="white"/>
</clipPath>
</defs>
</svg>
