<svg id="Layer_1" data-name="Layer 1" xmlns="http://www.w3.org/2000/svg" viewBox="0 0 35 35"><path d="M4.81,17.5A13.13,13.13,0,0,1,7,10.18,12.65,12.65,0,0,1,12.9,5.42a12.39,12.39,0,0,1,7.49-.54,12.55,12.55,0,0,1,6.47,3.87l-5.11,1.74a1.18,1.18,0,0,0-.39.23,1.09,1.09,0,0,0-.28.36A1.18,1.18,0,0,0,21,12a1.2,1.2,0,0,0,.22.4,1,1,0,0,0,.36.28,1.08,1.08,0,0,0,.43.13,1.14,1.14,0,0,0,.45-.06l6.92-2.36A1.23,1.23,0,0,0,30,9.94a1.2,1.2,0,0,0,.21-.69V2.18a1.17,1.17,0,0,0-.34-.83A1.1,1.1,0,0,0,29,1a1.12,1.12,0,0,0-.82.35,1.22,1.22,0,0,0-.34.83v4.3a14.84,14.84,0,0,0-7.67-4,14.64,14.64,0,0,0-8.59,1A15,15,0,0,0,5,9,15.52,15.52,0,0,0,2.5,17.5a1.17,1.17,0,0,0,.34.83,1.14,1.14,0,0,0,.81.35,1.16,1.16,0,0,0,.82-.35A1.17,1.17,0,0,0,4.81,17.5Zm26.54-1.18a1.16,1.16,0,0,0-.82.35,1.17,1.17,0,0,0-.34.83A13.13,13.13,0,0,1,28,24.82a12.65,12.65,0,0,1-5.87,4.76,12.39,12.39,0,0,1-7.49.54,12.55,12.55,0,0,1-6.47-3.87l5.11-1.74a1.18,1.18,0,0,0,.39-.23,1.09,1.09,0,0,0,.28-.36A1.18,1.18,0,0,0,14,23a1.2,1.2,0,0,0-.22-.4,1,1,0,0,0-.36-.28,1.08,1.08,0,0,0-.43-.13,1.14,1.14,0,0,0-.45.06L5.6,24.63a1.23,1.23,0,0,0-.58.43,1.2,1.2,0,0,0-.21.69v7.07a1.17,1.17,0,0,0,.34.83A1.1,1.1,0,0,0,6,34a1.12,1.12,0,0,0,.82-.35,1.22,1.22,0,0,0,.34-.83v-4.3a14.84,14.84,0,0,0,7.67,4,14.64,14.64,0,0,0,8.59-1A15,15,0,0,0,30,26,15.52,15.52,0,0,0,32.5,17.5a1.17,1.17,0,0,0-.34-.83A1.14,1.14,0,0,0,31.35,16.32Z"/></svg>