<svg id="Layer_1" data-name="Layer 1" xmlns="http://www.w3.org/2000/svg" viewBox="0 0 15 16"><defs><style>.cls-1{fill-rule:evenodd;}</style></defs><path d="M5.3,5.46a.45.45,0,0,1,.41.16,1.57,1.57,0,0,1,.11.73,1.51,1.51,0,0,1-.11.7.45.45,0,0,1-.41.16.45.45,0,0,1-.41-.16,1.51,1.51,0,0,1-.11-.7,1.57,1.57,0,0,1,.11-.73A.45.45,0,0,1,5.3,5.46Z"/><path d="M9.71,8.79a.43.43,0,0,1,.4.16,1.39,1.39,0,0,1,.12.72,1.4,1.4,0,0,1-.12.71.43.43,0,0,1-.4.16.48.48,0,0,1-.42-.16,1.59,1.59,0,0,1-.1-.71A1.59,1.59,0,0,1,9.29,9,.48.48,0,0,1,9.71,8.79Z"/><path class="cls-1" d="M9.05,1.11a.61.61,0,0,0-.35.07l-1.2.57L6.3,1.18a.7.7,0,0,0-.87.21L4.64,2.45l-1.33.06a.7.7,0,0,0-.67.59L2.43,4.41l-1.15.66A.72.72,0,0,0,1,5.91l.42,1.26L.68,8.28a.71.71,0,0,0,.1.9l1,.91-.11,1.32a.71.71,0,0,0,.51.74l1.27.37.52,1.22a.72.72,0,0,0,.8.42L6,13.89l1,.84a.71.71,0,0,0,.9,0l1-.84,1.3.27a.71.71,0,0,0,.8-.42l.52-1.22,1.27-.37a.71.71,0,0,0,.51-.74l-.11-1.32,1-.91a.73.73,0,0,0,.11-.9l-.71-1.11L14,5.91a.72.72,0,0,0-.32-.84l-1.15-.66L12.36,3.1a.71.71,0,0,0-.67-.59l-1.33-.06L9.57,1.39A.73.73,0,0,0,9.05,1.11Zm.31,3.54L4.57,11.3H5.7l4.77-6.65ZM5.3,8.1a1.71,1.71,0,0,0,1.26-.39,2,2,0,0,0,.38-1.36A1.93,1.93,0,0,0,6.55,5a1.72,1.72,0,0,0-1.25-.4A1.72,1.72,0,0,0,4.05,5a1.93,1.93,0,0,0-.4,1.38A1.92,1.92,0,0,0,4,7.71,1.73,1.73,0,0,0,5.3,8.1Zm4.41,3.33A1.65,1.65,0,0,0,11,11a1.89,1.89,0,0,0,.39-1.36A2,2,0,0,0,11,8.29,1.69,1.69,0,0,0,9.71,7.9a1.76,1.76,0,0,0-1.26.39,2,2,0,0,0-.39,1.38A1.94,1.94,0,0,0,8.44,11,1.7,1.7,0,0,0,9.71,11.43Z"/></svg>