<svg id="Layer_1" data-name="Layer 1" xmlns="http://www.w3.org/2000/svg" viewBox="0 0 25 25"><path d="M23.69,12H20.53L22,10.17a.53.53,0,0,0-.08-.75.54.54,0,0,0-.75.08l-2,2.47H13.79l3.72-3.73h3a.54.54,0,0,0,0-1.07H18.58l2.29-2.28a.54.54,0,1,0-.76-.76L17.83,6.42V4.51a.54.54,0,0,0-1.07,0v3L13,11.21V5.83l2.47-2A.53.53,0,0,0,14.83,3L13,4.47V1.31a.53.53,0,1,0-1.06,0V4.47L10.17,3a.53.53,0,0,0-.67.83l2.47,2v5.38L8.24,7.49v-3a.54.54,0,0,0-1.07,0V6.42L4.89,4.13a.54.54,0,0,0-.76.76L6.42,7.17H4.51a.54.54,0,0,0,0,1.07h3L11.21,12H5.83l-2-2.47a.54.54,0,0,0-.75-.08.53.53,0,0,0-.08.75L4.47,12H1.31a.53.53,0,0,0,0,1.06H4.47L3,14.83a.53.53,0,0,0,.08.75.54.54,0,0,0,.33.12.53.53,0,0,0,.42-.2l2-2.47h5.38L7.49,16.76h-3a.54.54,0,0,0,0,1.07H6.42L4.13,20.11a.54.54,0,0,0,0,.76.56.56,0,0,0,.76,0l2.28-2.29v1.91a.54.54,0,0,0,1.07,0v-3L12,13.79v5.38l-2.47,2a.53.53,0,0,0,.67.83L12,20.53v3.16a.53.53,0,1,0,1.06,0V20.53L14.83,22a.54.54,0,0,0,.33.12.55.55,0,0,0,.42-.2.54.54,0,0,0-.08-.75l-2.47-2V13.79l3.73,3.72v3a.54.54,0,0,0,1.07,0V18.58l2.28,2.29a.54.54,0,1,0,.76-.76l-2.29-2.28h1.91a.54.54,0,0,0,0-1.07h-3L13.79,13h5.38l2,2.47a.53.53,0,0,0,.42.2.54.54,0,0,0,.33-.12.53.53,0,0,0,.08-.75L20.53,13h3.16a.53.53,0,0,0,0-1.06Z"/></svg>