<svg id="Layer_1" data-name="Layer 1" xmlns="http://www.w3.org/2000/svg" viewBox="0 0 54 43"><defs><style>.cls-1{fill-rule:evenodd;}</style></defs><path class="cls-1" d="M35.27.56c-.18.31-.89,1.52-1.58,2.68L29.91,9.66C28.51,12,27.37,14,27.37,14s.21.38.47.8l.47.78L30,12.67C35,4.22,37,.8,37,.78S35.63,0,35.61,0,35.45.25,35.27.56ZM17.69.46a2.2,2.2,0,0,0-.62.45s1,1.81,2.27,3.93l3.14,5.33c3.85,6.55,5.28,9,5.35,9s.39-.09.77-.3l.69-.39L29,17.93c-.18-.33-.36-.64-.4-.69s-3.93-6.65-8.25-14A22.77,22.77,0,0,0,18.38.09,5.23,5.23,0,0,0,17.69.46ZM25.21,17.6a6.92,6.92,0,0,0-.44.82,3.52,3.52,0,0,0,.7.45l.7.39.23-.41.23-.41-.47-.8c-.26-.44-.48-.8-.49-.8Zm-1.94,3.32c-5.18,8.76-8.14,13.8-8.46,14.37a4,4,0,0,1-2,1.81c-2.49,1.24-5.1,1.73-10,1.87L.5,39l-.21.25C0,39.65-.07,40.06.1,41c.22,1.15.39,1.44,1,1.75l.53.26H3.74a16.89,16.89,0,0,0,3.31-.21c3.06-.5,5.36-1.47,6.69-2.81.61-.62.51-.47,2-3l4.53-7.7c1.82-3.07,3.77-6.39,4.35-7.38s1.12-1.89,1.19-2,.1-.21-.41-.5c-.29-.18-.62-.36-.72-.41S24.38,19.05,23.27,20.92Zm5.55-1.62a2.49,2.49,0,0,0-.62.47c0,.05.43.82.95,1.71s2.36,4,4.06,6.89,3.46,5.87,3.9,6.62l1.67,2.83a8.16,8.16,0,0,0,2.43,2.94,14.7,14.7,0,0,0,5.74,2,17,17,0,0,0,3.31.21h2.07l.53-.26c.64-.3.82-.59,1-1.67s.06-1.77-.49-2a21.75,21.75,0,0,0-2.5-.15c-4.63-.11-7.29-.62-9.75-1.85a4,4,0,0,1-2.07-2c-.25-.43-1.93-3.29-3.75-6.36l-4.55-7.72c-.69-1.18-1.28-2.14-1.31-2.13A7.44,7.44,0,0,0,28.82,19.3ZM25.28,38c-.88.14-1.31.29-1.31.47,0,.66,5.78.83,7.38.22.32-.12.32-.31,0-.45A19.69,19.69,0,0,0,25.28,38ZM24,40c0,1.25,0,1.18,1,1.4a18.24,18.24,0,0,0,6.12-.12l.46-.15,0-1.07c0-1,0-1.06-.14-1a9.09,9.09,0,0,1-3.15.37A10.93,10.93,0,0,1,24.18,39L24,38.9Z"/></svg>