<svg id="Layer_1" data-name="Layer 1" xmlns="http://www.w3.org/2000/svg" viewBox="0 0 30 30"><path d="M25.88,20.55c-.9-1.68-3.21-3.69-4.17-4.57a.66.66,0,0,1-.05-.92,20.82,20.82,0,0,0,3.79-5.77A1,1,0,0,0,24.56,8H22.69a1.16,1.16,0,0,0-1.16.6A15.78,15.78,0,0,1,17.81,14a.79.79,0,0,1-1.31-.62V9.12a1.06,1.06,0,0,0-1-1.07L12,8a.55.55,0,0,0-.42.87l.56.84a1.67,1.67,0,0,1,.33,1v3.79a.72.72,0,0,1-1.23.52A18.65,18.65,0,0,1,7.89,8.75,1.06,1.06,0,0,0,6.9,8H5.05A1.07,1.07,0,0,0,4,9.37c1.69,6.14,5.15,12,11.33,12.62a1,1,0,0,0,1.13-1.07v-2a1.05,1.05,0,0,1,1-1.08h.06c1.63,0,3.46,2.46,4.1,3.62a1,1,0,0,0,.9.53H25A1,1,0,0,0,25.88,20.55Z"/></svg>