<svg id="Layer_1" data-name="Layer 1" xmlns="http://www.w3.org/2000/svg" viewBox="0 0 25 25"><defs><style>.cls-1{fill-rule:evenodd;}</style></defs><path class="cls-1" d="M2.81,21.2A8.12,8.12,0,0,1,1.76,11L8,1.68a.63.63,0,0,1,.5-.26.66.66,0,0,1,.5.26L15.23,11A8.07,8.07,0,0,1,2.81,21.2Zm11.45-9.53L8.52,3.07l-5.74,8.6a6.89,6.89,0,1,0,11.48,0Z"/><path d="M18.5,9.34a.58.58,0,0,1,.16-.83h0A.6.6,0,0,1,19,8.39a.59.59,0,0,1,.49.27l4.14,6.24A5.58,5.58,0,0,1,19,23.58a5.07,5.07,0,0,1-1.36-.17h0a.56.56,0,0,1-.42-.66h0a.6.6,0,0,1,.72-.44h0a4.44,4.44,0,0,0,4.18-1.16h0a4.42,4.42,0,0,0,.55-5.55L18.5,9.35Z"/></svg>