<svg id="Layer_1" data-name="Layer 1" xmlns="http://www.w3.org/2000/svg" viewBox="0 0 20 20"><defs><style>.cls-1{fill-rule:evenodd;}</style></defs><path class="cls-1" d="M17.7,10A7.7,7.7,0,1,1,10,2.3,7.7,7.7,0,0,1,17.7,10ZM9.38,7.63v-3a5.43,5.43,0,0,0-4.3,3.12l2.83.92A.54.54,0,0,0,8,8.53a.83.83,0,0,1,.15-.23A2.38,2.38,0,0,1,9.38,7.63Zm5.54.11a5.43,5.43,0,0,0-4.29-3.12v3a2.38,2.38,0,0,1,1.24.67.83.83,0,0,1,.15.23.54.54,0,0,0,.07.13Zm-4,1.39A1.13,1.13,0,0,0,10,8.75a1.13,1.13,0,0,0-.94.38,1.38,1.38,0,0,0,0,1.74,1.13,1.13,0,0,0,.94.38,1.13,1.13,0,0,0,.94-.38,1.38,1.38,0,0,0,0-1.74Zm-3.41.72L4.69,8.93A5.36,5.36,0,0,0,6.34,14L8.06,11.6A2.58,2.58,0,0,1,7.5,10s0-.05,0-.08A.64.64,0,0,0,7.53,9.85Zm7.89.15a5.39,5.39,0,0,0-.11-1.07l-2.84.92a.64.64,0,0,0,0,.07s0,.05,0,.08a2.58,2.58,0,0,1-.56,1.6L13.66,14A5.39,5.39,0,0,0,15.42,10ZM10,12.5a2.46,2.46,0,0,1-.91-.19L7.35,14.72a5.37,5.37,0,0,0,5.3,0l-1.74-2.41A2.46,2.46,0,0,1,10,12.5Z"/></svg>