<svg width="1740" height="700" viewBox="0 0 1740 700" fill="none" xmlns="http://www.w3.org/2000/svg">
<path d="M641.24 557.36V560.36H644.24V557.36H641.24ZM541.4 557.36V554.36H538.4V557.36H541.4ZM541.4 686V689H544.4V686H541.4ZM356.12 686H353.12V689H356.12V686ZM356.12 557.36H359.12V554.36H356.12V557.36ZM0.92 557.36H-2.08V560.36H0.92V557.36ZM0.92 433.52L-1.51629 431.769L-2.08 432.554V433.52H0.92ZM302.36 14V11H300.822L299.924 12.2494L302.36 14ZM499.16 14L501.621 15.7151L504.907 11H499.16V14ZM225.56 406.64L223.099 404.925L219.813 409.64H225.56V406.64ZM361.88 406.64V409.64H364.88V406.64H361.88ZM361.88 292.4V289.4H358.88V292.4H361.88ZM541.4 292.4H544.4V289.4H541.4V292.4ZM541.4 406.64H538.4V409.64H541.4V406.64ZM641.24 406.64H644.24V403.64H641.24V406.64ZM641.24 554.36H541.4V560.36H641.24V554.36ZM538.4 557.36V686H544.4V557.36H538.4ZM541.4 683H356.12V689H541.4V683ZM359.12 686V557.36H353.12V686H359.12ZM356.12 554.36H0.92V560.36H356.12V554.36ZM3.92 557.36V433.52H-2.08V557.36H3.92ZM3.35629 435.271L304.796 15.7505L299.924 12.2494L-1.51629 431.769L3.35629 435.271ZM302.36 17H499.16V11H302.36V17ZM496.699 12.2848L223.099 404.925L228.021 408.355L501.621 15.7151L496.699 12.2848ZM225.56 409.64H361.88V403.64H225.56V409.64ZM364.88 406.64V292.4H358.88V406.64H364.88ZM361.88 295.4H541.4V289.4H361.88V295.4ZM538.4 292.4V406.64H544.4V292.4H538.4ZM541.4 409.64H641.24V403.64H541.4V409.64ZM638.24 406.64V557.36H644.24V406.64H638.24ZM822.867 658.16L821.297 660.716L822.867 658.16ZM717.268 538.16L714.552 539.436L714.562 539.456L714.571 539.475L717.268 538.16ZM717.268 162.8L714.565 161.498L714.562 161.505L714.558 161.511L717.268 162.8ZM822.867 41.84L824.438 44.3962L822.867 41.84ZM1129.11 41.84L1127.54 44.3962L1129.11 41.84ZM1233.75 162.8L1231.03 164.076L1231.04 164.096L1231.05 164.115L1233.75 162.8ZM1233.75 538.16L1231.04 536.858L1231.04 536.865L1231.04 536.871L1233.75 538.16ZM1129.11 658.16L1130.68 660.716L1129.11 658.16ZM1052.31 497.84L1049.75 496.273L1049.74 496.281L1049.74 496.289L1052.31 497.84ZM1052.31 203.12L1049.73 204.648L1049.74 204.679L1049.76 204.71L1052.31 203.12ZM898.708 203.12L896.149 201.554L896.144 201.561L896.14 201.569L898.708 203.12ZM898.708 497.84L896.126 499.368L896.144 499.399L896.164 499.43L898.708 497.84ZM976.468 696.44C919.367 696.44 868.721 682.806 824.438 655.604L821.297 660.716C866.614 688.554 918.368 702.44 976.468 702.44V696.44ZM824.438 655.604C780.176 628.414 745.343 588.871 719.964 536.845L714.571 539.475C740.393 592.409 775.959 632.866 821.297 660.716L824.438 655.604ZM719.983 536.884C695.249 484.245 682.828 421.979 682.828 350H676.828C676.828 422.661 689.366 485.835 714.552 539.436L719.983 536.884ZM682.828 350C682.828 278.02 695.249 216.08 719.977 164.089L714.558 161.511C689.366 214.48 676.828 277.34 676.828 350H682.828ZM719.97 164.102C745.352 111.435 780.185 71.5798 824.438 44.3962L821.297 39.2838C775.95 67.1402 740.383 107.925 714.565 161.498L719.97 164.102ZM824.438 44.3962C868.721 17.1938 919.367 3.55995 976.468 3.55995V-2.44005C918.368 -2.44005 866.614 11.4462 821.297 39.2838L824.438 44.3962ZM976.468 3.55995C1032.92 3.55995 1083.25 17.1905 1127.54 44.3962L1130.68 39.2838C1085.37 11.4495 1033.93 -2.44005 976.468 -2.44005V3.55995ZM1127.54 44.3962C1171.78 71.5752 1206.29 111.421 1231.03 164.076L1236.46 161.524C1211.28 107.939 1176.03 67.1447 1130.68 39.2838L1127.54 44.3962ZM1231.05 164.115C1256.41 216.1 1269.15 278.029 1269.15 350H1275.15C1275.15 277.331 1262.29 214.46 1236.44 161.485L1231.05 164.115ZM1269.15 350C1269.15 421.969 1256.41 484.225 1231.04 536.858L1236.45 539.462C1262.29 485.855 1275.15 422.671 1275.15 350H1269.15ZM1231.04 536.871C1206.3 588.885 1171.79 628.419 1127.54 655.604L1130.68 660.716C1176.02 632.861 1211.27 592.395 1236.46 539.448L1231.04 536.871ZM1127.54 655.604C1083.25 682.81 1032.92 696.44 976.468 696.44V702.44C1033.93 702.44 1085.37 688.55 1130.68 660.716L1127.54 655.604ZM976.468 546.92C1009.66 546.92 1035.85 530.88 1054.88 499.391L1049.74 496.289C1031.64 526.24 1007.27 540.92 976.468 540.92V546.92ZM1054.87 499.406C1074.51 467.326 1084.11 417.361 1084.11 350H1078.11C1078.11 417.039 1068.51 465.634 1049.75 496.273L1054.87 499.406ZM1084.11 350C1084.11 282.647 1074.51 232.984 1054.85 201.53L1049.76 204.71C1068.51 234.696 1078.11 282.953 1078.11 350H1084.11ZM1054.89 201.592C1035.88 169.471 1009.69 153.08 976.468 153.08V159.08C1007.24 159.08 1031.62 174.049 1049.73 204.648L1054.89 201.592ZM976.468 153.08C942.635 153.08 915.812 169.437 896.149 201.554L901.266 204.686C920.003 174.083 945.02 159.08 976.468 159.08V153.08ZM896.14 201.569C877.143 233.011 867.867 282.656 867.867 350H873.867C873.867 282.944 883.152 234.669 901.275 204.671L896.14 201.569ZM867.867 350C867.867 417.352 877.146 467.299 896.126 499.368L901.289 496.312C883.149 465.661 873.867 417.048 873.867 350H867.867ZM896.164 499.43C915.84 530.912 942.665 546.92 976.468 546.92V540.92C944.99 540.92 919.975 526.208 901.252 496.25L896.164 499.43ZM1970.61 557.36V560.36H1973.61V557.36H1970.61ZM1870.78 557.36V554.36H1867.78V557.36H1870.78ZM1870.78 686V689H1873.78V686H1870.78ZM1685.49 686H1682.49V689H1685.49V686ZM1685.49 557.36H1688.49V554.36H1685.49V557.36ZM1330.3 557.36H1327.3V560.36H1330.3V557.36ZM1330.3 433.52L1327.86 431.769L1327.3 432.554V433.52H1330.3ZM1631.73 14V11H1630.2L1629.3 12.2494L1631.73 14ZM1828.54 14L1831 15.7151L1834.28 11H1828.54V14ZM1554.94 406.64L1552.47 404.925L1549.19 409.64H1554.94V406.64ZM1691.26 406.64V409.64H1694.26V406.64H1691.26ZM1691.26 292.4V289.4H1688.26V292.4H1691.26ZM1870.78 292.4H1873.78V289.4H1870.78V292.4ZM1870.78 406.64H1867.78V409.64H1870.78V406.64ZM1970.61 406.64H1973.61V403.64H1970.61V406.64ZM1970.61 554.36H1870.78V560.36H1970.61V554.36ZM1867.78 557.36V686H1873.78V557.36H1867.78ZM1870.78 683H1685.49V689H1870.78V683ZM1688.49 686V557.36H1682.49V686H1688.49ZM1685.49 554.36H1330.3V560.36H1685.49V554.36ZM1333.3 557.36V433.52H1327.3V557.36H1333.3ZM1332.73 435.271L1634.17 15.7505L1629.3 12.2494L1327.86 431.769L1332.73 435.271ZM1631.73 17H1828.54V11H1631.73V17ZM1826.07 12.2848L1552.47 404.925L1557.4 408.355L1831 15.7151L1826.07 12.2848ZM1554.94 409.64H1691.26V403.64H1554.94V409.64ZM1694.26 406.64V292.4H1688.26V406.64H1694.26ZM1691.26 295.4H1870.78V289.4H1691.26V295.4ZM1867.78 292.4V406.64H1873.78V292.4H1867.78ZM1870.78 409.64H1970.61V403.64H1870.78V409.64ZM1967.61 406.64V557.36H1973.61V406.64H1967.61Z" fill="#EEF4FB"/>
</svg>
