<svg width="55" height="55" viewBox="0 0 55 55" fill="none" xmlns="http://www.w3.org/2000/svg">
<path fill-rule="evenodd" clip-rule="evenodd" d="M41.0389 8.86652C44.5323 5.37653 49.0499 3.06207 50.4725 4.48464L50.4738 4.48592C51.8963 5.90842 49.6349 10.4791 46.176 14.0036L40.0165 20.1571L41.2798 26.3286L43.2595 24.3489C43.5959 24.0125 44.1271 24.0034 44.4516 24.3279L45.6716 25.548C45.9959 25.8722 45.9871 26.4037 45.6507 26.7401L43.4193 28.9715C43.1323 29.2585 42.7035 29.3054 42.3823 29.1122L41.9388 29.5463L44.8993 44.5451C44.8993 44.5451 45.2613 46.2588 45.2392 47.2881C45.2183 48.2772 43.1543 50.7403 42.9945 50.9296C43.0829 50.8184 43.7142 49.8759 42.5004 46.8777C42.4885 46.8487 42.4766 46.8192 42.4648 46.7896C41.127 43.5101 34.5195 33.0724 34.5195 33.0724L30.8051 29.358L24.7846 35.3725C24.7846 35.3725 22.2463 37.3876 19.4484 39.3394L21.8644 48.5567L20.0348 50.3862L16.1002 42.7925L15.2767 41.9889C13.815 42.7823 12.6454 43.2039 12.247 42.8054C11.8487 42.4072 12.2671 41.235 13.0566 39.7705L12.2398 38.9321L4.64604 34.9975L6.4756 33.1679L15.6975 35.5859C17.6419 32.7816 19.6492 30.2373 19.6492 30.2373L25.6697 24.2228L21.9625 20.5156C21.9625 20.5156 11.5245 13.9079 8.24527 12.5703C8.2289 12.5635 8.21235 12.5569 8.19588 12.5503C8.18292 12.5451 8.17 12.5399 8.15724 12.5347C5.15832 11.3207 4.21592 11.9526 4.1052 12.0407C4.2936 11.8816 6.75717 9.81707 7.74682 9.79584C8.77616 9.77376 10.4898 10.1358 10.4898 10.1358L25.4879 13.0956L25.922 12.6521C25.7291 12.3306 25.7757 11.9021 26.0627 11.6151L28.2941 9.3837C28.6305 9.04731 29.1617 9.03821 29.4862 9.36274L30.7063 10.5828C31.0305 10.907 31.0217 11.4385 30.6853 11.7749L28.7056 13.7546L34.8807 15.0187L41.0389 8.86652ZM4.09375 12.0504C4.09375 12.0504 4.09742 12.0469 4.1052 12.0407C4.09765 12.0471 4.09375 12.0504 4.09375 12.0504ZM42.9847 50.9412C42.9847 50.9412 42.9881 50.9372 42.9945 50.9296C42.9882 50.9374 42.9847 50.9412 42.9847 50.9412ZM45.7004 9.37678C46.4218 10.0974 46.7896 11.0363 46.808 11.9809C47.3205 10.9442 47.1473 9.65539 46.2845 8.79266C45.4218 7.92957 44.1323 7.75639 43.0963 8.26923C44.0409 8.28765 44.9798 8.65619 45.7004 9.37678Z" fill="#148EFF"/>
</svg>
