<svg width="259" height="50" viewBox="0 0 259 50" fill="none" xmlns="http://www.w3.org/2000/svg">
<path d="M86.9772 7.95989V18.9999H84.8012V9.91189H79.0412V18.9999H76.8652V7.95989H86.9772Z" fill="white"/>
<path d="M91.4769 17.0799C91.8396 17.4532 92.4049 17.6399 93.1729 17.6399C93.9409 17.6399 94.5062 17.4532 94.8689 17.0799C95.2422 16.7066 95.4289 16.0292 95.4289 15.0479C95.4289 14.0346 95.2422 13.3359 94.8689 12.9519C94.5062 12.5572 93.9409 12.3599 93.1729 12.3599C92.4049 12.3599 91.8396 12.5519 91.4769 12.9359C91.1142 13.3199 90.9329 14.0239 90.9329 15.0479C90.9329 16.0292 91.1142 16.7066 91.4769 17.0799ZM93.1729 10.7599C94.6236 10.7599 95.6956 11.0799 96.3889 11.7199C97.0929 12.3599 97.4449 13.4692 97.4449 15.0479C97.4449 16.5839 97.0929 17.6666 96.3889 18.2959C95.6956 18.9252 94.6236 19.2399 93.1729 19.2399C91.7329 19.2399 90.6609 18.9252 89.9569 18.2959C89.2636 17.6666 88.9169 16.5839 88.9169 15.0479C88.9169 13.4692 89.2636 12.3599 89.9569 11.7199C90.6609 11.0799 91.7329 10.7599 93.1729 10.7599Z" fill="white"/>
<path d="M100.24 13.6239V10.9999H107.088V17.3999H108.368V21.2719H106.464V18.9999H100.352V21.2719H98.4478V17.3999H99.3438C99.9411 16.9839 100.24 15.7252 100.24 13.6239ZM102.032 13.8159C102.032 15.4479 101.813 16.6426 101.376 17.3999H105.072V12.5999H102.032V13.8159Z" fill="white"/>
<path d="M113.775 19.2399C112.303 19.2399 111.215 18.9039 110.511 18.2319C109.807 17.5492 109.455 16.3759 109.455 14.7119C109.455 14.1679 109.455 13.7412 109.455 13.4319C109.466 13.1226 109.492 12.7332 109.535 12.2639C109.588 11.7946 109.658 11.4212 109.743 11.1439C109.828 10.8666 109.956 10.5572 110.127 10.2159C110.298 9.86389 110.5 9.58123 110.735 9.36789C110.98 9.14389 111.284 8.93589 111.647 8.74389C112.02 8.54123 112.447 8.38123 112.927 8.2639C115.135 7.69856 116.42 7.34123 116.783 7.19189L117.295 8.90389C116.751 9.12789 115.567 9.46389 113.743 9.91189C113.252 10.0292 112.847 10.2052 112.527 10.4399C112.207 10.6639 111.978 10.9466 111.839 11.2879C111.7 11.6186 111.61 11.9066 111.567 12.1519C111.524 12.3972 111.498 12.7172 111.487 13.1119H111.695C112.143 12.0239 113.087 11.4799 114.527 11.4799C116.82 11.4799 117.967 12.7172 117.967 15.1919C117.967 16.6639 117.62 17.7092 116.927 18.3279C116.244 18.9359 115.194 19.2399 113.775 19.2399ZM113.775 17.6399C114.522 17.6399 115.071 17.4639 115.423 17.1119C115.786 16.7492 115.967 16.1039 115.967 15.1759C115.967 14.3119 115.791 13.7199 115.439 13.3999C115.087 13.0692 114.527 12.9039 113.759 12.9039C113.012 12.9039 112.442 13.0692 112.047 13.3999C111.652 13.7306 111.455 14.3226 111.455 15.1759C111.455 16.1039 111.642 16.7492 112.015 17.1119C112.399 17.4639 112.986 17.6399 113.775 17.6399Z" fill="white"/>
<path d="M127.43 18.9999H125.462V14.0399L121.19 18.9999H119.83V10.9999H121.798V16.0399L126.022 10.9999H127.43V18.9999Z" fill="white"/>
<path d="M134.442 19.2399C133.023 19.2399 132.111 18.6639 131.706 17.5119H131.498V21.8799H129.482V10.9999H131.498V12.4879H131.706C132.111 11.3359 133.023 10.7599 134.442 10.7599C135.605 10.7599 136.463 11.0692 137.018 11.6879C137.573 12.3066 137.85 13.4159 137.85 15.0159C137.85 16.6052 137.573 17.7092 137.018 18.3279C136.463 18.9359 135.605 19.2399 134.442 19.2399ZM133.562 12.3599C132.229 12.3599 131.541 12.9146 131.498 14.0239V15.8799C131.498 17.0532 132.186 17.6399 133.562 17.6399C134.447 17.6399 135.05 17.4746 135.37 17.1439C135.69 16.8132 135.85 16.1039 135.85 15.0159C135.85 13.9279 135.685 13.2132 135.354 12.8719C135.034 12.5306 134.437 12.3599 133.562 12.3599Z" fill="white"/>
<path d="M142.288 19.2399C141.403 19.2399 140.704 19.0266 140.192 18.5999C139.68 18.1732 139.424 17.5439 139.424 16.7119C139.424 15.9972 139.669 15.4106 140.16 14.9519C140.651 14.4932 141.472 14.2639 142.624 14.2639C143.275 14.2639 144.187 14.2959 145.36 14.3599V13.7199C145.36 13.2399 145.216 12.8932 144.928 12.6799C144.651 12.4666 144.187 12.3599 143.536 12.3599C142.939 12.3599 142.496 12.4506 142.208 12.6319C141.92 12.8132 141.739 13.1546 141.664 13.6559H139.68C139.776 12.5892 140.133 11.8426 140.752 11.4159C141.381 10.9786 142.32 10.7599 143.568 10.7599C146.107 10.7599 147.376 11.7412 147.376 13.7039V18.9999H145.36V17.5759H145.152C144.96 18.1199 144.608 18.5359 144.096 18.8239C143.595 19.1012 142.992 19.2399 142.288 19.2399ZM143.168 17.7039C144.629 17.7039 145.36 17.1492 145.36 16.0399V15.5279C144.688 15.4852 144.043 15.4639 143.424 15.4639C142.645 15.4639 142.128 15.5652 141.872 15.7679C141.616 15.9599 141.488 16.2319 141.488 16.5839C141.488 16.9892 141.621 17.2772 141.888 17.4479C142.165 17.6186 142.592 17.7039 143.168 17.7039Z" fill="white"/>
<path d="M157.46 14.4239V15.4479H151.204V15.4639C151.214 16.2746 151.406 16.8399 151.78 17.1599C152.153 17.4799 152.708 17.6399 153.444 17.6399C154.66 17.6399 155.326 17.2132 155.444 16.3599H157.46C157.353 17.4052 156.964 18.1466 156.292 18.5839C155.63 19.0212 154.676 19.2399 153.428 19.2399C151.988 19.2399 150.921 18.9252 150.228 18.2959C149.534 17.6666 149.188 16.5839 149.188 15.0479C149.188 13.4692 149.529 12.3599 150.212 11.7199C150.905 11.0799 151.972 10.7599 153.412 10.7599C156.11 10.7599 157.46 11.9812 157.46 14.4239ZM151.204 14.3919V14.4559H155.428C155.428 13.6879 155.252 13.1492 154.9 12.8399C154.558 12.5199 154.057 12.3599 153.396 12.3599C152.724 12.3599 152.201 12.5092 151.828 12.8079C151.454 13.0959 151.246 13.6239 151.204 14.3919Z" fill="white"/>
<path d="M163.889 16.9199L161.265 14.1359V18.9999H159.297V10.9999H160.753L163.905 14.5359L167.057 10.9999H168.513V18.9999H166.545V14.1359L163.889 16.9199Z" fill="white"/>
<path d="M182.404 18.9999H180.436V14.0399L176.164 18.9999H174.804V10.9999H176.772V16.0399L180.996 10.9999H182.404V18.9999Z" fill="white"/>
<path d="M188.701 18.9999V10.9999H196.493V18.9999H194.477V12.5999H190.717V18.9999H188.701Z" fill="white"/>
<path d="M203.501 19.2399C202.082 19.2399 201.17 18.6639 200.765 17.5119H200.557V21.8799H198.541V10.9999H200.557V12.4879H200.765C201.17 11.3359 202.082 10.7599 203.501 10.7599C204.663 10.7599 205.522 11.0692 206.077 11.6879C206.631 12.3066 206.909 13.4159 206.909 15.0159C206.909 16.6052 206.631 17.7092 206.077 18.3279C205.522 18.9359 204.663 19.2399 203.501 19.2399ZM202.621 12.3599C201.287 12.3599 200.599 12.9146 200.557 14.0239V15.8799C200.557 17.0532 201.245 17.6399 202.621 17.6399C203.506 17.6399 204.109 17.4746 204.429 17.1439C204.749 16.8132 204.909 16.1039 204.909 15.0159C204.909 13.9279 204.743 13.2132 204.413 12.8719C204.093 12.5306 203.495 12.3599 202.621 12.3599Z" fill="white"/>
<path d="M211.139 17.0799C211.501 17.4532 212.067 17.6399 212.835 17.6399C213.603 17.6399 214.168 17.4532 214.531 17.0799C214.904 16.7066 215.091 16.0292 215.091 15.0479C215.091 14.0346 214.904 13.3359 214.531 12.9519C214.168 12.5572 213.603 12.3599 212.835 12.3599C212.067 12.3599 211.501 12.5519 211.139 12.9359C210.776 13.3199 210.595 14.0239 210.595 15.0479C210.595 16.0292 210.776 16.7066 211.139 17.0799ZM212.835 10.7599C214.285 10.7599 215.357 11.0799 216.051 11.7199C216.755 12.3599 217.107 13.4692 217.107 15.0479C217.107 16.5839 216.755 17.6666 216.051 18.2959C215.357 18.9252 214.285 19.2399 212.835 19.2399C211.395 19.2399 210.323 18.9252 209.619 18.2959C208.925 17.6666 208.579 16.5839 208.579 15.0479C208.579 13.4692 208.925 12.3599 209.619 11.7199C210.323 11.0799 211.395 10.7599 212.835 10.7599Z" fill="white"/>
<path d="M219.902 13.6239V10.9999H226.75V17.3999H228.03V21.2719H226.126V18.9999H220.014V21.2719H218.11V17.3999H219.006C219.603 16.9839 219.902 15.7252 219.902 13.6239ZM221.694 13.8159C221.694 15.4479 221.475 16.6426 221.038 17.3999H224.734V12.5999H221.694V13.8159Z" fill="white"/>
<path d="M232.041 19.2399C231.156 19.2399 230.457 19.0266 229.945 18.5999C229.433 18.1732 229.177 17.5439 229.177 16.7119C229.177 15.9972 229.422 15.4106 229.913 14.9519C230.404 14.4932 231.225 14.2639 232.377 14.2639C233.028 14.2639 233.94 14.2959 235.113 14.3599V13.7199C235.113 13.2399 234.969 12.8932 234.681 12.6799C234.404 12.4666 233.94 12.3599 233.289 12.3599C232.692 12.3599 232.249 12.4506 231.961 12.6319C231.673 12.8132 231.492 13.1546 231.417 13.6559H229.433C229.529 12.5892 229.886 11.8426 230.505 11.4159C231.134 10.9786 232.073 10.7599 233.321 10.7599C235.86 10.7599 237.129 11.7412 237.129 13.7039V18.9999H235.113V17.5759H234.905C234.713 18.1199 234.361 18.5359 233.849 18.8239C233.348 19.1012 232.745 19.2399 232.041 19.2399ZM232.921 17.7039C234.382 17.7039 235.113 17.1492 235.113 16.0399V15.5279C234.441 15.4852 233.796 15.4639 233.177 15.4639C232.398 15.4639 231.881 15.5652 231.625 15.7679C231.369 15.9599 231.241 16.2319 231.241 16.5839C231.241 16.9892 231.374 17.2772 231.641 17.4479C231.918 17.6186 232.345 17.7039 232.921 17.7039Z" fill="white"/>
<path d="M247.213 14.4239V15.4479H240.957V15.4639C240.967 16.2746 241.159 16.8399 241.533 17.1599C241.906 17.4799 242.461 17.6399 243.197 17.6399C244.413 17.6399 245.079 17.2132 245.197 16.3599H247.213C247.106 17.4052 246.717 18.1466 246.045 18.5839C245.383 19.0212 244.429 19.2399 243.181 19.2399C241.741 19.2399 240.674 18.9252 239.981 18.2959C239.287 17.6666 238.941 16.5839 238.941 15.0479C238.941 13.4692 239.282 12.3599 239.965 11.7199C240.658 11.0799 241.725 10.7599 243.165 10.7599C245.863 10.7599 247.213 11.9812 247.213 14.4239ZM240.957 14.3919V14.4559H245.181C245.181 13.6879 245.005 13.1492 244.653 12.8399C244.311 12.5199 243.81 12.3599 243.149 12.3599C242.477 12.3599 241.954 12.5092 241.581 12.8079C241.207 13.0959 240.999 13.6239 240.957 14.3919ZM242.285 9.68789H240.493V8.00789H242.285V9.68789ZM245.789 9.68789H243.997V8.00789H245.789V9.68789Z" fill="white"/>
<path d="M253.642 16.9199L251.018 14.1359V18.9999H249.05V10.9999H250.506L253.658 14.5359L256.81 10.9999H258.266V18.9999H256.298V14.1359L253.642 16.9199Z" fill="white"/>
<path d="M78.8012 31.9999V35.0719H82.5612V31.9999H84.5772V39.9999H82.5612V36.6719H78.8012V39.9999H76.7852V31.9999H78.8012Z" fill="white"/>
<path d="M89.2005 40.2399C88.3152 40.2399 87.6165 40.0266 87.1045 39.5999C86.5925 39.1732 86.3365 38.5439 86.3365 37.7119C86.3365 36.9972 86.5819 36.4106 87.0725 35.9519C87.5632 35.4932 88.3845 35.2639 89.5365 35.2639C90.1872 35.2639 91.0992 35.2959 92.2725 35.3599V34.7199C92.2725 34.2399 92.1285 33.8932 91.8405 33.6799C91.5632 33.4666 91.0992 33.3599 90.4485 33.3599C89.8512 33.3599 89.4085 33.4506 89.1205 33.6319C88.8325 33.8132 88.6512 34.1546 88.5765 34.6559H86.5925C86.6885 33.5892 87.0459 32.8426 87.6645 32.4159C88.2939 31.9786 89.2325 31.7599 90.4805 31.7599C93.0192 31.7599 94.2885 32.7412 94.2885 34.7039V39.9999H92.2725V38.5759H92.0645C91.8725 39.1199 91.5205 39.5359 91.0085 39.8239C90.5072 40.1012 89.9045 40.2399 89.2005 40.2399ZM90.0805 38.7039C91.5419 38.7039 92.2725 38.1492 92.2725 37.0399V36.5279C91.6005 36.4852 90.9552 36.4639 90.3365 36.4639C89.5579 36.4639 89.0405 36.5652 88.7845 36.7679C88.5285 36.9599 88.4005 37.2319 88.4005 37.5839C88.4005 37.9892 88.5339 38.2772 88.8005 38.4479C89.0779 38.6186 89.5045 38.7039 90.0805 38.7039Z" fill="white"/>
<path d="M97.396 34.6239V31.9999H104.244V38.3999H105.524V42.2719H103.62V39.9999H97.508V42.2719H95.604V38.3999H96.5C97.0974 37.9839 97.396 36.7252 97.396 34.6239ZM99.188 34.8159C99.188 36.4479 98.9694 37.6426 98.532 38.3999H102.228V33.5999H99.188V34.8159Z" fill="white"/>
<path d="M114.883 35.4239V36.4479H108.627V36.4639C108.638 37.2746 108.83 37.8399 109.203 38.1599C109.577 38.4799 110.131 38.6399 110.867 38.6399C112.083 38.6399 112.75 38.2132 112.867 37.3599H114.883C114.777 38.4052 114.387 39.1466 113.715 39.5839C113.054 40.0212 112.099 40.2399 110.851 40.2399C109.411 40.2399 108.345 39.9252 107.651 39.2959C106.958 38.6666 106.611 37.5839 106.611 36.0479C106.611 34.4692 106.953 33.3599 107.635 32.7199C108.329 32.0799 109.395 31.7599 110.835 31.7599C113.534 31.7599 114.883 32.9812 114.883 35.4239ZM108.627 35.3919V35.4559H112.851C112.851 34.6879 112.675 34.1492 112.323 33.8399C111.982 33.5199 111.481 33.3599 110.819 33.3599C110.147 33.3599 109.625 33.5092 109.251 33.8079C108.878 34.0959 108.67 34.6239 108.627 35.3919Z" fill="white"/>
<path d="M118.12 31.9999L120.84 36.0319V31.9999H122.808V36.0159L125.528 31.9999H127.736L125.064 35.6959L128.008 39.9999H125.736L123.624 36.6399H122.808V39.9999H120.84V36.6399H119.992L117.896 39.9999H115.64L118.584 35.6959L115.912 31.9999H118.12Z" fill="white"/>
<path d="M131.311 31.9999V35.0719H135.071V31.9999H137.087V39.9999H135.071V36.6719H131.311V39.9999H129.295V31.9999H131.311Z" fill="white"/>
<path d="M140.638 42.8799L142.174 39.6479L138.35 31.9999H140.654L143.134 37.5679L145.342 31.9999H147.598L142.766 42.8799H140.638Z" fill="white"/>
<path d="M156.272 40.2399C154.981 40.2399 153.995 39.9786 153.312 39.4559C152.629 38.9226 152.24 38.0212 152.144 36.7519H150.88V39.9999H148.864V31.9999H150.88V35.1519H152.16C152.288 33.9146 152.688 33.0399 153.36 32.5279C154.032 32.0159 155.003 31.7599 156.272 31.7599C157.691 31.7599 158.736 32.0799 159.408 32.7199C160.091 33.3599 160.432 34.4692 160.432 36.0479C160.432 37.5839 160.091 38.6666 159.408 39.2959C158.725 39.9252 157.68 40.2399 156.272 40.2399ZM156.272 33.3599C155.536 33.3599 154.992 33.5519 154.64 33.9359C154.299 34.3199 154.128 35.0239 154.128 36.0479C154.128 37.0292 154.299 37.7066 154.64 38.0799C154.992 38.4532 155.536 38.6399 156.272 38.6399C157.008 38.6399 157.552 38.4532 157.904 38.0799C158.256 37.7066 158.432 37.0292 158.432 36.0479C158.432 35.0346 158.251 34.3359 157.888 33.9519C157.536 33.5572 156.997 33.3599 156.272 33.3599Z" fill="white"/>
<path d="M165.684 31.9999H173.188V33.5999H170.452V39.9999H168.42V33.5999H165.684V31.9999Z" fill="white"/>
<path d="M182.478 35.4239V36.4479H176.222V36.4639C176.232 37.2746 176.424 37.8399 176.798 38.1599C177.171 38.4799 177.726 38.6399 178.462 38.6399C179.678 38.6399 180.344 38.2132 180.462 37.3599H182.478C182.371 38.4052 181.982 39.1466 181.31 39.5839C180.648 40.0212 179.694 40.2399 178.446 40.2399C177.006 40.2399 175.939 39.9252 175.246 39.2959C174.552 38.6666 174.206 37.5839 174.206 36.0479C174.206 34.4692 174.547 33.3599 175.23 32.7199C175.923 32.0799 176.99 31.7599 178.43 31.7599C181.128 31.7599 182.478 32.9812 182.478 35.4239ZM176.222 35.3919V35.4559H180.446C180.446 34.6879 180.27 34.1492 179.918 33.8399C179.576 33.5199 179.075 33.3599 178.414 33.3599C177.742 33.3599 177.219 33.5092 176.846 33.8079C176.472 34.0959 176.264 34.6239 176.222 35.3919Z" fill="white"/>
<path d="M189.491 39.9999L187.555 37.0719L185.603 39.9999H183.235L186.243 35.9679L183.363 31.9999H185.731L187.603 34.8639L189.395 31.9999H191.779L188.899 35.9679L191.907 39.9999H189.491Z" fill="white"/>
<path d="M195.202 31.9999V35.0719H198.962V31.9999H200.978V39.9999H198.962V36.6719H195.202V39.9999H193.186V31.9999H195.202Z" fill="white"/>
<path d="M210.625 39.9999H208.657V35.0399L204.385 39.9999H203.025V31.9999H204.993V37.0399L209.217 31.9999H210.625V39.9999Z" fill="white"/>
<path d="M220.421 31.9999L217.269 35.6639L220.613 39.9999H218.229L215.733 36.5919H214.693V39.9999H212.677V31.9999H214.693V36.0639L218.037 31.9999H220.421Z" fill="white"/>
<path d="M223.536 42.8799L225.072 39.6479L221.248 31.9999H223.552L226.032 37.5679L228.24 31.9999H230.496L225.664 42.8799H223.536Z" fill="white"/>
<path opacity="0.3" d="M39.4316 43.0055H63.3978V49.7569H30.918V1.09375H39.4316V43.0055Z" fill="white"/>
<path d="M28.0984 36.7981C28.0984 34.6591 27.3357 33.0102 25.8102 31.8516C24.3071 30.693 21.5814 29.5232 17.633 28.3422C13.6847 27.1613 10.5439 25.8467 8.2108 24.3984C3.74646 21.6132 1.51429 17.9813 1.51429 13.5027C1.51429 9.5811 3.11831 6.35027 6.32636 3.81016C9.55684 1.27005 13.7408 0 18.8781 0C22.2881 0 25.3279 0.623886 27.9975 1.87166C30.6671 3.11943 32.7647 4.90196 34.2902 7.21925C35.8157 9.51426 36.5785 12.0655 36.5785 14.873H28.0984C28.0984 12.3329 27.2908 10.3498 25.6756 8.9238C24.0828 7.47549 21.7945 6.75134 18.8108 6.75134C16.029 6.75134 13.8641 7.3418 12.3162 8.52273C10.7907 9.70365 10.0279 11.3525 10.0279 13.4693C10.0279 15.2518 10.858 16.7447 12.5181 17.9479C14.1782 19.1288 16.9152 20.2874 20.7289 21.4238C24.5427 22.5379 27.6049 23.8191 29.9156 25.2674C32.2263 26.6934 33.92 28.3422 34.9969 30.2139C36.0737 32.0633 36.6121 34.2357 36.6121 36.7313C36.6121 40.7865 35.0417 44.0174 31.901 46.4238C28.7827 48.8079 24.5427 50 19.181 50C15.6364 50 12.3723 49.3538 9.38858 48.0615C6.42731 46.7469 4.11662 44.9421 2.45651 42.6471C0.818837 40.352 0 37.6783 0 34.6257H8.51366C8.51366 37.3886 9.43345 39.5276 11.273 41.0428C13.1126 42.5579 15.7486 43.3155 19.181 43.3155C22.1423 43.3155 24.3632 42.725 25.8438 41.5441C27.3469 40.3409 28.0984 38.7589 28.0984 36.7981Z" fill="white"/>
</svg>
