<svg id="Layer_1" data-name="Layer 1" xmlns="http://www.w3.org/2000/svg" xmlns:xlink="http://www.w3.org/1999/xlink" viewBox="0 0 15 15"><defs><style>.cls-1{fill:none;}.cls-2{clip-path:url(#clip-path);}</style><clipPath id="clip-path"><rect class="cls-1" width="15" height="15"/></clipPath></defs><g class="cls-2"><path d="M10.62,3.13A1.87,1.87,0,0,0,8.87,4.38H.63a.67.67,0,0,0-.24,0,.48.48,0,0,0-.2.14.66.66,0,0,0-.14.2A.69.69,0,0,0,0,5a.6.6,0,0,0,.05.24.6.6,0,0,0,.14.21.46.46,0,0,0,.2.13.69.69,0,0,0,.24,0H8.87a1.86,1.86,0,0,0,3.51,0h2a.69.69,0,0,0,.24,0,.46.46,0,0,0,.2-.13A.6.6,0,0,0,15,5.24.6.6,0,0,0,15,5,.69.69,0,0,0,15,4.76a.66.66,0,0,0-.14-.2.48.48,0,0,0-.2-.14.67.67,0,0,0-.24,0h-2A1.89,1.89,0,0,0,10.62,3.13Zm0,1.25a.61.61,0,0,1,.62.59V5A.62.62,0,0,1,10,5,.08.08,0,0,0,10,5,.61.61,0,0,1,10.62,4.38Zm-5,3.74A1.89,1.89,0,0,0,3.87,9.37H.63a.69.69,0,0,0-.24.05.46.46,0,0,0-.2.13.6.6,0,0,0-.14.21A.6.6,0,0,0,0,10a.69.69,0,0,0,.05.24.66.66,0,0,0,.14.2.48.48,0,0,0,.2.14.67.67,0,0,0,.24,0H3.87a1.86,1.86,0,0,0,3.51,0h7a.67.67,0,0,0,.24,0,.48.48,0,0,0,.2-.14.66.66,0,0,0,.14-.2A.69.69,0,0,0,15,10,.6.6,0,0,0,15,9.76a.6.6,0,0,0-.14-.21.46.46,0,0,0-.2-.13.69.69,0,0,0-.24-.05h-7A1.88,1.88,0,0,0,5.63,8.12Zm0,1.25a.6.6,0,0,1,.61.59V10a.6.6,0,0,1-.61.59A.61.61,0,0,1,5,10V10A.62.62,0,0,1,5.63,9.37Z"/></g></svg>