<svg id="Layer_1" data-name="Layer 1" xmlns="http://www.w3.org/2000/svg" viewBox="0 0 15 15"><path d="M5,1.5a.45.45,0,0,0-.34.15l-2,2a.48.48,0,0,0-.12.16.65.65,0,0,0,0,.19.48.48,0,0,0,0,.2.42.42,0,0,0,.11.16.57.57,0,0,0,.16.11.45.45,0,0,0,.2,0,.65.65,0,0,0,.19,0,.48.48,0,0,0,.16-.12l2-2a.45.45,0,0,0,.14-.26.49.49,0,0,0,0-.29.47.47,0,0,0-.19-.23A.45.45,0,0,0,5,1.5Zm2.92,0a1,1,0,0,0-.7.29L2.79,6.21a1,1,0,0,0-.29.7V12.5a1,1,0,0,0,1,1h8a1,1,0,0,0,1-1v-9a2,2,0,0,0-2-2ZM8.5,3h2a.5.5,0,0,1,0,1h-2a.5.5,0,0,1,0-1Zm-1,3.5S9,8.67,9,9.5a1.5,1.5,0,0,1-3,0C6,8.67,7.5,6.5,7.5,6.5Z"/></svg>