<svg id="Layer_1" data-name="Layer 1" xmlns="http://www.w3.org/2000/svg" viewBox="0 0 17 17">
    <defs>
        <style>
            .cls-1 {
                fill: currentColor;
            }

            .cls-1,
            .cls-2 {
                fill-rule: evenodd;
            }
        </style>
    </defs>
    <path class="cls-1"
        d="M7.53,2.57a4.42,4.42,0,0,1,1,.91,4.42,4.42,0,0,1,1-.91,4.23,4.23,0,0,1,5.85,1.3A4.33,4.33,0,0,1,16,6.22c0,3.77-3.31,6-5.72,7.6h0a16.82,16.82,0,0,0-1.55,1.11l-.21.16-.21-.16a16.82,16.82,0,0,0-1.55-1.11h0C4.33,12.16,1,9.94,1,6.22A4.24,4.24,0,0,1,7.53,2.57Z" />
    <path class="cls-2"
        d="M7.44,2A4.79,4.79,0,0,1,8.5,3,4.79,4.79,0,0,1,9.56,2a4.65,4.65,0,0,1,7.15,4c0,4.14-3.63,6.57-6.28,8.34h0a18.75,18.75,0,0,0-1.7,1.22l-.23.18-.23-.18a18.75,18.75,0,0,0-1.7-1.22h0C3.92,12.52.29,10.09.29,6A4.65,4.65,0,0,1,4.86,1.27,4.71,4.71,0,0,1,7.44,2ZM8.5,13.9l-1.12-.77h0A21.31,21.31,0,0,1,3.5,10.06,6,6,0,0,1,1.7,6,3.24,3.24,0,0,1,4.88,2.72h0A3.22,3.22,0,0,1,7.41,3.89L8.5,5.2,9.59,3.89A3.22,3.22,0,0,1,15.3,6V6a6,6,0,0,1-1.78,4.1,21.31,21.31,0,0,1-3.88,3.07h0Z" />
</svg>