<svg id="Layer_1" data-name="Layer 1" xmlns="http://www.w3.org/2000/svg" viewBox="0 0 25 25"><path d="M12.51,2.08A10.43,10.43,0,0,1,22.92,12.5a10.31,10.31,0,0,1-1.18,4.72l1.13,4a1.33,1.33,0,0,1-1.6,1.61l-4.05-1.13a10.27,10.27,0,0,1-4.71,1.18,10.42,10.42,0,0,1,0-20.84Zm0,1.56a8.86,8.86,0,1,0,4.3,16.6.76.76,0,0,1,.59-.07l3.84,1.07-1.07-3.85a.77.77,0,0,1,.07-.59A8.85,8.85,0,0,0,12.51,3.64Z"/><path d="M11.63,16.86V11.63a.87.87,0,0,1,1.74,0v5.23a.87.87,0,1,1-1.74,0Z"/><path d="M12.5,7.27a.87.87,0,1,1-.87.87A.87.87,0,0,1,12.5,7.27Z"/></svg>