<svg width="25" height="25" viewBox="0 0 25 25" fill="none" xmlns="http://www.w3.org/2000/svg">
<path d="M20.8031 4.54047C20.9395 4.31666 20.6834 4.06054 20.4595 4.1969L14.4134 7.88061L12.7429 1.00058C12.6811 0.745899 12.3189 0.745899 12.2571 1.00058L10.5866 7.88061L4.54047 4.1969C4.31666 4.06054 4.06054 4.31666 4.1969 4.54047L7.88061 10.5866L1.00058 12.2571C0.745899 12.3189 0.745899 12.6811 1.00058 12.7429L7.88061 14.4134L4.1969 20.4595C4.06054 20.6834 4.31666 20.9395 4.54047 20.8031L10.5866 17.1194L12.2571 23.9994C12.3189 24.2541 12.6811 24.2541 12.7429 23.9994L14.4134 17.1194L20.4595 20.8031C20.6834 20.9395 20.9395 20.6834 20.8031 20.4595L17.1194 14.4134L23.9994 12.7429C24.2541 12.6811 24.2541 12.3189 23.9994 12.2571L17.1194 10.5866L20.8031 4.54047Z" fill="#148EFF"/>
</svg>
