<svg id="Layer_1" data-name="Layer 1" xmlns="http://www.w3.org/2000/svg" viewBox="0 0 15 15"><path d="M7.51,0A7.5,7.5,0,0,0,0,7.49a7.4,7.4,0,0,0,1,3.74L0,15l3.92-.93A7.48,7.48,0,0,0,7.51,15h0a7.49,7.49,0,0,0,0-15Zm0,1.5a6,6,0,0,1,0,12,6.11,6.11,0,0,1-2.87-.72l-.5-.28-.56.13L2.1,13l.36-1.34.17-.6-.31-.54a5.9,5.9,0,0,1-.8-3A6,6,0,0,1,7.51,1.5ZM4.86,4a.68.68,0,0,0-.5.24A2.07,2.07,0,0,0,3.7,5.83a3.54,3.54,0,0,0,.77,1.93,7.6,7.6,0,0,0,3.19,2.83c1.59.62,1.91.5,2.25.47a1.93,1.93,0,0,0,1.26-.89,1.5,1.5,0,0,0,.11-.89c0-.08-.17-.13-.35-.22s-1.11-.55-1.28-.61-.3-.09-.42.09-.49.61-.6.74-.22.14-.4,0a5,5,0,0,1-1.51-.93,5.37,5.37,0,0,1-1-1.29c-.11-.19,0-.29.08-.38S6,6.5,6,6.39a1.13,1.13,0,0,0,.19-.31.34.34,0,0,0,0-.33c0-.1-.41-1-.57-1.39S5.35,4,5.22,4Z"/></svg>