<svg id="Layer_1" data-name="Layer 1" xmlns="http://www.w3.org/2000/svg" viewBox="0 0 30 30"><path d="M15,4A11,11,0,0,0,5.49,20.47L4,26l5.76-1.36A10.9,10.9,0,0,0,15,26h0A11,11,0,1,0,15,4Zm0,2.2a8.79,8.79,0,1,1-4.2,16.51l-.74-.41-.82.2L7.09,23l.52-2,.24-.89-.45-.79A8.77,8.77,0,0,1,15,6.2ZM11.12,9.91a1,1,0,0,0-.73.35,3,3,0,0,0-1,2.28,5.27,5.27,0,0,0,1.12,2.84,11.24,11.24,0,0,0,4.69,4.15c2.32.91,2.79.73,3.3.68a2.75,2.75,0,0,0,1.85-1.3,2.28,2.28,0,0,0,.16-1.31c-.07-.11-.25-.18-.53-.32s-1.62-.8-1.87-.89-.44-.14-.62.14-.71.89-.87,1.07-.32.21-.59.07a7.14,7.14,0,0,1-2.21-1.36,8.13,8.13,0,0,1-1.53-1.9c-.16-.27,0-.42.12-.56a5.11,5.11,0,0,0,.41-.48,1.83,1.83,0,0,0,.28-.46.5.5,0,0,0,0-.48c-.06-.14-.6-1.49-.84-2s-.43-.46-.62-.47Z"/></svg>