<?xml version="1.0" standalone="no"?>
<!DOCTYPE svg PUBLIC "-//W3C//DTD SVG 20010904//EN"
 "http://www.w3.org/TR/2001/REC-SVG-20010904/DTD/svg10.dtd">
<svg version="1.0" xmlns="http://www.w3.org/2000/svg"
 width="500.000000pt" height="500.000000pt" viewBox="0 0 500.000000 500.000000"
 preserveAspectRatio="xMidYMid meet">
<metadata>
Created by potrace 1.14, written by Peter Selinger 2001-2017
</metadata>
<g transform="translate(0.000000,500.000000) scale(0.100000,-0.100000)"
fill="#000000" stroke="none">
<path d="M1455 4185 c-145 -21 -165 -25 -275 -62 -124 -42 -179 -68 -285 -138
-256 -169 -388 -408 -388 -700 -1 -464 316 -767 1043 -995 478 -150 634 -234
716 -384 50 -92 63 -241 28 -342 -71 -210 -285 -316 -621 -308 -253 6 -436 73
-553 201 -86 94 -136 222 -139 353 l-1 35 -291 0 -291 0 6 -85 c33 -466 414
-826 986 -932 90 -17 156 -21 305 -22 167 -1 316 8 334 18 3 2 28 7 54 10 123
17 389 126 461 189 25 21 32 21 40 1 4 -9 9 -14 13 -10 7 7 43 -43 43 -59 -1
-5 -8 -1 -18 11 -10 11 -31 29 -47 39 -21 13 -17 7 14 -21 27 -25 44 -49 46
-67 2 -15 0 -27 -3 -27 -4 0 -20 -12 -36 -26 -21 -19 -26 -28 -17 -37 8 -8 14
-8 23 1 15 15 31 16 22 0 -4 -7 -3 -8 5 -4 6 4 9 11 6 16 -3 5 -1 11 5 15 5 3
8 16 6 28 -2 14 4 26 18 35 19 11 19 12 2 10 -10 -2 -21 3 -23 10 -3 8 1 10
14 5 17 -7 17 -6 1 11 -24 23 -23 44 0 23 10 -10 22 -17 27 -17 4 0 -2 8 -13
19 -12 10 -22 23 -22 30 0 6 -4 11 -10 11 -5 0 -7 -8 -4 -17 5 -15 3 -15 -11
2 -9 11 -21 19 -26 17 -21 -5 -7 32 22 59 21 20 29 23 25 12 -5 -16 -4 -16 7
0 26 39 56 71 62 65 4 -4 -3 -16 -14 -27 -12 -12 -17 -21 -13 -21 4 0 13 5 20
12 9 9 12 9 12 1 0 -7 -4 -14 -9 -17 -12 -8 -21 -46 -10 -46 5 0 9 9 9 19 0
31 17 33 39 5 12 -15 21 -23 21 -18 0 5 -11 22 -25 38 -38 45 -29 56 11 14 19
-21 39 -38 43 -38 10 0 41 34 41 45 0 4 -9 -2 -20 -15 -19 -22 -22 -23 -37 -7
-16 15 -15 18 5 40 12 13 22 27 22 31 0 4 -11 -4 -24 -18 -28 -32 -36 -33 -33
-5 1 12 -5 24 -13 26 -13 4 -13 3 0 -6 8 -5 11 -13 7 -17 -4 -4 -15 -1 -23 8
-15 15 -15 17 5 28 12 6 19 15 16 21 -4 5 1 12 9 15 9 3 16 13 16 20 0 11 5
12 18 6 9 -5 23 -7 30 -5 20 7 14 -8 -14 -33 -14 -13 -20 -24 -14 -24 19 0 50
44 44 63 -7 21 2 22 23 2 14 -14 13 -18 -7 -35 -13 -11 -19 -20 -15 -20 5 0
19 10 32 22 28 27 31 10 3 -20 -12 -12 -16 -22 -11 -22 5 0 18 14 28 30 9 16
21 30 26 30 4 0 5 -4 2 -10 -3 -5 -1 -10 5 -10 23 0 3 25 -20 26 -13 1 -37 16
-53 34 -21 23 -27 27 -23 13 4 -12 1 -25 -9 -33 -28 -23 -27 12 2 70 15 30 28
58 29 63 1 4 3 9 4 12 1 3 3 8 4 13 1 4 5 13 9 20 5 6 6 16 2 21 -3 5 -1 12 5
16 6 4 8 10 5 15 -3 5 3 14 13 19 21 11 42 -2 42 -26 0 -7 5 -13 10 -13 7 0 6
8 -2 23 -7 12 -11 27 -10 34 2 7 -8 17 -20 23 -21 10 -21 10 -5 -3 22 -18 22
-23 -3 -23 -14 0 -18 6 -15 21 2 11 4 30 4 43 1 13 5 21 10 18 5 -3 12 2 15
11 6 14 10 13 31 -7 14 -13 25 -19 25 -14 0 5 -11 18 -25 28 -13 10 -22 22
-19 27 3 5 0 9 -6 9 -6 0 -10 -7 -8 -16 2 -10 -2 -19 -8 -21 -12 -4 -12 26 0
46 5 7 4 16 -1 20 -10 7 -11 31 0 31 4 0 12 0 18 0 8 0 8 -5 -1 -15 -9 -10 -9
-15 -1 -15 10 0 13 7 10 26 0 4 5 11 13 16 9 6 6 7 -9 3 -28 -8 -37 8 -40 75
-4 80 -5 84 -16 98 -5 7 -7 15 -4 19 4 3 2 13 -3 22 -5 10 -5 23 0 31 7 11 11
10 24 -3 19 -19 21 -31 4 -24 -8 3 -14 -5 -14 -19 -2 -22 -2 -22 21 4 l22 26
-22 18 c-15 11 -30 15 -42 11 -16 -6 -17 -5 -3 13 8 10 16 21 17 23 2 2 12 -6
23 -19 11 -13 20 -19 20 -15 0 5 -7 17 -17 27 -22 24 -2 23 27 -2 30 -26 38
-26 15 0 -19 21 -7 28 13 8 9 -9 12 -9 12 -1 0 7 10 10 24 7 17 -3 28 3 40 21
9 13 22 23 29 21 6 -1 9 -1 4 1 -4 3 -5 9 -1 14 3 5 0 9 -5 9 -6 0 -11 -3 -11
-7 -1 -12 -40 -56 -45 -51 -3 2 6 19 20 38 25 33 24 56 -1 46 -7 -3 -27 6 -44
20 -16 14 -30 23 -30 19 0 -4 9 -16 21 -25 19 -17 19 -19 2 -24 -10 -3 -24
-15 -30 -25 -11 -17 -9 -21 9 -26 16 -6 27 1 49 26 37 44 47 32 12 -13 -35
-43 -66 -43 -105 1 -16 18 -32 30 -35 27 -3 -3 9 -19 28 -36 19 -16 28 -30 22
-30 -7 0 -22 9 -33 20 -11 11 -20 16 -20 12 0 -4 5 -13 12 -20 9 -9 9 -12 1
-12 -7 0 -15 4 -18 10 -3 6 -11 10 -18 10 -6 0 -3 -6 6 -12 12 -9 14 -17 7
-28 -5 -8 -10 -12 -11 -7 -4 18 -6 24 -26 62 -11 22 -18 46 -15 54 2 8 0 11
-5 8 -11 -7 -38 41 -34 62 1 7 -2 10 -7 7 -13 -8 -35 20 -27 34 3 5 1 10 -6
10 -19 0 -98 91 -92 107 3 7 9 10 14 7 5 -3 6 1 4 8 -3 8 17 35 46 62 40 37
48 50 38 57 -19 12 -29 11 -29 -2 0 -5 5 -7 10 -4 23 14 7 -9 -35 -53 -25 -25
-45 -42 -45 -36 0 15 37 66 46 64 5 0 10 7 11 17 3 17 2 17 -5 0 -4 -10 -11
-18 -15 -18 -21 2 -28 0 -22 -8 3 -5 1 -12 -4 -15 -5 -4 -11 -1 -14 6 -2 7 -2
2 0 -12 l5 -25 -24 23 c-36 33 -42 27 -8 -8 34 -34 41 -63 10 -35 -18 17 -20
17 -14 2 8 -23 -11 -22 -28 1 -7 10 -21 21 -32 25 -11 4 -16 13 -12 22 3 8 2
15 -3 15 -4 0 -8 7 -8 15 0 25 13 17 31 -17 8 -18 16 -26 16 -17 0 9 -10 27
-22 41 -13 14 -24 30 -26 37 -4 21 13 11 33 -19 11 -16 24 -30 28 -30 5 0 6 4
2 9 -3 5 3 12 12 15 13 3 12 4 -4 3 -20 -2 -65 37 -71 62 -4 21 13 11 33 -19
11 -16 24 -30 28 -30 4 0 -5 16 -20 35 -15 19 -31 35 -34 35 -3 0 -6 7 -6 15
0 22 10 18 27 -9 8 -13 32 -42 52 -65 37 -40 58 -51 58 -31 0 6 -4 9 -8 8 -12
-4 -86 71 -78 79 4 4 18 -5 32 -21 27 -28 45 -30 52 -5 3 11 2 11 -7 -1 -9
-13 -13 -13 -28 3 -17 18 -17 19 12 45 18 15 22 23 12 19 -14 -5 -28 2 -53 27
-19 19 -34 32 -34 30 0 -11 -36 33 -36 44 -1 17 6 15 21 -5 12 -15 15 -14 38
13 15 16 26 38 26 49 0 15 -3 12 -13 -10 -19 -44 -38 -56 -56 -35 -8 9 -16 22
-18 28 -3 17 15 15 22 -3 8 -22 21 -18 34 10 7 15 8 25 2 25 -6 0 -12 0 -15 0
-10 0 -41 35 -41 48 -1 17 13 15 20 -4 3 -8 10 -13 15 -10 5 3 11 -1 15 -9 3
-8 13 -15 23 -14 14 0 15 2 3 6 -8 3 -19 12 -23 20 -5 7 -11 12 -15 10 -8 -5
-36 25 -39 41 -4 18 3 15 33 -13 31 -29 53 -34 27 -7 -10 11 -20 18 -23 17 -7
-3 -34 29 -37 43 -5 21 7 13 53 -33 24 -25 44 -42 44 -38 1 5 8 -3 16 -17 8
-14 13 -18 10 -9 -3 10 7 25 27 39 18 13 36 30 40 37 5 7 12 11 18 8 5 -4 9
-1 9 4 0 20 -17 12 -53 -24 -19 -19 -40 -35 -47 -35 -7 0 -27 15 -46 34 -19
19 -34 32 -34 30 0 -11 -36 33 -36 44 -1 17 5 15 27 -10 l20 -23 -17 28 c-9
15 -20 27 -23 27 -4 0 -8 7 -8 15 0 23 10 18 32 -15 11 -16 24 -30 28 -30 4 0
-5 16 -20 35 -15 19 -31 35 -34 35 -3 0 -6 7 -6 15 0 24 10 17 39 -25 15 -22
33 -40 39 -40 7 0 2 9 -11 20 -13 11 -20 23 -16 28 4 4 21 -8 37 -26 16 -17
34 -32 39 -32 6 0 -6 16 -27 35 -20 19 -34 37 -31 41 4 3 14 -1 23 -9 16 -17
45 -13 45 5 0 7 -5 6 -14 -1 -10 -9 -16 -8 -26 4 -10 13 -10 19 4 33 9 10 13
22 9 25 -3 4 -1 7 5 7 7 0 12 5 12 10 0 6 -8 5 -20 -2 -11 -7 -16 -14 -10 -16
5 -2 -5 -19 -22 -38 l-31 -34 -21 23 c-21 21 -30 47 -16 47 4 0 13 -11 20 -25
l13 -24 18 21 c10 11 16 24 14 29 -3 4 4 14 15 22 11 7 17 17 13 20 -3 4 1 7
9 7 32 0 48 -43 23 -63 -6 -5 -1 -6 10 -2 31 11 85 13 85 3 0 -4 5 -8 11 -8 5
0 7 5 4 10 -15 25 12 7 30 -20 11 -16 24 -30 28 -30 5 0 6 4 2 9 -3 5 0 11 7
14 7 2 5 3 -5 1 -10 -1 -25 8 -33 22 -11 17 -23 23 -39 20 -16 -3 -26 2 -34
17 -7 12 -29 34 -50 49 -31 22 -40 25 -44 13 -4 -9 -1 -12 8 -8 16 6 92 -63
81 -74 -3 -3 -19 8 -36 25 -17 18 -36 32 -42 32 -15 0 -59 -50 -53 -60 3 -4
-1 -12 -8 -18 -9 -8 -18 -4 -32 13 -21 24 -30 45 -19 45 4 0 12 -8 19 -17 12
-15 15 -14 39 13 15 17 25 38 23 50 -3 17 2 20 25 20 15 0 28 -3 28 -8 0 -4 5
-8 11 -8 5 0 8 4 5 8 -3 5 2 9 10 9 9 0 13 -6 9 -15 -3 -8 3 -21 12 -28 22
-16 33 -17 33 -3 0 5 -4 8 -9 5 -5 -3 -15 2 -22 11 -12 14 -11 15 11 8 23 -6
24 -6 7 7 -17 13 -15 14 22 14 29 0 42 -4 46 -16 3 -9 40 -51 82 -93 42 -43
72 -77 66 -77 -5 0 -20 9 -33 20 -13 11 -25 20 -28 20 -3 0 3 -9 13 -20 19
-21 7 -28 -13 -8 -9 9 -12 9 -12 1 0 -7 8 -14 19 -18 10 -3 26 -14 36 -25 10
-11 23 -20 29 -20 6 0 -2 11 -19 25 -32 26 -22 35 11 10 23 -17 34 -19 34 -4
0 5 -4 8 -9 4 -5 -3 -12 -1 -16 5 -3 5 -1 10 4 10 6 0 11 5 11 12 0 6 -3 9 -6
5 -4 -3 -13 1 -21 9 -9 8 -13 18 -9 21 3 4 12 1 18 -5 9 -9 17 -4 35 20 26 36
27 38 13 38 -5 0 -10 -5 -10 -11 0 -11 -25 -39 -35 -39 -3 0 -3 9 0 20 4 12 2
20 -5 20 -6 0 -9 -4 -6 -9 3 -5 -1 -15 -10 -22 -13 -10 -21 -7 -51 24 -31 30
-35 38 -23 52 10 12 16 13 26 4 10 -8 14 -8 14 0 0 11 -13 15 -37 12 -7 -1
-13 3 -13 9 0 5 5 10 12 10 6 0 9 2 6 5 -3 3 -13 3 -22 -1 -13 -5 -14 -9 -5
-20 17 -20 3 -30 -15 -11 -8 8 -12 17 -9 21 4 3 1 6 -5 6 -22 0 -12 16 11 17
70 1 77 3 74 21 -2 20 15 30 22 11 2 -6 -1 -9 -7 -5 -22 13 1 -34 24 -49 16
-10 21 -21 17 -32 -4 -10 10 0 30 21 41 42 43 48 22 69 -8 8 -11 18 -7 22 4 5
-1 5 -10 2 -12 -4 -23 1 -34 18 -9 14 -24 25 -33 24 -9 0 -11 -3 -5 -5 7 -3
31 -23 55 -45 l43 -40 -25 -23 c-24 -22 -26 -23 -47 -6 -12 10 -22 23 -22 30
0 7 6 5 16 -4 18 -18 24 -19 43 -7 21 14 -36 61 -67 56 -17 -3 -22 0 -20 13 1
9 -1 23 -6 31 -6 10 -5 12 2 7 7 -4 12 -3 12 3 0 5 -4 12 -9 15 -5 3 -7 19 -5
36 2 16 -1 30 -6 30 -6 0 -10 5 -10 11 0 5 4 8 9 5 4 -3 23 6 41 19 19 14 36
23 38 20 5 -5 -39 -44 -50 -45 -5 0 -8 -5 -8 -11 0 -5 4 -8 9 -4 5 3 11 0 14
-7 2 -7 3 -5 1 5 -1 10 8 25 22 33 17 12 23 23 20 40 -3 14 0 24 7 24 8 0 8 3
-1 12 -20 20 -13 32 8 13 11 -10 20 -16 20 -13 0 3 -9 15 -20 28 -25 29 -26
49 -2 27 10 -10 22 -17 27 -17 4 0 -1 8 -12 18 -11 9 -22 24 -26 32 -4 12 -6
11 -6 -3 -1 -10 -6 -15 -11 -12 -6 4 -8 11 -5 16 6 8 -1 10 -22 8 -4 0 -11 8
-15 18 -7 17 -8 17 -5 0 1 -10 6 -17 11 -17 10 2 46 -49 46 -65 0 -5 -18 9
-39 32 -38 40 -40 41 -59 23 -11 -10 -23 -16 -28 -12 -4 4 -4 1 0 -5 9 -16 11
-16 30 3 14 14 19 12 53 -19 48 -46 49 -74 4 -110 -34 -27 -36 -27 -49 -10 -7
10 -11 26 -8 36 2 9 0 17 -5 17 -5 0 -9 7 -9 15 0 9 -7 29 -15 44 -13 27 -13
30 14 54 16 14 32 23 35 20 3 -4 6 -2 6 4 0 23 -14 20 -37 -8 -14 -16 -28 -29
-31 -29 -7 0 -56 100 -54 110 0 2 5 6 11 8 6 2 8 -3 5 -11 -8 -21 17 -33 30
-15 6 8 18 17 26 21 12 4 12 6 -2 6 -9 1 -21 -7 -27 -16 -5 -10 -13 -15 -17
-10 -4 4 1 16 11 27 10 11 15 23 12 27 -4 3 3 14 15 24 11 11 17 19 13 19 -5
0 -17 -7 -27 -17 -24 -22 -23 -2 2 27 11 13 20 25 20 28 0 3 -9 -3 -20 -13
-21 -19 -28 -7 -8 13 9 9 9 12 1 12 -7 0 -10 10 -7 24 3 17 -2 28 -13 35 -10
5 -17 12 -15 15 5 14 1 27 -7 21 -5 -3 -11 0 -14 7 -2 7 -3 5 -1 -5 1 -10 -4
-21 -12 -24 -10 -4 -5 -12 19 -32 22 -17 33 -34 32 -49 -2 -27 -42 -72 -64
-72 -13 1 -12 4 4 15 19 15 19 15 -3 31 -12 8 -20 20 -17 25 3 5 16 0 28 -12
l22 -20 9 21 c8 17 4 26 -19 46 -36 30 -41 31 -18 0 10 -13 21 -22 26 -19 4 2
7 -3 7 -11 0 -24 -16 -19 -37 10 -18 25 -20 25 -36 9 -10 -9 -15 -21 -12 -26
4 -5 1 -9 -4 -9 -18 0 -12 38 7 52 10 7 22 20 27 28 5 10 1 8 -13 -4 -18 -15
-24 -16 -37 -6 -8 7 -12 16 -9 21 3 5 0 9 -5 9 -16 0 -13 -16 5 -35 9 -9 14
-18 11 -21 -7 -8 -32 10 -100 71 -156 140 -390 241 -643 278 -118 17 -354 18
-469 2z m1320 -304 c-3 -6 3 -14 12 -20 10 -5 15 -12 12 -15 -8 -9 -50 24 -44
35 4 5 11 9 16 9 6 0 8 -4 4 -9z m-60 -70 c-3 -6 -11 -11 -17 -11 -6 0 -6 6 2
15 14 17 26 13 15 -4z m3 -33 c17 -17 15 -28 -4 -28 -8 0 -12 5 -9 10 3 6 1
10 -4 10 -6 0 -11 5 -11 10 0 14 13 13 28 -2z m73 -37 c-8 -14 -8 -22 1 -27 7
-5 8 -2 3 7 -6 11 -5 11 5 2 7 -6 9 -16 5 -23 -5 -8 -13 -6 -26 6 -18 16 -19
16 -13 1 4 -11 1 -17 -9 -17 -21 0 -16 20 13 52 26 31 37 30 21 -1z m-876 -26
c196 -55 328 -179 376 -352 10 -37 20 -89 20 -115 1 -27 5 -51 9 -53 3 -2 65
-5 138 -6 138 -3 154 -9 133 -48 -18 -32 -35 -39 -51 -21 -16 18 -24 40 -14
40 4 0 13 -8 20 -17 12 -16 15 -16 24 -3 5 8 9 22 9 30 0 8 -4 5 -9 -7 -5 -13
-12 -23 -16 -23 -3 0 -3 8 0 17 4 10 4 14 0 11 -4 -4 -14 -3 -23 1 -15 8 -16
-22 -16 -365 l0 -373 -25 16 c-164 109 -346 191 -593 269 -260 82 -389 129
-505 185 -151 74 -226 139 -274 237 -29 58 -33 76 -33 147 1 205 105 345 311
415 31 11 77 23 103 26 25 3 48 8 50 10 12 12 311 -6 366 -21z m1038 -496 c19
-21 17 -36 -2 -24 -15 9 -34 45 -24 45 5 0 17 -9 26 -21z m-409 -435 c3 -8 10
-12 16 -9 5 3 10 -1 10 -9 0 -8 -3 -17 -7 -19 -9 -4 -37 24 -40 41 -4 18 14
14 21 -4z m27 -144 c23 -22 46 -40 51 -40 5 0 3 -7 -6 -15 -19 -20 -30 -19
-22 2 6 16 6 16 -11 1 -17 -16 -20 -15 -38 7 -20 22 -30 45 -20 45 12 0 43
-39 37 -46 -4 -4 -2 -4 5 0 12 7 7 39 -6 33 -7 -5 -35 25 -38 41 -5 20 5 14
48 -28z m59 -280 c0 -5 -4 -10 -10 -10 -5 0 -10 5 -10 10 0 6 5 10 10 10 6 0
10 -4 10 -10z m363 -259 c-12 -10 -19 -21 -16 -25 4 -3 -1 -6 -10 -6 -24 0
-21 16 5 34 31 22 48 19 21 -3z m-373 -1251 c-37 -29 -50 -24 -16 6 15 14 31
22 35 19 3 -4 -5 -15 -19 -25z"/>
<path d="M2766 4121 c-3 -4 2 -18 12 -29 18 -20 18 -20 30 -1 7 10 12 22 12
26 0 5 -5 0 -11 -10 -8 -14 -14 -16 -25 -6 -7 6 -11 15 -8 20 3 5 3 9 0 9 -3
0 -7 -4 -10 -9z"/>
<path d="M2836 4115 c-3 -8 -1 -15 4 -15 6 0 10 7 10 15 0 8 -2 15 -4 15 -2 0
-6 -7 -10 -15z"/>
<path d="M2890 4120 c-9 -6 -10 -10 -3 -10 6 0 15 5 18 10 8 12 4 12 -15 0z"/>
<path d="M2960 4120 c0 -5 5 -10 11 -10 5 0 7 5 4 10 -3 6 -8 10 -11 10 -2 0
-4 -4 -4 -10z"/>
<path d="M2515 4046 c0 -61 4 -75 23 -96 22 -23 24 -24 36 -7 14 18 32 24 21
7 -3 -5 -1 -10 4 -10 6 0 11 4 11 9 0 6 9 8 20 6 21 -4 27 9 10 20 -5 3 -10 2
-10 -3 0 -5 -13 -8 -30 -7 -28 1 -72 37 -77 64 -5 21 12 11 32 -19 11 -16 24
-30 28 -30 5 0 6 4 2 9 -3 5 3 12 12 15 13 3 12 4 -4 3 -20 -2 -65 37 -70 62
-4 17 14 13 21 -5 3 -8 10 -12 16 -9 5 3 10 -3 10 -14 0 -12 4 -21 8 -21 4 0
8 9 8 20 0 11 -4 20 -8 20 -4 0 -10 0 -13 0 -10 0 -42 35 -38 42 2 4 0 9 -5
12 -4 2 -7 -28 -7 -68z m38 -72 c11 -14 17 -28 14 -31 -6 -6 -41 29 -44 45 -5
20 11 13 30 -14z"/>
<path d="M2542 4112 c2 -8 8 -13 13 -13 6 0 14 -7 18 -15 4 -8 16 -14 25 -13
14 0 14 2 2 6 -8 4 -20 13 -27 22 -7 9 -13 12 -13 6 0 -5 -5 -3 -11 5 -7 10
-9 11 -7 2z"/>
<path d="M2630 4113 c0 -5 5 -15 10 -23 7 -12 9 -10 7 8 -1 19 -17 33 -17 15z"/>
<path d="M2670 4110 c-8 -5 -12 -12 -9 -15 4 -3 12 1 19 10 14 17 11 19 -10 5z"/>
<path d="M2697 4102 c-10 -10 -17 -22 -17 -27 0 -4 9 2 20 15 19 22 22 23 37
7 16 -16 16 -19 -9 -44 -15 -15 -31 -24 -34 -20 -4 4 3 16 16 27 13 11 21 22
19 24 -2 2 -17 -7 -32 -20 l-28 -24 27 -23 27 -24 28 31 c15 17 31 28 35 24 4
-5 -3 -17 -16 -28 -13 -11 -19 -20 -15 -20 5 0 17 7 27 17 24 22 23 2 -2 -27
-11 -13 -20 -25 -20 -28 0 -3 9 3 20 13 21 19 28 7 8 -13 -9 -9 -9 -12 -1 -12
7 0 10 -10 7 -24 -3 -17 2 -28 13 -35 10 -5 17 -12 16 -15 -6 -14 -2 -27 6
-21 5 3 11 0 14 -7 2 -7 3 -5 1 5 -1 10 4 21 12 24 10 4 5 12 -19 32 -44 34
-41 62 11 113 23 22 42 45 42 50 0 5 -20 -12 -45 -39 -25 -26 -45 -42 -45 -35
0 7 9 21 20 32 11 11 16 20 12 20 -4 0 -13 -5 -20 -12 -21 -21 -13 7 8 30 12
12 16 22 11 22 -6 0 -15 -10 -22 -22 -11 -21 -12 -20 -46 15 -39 42 -44 44
-66 19z m73 -40 c0 -13 -51 -54 -58 -47 -3 3 5 16 19 30 25 25 39 31 39 17z
m73 -178 c-1 -5 -7 -10 -14 -13 -7 -2 -9 1 -5 8 4 6 0 14 -8 17 -9 3 -16 11
-16 16 0 6 10 4 23 -4 12 -9 21 -19 20 -24z"/>
<path d="M2930 4110 c0 -5 5 -10 11 -10 5 0 7 5 4 10 -3 6 -8 10 -11 10 -2 0
-4 -4 -4 -10z"/>
<path d="M3002 4109 c10 -5 24 -19 32 -31 l15 -21 -2 21 c0 12 -3 19 -5 17 -3
-2 -11 2 -19 10 -8 8 -20 15 -26 15 -7 0 -4 -5 5 -11z"/>
<path d="M2860 4100 c0 -6 0 -13 1 -17 0 -4 -8 -11 -18 -15 -17 -7 -17 -8 1
-5 11 1 18 6 17 12 -1 5 5 12 15 15 16 6 16 7 1 13 -9 3 -17 2 -17 -3z"/>
<path d="M2903 4095 c-3 -9 -3 -18 -1 -21 3 -3 8 4 11 16 6 23 -1 27 -10 5z"/>
<path d="M3063 4095 c-3 -9 -3 -18 -1 -21 3 -3 8 4 11 16 6 23 -1 27 -10 5z"/>
<path d="M2590 4096 c0 -2 9 -6 20 -9 11 -3 18 -1 14 4 -5 9 -34 13 -34 5z"/>
<path d="M2975 4090 c3 -5 8 -10 11 -10 2 0 4 5 4 10 0 6 -5 10 -11 10 -5 0
-7 -4 -4 -10z"/>
<path d="M2920 4079 c0 -6 -10 -20 -22 -30 l-23 -20 28 17 c23 14 38 44 22 44
-3 0 -5 -5 -5 -11z"/>
<path d="M2950 4083 c5 -2 10 -10 10 -15 0 -6 -3 -9 -6 -6 -3 3 -16 -5 -30
-19 -24 -24 -32 -39 -15 -28 5 3 11 0 14 -7 2 -7 3 -5 2 4 -3 20 22 45 33 33
4 -4 1 -10 -5 -12 -7 -3 -13 -9 -13 -15 0 -7 5 -6 14 1 18 15 16 63 -2 67 -7
1 -8 0 -2 -3z"/>
<path d="M3000 4086 c0 -4 9 -19 20 -33 11 -14 20 -21 20 -16 0 6 -9 20 -20
33 -11 13 -20 20 -20 16z"/>
<path d="M2655 4070 c-3 -5 -1 -10 4 -10 6 0 11 5 11 10 0 6 -2 10 -4 10 -3 0
-8 -4 -11 -10z"/>
<path d="M2620 4059 c0 -5 5 -7 10 -4 6 3 10 8 10 11 0 2 -4 4 -10 4 -5 0 -10
-5 -10 -11z"/>
<path d="M2980 4063 c0 -7 6 -13 13 -13 6 0 -3 -14 -21 -30 -18 -17 -29 -30
-24 -30 5 0 18 9 31 21 12 12 25 18 29 15 3 -4 -6 -18 -22 -32 -28 -27 -30
-45 -5 -52 11 -3 11 -2 -1 7 -13 9 -13 12 2 27 16 16 19 16 35 2 10 -8 29 -21
43 -28 23 -12 24 -12 11 3 -7 10 -18 17 -23 17 -11 0 -38 25 -38 35 0 3 9 3
20 0 11 -4 20 -2 20 4 0 6 -4 10 -10 9 -5 -2 -21 11 -34 27 -14 17 -25 24 -26
18z"/>
<path d="M2602 4040 c0 -14 2 -19 5 -12 2 6 2 18 0 25 -3 6 -5 1 -5 -13z"/>
<path d="M3055 4050 c-8 -13 3 -30 18 -29 9 0 9 2 0 6 -18 7 -16 21 5 26 15 4
15 5 0 6 -9 0 -20 -3 -23 -9z"/>
<path d="M2640 4040 c0 -5 5 -10 10 -10 6 0 10 5 10 10 0 6 -4 10 -10 10 -5 0
-10 -4 -10 -10z"/>
<path d="M2620 4020 c0 -5 5 -10 11 -10 5 0 7 5 4 10 -3 6 -8 10 -11 10 -2 0
-4 -4 -4 -10z"/>
<path d="M2683 3990 c38 -33 47 -36 47 -18 0 6 -3 9 -6 5 -3 -3 -17 5 -31 19
-13 13 -28 24 -34 24 -5 0 6 -13 24 -30z"/>
<path d="M2863 4013 c-17 -6 -16 -20 1 -26 11 -4 13 -1 9 10 -4 11 -2 14 5 9
7 -4 12 -2 12 3 0 12 -7 13 -27 4z"/>
<path d="M3060 3996 c0 -8 4 -17 9 -20 5 -4 7 3 4 14 -6 23 -13 26 -13 6z"/>
<path d="M2610 3990 c-9 -6 -10 -10 -3 -10 6 0 15 5 18 10 8 12 4 12 -15 0z"/>
<path d="M2660 3975 c13 -14 18 -25 12 -25 -7 0 -12 -5 -12 -11 0 -5 4 -8 9
-4 5 3 12 -3 14 -12 3 -10 4 -4 4 12 -1 17 -10 38 -21 48 -29 26 -33 21 -6 -8z"/>
<path d="M2895 3990 c-3 -5 -1 -10 4 -10 6 0 11 5 11 10 0 6 -2 10 -4 10 -3 0
-8 -4 -11 -10z"/>
<path d="M2740 3979 c0 -5 5 -7 10 -4 6 3 10 8 10 11 0 2 -4 4 -10 4 -5 0 -10
-5 -10 -11z"/>
<path d="M2825 3970 c-5 -16 5 -31 46 -70 38 -36 55 -47 61 -38 11 18 10 28
-3 28 -5 0 -7 -4 -4 -10 14 -23 -11 -7 -46 29 -21 21 -41 36 -44 33 -3 -3 -5
2 -5 11 0 23 17 21 32 -3 7 -11 19 -20 26 -20 7 0 11 -4 8 -9 -5 -8 15 -21 31
-21 5 0 -51 55 -79 78 -14 11 -17 10 -23 -8z"/>
<path d="M2923 3973 c-16 -6 -17 -33 -2 -33 5 0 8 4 4 9 -3 6 3 14 12 20 18
11 8 14 -14 4z"/>
<path d="M2885 3960 c3 -5 8 -10 11 -10 2 0 4 5 4 10 0 6 -5 10 -11 10 -5 0
-7 -4 -4 -10z"/>
<path d="M3009 3946 c30 -31 34 -73 10 -97 -11 -11 -15 -19 -10 -19 16 0 40
41 34 58 -4 10 -2 13 5 8 7 -4 12 -3 12 3 0 5 -6 11 -12 14 -7 2 -10 8 -6 12
4 4 14 2 23 -5 11 -9 12 -17 4 -31 -5 -11 -6 -19 -1 -19 6 0 12 9 15 19 5 21
-25 57 -41 48 -4 -3 -15 3 -22 14 -8 10 -19 19 -24 19 -5 0 1 -11 13 -24z"/>
<path d="M2735 3950 c-3 -5 -1 -10 4 -10 6 0 11 5 11 10 0 6 -2 10 -4 10 -3 0
-8 -4 -11 -10z"/>
<path d="M2940 3955 c1 -12 36 -55 45 -55 3 0 4 4 0 9 -3 5 0 11 7 14 7 2 5 3
-5 1 -9 -1 -24 7 -32 19 -8 12 -15 17 -15 12z"/>
<path d="M2700 3939 c0 -5 5 -7 10 -4 6 3 10 8 10 11 0 2 -4 4 -10 4 -5 0 -10
-5 -10 -11z"/>
<path d="M2766 3937 c3 -10 9 -15 12 -12 3 3 0 11 -7 18 -10 9 -11 8 -5 -6z"/>
<path d="M2615 3930 c-3 -5 -2 -17 3 -26 6 -11 11 -13 16 -5 4 6 2 11 -3 11
-6 0 -11 5 -11 11 0 6 7 9 15 5 8 -3 15 -1 15 4 0 13 -27 13 -35 0z"/>
<path d="M2575 3920 c-3 -6 1 -7 9 -4 18 7 21 14 7 14 -6 0 -13 -4 -16 -10z"/>
<path d="M2696 3904 c-15 -14 -26 -28 -23 -31 3 -3 19 9 36 26 36 37 28 41
-13 5z"/>
<path d="M2944 3904 c24 -26 24 -27 5 -47 -31 -34 -14 -30 22 4 19 18 26 30
17 26 -13 -4 -23 1 -34 18 -9 14 -20 25 -26 25 -5 0 2 -12 16 -26z"/>
<path d="M2655 3910 c-3 -5 -1 -10 4 -10 6 0 11 5 11 10 0 6 -2 10 -4 10 -3 0
-8 -4 -11 -10z"/>
<path d="M2590 3902 c0 -5 10 -17 22 -28 l21 -19 -18 28 c-18 28 -25 33 -25
19z"/>
<path d="M2725 3900 c-3 -5 -1 -10 4 -10 6 0 11 5 11 10 0 6 -2 10 -4 10 -3 0
-8 -4 -11 -10z"/>
<path d="M3005 3900 c3 -5 8 -10 11 -10 2 0 4 5 4 10 0 6 -5 10 -11 10 -5 0
-7 -4 -4 -10z"/>
<path d="M2991 3860 c-13 -11 -19 -20 -15 -20 5 0 -2 -7 -15 -17 -23 -16 -25
-15 -52 15 -29 32 -49 41 -49 22 0 -5 3 -9 8 -7 4 1 21 -10 37 -25 31 -29 28
-36 -7 -17 -15 8 -19 8 -14 0 4 -6 2 -11 -3 -11 -6 0 -11 -5 -11 -12 0 -6 3
-9 6 -5 3 3 17 -5 31 -19 13 -13 28 -24 34 -24 5 0 -5 13 -23 30 -36 32 -25
42 12 10 13 -11 25 -20 28 -20 3 0 -3 9 -13 20 -19 21 -7 28 13 8 8 -8 12 -8
12 -1 0 6 17 9 40 7 22 -2 40 1 40 7 0 5 5 9 11 9 5 0 7 -4 4 -10 -3 -5 -1
-10 4 -10 6 0 11 4 11 9 0 17 -20 23 -35 11 -8 -7 -15 -8 -15 -3 0 14 21 32
34 29 6 -2 8 -1 3 1 -4 3 -5 9 -1 14 3 5 2 9 -3 9 -4 0 -17 -14 -28 -30 -18
-27 -45 -45 -30 -20 3 6 1 10 -4 10 -6 0 -11 -4 -11 -8 0 -4 -9 -8 -20 -9 -17
-2 -15 4 15 32 19 19 35 37 35 40 0 8 -3 6 -29 -15z"/>
<path d="M2820 3831 c0 -6 4 -13 10 -16 6 -3 7 1 4 9 -7 18 -14 21 -14 7z"/>
<path d="M2850 3809 c0 -5 5 -7 10 -4 6 3 10 8 10 11 0 2 -4 4 -10 4 -5 0 -10
-5 -10 -11z"/>
<path d="M2845 3780 c-3 -5 -1 -10 4 -10 6 0 11 5 11 10 0 6 -2 10 -4 10 -3 0
-8 -4 -11 -10z"/>
<path d="M2975 3770 c-3 -6 1 -7 9 -4 18 7 21 14 7 14 -6 0 -13 -4 -16 -10z"/>
<path d="M3015 3771 c3 -5 -3 -11 -12 -14 -10 -2 4 -4 32 -4 27 1 44 2 37 5
-7 2 -10 8 -6 13 3 5 1 9 -5 9 -5 0 -12 -6 -15 -12 -5 -10 -7 -10 -12 0 -3 6
-10 12 -15 12 -6 0 -8 -4 -4 -9z"/>
<path d="M2860 3747 c-29 -44 -31 -47 -20 -47 5 0 10 5 10 11 0 11 25 39 35
39 3 0 3 -9 0 -20 -4 -12 -2 -20 5 -20 6 0 8 5 5 10 -12 19 6 10 38 -20 17
-16 33 -27 35 -25 4 4 -17 26 -69 72 l-25 22 -14 -22z"/>
<path d="M2965 3740 c3 -5 8 -10 11 -10 2 0 4 5 4 10 0 6 -5 10 -11 10 -5 0
-7 -4 -4 -10z"/>
<path d="M2990 3732 c0 -4 5 -13 12 -20 21 -21 0 -24 -23 -3 -13 12 -27 21
-31 21 -5 0 4 -11 19 -24 27 -24 27 -25 10 -43 -15 -16 -19 -16 -28 -3 -9 12
-10 12 -7 1 7 -25 25 -23 52 5 14 16 28 25 32 21 8 -8 -66 -83 -78 -79 -4 1
-8 -2 -8 -8 0 -20 18 -9 63 35 24 25 51 44 58 42 8 -2 11 -2 6 0 -4 3 -5 9 -1
14 3 5 0 9 -5 9 -6 0 -11 -6 -11 -12 0 -7 -14 2 -30 20 -17 18 -30 29 -30 24z"/>
<path d="M3024 3723 c13 -13 20 -15 23 -5 3 6 9 12 14 12 6 0 7 -4 4 -10 -3
-5 -1 -10 4 -10 6 0 11 4 11 9 0 17 -20 23 -35 11 -11 -9 -15 -9 -15 -1 0 6
-5 11 -12 11 -7 0 -5 -7 6 -17z"/>
<path d="M2860 3700 c0 -5 5 -10 11 -10 5 0 7 5 4 10 -3 6 -8 10 -11 10 -2 0
-4 -4 -4 -10z"/>
<path d="M2895 3690 c3 -5 8 -10 11 -10 2 0 4 5 4 10 0 6 -5 10 -11 10 -5 0
-7 -4 -4 -10z"/>
<path d="M2920 3674 c0 -8 -4 -12 -10 -9 -5 3 -10 3 -10 0 0 -9 43 -44 55 -45
5 0 0 7 -12 15 -14 10 -19 22 -16 35 3 11 3 20 -1 20 -3 0 -6 -7 -6 -16z"/>
<path d="M2845 3670 c-16 -7 -17 -9 -3 -9 9 -1 20 4 23 9 7 11 7 11 -20 0z"/>
<path d="M2876 3663 c-4 -10 -1 -20 8 -25 8 -5 22 -15 31 -24 8 -8 15 -11 15
-6 0 5 -11 17 -25 26 -15 10 -22 22 -19 31 4 8 4 15 1 15 -3 0 -8 -8 -11 -17z"/>
<path d="M3029 3641 c-13 -11 -18 -20 -11 -21 6 0 12 5 12 11 0 5 5 7 10 4 6
-3 10 -1 10 4 0 6 5 11 11 11 5 0 7 -4 4 -10 -3 -5 -1 -10 5 -10 14 0 8 22 -7
27 -5 2 -21 -5 -34 -16z"/>
<path d="M2820 3643 c0 -5 5 -15 10 -23 9 -13 11 -13 20 0 5 8 9 20 9 25 0 6
-3 4 -6 -2 -2 -7 -9 -13 -14 -13 -6 0 -7 5 -4 10 3 6 1 10 -4 10 -6 0 -11 -3
-11 -7z"/>
<path d="M2800 3621 c5 -11 15 -23 21 -27 6 -3 3 5 -6 20 -20 30 -30 35 -15 7z"/>
<path d="M3050 3611 c0 -5 -15 -8 -32 -6 -18 2 -25 1 -15 -1 9 -3 15 -10 12
-15 -4 -5 -1 -9 4 -9 6 0 11 4 11 9 0 5 12 8 28 6 15 -2 21 -2 14 1 -6 3 -10
10 -6 15 3 5 0 9 -5 9 -6 0 -11 -4 -11 -9z"/>
<path d="M2980 3579 c0 -5 5 -7 10 -4 6 3 10 8 10 11 0 2 -4 4 -10 4 -5 0 -10
-5 -10 -11z"/>
<path d="M3042 3573 c-10 -4 -10 -8 -1 -19 16 -20 3 -30 -15 -11 -8 8 -12 17
-9 21 4 3 1 6 -5 6 -16 0 -15 -10 4 -31 9 -10 17 -28 18 -40 0 -12 7 -24 14
-25 7 -1 8 0 2 3 -5 2 -10 9 -10 14 0 6 5 7 10 4 6 -3 10 -1 10 4 0 6 -5 11
-12 11 -6 0 -1 11 11 24 30 31 20 54 -17 39z m28 -13 c0 -5 -4 -10 -10 -10 -5
0 -10 5 -10 10 0 6 5 10 10 10 6 0 10 -4 10 -10z"/>
<path d="M2861 3531 c-9 -6 -10 -11 -2 -15 6 -4 9 -11 6 -16 -3 -5 0 -12 6
-16 7 -4 9 -3 5 4 -3 6 3 13 14 17 24 8 26 21 4 29 -19 7 -16 8 -33 -3z m29
-11 c0 -5 -4 -10 -10 -10 -5 0 -10 5 -10 10 0 6 5 10 10 10 6 0 10 -4 10 -10z"/>
<path d="M3072 3501 c0 -17 1 -31 3 -31 7 0 12 39 5 49 -4 7 -7 -1 -8 -18z"/>
<path d="M2909 3497 c-9 -7 -21 -23 -28 -36 -19 -36 1 -46 34 -17 23 20 27 29
19 45 -7 16 -12 18 -25 8z m21 -24 c0 -9 -3 -14 -6 -10 -4 3 -15 -4 -25 -16
-22 -27 -25 -10 -3 21 18 26 34 29 34 5z"/>
<path d="M3005 3500 c3 -5 8 -10 11 -10 2 0 4 5 4 10 0 6 -5 10 -11 10 -5 0
-7 -4 -4 -10z"/>
<path d="M3010 3470 c0 -5 5 -10 11 -10 5 0 7 5 4 10 -3 6 -8 10 -11 10 -2 0
-4 -4 -4 -10z"/>
<path d="M2985 3459 c-4 -6 -5 -12 -2 -15 2 -3 7 2 10 11 7 17 1 20 -8 4z"/>
<path d="M3055 3450 c3 -5 8 -10 11 -10 2 0 4 5 4 10 0 6 -5 10 -11 10 -5 0
-7 -4 -4 -10z"/>
<path d="M3000 3433 c0 -9 -3 -14 -6 -11 -5 6 -54 -38 -54 -49 0 -4 11 4 25
17 14 13 27 21 30 18 3 -3 -8 -17 -25 -32 -17 -14 -28 -26 -23 -26 5 0 19 9
32 21 12 12 25 18 29 15 3 -4 -6 -18 -22 -32 -28 -27 -30 -45 -5 -52 11 -3 11
-2 -1 7 -13 9 -13 12 2 27 16 16 19 16 35 2 10 -8 29 -21 43 -28 23 -12 24
-12 11 3 -7 10 -18 17 -23 17 -11 0 -38 25 -38 35 0 3 9 3 20 0 12 -4 20 -2
20 5 0 6 -4 9 -9 5 -14 -8 -40 33 -34 56 3 10 3 19 -1 19 -3 0 -6 -7 -6 -17z"/>
<path d="M3030 3443 c5 -2 10 -9 10 -14 0 -6 -4 -7 -10 -4 -5 3 -10 1 -10 -4
0 -6 5 -11 11 -11 5 0 7 -5 3 -12 -4 -6 -3 -8 4 -4 6 3 13 2 17 -4 3 -5 11
-10 18 -10 6 0 2 6 -9 14 -10 8 -19 22 -19 32 0 9 -6 18 -13 20 -7 1 -8 0 -2
-3z"/>
<path d="M3060 3418 c0 -4 4 -8 9 -8 6 0 12 4 15 8 3 5 -1 9 -9 9 -8 0 -15 -4
-15 -9z"/>
<path d="M3060 3356 c0 -8 4 -17 9 -20 5 -4 7 3 4 14 -6 23 -13 26 -13 6z"/>
<path d="M2900 3353 c0 -6 4 -14 10 -18 5 -3 7 -12 3 -20 -3 -8 0 -15 7 -15 6
0 9 4 5 9 -3 6 3 15 12 21 16 10 16 11 1 6 -10 -3 -22 2 -27 12 -6 9 -11 12
-11 5z"/>
<path d="M3014 3299 c19 -23 24 -35 17 -48 -6 -10 -6 -23 0 -32 7 -12 9 -12
10 1 1 8 1 21 0 29 -2 7 2 10 8 6 6 -3 11 -2 11 4 0 5 -6 11 -12 14 -7 2 -10
8 -6 12 4 4 14 2 23 -5 11 -9 12 -17 4 -31 -5 -11 -6 -19 -1 -19 6 0 12 9 15
19 5 21 -25 57 -41 48 -4 -3 -15 3 -22 14 -8 10 -18 19 -23 19 -5 0 3 -14 17
-31z"/>
<path d="M2940 3315 c1 -12 36 -55 45 -55 3 0 4 4 0 9 -3 5 0 11 7 14 7 2 5 3
-5 1 -9 -1 -24 7 -32 19 -8 12 -15 17 -15 12z"/>
<path d="M2908 3263 c7 -3 16 -2 19 1 4 3 -2 6 -13 5 -11 0 -14 -3 -6 -6z"/>
<path d="M3005 3260 c3 -5 8 -10 11 -10 2 0 4 5 4 10 0 6 -5 10 -11 10 -5 0
-7 -4 -4 -10z"/>
<path d="M3039 3194 c-7 -14 -26 -36 -41 -49 -15 -12 -24 -26 -21 -29 4 -3 0
-6 -7 -6 -7 0 -10 -3 -6 -7 4 -4 22 11 41 32 19 22 35 35 35 29 0 -5 -9 -20
-20 -32 -12 -12 -16 -22 -11 -22 5 0 18 14 28 30 9 17 21 30 26 30 4 0 5 -4 2
-10 -3 -5 -1 -10 5 -10 7 0 10 6 7 13 -2 6 -12 11 -21 11 -9 -1 -15 3 -13 10
2 6 13 10 23 9 10 -1 13 0 6 3 -6 3 -10 10 -6 15 3 5 1 9 -4 9 -5 0 -15 -12
-23 -26z"/>
<path d="M2770 3175 c0 -12 22 -46 57 -88 13 -16 23 -25 23 -20 0 5 -9 19 -20
30 -11 12 -29 36 -40 55 -11 18 -20 28 -20 23z"/>
<path d="M2897 3165 c12 -8 20 -23 19 -32 -2 -10 -1 -12 1 -5 3 7 9 10 14 7 5
-4 9 -3 9 0 0 9 -43 44 -55 45 -5 0 0 -7 12 -15z"/>
<path d="M2750 3155 c0 -8 4 -15 10 -15 5 0 7 7 4 15 -4 8 -8 15 -10 15 -2 0
-4 -7 -4 -15z"/>
<path d="M3037 3114 c-11 -14 -16 -28 -13 -31 3 -3 -4 -14 -16 -24 -11 -11
-17 -19 -12 -19 5 0 21 11 36 25 28 25 44 33 33 15 -3 -5 -1 -10 4 -10 6 0 11
4 11 9 0 17 -20 23 -35 11 -8 -7 -15 -8 -15 -3 0 14 21 32 34 29 6 -2 8 -1 3
1 -4 3 -5 9 -1 14 12 21 -12 6 -29 -17z"/>
<path d="M2760 3124 c8 -3 24 -18 35 -34 11 -17 24 -30 28 -30 4 0 -5 16 -20
35 -15 19 -35 34 -43 34 -13 -1 -13 -2 0 -5z"/>
<path d="M2870 3120 c0 -6 7 -10 15 -10 8 0 15 2 15 4 0 2 -7 6 -15 10 -8 3
-15 1 -15 -4z"/>
<path d="M2738 3108 c5 -5 16 -8 23 -6 8 3 3 7 -10 11 -17 4 -21 3 -13 -5z"/>
<path d="M2927 3106 c-4 -10 -1 -13 8 -9 8 3 12 9 9 14 -7 12 -11 11 -17 -5z"/>
<path d="M2900 3085 c7 -8 17 -15 22 -15 5 0 3 7 -6 15 -8 8 -18 15 -22 15 -3
0 -1 -7 6 -15z"/>
<path d="M2860 3060 c0 -5 5 -10 11 -10 5 0 7 5 4 10 -3 6 -8 10 -11 10 -2 0
-4 -4 -4 -10z"/>
<path d="M2690 3049 c0 -5 5 -7 10 -4 6 3 10 8 10 11 0 2 -4 4 -10 4 -5 0 -10
-5 -10 -11z"/>
<path d="M2730 3050 c8 -5 11 -10 6 -10 -4 0 2 -9 15 -19 13 -11 21 -23 17
-27 -4 -4 -20 6 -35 22 -15 17 -24 22 -20 12 4 -13 -1 -23 -18 -34 -14 -9 -25
-24 -24 -33 0 -13 2 -13 6 -1 4 8 16 22 27 32 20 17 22 16 39 -4 15 -18 20
-20 28 -7 5 7 9 17 9 20 0 10 -45 59 -55 59 -6 0 -3 -5 5 -10z"/>
<path d="M3050 3049 c0 -5 -3 -8 -7 -6 -5 3 -15 -2 -23 -11 -13 -14 -12 -15 5
-8 11 5 29 9 40 8 11 0 14 2 7 5 -6 3 -10 9 -6 14 3 5 0 9 -5 9 -6 0 -11 -5
-11 -11z"/>
<path d="M2630 3040 c0 -5 7 -7 15 -4 8 4 15 8 15 10 0 2 -7 4 -15 4 -8 0 -15
-4 -15 -10z"/>
<path d="M2676 3027 c1 -9 -6 -23 -17 -30 -10 -8 -16 -16 -13 -19 3 -3 16 5
30 19 24 24 32 39 15 28 -5 -3 -11 0 -14 7 -2 7 -3 5 -1 -5z"/>
<path d="M2784 3024 l24 -27 -24 -26 -25 -26 -18 22 c-18 21 -31 21 -31 0 0
-6 3 -8 6 -4 4 3 13 0 21 -8 21 -21 27 -19 69 22 21 20 31 34 21 30 -12 -4
-22 1 -33 18 -9 14 -20 25 -26 25 -5 0 2 -12 16 -26z"/>
<path d="M2851 3031 c-8 -5 -9 -11 -3 -15 5 -3 12 1 16 9 6 17 6 18 -13 6z"/>
<path d="M2980 3019 c0 -5 5 -7 10 -4 6 3 10 8 10 11 0 2 -4 4 -10 4 -5 0 -10
-5 -10 -11z"/>
<path d="M3047 3014 c-3 -4 -16 -7 -28 -8 -12 0 -24 -7 -25 -14 -1 -7 0 -8 3
-2 2 5 9 10 14 10 6 0 7 -4 4 -10 -3 -5 -1 -10 4 -10 6 0 11 5 11 11 0 5 5 7
10 4 6 -3 10 -1 10 4 0 6 5 11 11 11 5 0 7 -4 4 -10 -3 -5 -1 -10 5 -10 14 0
8 22 -6 27 -6 2 -13 0 -17 -3z"/>
<path d="M2850 2991 c0 -7 -3 -11 -7 -9 -5 2 -22 -11 -39 -29 -17 -18 -26 -34
-20 -36 6 -2 11 -12 11 -22 0 -10 6 -20 13 -22 6 -3 12 0 12 7 0 6 -4 8 -10 5
-5 -3 -10 -2 -10 3 0 6 7 13 16 16 8 3 13 10 10 15 -3 5 1 11 9 15 8 3 15 10
15 16 0 5 -9 2 -19 -7 -11 -9 -18 -20 -15 -25 6 -10 -10 -11 -20 -1 -4 4 10
22 30 40 21 18 35 35 31 39 -4 4 -7 2 -7 -5z"/>
<path d="M2874 2983 c4 -7 2 -13 -3 -13 -6 0 -11 -5 -11 -11 0 -8 4 -8 14 0
11 9 17 8 28 -8 8 -12 18 -18 21 -14 4 3 7 -1 7 -9 0 -22 -24 -40 -44 -32 -9
3 -16 1 -16 -6 0 -6 5 -8 10 -5 23 14 7 -9 -35 -53 -25 -25 -45 -42 -45 -36 0
13 40 71 40 59 0 -12 20 16 20 29 0 5 -14 -6 -31 -25 -18 -19 -29 -26 -26 -17
4 12 2 15 -9 11 -11 -4 -12 -9 -5 -16 6 -6 11 -16 11 -21 0 -6 -11 2 -25 17
-14 15 -30 27 -35 27 -4 0 7 -16 26 -35 19 -20 34 -41 34 -48 0 -6 -16 5 -36
26 -19 20 -40 37 -45 37 -6 0 -7 5 -3 11 4 7 -7 4 -25 -7 -17 -10 -31 -23 -31
-28 0 -5 9 -1 20 9 11 10 22 16 25 13 3 -3 -1 -11 -10 -18 -8 -7 -15 -17 -15
-23 0 -5 9 0 20 13 19 22 22 23 37 7 16 -15 15 -18 -1 -36 -10 -11 -16 -26
-13 -33 4 -11 6 -11 6 0 1 14 25 42 36 42 3 0 4 -8 1 -18 -4 -12 3 -30 19 -48
24 -27 29 -39 26 -56 0 -5 4 -8 9 -8 14 0 12 13 -5 36 -17 23 -20 43 -3 26 7
-7 16 -12 20 -12 4 0 -1 9 -12 20 -11 11 -20 26 -20 33 0 6 16 -6 35 -28 19
-21 37 -36 41 -32 4 4 1 7 -6 7 -7 0 -11 3 -7 6 3 3 -9 19 -26 34 l-32 29 68
66 c37 36 67 71 67 78 0 7 -8 19 -18 27 -44 37 -55 44 -48 33z m-80 -229 c9
-24 7 -28 -9 -14 -17 14 -20 30 -6 30 5 0 12 -7 15 -16z"/>
<path d="M3050 2971 c0 -5 -15 -8 -32 -5 -18 2 -26 1 -18 -3 36 -15 39 -36 9
-67 -16 -16 -32 -27 -35 -23 -4 4 5 18 19 31 23 21 24 25 8 23 -11 -1 -18 -4
-15 -8 2 -4 -3 -13 -12 -20 -13 -11 -14 -9 -9 14 5 17 3 27 -4 27 -6 0 -8 -7
-4 -15 3 -10 -9 -30 -36 -55 -23 -22 -38 -40 -33 -40 5 0 24 14 41 32 32 32
43 27 16 -8 -17 -23 -19 -34 -4 -34 5 0 8 4 4 9 -3 5 -1 12 5 16 5 3 10 1 10
-4 0 -6 5 -11 12 -11 9 0 9 3 0 12 -7 7 -12 17 -12 22 0 6 20 -10 45 -36 25
-26 45 -43 45 -39 0 5 -14 23 -32 40 -35 34 -32 55 3 22 13 -12 27 -21 31 -21
5 0 -4 11 -19 24 l-28 25 27 27 c15 16 31 25 34 21 4 -4 -3 -16 -16 -27 -22
-19 -23 -22 -7 -37 11 -11 17 -13 17 -5 0 7 -5 12 -12 12 -6 0 -1 11 11 24 24
26 21 49 -6 44 -9 -2 -18 2 -20 9 -3 8 5 11 24 8 15 -2 22 -2 15 1 -6 3 -10
10 -6 15 3 5 0 9 -5 9 -6 0 -11 -4 -11 -9z"/>
<path d="M2687 2951 c-4 -17 -3 -21 5 -13 5 5 8 16 6 23 -3 8 -7 3 -11 -10z"/>
<path d="M2978 2948 c5 -5 16 -8 23 -6 8 3 3 7 -10 11 -17 4 -21 3 -13 -5z"/>
<path d="M2605 2940 c3 -5 8 -10 11 -10 2 0 4 5 4 10 0 6 -5 10 -11 10 -5 0
-7 -4 -4 -10z"/>
<path d="M2712 2943 c3 -4 -3 -16 -14 -25 -10 -10 -18 -15 -18 -11 0 4 -7 -3
-16 -15 -8 -12 -22 -22 -31 -22 -9 0 -13 3 -10 7 4 3 -2 13 -13 20 -11 8 -18
19 -15 24 4 5 1 9 -4 9 -17 0 -13 -15 12 -43 29 -35 38 -34 82 8 29 27 41 32
55 25 10 -5 17 -18 16 -27 -2 -10 -1 -12 1 -5 3 7 9 10 14 7 5 -4 9 -3 9 2 0
4 -16 18 -36 31 -20 13 -34 20 -32 15z"/>
<path d="M2867 2938 c-10 -5 -15 -13 -12 -18 3 -4 -2 -10 -10 -14 -8 -3 -15
-10 -15 -16 0 -5 9 -2 19 7 11 9 18 20 15 25 -3 4 1 8 10 8 8 0 16 -6 19 -12
2 -7 7 -11 10 -8 3 3 0 12 -7 22 -9 12 -16 14 -29 6z"/>
<path d="M2624 2926 c-9 -10 -8 -15 5 -23 14 -9 20 -7 29 8 15 23 15 29 2 29
-5 0 -9 -5 -7 -11 1 -6 -4 -14 -11 -16 -8 -3 -10 1 -6 11 7 19 3 20 -12 2z"/>
<path d="M3072 2861 c0 -17 1 -31 3 -31 7 0 12 39 5 49 -4 7 -7 -1 -8 -18z"/>
<path d="M2770 2870 c0 -5 5 -10 11 -10 5 0 7 5 4 10 -3 6 -8 10 -11 10 -2 0
-4 -4 -4 -10z"/>
<path d="M2903 2815 c-3 -9 -3 -18 -1 -21 3 -3 8 4 11 16 6 23 -1 27 -10 5z"/>
<path d="M2590 2816 c0 -2 9 -6 20 -9 11 -3 18 -1 14 4 -5 9 -34 13 -34 5z"/>
<path d="M2860 2810 c-13 -9 -13 -11 0 -20 20 -13 30 -13 30 1 0 5 -4 7 -10 4
-5 -3 -10 -2 -10 4 0 5 6 12 13 14 6 3 8 6 2 6 -5 0 -17 -4 -25 -9z"/>
<path d="M2975 2810 c3 -5 8 -10 11 -10 2 0 4 5 4 10 0 6 -5 10 -11 10 -5 0
-7 -4 -4 -10z"/>
<path d="M3055 2810 c3 -5 8 -10 11 -10 2 0 4 5 4 10 0 6 -5 10 -11 10 -5 0
-7 -4 -4 -10z"/>
<path d="M2699 2786 c-20 -18 -23 -24 -13 -34 17 -15 32 -16 16 0 -8 8 -6 16
10 30 12 10 19 20 17 22 -2 2 -16 -6 -30 -18z"/>
<path d="M2921 2802 c-1 -8 -11 -22 -23 -32 -21 -17 -23 -16 -42 1 -34 32 -30
12 4 -21 18 -18 30 -25 27 -17 -4 10 3 23 20 35 15 11 23 25 20 33 -4 11 -6
11 -6 1z"/>
<path d="M2940 2800 c0 -6 5 -8 10 -5 25 15 7 -12 -20 -30 -16 -11 -30 -24
-30 -28 0 -5 4 -6 9 -2 5 3 11 0 14 -7 2 -7 3 -5 2 4 -3 20 22 45 33 33 4 -4
1 -10 -5 -12 -7 -3 -13 -9 -13 -15 0 -7 5 -6 14 1 17 15 16 63 -2 69 -6 2 -12
-1 -12 -8z"/>
<path d="M3000 2794 c0 -8 -4 -12 -10 -9 -5 3 -10 1 -10 -4 0 -6 6 -11 13 -11
6 0 -3 -14 -21 -30 -18 -17 -29 -30 -24 -30 5 0 18 9 31 21 12 12 25 18 29 15
3 -4 -6 -18 -22 -32 -28 -27 -30 -45 -5 -52 11 -3 11 -2 -1 7 -13 9 -13 12 2
27 16 16 19 16 35 2 10 -8 29 -21 43 -28 23 -12 24 -12 11 3 -7 10 -18 17 -23
17 -11 0 -38 25 -38 35 0 3 9 3 20 0 12 -4 20 -2 20 5 0 6 -4 9 -9 5 -14 -8
-40 33 -34 56 3 10 3 19 -1 19 -3 0 -6 -7 -6 -16z"/>
<path d="M2655 2790 c-3 -5 -1 -10 4 -10 6 0 11 5 11 10 0 6 -2 10 -4 10 -3 0
-8 -4 -11 -10z"/>
<path d="M2620 2779 c0 -5 5 -7 10 -4 6 3 10 8 10 11 0 2 -4 4 -10 4 -5 0 -10
-5 -10 -11z"/>
<path d="M3020 2783 c0 -11 20 -40 20 -29 0 5 7 3 15 -4 9 -7 18 -10 22 -6 3
3 2 6 -3 6 -6 0 -20 9 -32 20 -12 12 -22 17 -22 13z"/>
<path d="M3060 2778 c0 -4 4 -8 9 -8 6 0 12 4 15 8 3 5 -1 9 -9 9 -8 0 -15 -4
-15 -9z"/>
<path d="M2640 2760 c0 -5 5 -10 10 -10 6 0 10 5 10 10 0 6 -4 10 -10 10 -5 0
-10 -4 -10 -10z"/>
<path d="M2665 2739 c-4 -6 -5 -12 -2 -15 2 -3 7 2 10 11 7 17 1 20 -8 4z"/>
<path d="M2740 2740 c0 -5 5 -10 11 -10 5 0 7 5 4 10 -3 6 -8 10 -11 10 -2 0
-4 -4 -4 -10z"/>
<path d="M2602 2713 c-12 -15 -22 -31 -22 -35 0 -12 50 -58 63 -57 9 0 9 2 0
6 -7 2 -13 9 -13 14 0 6 5 7 10 4 6 -3 10 -1 10 5 0 7 -8 9 -19 5 -11 -3 -24
1 -32 11 -11 14 -10 19 10 35 13 11 19 19 15 20 -5 0 0 4 11 9 14 6 16 9 4 9
-8 1 -25 -11 -37 -26z"/>
<path d="M2680 2714 c0 -8 -4 -13 -9 -10 -15 10 -23 -28 -8 -39 7 -5 16 -17
20 -25 4 -12 6 -12 6 2 1 9 -7 21 -16 27 -10 5 -15 13 -10 17 4 4 16 -1 26
-10 11 -10 25 -15 32 -11 7 5 10 3 7 -6 -3 -8 -11 -13 -17 -11 -6 1 -11 -2
-11 -8 0 -15 10 -12 40 13 l27 23 -23 27 c-13 15 -28 27 -34 27 -6 0 0 -11 14
-24 32 -29 32 -35 4 -34 -32 2 -47 16 -41 38 3 11 3 20 -1 20 -3 0 -6 -7 -6
-16z"/>
<path d="M3060 2716 c0 -8 4 -17 9 -20 5 -4 7 3 4 14 -6 23 -13 26 -13 6z"/>
<path d="M2627 2698 c-10 -11 -16 -22 -13 -26 6 -6 35 27 36 41 0 10 -2 8 -23
-15z"/>
<path d="M2768 2701 c12 -10 19 -21 15 -25 -3 -3 -1 -6 5 -6 7 0 12 4 12 8 0
11 -34 42 -45 42 -4 0 2 -8 13 -19z"/>
<path d="M2895 2710 c-3 -5 -1 -10 4 -10 6 0 11 5 11 10 0 6 -2 10 -4 10 -3 0
-8 -4 -11 -10z"/>
<path d="M2700 2700 c0 -5 5 -10 11 -10 5 0 7 5 4 10 -3 6 -8 10 -11 10 -2 0
-4 -4 -4 -10z"/>
<path d="M2835 2690 c3 -5 8 -10 11 -10 2 0 4 5 4 10 0 6 -5 10 -11 10 -5 0
-7 -4 -4 -10z"/>
<path d="M2923 2693 c-16 -6 -17 -33 -2 -33 5 0 8 4 4 9 -3 6 3 14 12 20 18
11 8 14 -14 4z"/>
<path d="M2860 2678 c0 -3 9 -6 20 -5 11 1 20 5 20 9 0 3 -9 6 -20 5 -11 -1
-20 -5 -20 -9z"/>
<path d="M3009 2666 c30 -31 34 -73 10 -97 -11 -11 -15 -19 -10 -19 16 0 40
41 34 58 -4 10 -2 13 5 8 7 -4 12 -3 12 3 0 5 -6 11 -12 14 -7 2 -10 8 -6 12
4 4 14 2 23 -5 11 -9 12 -17 4 -31 -5 -11 -6 -19 -1 -19 6 0 12 9 15 19 5 21
-25 57 -41 48 -4 -3 -15 3 -22 14 -8 10 -19 19 -24 19 -5 0 1 -11 13 -24z"/>
<path d="M2940 2675 c1 -12 36 -55 45 -55 3 0 4 4 0 9 -3 5 0 11 7 14 7 2 5 3
-5 1 -9 -1 -24 7 -32 19 -8 12 -15 17 -15 12z"/>
<path d="M2846 2657 c3 -10 9 -15 12 -12 3 3 0 11 -7 18 -10 9 -11 8 -5 -6z"/>
<path d="M2742 2630 c-28 -29 -50 -41 -37 -20 9 14 -4 12 -19 -2 -8 -7 -23
-20 -35 -28 -11 -8 -21 -19 -21 -24 0 -5 11 1 24 13 35 32 71 33 110 2 46 -36
41 -62 -24 -123 -40 -38 -49 -52 -39 -59 19 -12 29 -11 29 2 0 5 -4 7 -10 4
-23 -14 -7 9 35 53 25 25 45 42 45 36 0 -13 -40 -71 -40 -59 0 12 -20 -16 -20
-29 0 -5 14 6 31 25 18 19 29 26 26 17 -4 -10 -2 -18 3 -18 6 0 10 5 10 11 0
7 10 20 22 30 11 11 17 19 13 19 -5 0 -17 -7 -27 -17 -24 -22 -23 -2 2 27 11
13 20 25 20 28 0 3 -9 -3 -20 -13 -21 -19 -28 -7 -8 13 9 9 9 12 1 12 -7 0
-10 10 -7 25 3 17 -2 27 -18 36 l-22 12 28 23 c15 13 23 24 19 24 -4 0 -21
-11 -37 -25 -41 -35 -58 -31 -18 5 18 17 28 30 22 30 -5 0 -23 -13 -38 -30z
m42 -45 c11 -8 17 -17 14 -20 -3 -3 -16 3 -29 14 -27 23 -14 28 15 6z"/>
<path d="M2885 2650 c11 -5 16 -9 10 -9 -5 -1 -3 -6 5 -11 25 -16 31 -11 13
10 -10 11 -24 20 -33 19 -10 0 -9 -3 5 -9z"/>
<path d="M2660 2636 c0 -8 4 -17 9 -20 5 -4 7 3 4 14 -6 23 -13 26 -13 6z"/>
<path d="M2835 2622 c3 -25 0 -32 -10 -28 -9 3 -12 0 -8 -9 3 -8 9 -13 13 -10
5 3 11 -3 14 -12 2 -10 3 -3 1 15 -2 17 1 32 6 32 5 0 9 5 9 11 0 5 -4 8 -9 4
-5 -3 -12 3 -15 12 -2 10 -3 3 -1 -15z"/>
<path d="M2944 2624 c24 -26 24 -27 5 -47 -31 -34 -14 -30 22 4 19 18 26 30
17 26 -13 -4 -23 1 -34 18 -9 14 -20 25 -26 25 -5 0 2 -12 16 -26z"/>
<path d="M2873 2621 c1 -11 4 -18 8 -15 4 2 15 -6 24 -18 13 -20 17 -21 25 -8
13 20 12 30 -1 30 -5 0 -7 -4 -4 -10 12 -19 -8 -10 -31 15 -20 22 -23 22 -21
6z"/>
<path d="M2800 2615 c-11 -13 -10 -14 4 -9 9 3 16 10 16 15 0 13 -6 11 -20 -6z"/>
<path d="M3005 2620 c3 -5 8 -10 11 -10 2 0 4 5 4 10 0 6 -5 10 -11 10 -5 0
-7 -4 -4 -10z"/>
<path d="M2991 2580 c-13 -11 -19 -20 -15 -20 5 0 -2 -7 -15 -17 -23 -16 -25
-15 -52 15 -29 32 -49 41 -49 22 0 -5 3 -9 8 -7 4 1 21 -10 37 -25 31 -29 28
-36 -7 -17 -15 8 -19 8 -14 0 4 -6 2 -11 -3 -11 -6 0 -11 -5 -11 -12 0 -6 3
-9 6 -5 3 3 17 -5 31 -19 13 -13 28 -24 34 -24 5 0 -5 13 -23 30 -36 32 -25
42 12 10 13 -11 25 -20 28 -20 3 0 -3 9 -13 20 -19 21 -7 28 13 8 8 -8 12 -8
12 -1 0 6 17 9 40 7 22 -2 40 1 40 7 0 5 5 9 11 9 5 0 7 -4 4 -10 -3 -5 -1
-10 4 -10 6 0 11 4 11 9 0 17 -20 23 -35 11 -8 -7 -15 -8 -15 -3 0 14 21 32
34 29 6 -2 8 -1 3 1 -4 3 -5 9 -1 14 3 5 2 9 -3 9 -4 0 -17 -14 -28 -30 -18
-27 -45 -45 -30 -20 3 6 1 10 -4 10 -6 0 -11 -4 -11 -8 0 -4 -9 -8 -20 -9 -17
-2 -15 4 15 32 19 19 35 37 35 40 0 8 -3 6 -29 -15z"/>
<path d="M2690 2569 c0 -5 5 -7 10 -4 6 3 10 8 10 11 0 2 -4 4 -10 4 -5 0 -10
-5 -10 -11z"/>
<path d="M2737 2556 c10 -13 21 -22 26 -19 4 2 7 -3 7 -11 0 -24 -16 -19 -40
12 -12 15 -19 19 -16 10 3 -12 -3 -24 -19 -34 -14 -9 -25 -20 -25 -26 0 -5 12
2 26 16 27 24 27 24 48 5 21 -20 21 -20 30 1 8 17 4 26 -19 46 -36 30 -41 31
-18 0z"/>
<path d="M2676 2547 c1 -9 -7 -24 -19 -32 -12 -8 -17 -15 -12 -15 12 1 55 36
55 45 0 3 -4 4 -9 0 -5 -3 -11 0 -14 7 -2 7 -3 5 -1 -5z"/>
<path d="M2820 2551 c0 -6 4 -13 10 -16 6 -3 7 1 4 9 -7 18 -14 21 -14 7z"/>
<path d="M2850 2529 c0 -5 5 -7 10 -4 6 3 10 8 10 11 0 2 -4 4 -10 4 -5 0 -10
-5 -10 -11z"/>
<path d="M2845 2500 c-3 -5 -1 -10 4 -10 6 0 11 5 11 10 0 6 -2 10 -4 10 -3 0
-8 -4 -11 -10z"/>
<path d="M2975 2490 c-3 -6 1 -7 9 -4 18 7 21 14 7 14 -6 0 -13 -4 -16 -10z"/>
<path d="M3015 2491 c3 -5 -3 -11 -12 -14 -10 -2 4 -4 32 -4 27 1 44 2 37 5
-7 2 -10 8 -6 13 3 5 1 9 -5 9 -5 0 -12 -6 -15 -12 -5 -10 -7 -10 -12 0 -3 6
-10 12 -15 12 -6 0 -8 -4 -4 -9z"/>
<path d="M2857 2464 c-20 -27 -21 -34 -5 -34 6 0 9 3 5 6 -3 4 1 13 9 21 20
20 31 8 13 -14 -9 -11 -10 -14 -1 -9 6 4 12 2 12 -3 0 -6 5 -11 11 -11 8 0 8
5 -1 15 -8 10 -9 15 -2 15 6 0 16 -8 21 -17 8 -14 10 -15 10 -3 0 8 -12 25
-27 36 l-27 21 -18 -23z"/>
<path d="M2605 2460 c3 -5 8 -10 11 -10 2 0 4 5 4 10 0 6 -5 10 -11 10 -5 0
-7 -4 -4 -10z"/>
<path d="M2965 2460 c3 -5 8 -10 11 -10 2 0 4 5 4 10 0 6 -5 10 -11 10 -5 0
-7 -4 -4 -10z"/>
<path d="M2991 2450 c0 -8 11 -23 25 -34 26 -18 26 -18 47 3 16 16 18 24 10
32 -9 9 -16 9 -28 -1 -10 -8 -15 -9 -15 -1 0 6 -5 11 -11 11 -8 0 -8 -5 1 -15
8 -10 9 -15 2 -15 -6 0 -16 8 -21 18 -8 13 -10 14 -10 2z m79 -6 c0 -3 -7 -12
-15 -21 -20 -19 -32 -9 -15 12 12 15 30 20 30 9z"/>
<path d="M2950 2440 c8 -5 20 -10 25 -10 6 0 3 5 -5 10 -8 5 -19 10 -25 10 -5
0 -3 -5 5 -10z"/>
<path d="M2580 2420 c0 -5 5 -10 11 -10 5 0 7 5 4 10 -3 6 -8 10 -11 10 -2 0
-4 -4 -4 -10z"/>
<path d="M2820 2420 c0 -5 5 -10 11 -10 5 0 7 5 4 10 -3 6 -8 10 -11 10 -2 0
-4 -4 -4 -10z"/>
<path d="M2940 2420 c0 -5 5 -10 11 -10 5 0 7 5 4 10 -3 6 -8 10 -11 10 -2 0
-4 -4 -4 -10z"/>
<path d="M2855 2411 c3 -5 -3 -12 -12 -15 -10 -2 -3 -3 15 -1 17 2 32 -1 32
-6 0 -5 5 -9 11 -9 5 0 8 4 4 9 -3 5 3 12 12 15 10 2 3 3 -14 1 -18 -2 -33 1
-33 6 0 5 -5 9 -11 9 -5 0 -8 -4 -4 -9z"/>
<path d="M3002 2390 c36 -32 25 -42 -12 -10 -13 11 -25 20 -28 20 -3 0 3 -9
13 -20 19 -21 7 -28 -13 -8 -7 7 -12 8 -12 2 0 -5 -18 -9 -40 -9 -22 0 -40 3
-40 7 0 5 -5 8 -11 8 -8 0 -8 -5 1 -15 7 -8 16 -12 21 -9 5 3 9 1 9 -5 0 -22
-20 -20 -39 5 -12 15 -21 23 -21 18 0 -5 11 -22 25 -38 38 -45 29 -56 -11 -13
-19 20 -39 37 -43 37 -10 0 -41 -34 -41 -45 0 -4 9 2 20 15 19 22 22 23 37 7
16 -15 15 -18 -2 -37 -17 -19 -17 -21 0 -40 15 -16 16 -22 5 -35 -10 -12 -16
-13 -26 -4 -10 8 -14 8 -14 0 0 -11 13 -15 38 -12 17 3 15 -7 -8 -31 -11 -12
-18 -24 -15 -26 9 -10 44 44 39 61 -7 21 2 22 23 2 14 -14 13 -18 -7 -35 -13
-11 -19 -20 -14 -20 15 1 80 59 67 60 -7 0 -13 -6 -13 -12 0 -7 -18 6 -41 29
-36 38 -39 45 -25 58 20 20 29 19 22 -3 -9 -26 23 -58 59 -59 17 0 22 1 12 4
-9 2 -15 9 -12 14 4 5 1 9 -4 9 -6 0 -11 -5 -11 -12 0 -7 -10 -3 -22 10 -12
12 -18 25 -14 29 5 5 11 2 13 -4 3 -7 9 -13 14 -13 6 0 8 4 4 10 -3 5 3 18 15
30 11 11 16 20 12 20 -4 0 -13 -5 -20 -12 -16 -16 -15 3 2 25 14 18 32 24 21
7 -3 -5 -1 -10 4 -10 6 0 11 4 11 8 0 4 9 8 20 9 17 2 15 -4 -15 -32 -35 -35
-44 -55 -24 -55 5 0 8 4 4 9 -3 5 5 17 17 25 12 9 18 16 13 16 -5 0 1 8 14 17
24 16 25 16 65 -30 23 -26 45 -47 51 -47 5 0 0 7 -12 15 -14 10 -20 21 -16 32
4 9 2 14 -3 11 -5 -3 -20 5 -34 18 -24 24 -19 32 9 15 8 -5 20 -7 27 -4 13 5
-49 73 -67 73 -5 0 5 -13 23 -30z"/>
<path d="M2780 2399 c0 -5 4 -8 9 -4 6 3 15 -3 21 -12 11 -17 11 -17 6 0 -3
10 -6 21 -6 23 0 2 -7 4 -15 4 -8 0 -15 -5 -15 -11z"/>
<path d="M3072 2381 c0 -17 1 -31 3 -31 7 0 12 39 5 49 -4 7 -7 -1 -8 -18z"/>
<path d="M2741 2375 c-23 -23 -24 -23 -44 -4 -34 31 -30 14 4 -22 18 -19 30
-26 26 -17 -4 12 3 23 21 37 15 11 25 21 22 24 -3 2 -16 -6 -29 -18z"/>
<path d="M2930 2390 c-9 -6 -10 -10 -3 -10 6 0 15 5 18 10 8 12 4 12 -15 0z"/>
<path d="M3045 2380 c3 -5 8 -10 11 -10 2 0 4 5 4 10 0 6 -5 10 -11 10 -5 0
-7 -4 -4 -10z"/>
<path d="M2761 2359 c-13 -11 -22 -21 -20 -23 2 -3 17 7 32 20 15 13 24 24 20
24 -4 -1 -19 -10 -32 -21z"/>
<path d="M2663 2353 c-7 -2 -13 -9 -13 -15 0 -6 7 -5 16 3 15 12 16 11 10 -11
-5 -17 -4 -21 2 -11 6 8 12 9 16 3 3 -6 1 -14 -5 -18 -17 -10 18 -34 39 -27
10 4 13 2 8 -5 -4 -7 -3 -12 3 -12 5 0 12 6 15 13 5 10 7 10 12 0 3 -7 10 -13
16 -13 7 0 7 4 0 13 -9 10 -6 17 8 27 11 8 20 18 20 23 0 5 -13 -2 -29 -16
-16 -13 -39 -23 -52 -21 -13 1 -28 3 -32 3 -5 1 -5 6 -2 11 4 6 11 7 17 4 6
-4 0 7 -13 25 -12 17 -23 31 -23 30 -1 0 -7 -3 -13 -6z"/>
<path d="M3055 2330 c3 -5 8 -10 11 -10 2 0 4 5 4 10 0 6 -5 10 -11 10 -5 0
-7 -4 -4 -10z"/>
<path d="M2955 2306 c-17 -18 -18 -25 -8 -34 18 -17 28 -15 13 3 -7 8 -8 15
-4 15 5 0 15 9 22 20 16 26 2 24 -23 -4z"/>
<path d="M2735 2310 c-3 -5 -1 -10 4 -10 6 0 11 5 11 10 0 6 -2 10 -4 10 -3 0
-8 -4 -11 -10z"/>
<path d="M2985 2289 c-5 -15 0 -27 16 -42 19 -18 22 -19 16 -3 -4 10 -7 20 -7
22 0 3 -4 2 -10 -1 -5 -3 -10 1 -10 9 0 9 4 16 9 16 15 0 40 -41 34 -56 -3 -8
-1 -14 5 -14 16 0 8 34 -14 63 -26 32 -31 33 -39 6z"/>
<path d="M3060 2298 c0 -4 4 -8 9 -8 6 0 12 4 15 8 3 5 -1 9 -9 9 -8 0 -15 -4
-15 -9z"/>
<path d="M2925 2260 c-3 -5 -1 -10 4 -10 6 0 11 5 11 10 0 6 -2 10 -4 10 -3 0
-8 -4 -11 -10z"/>
<path d="M2757 2233 c5 -12 3 -14 -7 -8 -9 5 -11 4 -6 -4 4 -6 12 -9 17 -6 12
8 12 35 -1 35 -5 0 -6 -7 -3 -17z"/>
<path d="M2780 2246 c0 -2 7 -6 15 -10 8 -3 15 -1 15 4 0 6 -7 10 -15 10 -8 0
-15 -2 -15 -4z"/>
<path d="M2946 2234 c-9 -24 -7 -31 5 -11 6 9 14 15 20 12 5 -4 9 -1 9 4 0 17
-27 13 -34 -5z"/>
<path d="M3060 2236 c0 -8 4 -17 9 -20 5 -4 7 3 4 14 -6 23 -13 26 -13 6z"/>
<path d="M2990 2232 c0 -6 11 -17 25 -26 14 -9 25 -14 25 -11 0 3 10 0 23 -6
20 -11 21 -11 8 5 -8 9 -20 15 -27 12 -6 -2 -21 4 -33 15 -12 11 -21 16 -21
11z"/>
<path d="M2886 2178 c-27 -28 -33 -38 -19 -34 12 4 25 1 31 -6 10 -13 12 -18
12 -38 0 -15 17 -12 23 4 4 9 1 13 -6 10 -7 -2 -13 4 -14 16 -1 11 2 20 8 20
5 0 9 -4 9 -9 0 -5 8 -12 17 -15 15 -6 14 -4 -2 14 -18 19 -18 22 -1 38 15 15
18 15 27 2 9 -12 10 -12 7 -1 -7 25 -25 23 -52 -5 -14 -16 -28 -25 -32 -22 -3
4 3 17 15 29 12 13 21 26 21 31 0 11 1 11 -44 -34z"/>
<path d="M2977 2205 c12 -8 20 -23 19 -32 -2 -10 -1 -12 1 -5 3 7 9 10 14 7 5
-4 9 -3 9 0 0 9 -43 44 -55 45 -5 0 0 -7 12 -15z"/>
<path d="M2780 2179 c0 -5 5 -7 10 -4 6 3 10 8 10 11 0 2 -4 4 -10 4 -5 0 -10
-5 -10 -11z"/>
<path d="M3030 2169 c0 -5 5 -7 10 -4 19 12 41 -15 29 -36 -5 -11 -6 -19 -1
-19 18 0 20 39 3 54 -20 18 -41 21 -41 5z"/>
<path d="M3010 2150 c0 -5 5 -10 11 -10 5 0 7 5 4 10 -3 6 -8 10 -11 10 -2 0
-4 -4 -4 -10z"/>
<path d="M2820 2139 c0 -5 5 -7 10 -4 6 3 10 8 10 11 0 2 -4 4 -10 4 -5 0 -10
-5 -10 -11z"/>
<path d="M3045 2140 c3 -5 8 -10 11 -10 2 0 4 5 4 10 0 6 -5 10 -11 10 -5 0
-7 -4 -4 -10z"/>
<path d="M2836 2121 c-1 -3 3 -17 10 -31 8 -15 14 -19 14 -9 0 8 -6 21 -12 28
-11 11 -10 13 3 8 9 -3 22 -2 28 3 9 5 4 8 -13 8 -15 0 -28 -3 -30 -7z"/>
<path d="M2826 2087 c3 -10 9 -15 12 -12 3 3 0 11 -7 18 -10 9 -11 8 -5 -6z"/>
<path d="M3033 2035 c-12 -14 -18 -25 -15 -26 4 0 -2 -4 -13 -8 -14 -6 -5 -8
30 -8 27 0 44 2 37 5 -7 2 -10 8 -6 13 3 5 1 9 -5 9 -5 0 -11 -6 -14 -12 -2
-7 -7 -10 -11 -6 -8 7 15 48 27 48 4 0 5 -4 2 -10 -3 -5 -1 -10 5 -10 13 0 8
22 -6 27 -5 1 -19 -9 -31 -22z"/>
<path d="M2975 2010 c-3 -6 1 -7 9 -4 18 7 21 14 7 14 -6 0 -13 -4 -16 -10z"/>
<path d="M2930 1990 c0 -5 5 -10 11 -10 5 0 7 5 4 10 -3 6 -8 10 -11 10 -2 0
-4 -4 -4 -10z"/>
<path d="M2965 1980 c3 -5 8 -10 11 -10 2 0 4 5 4 10 0 6 -5 10 -11 10 -5 0
-7 -4 -4 -10z"/>
<path d="M2987 1966 c-3 -8 4 -25 16 -39 24 -26 57 -42 57 -27 0 6 -10 10 -22
10 -12 0 -18 3 -15 7 4 3 -2 12 -13 20 -11 8 -17 20 -14 28 4 8 4 15 1 15 -3
0 -7 -6 -10 -14z"/>
<path d="M3013 1968 c1 -7 16 -23 32 -36 20 -15 29 -31 28 -45 -3 -21 -2 -21
6 -2 5 11 5 25 0 31 -5 6 -6 13 -3 16 3 3 -3 5 -13 5 -10 -1 -22 8 -28 21 -10
23 -27 31 -22 10z"/>
<path d="M3045 1971 c-7 -12 12 -24 25 -16 11 7 4 25 -10 25 -5 0 -11 -4 -15
-9z"/>
<path d="M2943 1964 c3 -3 -5 -17 -19 -31 -13 -13 -24 -28 -24 -34 0 -5 13 5
30 23 32 36 42 25 10 -12 -11 -13 -20 -27 -20 -33 0 -5 9 1 20 14 10 13 19 19
20 14 0 -6 -5 -16 -12 -23 -9 -9 -9 -12 0 -12 7 0 12 5 12 11 0 5 5 7 10 4 6
-4 8 -11 5 -16 -4 -5 -1 -9 4 -9 15 0 13 11 -4 34 -25 33 -16 43 10 11 14 -16
25 -25 25 -19 0 6 -9 19 -20 29 -11 10 -22 26 -25 36 -4 11 -11 19 -17 19 -6
0 -9 -3 -5 -6z"/>
<path d="M3020 1879 c0 -5 9 -9 20 -9 11 0 20 2 20 4 0 2 -9 6 -20 9 -11 3
-20 1 -20 -4z"/>
<path d="M2900 1871 c0 -6 4 -13 10 -16 6 -3 7 1 4 9 -7 18 -14 21 -14 7z"/>
<path d="M3006 1857 c3 -10 9 -15 12 -12 3 3 0 11 -7 18 -10 9 -11 8 -5 -6z"/>
<path d="M2930 1849 c0 -5 5 -7 10 -4 6 3 10 8 10 11 0 2 -4 4 -10 4 -5 0 -10
-5 -10 -11z"/>
<path d="M3055 1850 c3 -5 8 -10 11 -10 2 0 4 5 4 10 0 6 -5 10 -11 10 -5 0
-7 -4 -4 -10z"/>
<path d="M2938 1826 c-15 -12 -25 -26 -21 -30 3 -3 1 -6 -5 -6 -7 0 -12 -5
-12 -11 0 -5 5 -7 12 -3 8 5 9 2 5 -9 -4 -10 -2 -17 4 -17 7 0 9 9 6 21 -4 15
3 30 23 50 34 35 26 38 -12 5z"/>
<path d="M2994 1831 c3 -17 -4 -32 -24 -52 -33 -33 -25 -40 9 -8 12 12 25 18
29 15 3 -4 -6 -18 -21 -32 -15 -14 -27 -28 -27 -33 0 -4 -9 -17 -20 -29 -12
-12 -16 -22 -11 -22 6 0 15 9 21 20 6 12 17 17 28 14 14 -5 15 -4 2 5 -13 9
-13 12 2 27 16 16 19 16 35 2 10 -8 29 -21 43 -28 23 -12 24 -12 11 3 -7 10
-18 17 -23 17 -11 0 -38 25 -38 35 0 3 9 3 20 0 12 -4 20 -2 20 5 0 6 -4 9 -9
6 -4 -3 -16 3 -26 14 -10 11 -13 20 -7 20 6 0 14 -5 17 -10 4 -6 10 -8 15 -5
5 3 11 1 15 -5 3 -5 12 -10 18 -10 13 1 -22 24 -36 25 -4 0 -12 7 -17 15 -5 8
-10 11 -11 5 0 -5 -5 -1 -10 10 -8 18 -9 18 -5 -4z"/>
<path d="M3030 1830 c0 -5 5 -10 10 -10 6 0 10 5 10 10 0 6 -4 10 -10 10 -5 0
-10 -4 -10 -10z"/>
<path d="M2962 1817 c-7 -8 -9 -17 -5 -20 3 -4 1 -7 -5 -7 -7 0 -12 -5 -12
-11 0 -8 5 -8 15 1 8 7 13 16 10 20 -3 5 1 10 7 13 7 2 10 7 7 11 -3 4 -11 0
-17 -7z"/>
<path d="M3060 1818 c0 -4 4 -8 9 -8 6 0 12 4 15 8 3 5 -1 9 -9 9 -8 0 -15 -4
-15 -9z"/>
<path d="M3060 1756 c0 -8 4 -17 9 -20 5 -4 7 3 4 14 -6 23 -13 26 -13 6z"/>
<path d="M3013 1700 c16 -19 23 -37 20 -50 -3 -11 0 -20 6 -20 6 0 8 7 4 17
-4 11 -3 14 5 9 7 -4 12 -3 12 3 0 5 -6 11 -12 14 -7 2 -10 8 -6 12 4 4 14 2
23 -5 11 -9 12 -17 4 -31 -5 -11 -6 -19 -1 -19 6 0 12 9 15 19 5 21 -25 57
-41 48 -4 -3 -15 3 -22 14 -8 10 -18 19 -23 19 -5 0 2 -13 16 -30z"/>
<path d="M2967 1673 c3 -7 9 -13 15 -13 5 0 7 4 3 9 -3 5 3 12 12 14 10 3 6 4
-8 4 -18 -1 -25 -6 -22 -14z"/>
<path d="M2945 1659 c-4 -6 -5 -12 -2 -15 2 -3 7 2 10 11 7 17 1 20 -8 4z"/>
<path d="M3005 1660 c3 -5 8 -10 11 -10 2 0 4 5 4 10 0 6 -5 10 -11 10 -5 0
-7 -4 -4 -10z"/>
<path d="M2960 1645 c0 -5 8 -17 17 -27 16 -17 16 -20 -1 -36 -15 -15 -18 -15
-27 -2 -9 12 -10 12 -7 1 7 -25 25 -23 52 5 14 16 28 25 32 22 3 -4 -3 -17
-15 -29 -32 -35 -25 -41 8 -8 16 16 35 27 43 26 7 -2 10 -2 5 0 -4 3 -5 9 -1
14 3 5 0 9 -5 9 -6 0 -11 -5 -11 -12 0 -6 -13 0 -28 15 -15 15 -32 27 -37 27
-5 0 0 -6 11 -14 10 -8 16 -18 12 -22 -5 -4 -17 3 -28 16 -11 13 -20 19 -20
15z"/>
<path d="M2920 1594 c0 -8 -4 -12 -10 -9 -5 3 -10 3 -10 0 0 -9 43 -44 55 -45
5 0 0 7 -12 15 -14 10 -19 22 -16 35 3 11 3 20 -1 20 -3 0 -6 -7 -6 -16z"/>
<path d="M3029 1561 c-13 -11 -18 -20 -11 -21 6 0 12 5 12 11 0 5 5 7 10 4 6
-3 10 -1 10 4 0 6 5 11 11 11 5 0 7 -4 4 -10 -3 -5 -1 -10 5 -10 14 0 8 22 -7
27 -5 2 -21 -5 -34 -16z"/>
<path d="M2966 1535 c-3 -9 -10 -13 -16 -10 -5 3 -10 1 -10 -4 0 -17 27 -13
34 5 4 9 5 19 2 21 -2 2 -6 -3 -10 -12z"/>
<path d="M3050 1531 c0 -5 -15 -8 -32 -6 -18 2 -25 1 -15 -1 9 -3 15 -10 12
-15 -4 -5 -1 -9 4 -9 6 0 11 4 11 9 0 5 12 8 28 6 15 -2 21 -2 14 1 -6 3 -10
10 -6 15 3 5 0 9 -5 9 -6 0 -11 -4 -11 -9z"/>
<path d="M2980 1499 c0 -5 5 -7 10 -4 6 3 10 8 10 11 0 2 -4 4 -10 4 -5 0 -10
-5 -10 -11z"/>
<path d="M2901 1478 c13 -24 47 -58 59 -58 4 0 19 10 33 23 27 23 36 47 17 47
-5 0 -7 -8 -3 -17 3 -10 3 -15 -2 -11 -4 4 -16 -3 -25 -15 -10 -12 -21 -19
-25 -15 -4 4 0 14 8 23 17 16 13 45 -5 45 -7 0 -6 -5 1 -14 17 -20 -13 -43
-34 -26 -8 7 -15 19 -15 26 0 8 -5 14 -10 14 -7 0 -6 -8 1 -22z"/>
<path d="M3045 1492 c-14 -10 -17 -32 -5 -32 6 0 10 7 10 15 0 8 5 15 11 15 5
0 7 -5 3 -12 -4 -7 -3 -8 5 -4 6 4 9 12 6 17 -7 11 -16 11 -30 1z"/>
<path d="M2891 1443 c46 -51 49 -54 49 -46 1 4 8 -3 16 -17 8 -14 13 -18 10
-8 -3 11 8 25 35 44 22 15 37 29 35 32 -3 2 -19 -7 -36 -22 -17 -14 -36 -26
-42 -26 -5 0 -26 16 -45 35 -41 41 -57 47 -22 8z"/>
<path d="M3064 1454 c-18 -14 -18 -15 4 -4 12 6 22 13 22 15 0 8 -5 6 -26 -11z"/>
<path d="M2864 1429 c-4 -8 -3 -9 4 -5 15 9 16 -6 1 -21 -12 -12 -3 -37 11
-28 4 3 10 -2 14 -10 3 -8 13 -15 23 -14 14 0 15 2 3 6 -8 3 -19 12 -23 20 -5
7 -12 11 -18 8 -5 -4 -9 -2 -9 3 0 17 13 22 27 10 23 -18 21 -5 -3 20 -16 17
-24 20 -30 11z"/>
<path d="M3072 1414 c-1 -13 0 -24 2 -24 7 0 14 40 7 44 -4 3 -8 -6 -9 -20z"/>
<path d="M3013 1407 c-18 -12 -33 -26 -33 -31 0 -5 9 -1 20 9 11 10 22 16 25
13 3 -3 -1 -11 -10 -18 -8 -7 -15 -17 -15 -23 0 -5 8 -1 18 10 9 11 24 22 32
26 12 4 11 6 -3 6 -10 1 -15 6 -12 11 4 6 11 8 16 5 5 -4 9 -1 9 4 0 16 -11
13 -47 -12z"/>
<path d="M2910 1376 c0 -2 9 -6 20 -9 11 -3 18 -1 14 4 -5 9 -34 13 -34 5z"/>
<path d="M3055 1370 c3 -5 8 -10 11 -10 2 0 4 5 4 10 0 6 -5 10 -11 10 -5 0
-7 -4 -4 -10z"/>
<path d="M2858 1352 c9 -11 20 -17 25 -15 4 2 7 -5 7 -16 0 -12 4 -21 10 -21
15 0 0 33 -24 52 -28 23 -41 23 -18 0z"/>
<path d="M2975 1350 c-3 -5 -1 -10 4 -10 6 0 11 5 11 10 0 6 -2 10 -4 10 -3 0
-8 -4 -11 -10z"/>
<path d="M3011 1339 c-13 -11 -21 -22 -17 -26 3 -3 14 3 24 15 11 12 22 19 26
15 3 -3 6 -1 6 5 0 17 -11 14 -39 -9z"/>
<path d="M2837 1338 c4 -7 8 -19 9 -25 3 -17 30 -43 38 -36 3 4 6 1 6 -5 0 -7
5 -12 11 -12 5 0 8 4 4 9 -3 5 0 11 7 14 7 2 5 3 -4 2 -19 -3 -52 18 -54 34
-1 6 -2 16 -3 21 0 6 -6 10 -12 10 -6 0 -7 -5 -2 -12z"/>
<path d="M2940 1339 c0 -5 5 -7 10 -4 6 3 10 8 10 11 0 2 -4 4 -10 4 -5 0 -10
-5 -10 -11z"/>
<path d="M3060 1338 c0 -4 4 -8 9 -8 6 0 12 4 15 8 3 5 -1 9 -9 9 -8 0 -15 -4
-15 -9z"/>
<path d="M2917 1320 c3 -11 7 -20 9 -20 2 0 4 9 4 20 0 11 -4 20 -9 20 -5 0
-7 -9 -4 -20z"/>
<path d="M2960 1321 c0 -6 17 -26 38 -45 20 -20 31 -36 25 -36 -7 0 -28 15
-48 34 -19 19 -35 30 -35 26 0 -5 12 -21 27 -35 15 -14 23 -25 17 -25 -5 0
-15 5 -21 11 -7 7 -12 6 -16 -5 -4 -11 -1 -13 11 -9 9 3 2 -8 -17 -26 -19 -17
-30 -31 -25 -31 13 0 41 20 29 20 -13 0 47 40 60 40 5 0 -9 -18 -33 -40 -51
-49 -51 -49 -29 -61 18 -11 55 3 49 18 -2 4 1 9 7 11 7 2 9 -4 5 -15 -5 -14
-4 -15 4 -4 10 15 6 41 -7 41 -4 0 -14 -11 -21 -25 -7 -14 -17 -25 -22 -25
-17 0 -7 23 26 57 32 35 34 35 57 19 13 -9 20 -16 15 -16 -4 0 2 -9 15 -20 14
-11 18 -19 11 -20 -7 0 -24 12 -39 26 -30 30 -42 27 -13 -3 10 -12 16 -24 12
-29 -4 -4 1 -4 10 -1 11 4 29 -3 48 -19 16 -14 30 -22 30 -17 0 5 -9 15 -19
23 -11 7 -18 17 -15 22 3 4 -12 24 -33 45 -21 20 -30 34 -20 30 9 -3 17 -2 17
3 0 6 -7 10 -15 10 -8 0 -15 5 -15 11 0 5 4 8 8 5 4 -2 9 5 9 16 2 20 1 20
-12 2 -7 -11 -17 -16 -21 -12 -4 5 3 16 14 27 12 10 22 22 22 26 0 5 -11 -2
-25 -15 -20 -19 -27 -21 -40 -10 -8 7 -12 16 -9 21 3 5 0 9 -5 9 -6 0 -11 -4
-11 -9z"/>
<path d="M3060 1299 c0 -5 5 -7 10 -4 6 3 10 8 10 11 0 2 -4 4 -10 4 -5 0 -10
-5 -10 -11z"/>
<path d="M3064 1268 c3 -15 26 -23 26 -8 0 6 -4 9 -9 6 -5 -4 -12 -1 -14 4 -3
6 -4 5 -3 -2z"/>
<path d="M3379 1257 l-26 -22 23 -18 c31 -23 43 -22 15 2 -18 16 -19 20 -6 31
12 10 15 10 15 -1 1 -18 35 -59 50 -59 6 0 -1 11 -15 24 -14 13 -27 34 -28 45
-1 12 -1 21 -2 21 0 0 -12 -10 -26 -23z"/>
<path d="M3859 1257 l-26 -22 23 -18 c31 -23 43 -22 15 2 -18 16 -19 20 -6 31
12 10 15 10 15 -1 1 -18 35 -59 50 -59 6 0 -1 11 -15 24 -14 13 -27 34 -28 45
-1 12 -1 21 -2 21 0 0 -12 -10 -26 -23z"/>
<path d="M4339 1257 l-26 -22 23 -18 c31 -23 43 -22 15 2 -18 16 -19 20 -6 31
12 10 15 10 15 -1 1 -18 35 -59 50 -59 6 0 -1 11 -15 24 -14 13 -27 34 -28 45
-1 12 -1 21 -2 21 0 0 -12 -10 -26 -23z"/>
<path d="M2925 1260 c3 -5 8 -10 11 -10 2 0 4 5 4 10 0 6 -5 10 -11 10 -5 0
-7 -4 -4 -10z"/>
<path d="M3102 1243 c-1 -12 3 -25 8 -28 6 -3 10 -11 10 -18 0 -8 -3 -8 -12 1
-7 7 -17 12 -22 12 -7 0 -6 -3 1 -8 6 -4 24 -25 38 -46 24 -35 25 -40 11 -54
-14 -14 -17 -13 -36 8 -11 13 -20 19 -20 13 0 -10 32 -43 43 -43 3 0 24 19 46
43 47 49 55 39 11 -13 -16 -19 -30 -39 -30 -44 0 -5 16 11 35 35 19 24 33 50
30 57 -3 8 0 12 7 9 7 -2 12 -10 11 -16 -2 -6 1 -11 7 -11 18 0 10 21 -17 44
l-27 23 -18 -22 c-10 -13 -15 -30 -12 -39 8 -20 -3 -21 -23 -1 -14 14 -13 18
7 35 13 11 19 20 15 20 -5 0 -17 -7 -27 -17 -24 -22 -23 -2 2 27 25 29 26 39
2 17 -10 -10 -22 -14 -25 -10 -11 10 -8 33 4 33 5 0 7 -6 3 -12 -4 -7 -3 -9 1
-5 16 14 13 33 -4 33 -10 0 -18 -9 -19 -23z m108 -62 c0 -12 -29 -35 -36 -28
-7 6 17 36 29 37 4 0 7 -4 7 -9z"/>
<path d="M3180 1260 c-8 -5 -12 -12 -9 -15 4 -3 12 1 19 10 14 17 11 19 -10 5z"/>
<path d="M3221 1253 c18 -23 50 -53 57 -53 3 0 -3 9 -13 20 -15 16 -15 22 -5
35 7 9 8 15 2 15 -6 0 -13 -6 -16 -12 -5 -10 -7 -10 -12 0 -3 6 -10 12 -16 12
-6 0 -5 -8 3 -17z"/>
<path d="M3306 1258 c5 -7 -10 -12 -28 -9 -12 2 -10 -17 2 -24 6 -3 10 -1 10
5 0 6 5 8 10 5 6 -3 10 -1 10 4 0 6 5 11 11 11 5 0 7 -4 4 -10 -3 -5 -2 -10 4
-10 5 0 9 8 8 18 0 10 -9 18 -18 18 -10 0 -15 -4 -13 -8z"/>
<path d="M3420 1261 c0 -10 19 -25 25 -20 1 2 -3 10 -11 17 -8 7 -14 8 -14 3z"/>
<path d="M3463 1249 c8 -11 14 -28 12 -37 -1 -9 0 -12 2 -7 6 15 53 47 53 36
0 -5 -4 -13 -10 -16 -5 -3 -10 -10 -10 -16 0 -5 8 -1 18 9 11 10 15 21 10 28
-4 6 -4 15 0 20 4 5 -5 -1 -19 -13 -31 -28 -49 -30 -24 -3 10 11 13 20 7 20
-6 0 -13 -6 -16 -12 -5 -10 -7 -10 -12 0 -3 6 -10 12 -15 12 -6 0 -4 -9 4 -21z"/>
<path d="M3550 1260 c0 -5 5 -10 10 -10 6 0 10 5 10 10 0 6 -4 10 -10 10 -5 0
-10 -4 -10 -10z"/>
<path d="M3586 1259 c2 -4 -9 -18 -25 -32 -17 -14 -27 -28 -24 -31 4 -3 -2 -6
-13 -7 -12 0 -14 -3 -5 -6 7 -3 27 11 46 33 19 21 36 36 39 33 3 -3 -8 -21
-24 -40 -16 -19 -29 -38 -30 -44 0 -5 11 4 25 20 29 36 33 22 5 -20 -11 -16
-20 -26 -20 -20 0 5 -7 -1 -16 -13 -8 -12 -22 -22 -31 -22 -9 0 -13 3 -10 7 4
3 -2 12 -13 20 -11 8 -20 21 -20 29 0 8 -5 14 -10 14 -12 0 2 -30 28 -61 23
-27 38 -24 77 17 19 20 35 30 35 24 0 -14 -64 -80 -78 -80 -18 0 -64 43 -79
74 l-14 31 6 -30 7 -30 -24 23 c-36 33 -42 27 -8 -8 17 -17 30 -36 30 -43 0
-7 -18 8 -40 31 -22 24 -40 40 -40 36 0 -4 7 -16 16 -26 14 -14 14 -20 4 -33
-10 -12 -16 -13 -26 -4 -9 7 -14 8 -14 1 0 -18 29 -22 45 -5 9 8 19 12 22 9 8
-8 -48 -62 -59 -59 -5 2 -8 -2 -8 -7 0 -17 14 -11 47 20 32 30 50 39 38 20 -3
-5 -1 -10 4 -10 6 0 11 5 11 11 0 5 5 7 10 4 6 -4 8 -11 5 -16 -4 -5 -1 -9 4
-9 15 0 13 11 -4 34 -27 36 -16 40 17 7 25 -25 37 -31 57 -26 21 5 23 4 12 -9
-7 -9 -16 -14 -20 -12 -4 3 -7 -4 -8 -14 -1 -15 4 -13 28 11 16 16 35 29 42
29 7 0 -5 -16 -25 -36 -39 -36 -54 -62 -18 -29 16 15 22 16 35 5 12 -10 13
-16 4 -26 -7 -9 -8 -14 -1 -14 18 0 22 29 5 45 -8 9 -12 19 -9 22 8 8 62 -48
59 -59 -2 -5 2 -8 7 -8 17 0 11 14 -20 47 -30 32 -39 50 -20 38 6 -3 10 -1 10
4 0 6 -5 11 -11 11 -5 0 -7 5 -4 10 4 6 11 8 16 5 5 -4 9 -1 9 4 0 15 -11 13
-34 -4 -35 -27 -40 -16 -8 16 18 17 32 36 32 42 0 5 10 18 22 28 11 11 17 19
13 19 -5 0 -17 -7 -27 -17 -24 -22 -23 -2 2 27 11 13 20 25 20 28 0 3 -9 -3
-20 -13 -18 -16 -30 -8 -13 9 14 14 10 32 -7 32 -10 0 -17 -3 -14 -7z"/>
<path d="M3660 1260 c-8 -5 -12 -12 -9 -15 4 -3 12 1 19 10 14 17 11 19 -10 5z"/>
<path d="M3701 1253 c18 -23 50 -53 57 -53 3 0 -3 9 -13 20 -15 16 -15 22 -5
35 7 9 8 15 2 15 -6 0 -13 -6 -16 -12 -5 -10 -7 -10 -12 0 -3 6 -10 12 -16 12
-6 0 -5 -8 3 -17z"/>
<path d="M3786 1258 c5 -7 -10 -12 -28 -9 -12 2 -10 -17 2 -24 6 -3 10 -1 10
5 0 6 5 8 10 5 6 -3 10 -1 10 4 0 6 5 11 11 11 5 0 7 -4 4 -10 -3 -5 -2 -10 4
-10 5 0 9 8 8 18 0 10 -9 18 -18 18 -10 0 -15 -4 -13 -8z"/>
<path d="M3900 1261 c0 -10 19 -25 25 -20 1 2 -3 10 -11 17 -8 7 -14 8 -14 3z"/>
<path d="M3943 1249 c8 -11 14 -28 12 -37 -1 -9 0 -12 2 -7 6 15 53 47 53 36
0 -5 -4 -13 -10 -16 -5 -3 -10 -10 -10 -16 0 -5 8 -1 18 9 11 10 15 21 10 28
-4 6 -4 15 0 20 4 5 -5 -1 -19 -13 -31 -28 -49 -30 -24 -3 10 11 13 20 7 20
-6 0 -13 -6 -16 -12 -5 -10 -7 -10 -12 0 -3 6 -10 12 -15 12 -6 0 -4 -9 4 -21z"/>
<path d="M4030 1260 c0 -5 5 -10 10 -10 6 0 10 5 10 10 0 6 -4 10 -10 10 -5 0
-10 -4 -10 -10z"/>
<path d="M4066 1259 c2 -4 -9 -18 -25 -32 -17 -14 -27 -28 -24 -31 4 -3 -2 -6
-13 -7 -12 0 -14 -3 -5 -6 7 -3 27 11 46 33 44 51 53 40 12 -12 -23 -29 -39
-40 -54 -38 -12 2 -23 -3 -27 -11 -3 -8 -1 -15 4 -15 6 0 10 4 10 9 0 5 10 8
23 6 16 -3 26 3 40 27 19 32 36 33 19 1 -18 -33 2 -40 31 -11 30 30 26 39 -5
11 -24 -22 -23 -2 2 27 11 13 20 25 20 28 0 3 -9 -3 -20 -13 -18 -16 -30 -8
-13 9 14 14 10 32 -7 32 -10 0 -17 -3 -14 -7z"/>
<path d="M4140 1260 c-8 -5 -12 -12 -9 -15 4 -3 12 1 19 10 14 17 11 19 -10 5z"/>
<path d="M4181 1253 c18 -23 50 -53 57 -53 3 0 -3 9 -13 20 -15 16 -15 22 -5
35 7 9 8 15 2 15 -6 0 -13 -6 -16 -12 -5 -10 -7 -10 -12 0 -3 6 -10 12 -16 12
-6 0 -5 -8 3 -17z"/>
<path d="M4266 1258 c5 -7 -10 -12 -28 -9 -12 2 -10 -17 2 -24 6 -3 10 -1 10
5 0 6 5 8 10 5 6 -3 10 -1 10 4 0 6 5 11 11 11 5 0 7 -4 4 -10 -3 -5 -2 -10 4
-10 5 0 9 8 8 18 0 10 -9 18 -18 18 -10 0 -15 -4 -13 -8z"/>
<path d="M4380 1261 c0 -10 19 -25 25 -20 1 2 -3 10 -11 17 -8 7 -14 8 -14 3z"/>
<path d="M4423 1249 c8 -11 14 -28 12 -37 -1 -9 0 -12 2 -7 6 15 53 47 53 36
0 -5 -4 -13 -10 -16 -5 -3 -10 -10 -10 -16 0 -5 8 -1 18 9 11 10 15 21 10 28
-4 6 -4 15 0 20 4 5 -5 -1 -19 -13 -31 -28 -49 -30 -24 -3 10 11 13 20 7 20
-6 0 -13 -6 -16 -12 -5 -10 -7 -10 -12 0 -3 6 -10 12 -15 12 -6 0 -4 -9 4 -21z"/>
<path d="M4510 1260 c0 -5 5 -10 10 -10 6 0 10 5 10 10 0 6 -4 10 -10 10 -5 0
-10 -4 -10 -10z"/>
<path d="M4546 1259 c2 -4 -9 -18 -25 -32 -17 -14 -27 -28 -24 -31 4 -3 -2 -6
-13 -7 -12 0 -14 -3 -5 -6 7 -3 27 11 46 33 19 21 37 36 40 32 4 -3 -6 -21
-22 -38 -15 -18 -28 -40 -29 -50 -2 -25 -42 -75 -61 -75 -9 0 -18 -6 -20 -12
-3 -7 0 -13 7 -13 6 0 8 5 5 10 -13 21 7 8 46 -30 23 -22 46 -40 51 -40 5 0 3
-7 -6 -15 -20 -20 -30 -19 -22 2 5 13 0 11 -18 -6 -15 -14 -26 -19 -26 -13 0
7 -5 12 -11 12 -5 0 -8 -4 -4 -9 3 -5 0 -11 -7 -14 -7 -2 -4 -3 6 -1 12 2 36
-13 64 -41 44 -44 62 -54 62 -35 0 5 -4 9 -8 7 -12 -3 -86 72 -78 80 4 4 18
-5 32 -21 27 -28 45 -30 52 -5 3 11 2 11 -7 -1 -9 -13 -13 -13 -28 3 -17 18
-17 19 12 45 18 15 22 23 12 19 -14 -5 -28 2 -53 27 -18 18 -36 31 -39 28 -3
-3 -5 -1 -5 4 0 5 14 26 31 47 17 20 28 41 24 47 -3 5 6 22 21 37 33 33 40 69
14 69 -10 0 -17 -3 -14 -7z"/>
<path d="M4590 1257 c0 -5 10 -5 23 -2 16 5 10 -5 -25 -40 -27 -25 -48 -51
-48 -56 0 -5 22 13 48 41 l48 50 35 -30 c18 -16 39 -29 44 -30 6 0 -3 11 -20
25 -16 13 -25 24 -18 25 6 0 15 -4 18 -10 3 -5 12 -10 18 -10 7 0 4 5 -6 11
-14 8 -16 14 -6 25 7 9 8 14 1 14 -6 0 -13 -6 -16 -12 -5 -10 -7 -10 -12 0 -3
6 -10 12 -16 12 -6 0 -6 -6 2 -15 7 -8 8 -15 2 -15 -5 0 -15 6 -21 14 -13 16
-51 18 -51 3z"/>
<path d="M3197 1243 c-4 -3 -7 -11 -7 -16 0 -6 3 -8 6 -4 3 3 17 -5 31 -19 13
-13 29 -24 36 -24 6 0 2 7 -10 15 -12 9 -29 24 -36 35 -8 11 -17 17 -20 13z"/>
<path d="M3677 1243 c-4 -3 -7 -11 -7 -16 0 -6 3 -8 6 -4 3 3 17 -5 31 -19 13
-13 29 -24 36 -24 6 0 2 7 -10 15 -12 9 -29 24 -36 35 -8 11 -17 17 -20 13z"/>
<path d="M4157 1243 c-4 -3 -7 -11 -7 -16 0 -6 3 -8 6 -4 3 3 17 -5 31 -19 13
-13 29 -24 36 -24 6 0 2 7 -10 15 -12 9 -29 24 -36 35 -8 11 -17 17 -20 13z"/>
<path d="M3070 1230 c0 -5 5 -10 11 -10 5 0 7 5 4 10 -3 6 -8 10 -11 10 -2 0
-4 -4 -4 -10z"/>
<path d="M2780 1219 c0 -5 5 -7 10 -4 6 3 10 8 10 11 0 2 -4 4 -10 4 -5 0 -10
-5 -10 -11z"/>
<path d="M3165 1220 c-3 -5 -1 -10 4 -10 6 0 11 5 11 10 0 6 -2 10 -4 10 -3 0
-8 -4 -11 -10z"/>
<path d="M3445 1220 c3 -5 8 -10 11 -10 2 0 4 5 4 10 0 6 -5 10 -11 10 -5 0
-7 -4 -4 -10z"/>
<path d="M3645 1220 c-3 -5 -1 -10 4 -10 6 0 11 5 11 10 0 6 -2 10 -4 10 -3 0
-8 -4 -11 -10z"/>
<path d="M3925 1220 c3 -5 8 -10 11 -10 2 0 4 5 4 10 0 6 -5 10 -11 10 -5 0
-7 -4 -4 -10z"/>
<path d="M4125 1220 c-3 -5 -1 -10 4 -10 6 0 11 5 11 10 0 6 -2 10 -4 10 -3 0
-8 -4 -11 -10z"/>
<path d="M4405 1220 c3 -5 8 -10 11 -10 2 0 4 5 4 10 0 6 -5 10 -11 10 -5 0
-7 -4 -4 -10z"/>
<path d="M2753 1205 c0 -8 4 -15 9 -15 4 0 8 7 8 15 0 8 -4 15 -8 15 -5 0 -9
-7 -9 -15z"/>
<path d="M3295 1210 c-3 -6 1 -7 9 -4 18 7 21 14 7 14 -6 0 -13 -4 -16 -10z"/>
<path d="M3335 1211 c3 -5 -3 -12 -12 -14 -11 -3 -9 -5 7 -5 14 1 34 -3 45 -8
17 -7 18 -6 5 8 -8 9 -18 14 -22 11 -5 -2 -8 1 -8 6 0 6 -5 11 -11 11 -5 0 -8
-4 -4 -9z"/>
<path d="M3775 1210 c-3 -6 1 -7 9 -4 18 7 21 14 7 14 -6 0 -13 -4 -16 -10z"/>
<path d="M3815 1211 c3 -5 -3 -12 -12 -14 -11 -3 -9 -5 7 -5 14 1 34 -3 45 -8
17 -7 18 -6 5 8 -8 9 -18 14 -22 11 -5 -2 -8 1 -8 6 0 6 -5 11 -11 11 -5 0 -8
-4 -4 -9z"/>
<path d="M4255 1210 c-3 -6 1 -7 9 -4 18 7 21 14 7 14 -6 0 -13 -4 -16 -10z"/>
<path d="M4295 1211 c3 -5 -3 -12 -12 -14 -11 -3 -9 -5 7 -5 14 1 34 -3 45 -8
17 -7 18 -6 5 8 -8 9 -18 14 -22 11 -5 -2 -8 1 -8 6 0 6 -5 11 -11 11 -5 0 -8
-4 -4 -9z"/>
<path d="M4620 1210 c-13 -8 -12 -12 7 -25 13 -9 20 -22 17 -30 -4 -8 -4 -15
-1 -15 14 0 14 31 0 45 -8 9 -12 19 -8 23 4 4 15 -3 25 -15 9 -12 21 -19 25
-15 5 4 6 -1 2 -10 -3 -9 3 -26 14 -39 10 -12 19 -17 19 -12 0 6 -7 16 -15 23
-8 7 -12 17 -9 22 4 6 -6 21 -21 34 -31 27 -34 28 -55 14z"/>
<path d="M2886 1185 c-9 -13 -22 -22 -29 -20 -12 5 -67 -36 -67 -50 0 -4 14 5
30 19 17 14 37 23 45 20 8 -4 15 -2 15 3 0 5 9 19 20 31 12 12 17 22 12 22 -6
0 -17 -11 -26 -25z"/>
<path d="M3487 1191 c-4 -17 -3 -21 5 -13 5 5 8 16 6 23 -3 8 -7 3 -11 -10z"/>
<path d="M3657 1184 c-20 -27 -21 -34 -5 -34 6 0 9 3 5 6 -6 6 16 34 26 34 2
0 5 -11 5 -25 0 -13 -4 -22 -9 -19 -5 3 -12 -2 -15 -10 -3 -9 -14 -16 -23 -17
-12 0 -13 -2 -2 -6 8 -3 20 2 27 11 7 10 16 18 21 19 4 1 7 8 7 15 -1 7 3 11
10 9 6 -3 10 -10 9 -16 -2 -6 2 -11 7 -11 19 0 9 25 -18 46 l-27 21 -18 -23z"/>
<path d="M3967 1191 c-4 -17 -3 -21 5 -13 5 5 8 16 6 23 -3 8 -7 3 -11 -10z"/>
<path d="M4137 1184 c-21 -27 -16 -32 8 -8 9 9 19 13 23 9 4 -3 -2 -14 -13
-22 -16 -13 -17 -15 -2 -10 23 8 80 -42 82 -73 1 -16 -9 -33 -29 -49 -17 -14
-35 -31 -39 -39 -5 -7 -12 -10 -18 -7 -8 6 -10 -1 -8 -22 0 -4 -8 -11 -18 -15
-16 -7 -16 -8 2 -5 11 2 19 9 18 15 -2 7 1 12 5 12 4 0 25 16 46 36 63 60 53
28 -11 -36 -56 -55 -84 -75 -68 -50 3 6 1 10 -4 10 -13 0 -14 -10 -2 -28 12
-20 142 114 137 142 -2 13 5 26 18 34 19 11 19 12 2 10 -10 -2 -21 3 -23 10
-3 8 1 10 14 5 17 -7 17 -6 1 11 -24 23 -23 44 0 23 10 -10 22 -17 27 -17 4 0
-5 11 -21 25 -34 29 -49 32 -39 8 17 -43 16 -47 -7 -23 -14 14 -22 27 -18 30
4 3 -5 15 -19 26 l-26 21 -18 -23z"/>
<path d="M4447 1191 c-4 -17 -3 -21 5 -13 5 5 8 16 6 23 -3 8 -7 3 -11 -10z"/>
<path d="M2820 1179 c0 -5 5 -7 10 -4 6 3 10 8 10 11 0 2 -4 4 -10 4 -5 0 -10
-5 -10 -11z"/>
<path d="M3285 1180 c3 -5 8 -10 11 -10 2 0 4 5 4 10 0 6 -5 10 -11 10 -5 0
-7 -4 -4 -10z"/>
<path d="M3405 1180 c3 -5 8 -10 11 -10 2 0 4 5 4 10 0 6 -5 10 -11 10 -5 0
-7 -4 -4 -10z"/>
<path d="M3765 1180 c3 -5 8 -10 11 -10 2 0 4 5 4 10 0 6 -5 10 -11 10 -5 0
-7 -4 -4 -10z"/>
<path d="M3885 1180 c3 -5 8 -10 11 -10 2 0 4 5 4 10 0 6 -5 10 -11 10 -5 0
-7 -4 -4 -10z"/>
<path d="M4245 1180 c3 -5 8 -10 11 -10 2 0 4 5 4 10 0 6 -5 10 -11 10 -5 0
-7 -4 -4 -10z"/>
<path d="M4365 1180 c3 -5 8 -10 11 -10 2 0 4 5 4 10 0 6 -5 10 -11 10 -5 0
-7 -4 -4 -10z"/>
<path d="M4578 1168 c-10 -10 -14 -18 -9 -18 6 0 13 5 16 10 9 15 25 12 25 -5
0 -8 4 -15 8 -15 15 0 9 27 -7 37 -11 7 -21 4 -33 -9z"/>
<path d="M2770 1169 c0 -5 5 -7 10 -4 6 3 10 8 10 11 0 2 -4 4 -10 4 -5 0 -10
-5 -10 -11z"/>
<path d="M3310 1166 c0 -8 7 -17 16 -20 23 -9 24 -4 2 17 -14 13 -18 14 -18 3z"/>
<path d="M3335 1170 c3 -5 8 -10 11 -10 2 0 4 5 4 10 0 6 -5 10 -11 10 -5 0
-7 -4 -4 -10z"/>
<path d="M3790 1171 c0 -6 19 -28 43 -50 23 -22 37 -41 30 -41 -6 0 -20 8 -29
18 -17 16 -18 16 -11 -1 5 -13 3 -17 -5 -14 -7 2 -12 15 -11 28 1 15 0 17 -3
6 -3 -9 -10 -15 -15 -12 -5 4 -9 3 -9 -2 0 -4 16 -18 35 -31 19 -12 35 -27 35
-33 0 -6 -20 4 -44 22 -30 21 -43 37 -40 48 3 9 -2 5 -10 -9 -8 -14 -15 -21
-16 -16 0 5 -13 -6 -29 -25 -26 -29 -31 -31 -36 -16 -4 9 -12 17 -18 17 -5 0
-2 -9 8 -20 10 -11 16 -22 13 -25 -3 -3 -11 1 -18 10 -7 8 -17 15 -23 15 -5 0
0 -8 11 -19 12 -10 18 -22 14 -26 -4 -5 -1 -5 6 -1 21 12 13 -2 -18 -34 -33
-33 -34 -38 -20 -60 7 -12 13 -9 30 13 12 15 26 25 31 22 5 -4 9 -1 9 4 0 17
-14 13 -39 -10 -12 -12 -25 -18 -29 -14 -4 4 4 15 17 26 13 10 20 19 15 19 -4
0 0 6 11 13 10 8 15 19 11 26 -8 12 54 81 72 81 15 0 82 -57 75 -64 -3 -3 -3
-6 2 -6 4 0 13 8 20 17 10 14 9 20 -9 35 -13 11 -16 17 -8 18 8 0 31 -17 53
-38 l38 -38 -29 -35 c-16 -19 -29 -38 -30 -44 0 -5 11 4 25 20 26 32 35 24 10
-9 -17 -23 -19 -36 -5 -36 5 0 9 3 9 8 -3 19 4 32 37 67 19 21 28 35 19 32
-10 -4 -31 8 -58 33 -23 22 -37 40 -32 40 16 0 67 -37 64 -46 -1 -5 6 -10 17
-11 18 -3 18 -2 1 5 -10 4 -18 11 -18 15 2 21 0 28 -8 22 -5 -3 -12 -1 -16 5
-3 5 -1 10 4 10 6 0 11 5 11 12 0 9 -3 9 -12 0 -7 -7 -16 -12 -22 -12 -5 0 7
16 27 36 33 33 40 64 14 64 -8 0 -7 -4 1 -11 8 -9 2 -21 -24 -47 -19 -19 -38
-32 -41 -28 -4 4 5 18 20 32 15 14 27 33 26 42 0 13 -2 12 -9 -4 -14 -35 -31
-40 -52 -14 -10 12 -18 18 -18 12 0 -6 7 -18 16 -27 9 -9 13 -19 10 -23 -4 -3
-22 11 -41 31 -19 21 -35 34 -35 28z m150 -186 c-7 -9 -15 -13 -17 -11 -7 7 7
26 19 26 6 0 6 -6 -2 -15z"/>
<path d="M3815 1170 c3 -5 8 -10 11 -10 2 0 4 5 4 10 0 6 -5 10 -11 10 -5 0
-7 -4 -4 -10z"/>
<path d="M4270 1174 c0 -3 11 -19 24 -34 17 -21 26 -26 35 -17 6 6 14 8 17 4
4 -3 0 -13 -9 -21 -8 -8 -17 -12 -21 -9 -3 4 -6 1 -6 -5 0 -7 5 -12 11 -12 5
0 7 -5 3 -11 -5 -8 -1 -8 14 0 35 19 38 12 7 -16 -16 -16 -33 -27 -37 -25 -5
1 -8 -2 -8 -8 0 -19 20 -10 49 22 27 30 29 31 52 15 13 -10 19 -17 14 -17 -5
0 1 -7 13 -16 12 -8 20 -20 17 -25 -4 -5 -1 -9 4 -9 21 0 11 20 -26 57 -21 20
-30 34 -21 30 12 -4 15 -2 11 9 -4 11 -9 12 -16 5 -20 -20 -30 -11 -12 9 10
11 16 20 13 20 -3 0 -15 -9 -28 -20 -40 -35 -47 -21 -7 16 20 19 37 43 36 52
0 13 -2 12 -9 -4 -14 -35 -31 -39 -53 -13 -19 24 -20 24 -13 2 10 -30 -1 -29
-30 3 -13 14 -24 22 -24 18z"/>
<path d="M4295 1170 c3 -5 8 -10 11 -10 2 0 4 5 4 10 0 6 -5 10 -11 10 -5 0
-7 -4 -4 -10z"/>
<path d="M4422 1160 c7 -10 14 -18 15 -16 6 6 -9 36 -18 36 -5 0 -4 -9 3 -20z"/>
<path d="M2906 1155 c4 -8 8 -15 10 -15 2 0 4 7 4 15 0 8 -4 15 -10 15 -5 0
-7 -7 -4 -15z"/>
<path d="M3260 1162 c0 -4 10 -9 22 -9 18 -2 20 0 8 7 -18 12 -30 13 -30 2z"/>
<path d="M3496 1162 c-2 -4 4 -13 14 -20 15 -9 19 -8 24 5 4 9 4 18 1 21 -3 3
-5 0 -5 -6 0 -7 -5 -12 -11 -12 -5 0 -7 5 -4 10 3 6 2 10 -4 10 -5 0 -12 -4
-15 -8z"/>
<path d="M3750 1160 c8 -5 20 -10 25 -10 6 0 3 5 -5 10 -8 5 -19 10 -25 10 -5
0 -3 -5 5 -10z"/>
<path d="M3865 1160 c3 -5 11 -10 16 -10 6 0 7 5 4 10 -3 6 -11 10 -16 10 -6
0 -7 -4 -4 -10z"/>
<path d="M4345 1160 c3 -5 11 -10 16 -10 6 0 7 5 4 10 -3 6 -11 10 -16 10 -6
0 -7 -4 -4 -10z"/>
<path d="M4456 1155 c-3 -8 -1 -15 3 -15 5 0 11 7 15 15 3 8 1 15 -3 15 -5 0
-11 -7 -15 -15z"/>
<path d="M4482 1146 c-7 -15 -18 -23 -29 -22 -10 2 -12 1 -5 -1 7 -3 10 -9 7
-14 -4 -5 -2 -9 2 -9 10 0 47 59 41 66 -3 2 -10 -7 -16 -20z"/>
<path d="M4095 1150 c-3 -5 -1 -10 4 -10 6 0 11 5 11 10 0 6 -2 10 -4 10 -3 0
-8 -4 -11 -10z"/>
<path d="M2885 1140 c-3 -5 -1 -10 4 -10 6 0 11 5 11 10 0 6 -2 10 -4 10 -3 0
-8 -4 -11 -10z"/>
<path d="M3020 1140 c0 -5 5 -10 11 -10 5 0 7 5 4 10 -3 6 -8 10 -11 10 -2 0
-4 -4 -4 -10z"/>
<path d="M3740 1140 c0 -5 5 -10 11 -10 5 0 7 5 4 10 -3 6 -8 10 -11 10 -2 0
-4 -4 -4 -10z"/>
<path d="M4045 1140 c-3 -5 -1 -10 4 -10 6 0 11 5 11 10 0 6 -2 10 -4 10 -3 0
-8 -4 -11 -10z"/>
<path d="M4127 1129 c4 -13 8 -18 11 -10 2 7 -1 18 -6 23 -8 8 -9 4 -5 -13z"/>
<path d="M4405 1140 c-3 -5 -1 -10 4 -10 6 0 11 5 11 10 0 6 -2 10 -4 10 -3 0
-8 -4 -11 -10z"/>
<path d="M4583 1135 c-3 -9 -3 -18 -1 -21 3 -3 8 4 11 16 6 23 -1 27 -10 5z"/>
<path d="M4660 1140 c0 -5 5 -10 11 -10 5 0 7 5 4 10 -3 6 -8 10 -11 10 -2 0
-4 -4 -4 -10z"/>
<path d="M2850 1129 c0 -5 5 -7 10 -4 6 3 10 8 10 11 0 2 -4 4 -10 4 -5 0 -10
-5 -10 -11z"/>
<path d="M3055 1130 c3 -5 8 -10 11 -10 2 0 4 5 4 10 0 6 -5 10 -11 10 -5 0
-7 -4 -4 -10z"/>
<path d="M3247 1120 c-18 -21 -12 -26 13 -10 8 5 11 10 5 10 -5 0 -3 5 5 10 8
5 10 10 5 10 -6 0 -18 -9 -28 -20z"/>
<path d="M3295 1130 c3 -5 8 -10 11 -10 2 0 4 5 4 10 0 6 -5 10 -11 10 -5 0
-7 -4 -4 -10z"/>
<path d="M3616 1131 c-4 -5 3 -7 14 -4 23 6 26 13 6 13 -8 0 -17 -4 -20 -9z"/>
<path d="M3775 1130 c3 -5 8 -10 11 -10 2 0 4 5 4 10 0 6 -5 10 -11 10 -5 0
-7 -4 -4 -10z"/>
<path d="M4010 1131 c0 -5 -15 -8 -32 -6 -18 2 -25 1 -15 -1 9 -3 15 -10 12
-15 -4 -5 -1 -9 4 -9 6 0 11 4 11 9 0 5 15 8 33 6 17 -2 24 -1 14 1 -9 3 -15
10 -12 15 4 5 1 9 -4 9 -6 0 -11 -4 -11 -9z"/>
<path d="M4158 1133 c6 -2 12 -9 12 -14 0 -6 -4 -7 -10 -4 -5 3 -10 1 -10 -5
0 -7 7 -9 16 -6 19 7 44 -10 44 -31 0 -8 -3 -12 -7 -10 -5 3 -17 -7 -27 -21
-11 -14 -13 -21 -6 -17 29 18 50 40 50 52 0 16 -48 63 -63 62 -9 0 -9 -2 1 -6z"/>
<path d="M4522 1113 c-12 -15 -22 -31 -22 -35 0 -12 50 -58 63 -57 9 0 9 2 0
6 -7 2 -13 9 -13 14 0 6 5 7 10 4 6 -3 10 -1 10 5 0 7 -8 9 -19 5 -11 -3 -24
1 -32 11 -11 14 -10 19 10 35 13 11 19 19 15 20 -5 0 0 4 11 9 14 6 16 9 4 9
-8 1 -25 -11 -37 -26z"/>
<path d="M2920 1123 c8 -4 21 -13 28 -22 11 -15 13 -15 25 0 6 9 19 18 27 22
12 4 12 6 -2 6 -9 1 -22 -7 -28 -16 -10 -17 -10 -17 -20 0 -6 9 -19 17 -28 16
-14 0 -14 -2 -2 -6z"/>
<path d="M3197 1095 c-15 -19 -23 -35 -17 -35 5 0 10 3 10 8 0 4 11 20 25 35
14 15 22 27 18 27 -4 0 -21 -16 -36 -35z"/>
<path d="M3320 1114 c0 -8 -4 -12 -10 -9 -5 3 -10 3 -10 0 0 -9 43 -44 55 -45
5 0 0 7 -12 15 -14 10 -19 22 -16 35 3 11 3 20 -1 20 -3 0 -6 -7 -6 -16z"/>
<path d="M3340 1126 c0 -2 7 -6 15 -10 8 -3 15 -1 15 4 0 6 -7 10 -15 10 -8 0
-15 -2 -15 -4z"/>
<path d="M3691 1113 c-5 -10 -12 -17 -15 -15 -14 6 -27 1 -21 -8 3 -5 2 -10
-4 -10 -5 0 -12 5 -14 10 -3 6 -4 5 -3 -2 2 -7 10 -13 20 -13 9 0 20 -5 24
-11 4 -6 13 -4 25 8 9 10 13 18 8 18 -6 0 -13 -5 -16 -10 -7 -12 -25 -4 -25
11 0 6 4 8 9 4 6 -3 13 1 18 8 4 8 15 17 23 20 12 4 12 6 -2 6 -9 1 -21 -7
-27 -16z"/>
<path d="M4041 1089 c-30 -36 -51 -43 -51 -18 0 6 3 8 8 6 4 -3 14 2 22 11 13
14 12 15 -5 8 -11 -5 -29 -9 -39 -10 -21 -1 -36 -26 -16 -26 6 0 8 5 5 10 -3
6 -2 10 2 10 8 0 29 -30 60 -84 10 -16 13 -17 13 -4 0 9 -7 24 -16 33 -9 9
-13 19 -10 22 4 4 17 -5 31 -19 17 -19 21 -28 12 -37 -8 -8 -8 -11 0 -11 19 0
21 24 5 42 -12 14 -12 20 -2 33 10 12 16 13 26 4 9 -7 14 -8 14 -1 0 18 -29
22 -45 5 -9 -8 -19 -12 -22 -9 -8 8 48 62 59 59 5 -2 8 2 8 7 0 21 -26 7 -59
-31z"/>
<path d="M4111 1119 c-1 -9 10 -24 24 -33 16 -11 22 -22 19 -34 -4 -11 1 -8
14 8 12 14 18 27 16 30 -3 2 -8 -1 -12 -7 -8 -13 -45 12 -55 37 -4 12 -6 12
-6 -1z"/>
<path d="M4600 1119 c0 -7 -8 -18 -17 -25 -16 -13 -17 -15 -2 -26 9 -7 18 -20
22 -28 4 -12 6 -12 6 2 1 9 -7 21 -16 27 -10 5 -15 13 -10 17 4 4 16 -1 26
-10 11 -10 25 -15 32 -11 7 5 10 3 7 -6 -3 -8 -11 -13 -17 -11 -6 1 -11 -2
-11 -8 0 -15 10 -12 40 13 l27 23 -23 27 c-13 15 -28 27 -34 27 -6 0 0 -11 14
-24 32 -29 32 -35 4 -34 -32 2 -47 16 -41 38 3 11 3 20 -1 20 -3 0 -6 -5 -6
-11z"/>
<path d="M2874 1108 c3 -12 -3 -24 -19 -34 -14 -9 -25 -21 -25 -26 0 -5 7 -2
15 6 9 9 23 20 32 24 13 8 13 13 4 28 -11 16 -12 16 -7 2z"/>
<path d="M2898 1108 c5 -5 16 -8 23 -6 8 3 3 7 -10 11 -17 4 -21 3 -13 -5z"/>
<path d="M3005 1110 c-16 -7 -17 -9 -3 -9 9 -1 20 4 23 9 7 11 7 11 -20 0z"/>
<path d="M3036 1103 c-4 -10 -1 -20 8 -25 8 -5 22 -15 31 -24 8 -8 15 -11 15
-6 0 5 -11 17 -25 26 -15 10 -22 22 -19 31 4 8 4 15 1 15 -3 0 -8 -8 -11 -17z"/>
<path d="M3260 1091 c-51 -55 -61 -69 -65 -92 -3 -13 -12 -30 -22 -36 -9 -7
-12 -13 -7 -13 6 0 15 5 22 12 16 16 15 -3 -2 -24 -14 -19 -32 -25 -21 -8 3 6
1 10 -4 10 -6 0 -11 -4 -11 -8 0 -4 -9 -8 -20 -9 -17 -2 -15 4 15 32 35 35 44
55 24 55 -5 0 -8 -4 -4 -9 3 -5 -5 -17 -17 -25 -12 -9 -18 -16 -13 -16 5 0 -1
-7 -14 -17 -23 -16 -25 -15 -52 15 -29 32 -49 41 -49 22 0 -5 3 -9 8 -7 4 1
21 -10 37 -25 31 -29 28 -36 -7 -17 -15 8 -19 8 -14 0 4 -6 2 -11 -3 -11 -6 0
-11 -5 -11 -12 0 -6 3 -9 6 -5 3 3 17 -5 31 -19 13 -13 28 -24 34 -24 5 0 -5
13 -23 30 -36 32 -25 42 12 10 13 -11 25 -20 28 -20 3 0 -3 9 -13 20 -19 21
-7 28 13 8 7 -7 12 -8 12 -2 0 16 69 8 89 -10 10 -9 21 -16 26 -16 4 0 -2 9
-14 20 l-23 19 26 26 c14 14 26 30 26 35 0 5 -16 -7 -35 -28 -39 -42 -48 -32
-10 12 30 35 33 46 5 21 -11 -10 -20 -13 -20 -7 0 6 4 13 10 17 5 3 7 11 4 18
-2 7 11 27 30 45 l34 31 26 -24 c14 -13 26 -20 26 -15 0 5 -11 17 -24 26 -15
9 -22 21 -19 30 7 19 2 16 -27 -15z"/>
<path d="M3725 1110 c-16 -7 -17 -9 -3 -9 9 -1 20 4 23 9 7 11 7 11 -20 0z"/>
<path d="M4417 1105 c3 -8 9 -12 14 -9 12 7 11 11 -5 17 -10 4 -13 1 -9 -8z"/>
<path d="M4547 1098 c-10 -11 -16 -22 -13 -26 6 -6 35 27 36 41 0 10 -2 8 -23
-15z"/>
<path d="M4688 1101 c12 -10 19 -21 15 -25 -3 -3 -1 -6 5 -6 7 0 12 4 12 8 0
11 -34 42 -45 42 -4 0 2 -8 13 -19z"/>
<path d="M2827 1085 c-16 -14 -33 -23 -38 -20 -5 4 -9 1 -9 -4 0 -6 3 -11 7
-11 11 0 73 44 73 53 0 10 -2 9 -33 -18z"/>
<path d="M3060 1103 c1 -9 50 -47 54 -41 2 1 -10 13 -25 26 -16 13 -29 20 -29
15z"/>
<path d="M3940 1099 c0 -5 5 -7 10 -4 6 3 10 8 10 11 0 2 -4 4 -10 4 -5 0 -10
-5 -10 -11z"/>
<path d="M4285 1100 c3 -5 8 -10 11 -10 2 0 4 5 4 10 0 6 -5 10 -11 10 -5 0
-7 -4 -4 -10z"/>
<path d="M4620 1100 c0 -5 5 -10 11 -10 5 0 7 5 4 10 -3 6 -8 10 -11 10 -2 0
-4 -4 -4 -10z"/>
<path d="M2670 1080 c0 -11 2 -20 4 -20 2 0 6 9 9 20 3 11 1 20 -4 20 -5 0 -9
-9 -9 -20z"/>
<path d="M4097 1085 c12 -8 20 -23 19 -32 -2 -10 -1 -12 1 -5 3 7 9 10 14 7 5
-4 9 -3 9 0 0 9 -43 44 -55 45 -5 0 0 -7 12 -15z"/>
<path d="M2726 1075 c4 -8 11 -15 16 -15 6 0 5 6 -2 15 -7 8 -14 15 -16 15 -2
0 -1 -7 2 -15z"/>
<path d="M2901 1080 c-1 -14 45 -60 59 -60 16 0 62 49 57 61 -4 9 -6 7 -6 -5
-1 -11 -4 -17 -7 -13 -4 3 -15 -4 -25 -16 l-19 -22 -20 24 c-11 13 -20 19 -21
15 0 -5 -4 0 -9 11 -5 13 -9 15 -9 5z"/>
<path d="M2940 1070 l20 -20 20 20 c11 11 16 20 12 20 -4 0 -13 -5 -20 -12 -9
-9 -15 -9 -24 0 -7 7 -16 12 -20 12 -4 0 1 -9 12 -20z"/>
<path d="M3205 1066 c-9 -13 -24 -23 -33 -21 -9 1 -11 0 -4 -2 7 -3 10 -9 7
-14 -4 -5 -1 -9 4 -9 6 0 11 4 11 9 0 4 11 20 25 35 13 14 20 26 15 26 -5 0
-17 -11 -25 -24z"/>
<path d="M4290 1070 c0 -5 5 -10 11 -10 5 0 7 5 4 10 -3 6 -8 10 -11 10 -2 0
-4 -4 -4 -10z"/>
<path d="M2646 1055 c-3 -9 -10 -13 -16 -10 -5 3 -10 1 -10 -4 0 -17 27 -13
34 5 4 9 5 19 2 21 -2 2 -6 -3 -10 -12z"/>
<path d="M2838 1027 c-23 -23 -39 -34 -35 -24 3 9 2 17 -3 17 -6 0 -10 -5 -10
-11 0 -11 -25 -39 -35 -39 -3 0 -3 9 0 20 4 12 2 20 -5 20 -6 0 -8 -4 -5 -10
3 -5 1 -10 -4 -10 -6 0 -11 5 -11 10 0 6 -5 10 -12 10 -6 0 -1 -11 12 -25 19
-20 21 -27 10 -40 -7 -8 -16 -12 -21 -9 -5 3 -9 0 -9 -5 0 -20 19 -11 54 27
37 39 51 32 16 -8 -11 -13 -20 -25 -20 -28 0 -3 9 3 20 13 20 18 29 8 9 -12
-7 -7 -6 -12 5 -16 11 -4 13 -1 9 11 -4 9 10 0 30 -20 39 -40 44 -43 66 -29
10 7 3 18 -30 50 l-44 41 28 25 27 26 33 -30 c17 -17 35 -31 39 -31 18 0 -4
-57 -31 -82 -37 -33 -41 -34 -69 -8 -12 12 -22 16 -22 11 0 -6 9 -15 20 -21
11 -6 18 -15 16 -19 -3 -4 1 -8 9 -8 8 0 15 4 15 9 0 4 5 8 11 8 5 0 7 -5 3
-12 -4 -7 -3 -8 5 -4 6 4 10 10 7 14 -2 4 8 18 22 32 21 22 24 22 18 5 -4 -11
-8 -24 -9 -30 -1 -5 -6 -13 -12 -17 -6 -5 -6 -8 2 -8 6 0 15 5 19 11 4 8 9 7
16 -2 8 -11 9 -11 5 1 -2 8 5 23 16 33 11 9 16 17 12 17 -5 0 -17 -7 -27 -17
-24 -22 -23 -2 2 27 11 13 20 25 20 28 0 3 -9 -3 -20 -13 -21 -19 -28 -7 -8
13 9 9 9 12 1 12 -7 0 -10 10 -7 25 3 17 -1 27 -11 31 -8 3 -14 9 -12 13 1 3
-12 20 -30 38 l-33 31 -42 -41z m84 -18 c49 -50 43 -63 -7 -16 l-37 35 -29
-31 c-16 -16 -29 -33 -29 -37 0 -5 16 -24 36 -44 20 -20 33 -40 29 -44 -3 -4
-15 4 -26 17 -10 13 -19 19 -19 15 0 -5 -10 6 -21 24 l-21 32 21 33 c11 17 21
28 21 22 0 -5 7 1 16 13 8 12 18 22 21 22 3 0 23 -18 45 -41z"/>
<path d="M3002 1032 c-25 -26 -30 -38 -22 -50 5 -10 10 -12 10 -7 1 6 6 1 11
-10 9 -19 9 -18 5 3 -3 15 2 26 17 33 17 10 24 8 40 -12 15 -19 20 -20 28 -8
14 22 11 33 -13 53 -19 16 -20 17 -15 1 4 -9 7 -19 7 -21 0 -3 5 -2 10 1 6 3
10 -1 10 -9 0 -22 -17 -20 -32 3 -12 19 -12 19 -41 -1 -38 -27 -44 -18 -8 15
16 14 32 23 35 20 3 -4 6 -1 6 5 0 22 -16 17 -48 -16z"/>
<path d="M3126 1055 c-3 -9 -10 -13 -16 -10 -5 3 -10 1 -10 -4 0 -17 27 -13
34 5 4 9 5 19 2 21 -2 2 -6 -3 -10 -12z"/>
<path d="M3487 1049 c4 -13 8 -18 11 -10 2 7 -1 18 -6 23 -8 8 -9 4 -5 -13z"/>
<path d="M3620 1060 c0 -5 5 -10 11 -10 5 0 7 5 4 10 -3 6 -8 10 -11 10 -2 0
-4 -4 -4 -10z"/>
<path d="M4263 1055 c-3 -9 -3 -18 -1 -21 3 -3 8 4 11 16 6 23 -1 27 -10 5z"/>
<path d="M3260 1050 c-12 -7 -9 -13 13 -30 15 -12 25 -26 22 -31 -4 -5 -1 -9
4 -9 17 0 13 14 -10 39 -12 12 -18 25 -14 29 4 4 15 -4 26 -17 10 -13 19 -20
19 -15 0 4 6 0 13 -11 8 -10 19 -15 26 -11 12 8 81 -54 81 -72 0 -6 -10 -23
-23 -39 -21 -25 -41 -63 -33 -63 1 0 17 22 35 50 23 35 37 48 49 44 9 -3 6 2
-8 10 -14 8 -21 15 -16 16 5 0 -6 13 -25 29 -29 26 -31 31 -16 36 9 4 17 12
17 18 0 5 -9 2 -20 -8 -11 -10 -22 -16 -25 -13 -3 3 1 11 10 18 8 7 15 17 15
23 0 5 -8 0 -19 -11 -10 -12 -22 -18 -26 -14 -5 4 -5 1 -1 -5 12 -22 -2 -14
-34 17 -33 33 -38 34 -60 20z"/>
<path d="M3410 1049 c0 -5 5 -7 10 -4 6 3 10 8 10 11 0 2 -4 4 -10 4 -5 0 -10
-5 -10 -11z"/>
<path d="M3725 1035 c-30 -31 -34 -46 -5 -20 20 18 21 18 43 -3 13 -12 27 -22
31 -22 4 0 -5 11 -20 25 -15 14 -24 29 -20 33 4 4 16 -3 26 -15 9 -12 20 -19
24 -16 3 4 6 -2 7 -13 0 -12 2 -14 6 -5 5 12 -41 61 -58 61 -4 0 -20 -11 -34
-25z"/>
<path d="M4662 1030 c-28 -29 -50 -41 -37 -20 9 14 -4 12 -19 -2 -8 -7 -23
-20 -35 -28 -11 -8 -21 -18 -21 -23 0 -5 13 2 29 16 35 29 73 28 105 -2 12
-12 26 -21 32 -21 5 0 -4 11 -21 25 -16 13 -25 24 -18 25 6 0 15 -4 18 -10 3
-5 12 -10 18 -10 7 0 4 5 -6 11 -18 10 -18 12 -1 30 22 25 13 24 -16 -1 -37
-32 -48 -22 -12 10 18 17 28 30 22 30 -5 0 -23 -13 -38 -30z"/>
<path d="M2683 1042 c9 -2 15 -8 12 -13 -4 -5 -2 -9 4 -9 5 0 12 6 15 13 5 10
7 10 12 0 3 -7 10 -13 15 -13 6 0 8 4 4 9 -3 5 3 11 12 13 10 3 -7 4 -37 4
-30 0 -47 -1 -37 -4z"/>
<path d="M2805 1040 c-3 -5 -1 -10 4 -10 6 0 11 5 11 10 0 6 -2 10 -4 10 -3 0
-8 -4 -11 -10z"/>
<path d="M3435 1040 c-3 -5 -4 -14 0 -19 3 -6 -1 -13 -8 -18 -10 -6 -10 -12 5
-25 10 -10 18 -14 18 -9 0 6 -5 13 -10 16 -12 7 -4 25 11 25 6 0 7 -5 4 -10
-3 -6 1 -13 9 -16 9 -3 16 -14 17 -23 0 -12 2 -13 6 -2 3 8 -3 20 -13 28 -11
8 -18 16 -16 18 6 12 1 26 -8 20 -5 -3 -10 -2 -10 4 0 5 6 12 13 14 9 4 9 6 0
6 -6 1 -15 -3 -18 -9z"/>
<path d="M3471 1038 c-1 -9 7 -21 17 -27 9 -5 16 -13 14 -18 -2 -4 2 -9 10
-11 9 -2 8 0 -2 7 -8 6 -10 11 -5 11 6 0 3 6 -6 13 -9 7 -18 19 -22 27 -4 12
-6 12 -6 -2z"/>
<path d="M3978 1030 c24 -25 21 -65 -7 -94 l-20 -22 50 -32 c27 -18 47 -37 44
-43 -9 -13 -25 -11 -22 4 1 6 -5 12 -13 12 -8 0 -25 10 -38 23 -13 12 -28 22
-33 22 -6 0 4 -12 21 -26 20 -17 29 -33 26 -43 -5 -13 -4 -13 8 2 14 18 32 24
21 8 -8 -15 15 -25 28 -12 15 15 30 14 21 -1 -5 -7 -3 -8 5 -3 9 5 3 16 -21
36 -18 15 -39 28 -45 29 -7 0 -13 5 -13 11 0 5 4 8 8 5 4 -2 9 5 9 16 2 20 1
20 -12 2 -7 -11 -16 -16 -20 -12 -7 6 -1 16 33 53 15 17 16 29 1 20 -6 -4 -9
-1 -8 6 4 18 -19 59 -32 59 -5 0 -1 -9 9 -20z"/>
<path d="M4070 1043 c0 -4 11 -17 25 -27 13 -10 22 -22 19 -27 -3 -5 0 -9 5
-9 20 0 10 25 -20 48 -16 13 -29 20 -29 15z"/>
<path d="M4280 1039 c0 -7 -7 -17 -16 -23 -14 -11 -12 -16 20 -48 33 -33 46
-37 46 -15 0 6 -3 8 -6 4 -3 -3 -19 6 -35 20 -36 33 -30 42 8 15 29 -20 29
-20 41 -1 15 23 32 25 32 3 0 -8 -4 -13 -9 -10 -5 3 -12 -1 -15 -10 -9 -24 -8
-25 14 -7 22 19 24 31 11 52 -8 12 -13 11 -28 -8 -16 -20 -23 -22 -40 -12 -15
7 -20 17 -16 31 3 11 3 20 -1 20 -3 0 -6 -5 -6 -11z"/>
<path d="M4382 1030 c7 -11 17 -20 22 -20 4 0 3 -7 -4 -15 -15 -18 -5 -20 13
-3 10 9 8 16 -11 35 -28 28 -36 30 -20 3z"/>
<path d="M4465 1026 c18 -17 22 -26 13 -29 -9 -4 -9 -6 -1 -6 23 -2 23 18 1
38 -12 12 -26 21 -30 21 -5 0 3 -11 17 -24z"/>
<path d="M4580 1036 c0 -8 4 -17 9 -20 5 -4 7 3 4 14 -6 23 -13 26 -13 6z"/>
<path d="M2771 1031 c-8 -5 -9 -11 -3 -15 5 -3 12 1 16 9 6 17 6 18 -13 6z"/>
<path d="M4130 1030 c0 -5 5 -10 11 -10 5 0 7 5 4 10 -3 6 -8 10 -11 10 -2 0
-4 -4 -4 -10z"/>
<path d="M2660 1019 c0 -5 5 -7 10 -4 6 3 10 8 10 11 0 2 -4 4 -10 4 -5 0 -10
-5 -10 -11z"/>
<path d="M3140 1019 c0 -5 5 -7 10 -4 6 3 10 8 10 11 0 2 -4 4 -10 4 -5 0 -10
-5 -10 -11z"/>
<path d="M3230 1020 c0 -5 4 -10 9 -10 5 0 17 -7 25 -16 9 -8 16 -11 16 -6 0
5 -11 17 -25 26 -14 9 -25 12 -25 6z"/>
<path d="M3862 1010 c-7 -12 -17 -18 -22 -15 -6 3 -10 1 -10 -4 0 -16 16 -13
35 5 9 9 19 13 23 9 4 -4 -3 -15 -15 -25 -12 -9 -19 -20 -16 -24 4 -3 -3 -6
-15 -6 -12 0 -22 -4 -22 -10 0 -15 33 1 58 28 25 29 24 25 16 46 -8 21 -17 20
-32 -4z"/>
<path d="M3117 1009 c9 -9 7 -17 -8 -32 -27 -29 -16 -33 13 -4 19 19 21 26 11
35 -16 15 -31 16 -16 1z"/>
<path d="M2526 994 c-11 -7 -18 -16 -15 -18 2 -2 13 2 23 10 11 7 18 16 15 18
-2 2 -13 -2 -23 -10z"/>
<path d="M2680 1003 c1 -14 40 -56 47 -49 3 3 -3 14 -15 24 -12 11 -19 22 -15
26 3 3 1 6 -5 6 -7 0 -12 -3 -12 -7z"/>
<path d="M3550 995 c0 -8 2 -15 4 -15 2 0 6 7 10 15 3 8 1 15 -4 15 -6 0 -10
-7 -10 -15z"/>
<path d="M3724 998 c-5 -7 -2 -9 9 -5 17 6 44 -19 32 -31 -4 -4 -10 -1 -12 6
-3 6 -9 12 -14 12 -6 0 -8 -4 -4 -9 3 -5 -3 -11 -12 -13 -10 -3 7 -4 37 -5 30
0 48 2 40 5 -8 3 -23 16 -33 29 -20 26 -32 29 -43 11z"/>
<path d="M3603 980 c-7 -10 -20 -17 -30 -16 -10 2 -12 1 -5 -1 7 -3 10 -9 7
-14 -4 -5 -3 -9 2 -9 10 1 47 50 41 55 -2 2 -9 -4 -15 -15z"/>
<path d="M4083 980 c-8 -12 -20 -17 -35 -14 -21 4 -21 4 -3 -5 11 -5 16 -10
10 -11 -5 0 -2 -5 8 -11 15 -9 23 -7 38 10 11 12 15 21 10 21 -6 0 -14 -8 -20
-17 -5 -10 -13 -15 -17 -10 -4 4 1 16 11 27 10 11 16 22 14 25 -3 2 -10 -4
-16 -15z"/>
<path d="M3326 977 c3 -10 9 -15 12 -12 3 3 0 11 -7 18 -10 9 -11 8 -5 -6z"/>
<path d="M3526 974 c-3 -8 -10 -12 -16 -9 -5 3 -10 1 -10 -5 0 -7 7 -10 15 -6
8 3 18 -2 23 -11 6 -9 12 -12 16 -5 3 5 -1 12 -9 16 -8 3 -12 12 -9 21 3 8 4
15 1 15 -3 0 -8 -7 -11 -16z"/>
<path d="M3697 976 c-4 -10 -1 -13 8 -9 8 3 12 9 9 14 -7 12 -11 11 -17 -5z"/>
<path d="M3965 980 c-3 -5 -1 -10 4 -10 6 0 11 5 11 10 0 6 -2 10 -4 10 -3 0
-8 -4 -11 -10z"/>
<path d="M4420 980 c0 -5 5 -10 11 -10 5 0 7 5 4 10 -3 6 -8 10 -11 10 -2 0
-4 -4 -4 -10z"/>
<path d="M2541 971 c-20 -13 -3 -34 22 -27 24 6 47 -9 47 -32 0 -8 -3 -12 -7
-9 -3 4 -13 -2 -20 -13 -8 -11 -19 -18 -24 -15 -5 4 -9 1 -9 -4 0 -17 15 -13
43 12 33 28 34 39 2 72 -28 27 -33 29 -54 16z m29 -11 c0 -5 -7 -10 -16 -10
-8 0 -12 5 -9 10 3 6 10 10 16 10 5 0 9 -4 9 -10z"/>
<path d="M2861 971 c-10 -7 -5 -17 25 -45 38 -35 39 -36 48 -16 8 17 4 26 -19
46 -31 27 -34 27 -54 15z m42 -21 c8 -11 17 -17 20 -13 4 3 7 -1 7 -10 0 -9
-4 -17 -8 -17 -9 0 -52 46 -52 55 0 12 20 3 33 -15z"/>
<path d="M3371 961 l24 -19 -22 -24 c-13 -13 -23 -28 -23 -32 0 -4 11 5 25 20
14 15 29 24 33 20 4 -4 -3 -16 -15 -26 -12 -9 -19 -20 -16 -24 4 -3 -2 -6 -13
-7 -12 0 -14 -2 -5 -6 12 -5 61 41 61 58 0 12 -49 59 -62 59 -5 0 0 -9 13 -19z"/>
<path d="M3790 976 c0 -2 9 -6 20 -9 11 -3 18 -1 14 4 -5 9 -34 13 -34 5z"/>
<path d="M4205 956 c-15 -13 -25 -30 -22 -37 4 -9 6 -7 6 5 1 11 4 17 7 13 4
-3 15 4 25 16 l19 22 19 -22 c10 -12 21 -19 25 -16 3 4 6 -2 7 -13 0 -12 2
-14 6 -5 5 12 -41 61 -57 61 -4 0 -19 -11 -35 -24z"/>
<path d="M4610 969 c0 -5 5 -7 10 -4 6 3 10 8 10 11 0 2 -4 4 -10 4 -5 0 -10
-5 -10 -11z"/>
<path d="M4657 956 c10 -13 21 -22 26 -19 4 2 7 -3 7 -11 0 -24 -16 -19 -40
12 -12 15 -19 19 -16 10 3 -12 -3 -24 -19 -34 -14 -9 -25 -20 -25 -26 0 -5 12
2 26 16 27 24 27 24 48 5 21 -20 21 -20 30 1 8 17 4 26 -19 46 -36 30 -41 31
-18 0z"/>
<path d="M3257 945 c-17 -24 -17 -26 0 -50 10 -13 24 -25 31 -25 7 0 2 11 -12
24 -28 26 -33 38 -13 35 24 -3 37 1 37 12 0 8 -5 8 -15 -1 -10 -8 -15 -9 -15
-2 0 6 8 16 18 21 13 8 14 10 2 10 -8 0 -23 -11 -33 -24z"/>
<path d="M3313 920 c0 -37 2 -48 8 -35 4 11 8 16 8 11 1 -5 11 3 22 18 17 22
19 30 9 39 -10 9 -12 8 -7 -5 6 -18 -19 -46 -31 -33 -4 4 -1 10 6 12 6 3 12 9
12 14 0 6 -4 8 -9 4 -5 -3 -11 3 -13 12 -3 10 -5 -7 -5 -37z"/>
<path d="M3460 956 c0 -8 4 -17 9 -20 5 -4 7 3 4 14 -6 23 -13 26 -13 6z"/>
<path d="M3606 945 c-11 -17 -21 -22 -33 -18 -10 4 0 -10 21 -30 21 -20 42
-37 46 -37 12 0 40 29 40 41 0 5 16 -5 35 -23 23 -20 34 -37 30 -47 -5 -13 -4
-13 6 -4 10 10 16 10 27 1 11 -10 17 -8 28 7 18 24 18 40 0 23 -8 -7 -12 -16
-9 -20 2 -5 0 -8 -6 -8 -18 0 -21 17 -6 30 8 7 15 17 15 23 0 5 -9 0 -20 -13
-17 -20 -21 -21 -35 -7 -20 21 -19 30 3 23 18 -6 62 25 62 44 0 6 -11 0 -24
-14 -26 -28 -38 -33 -35 -13 3 24 -1 37 -12 37 -8 0 -8 -4 0 -14 9 -10 8 -16
-4 -26 -13 -11 -19 -10 -33 3 -15 16 -18 15 -39 -11 l-22 -27 -25 26 -24 26
24 27 c14 14 21 26 16 26 -6 0 -17 -11 -26 -25z"/>
<path d="M4380 959 c0 -5 4 -8 9 -4 6 3 15 -3 21 -12 11 -17 11 -17 6 0 -3 10
-6 21 -6 23 0 2 -7 4 -15 4 -8 0 -15 -5 -15 -11z"/>
<path d="M4596 947 c1 -9 -7 -24 -19 -32 -12 -8 -17 -15 -12 -15 12 1 55 36
55 45 0 3 -4 4 -9 0 -5 -3 -11 0 -14 7 -2 7 -3 5 -1 -5z"/>
<path d="M2980 951 c0 -6 4 -13 10 -16 6 -3 7 1 4 9 -7 18 -14 21 -14 7z"/>
<path d="M3937 942 c-20 -22 -21 -32 -5 -32 6 0 8 3 5 6 -4 4 3 15 15 25 11
11 17 19 11 19 -5 0 -17 -8 -26 -18z"/>
<path d="M4017 949 c7 -7 15 -10 18 -7 3 3 -2 9 -12 12 -14 6 -15 5 -6 -5z"/>
<path d="M4353 945 c-7 -8 -20 -18 -29 -23 -14 -8 -14 -13 -5 -28 10 -15 11
-15 7 -2 -3 11 5 24 22 37 15 11 25 22 22 24 -3 3 -11 -1 -17 -8z"/>
<path d="M2685 940 c3 -5 8 -10 11 -10 2 0 4 5 4 10 0 6 -5 10 -11 10 -5 0 -7
-4 -4 -10z"/>
<path d="M4218 929 c-19 -20 -10 -27 10 -7 9 9 15 9 24 0 7 -7 16 -12 20 -12
4 0 -1 9 -12 20 -23 23 -20 23 -42 -1z"/>
<path d="M2533 922 c15 -10 24 -22 20 -25 -3 -4 -2 -7 3 -7 5 0 15 9 22 20 7
12 8 20 2 20 -5 0 -10 -5 -10 -11 0 -5 -10 -3 -22 5 -12 9 -27 16 -33 16 -5 0
2 -8 18 -18z"/>
<path d="M3010 929 c0 -5 5 -7 10 -4 6 3 10 8 10 11 0 2 -4 4 -10 4 -5 0 -10
-5 -10 -11z"/>
<path d="M3490 929 c0 -5 5 -7 10 -4 6 3 10 8 10 11 0 2 -4 4 -10 4 -5 0 -10
-5 -10 -11z"/>
<path d="M3516 924 c-8 -20 -8 -24 2 -24 4 0 8 9 9 20 2 24 -3 26 -11 4z"/>
<path d="M3710 925 c0 -8 4 -15 10 -15 5 0 7 7 4 15 -4 8 -8 15 -10 15 -2 0
-4 -7 -4 -15z"/>
<path d="M3770 929 c0 -5 5 -7 10 -4 6 3 10 8 10 11 0 2 -4 4 -10 4 -5 0 -10
-5 -10 -11z"/>
<path d="M4361 919 c-13 -11 -22 -21 -20 -23 2 -3 17 7 32 20 15 13 24 24 20
24 -4 -1 -19 -10 -32 -21z"/>
<path d="M4430 932 c0 -13 47 -62 54 -55 3 3 6 1 6 -5 0 -7 5 -12 11 -12 5 0
8 4 4 9 -3 5 0 11 7 14 7 2 5 3 -6 1 -10 -2 -31 10 -47 26 -16 16 -29 25 -29
22z"/>
<path d="M4460 925 c7 -8 16 -12 21 -9 5 3 9 0 9 -5 0 -6 5 -11 11 -11 8 0 8
5 -1 15 -7 8 -16 12 -21 9 -5 -3 -9 0 -9 5 0 6 -5 11 -11 11 -8 0 -8 -5 1 -15z"/>
<path d="M3835 920 c-19 -8 -19 -9 3 -9 12 -1 22 4 22 9 0 6 -1 10 -2 9 -2 0
-12 -4 -23 -9z"/>
<path d="M4021 920 c-1 -13 45 -60 58 -60 3 0 12 4 19 8 10 7 6 15 -14 35 -15
15 -31 27 -36 27 -5 0 3 -11 18 -25 15 -14 24 -29 20 -33 -4 -4 -16 4 -27 17
-10 13 -19 19 -20 15 0 -5 -4 0 -9 11 -5 13 -9 15 -9 5z"/>
<path d="M2690 910 c0 -5 5 -10 11 -10 5 0 7 5 4 10 -3 6 -8 10 -11 10 -2 0
-4 -4 -4 -10z"/>
<path d="M2735 910 c-3 -5 -1 -10 4 -10 6 0 11 5 11 10 0 6 -2 10 -4 10 -3 0
-8 -4 -11 -10z"/>
<path d="M3540 917 c0 -5 21 -29 46 -54 33 -32 49 -42 57 -34 15 15 30 14 21
-1 -6 -10 -5 -10 7 -1 12 10 18 10 27 1 9 -9 15 -9 24 0 9 9 6 16 -12 32 -32
28 -38 25 -10 -5 13 -14 19 -25 13 -25 -6 0 -16 7 -23 15 -12 14 -15 14 -36 0
-25 -16 -37 -19 -32 -7 2 4 -11 21 -29 39 -18 17 -33 28 -33 25 0 -4 -5 0 -10
8 -5 8 -10 11 -10 7z"/>
<path d="M4127 877 c-25 -27 -34 -44 -27 -51 7 -7 14 -6 22 2 14 14 32 16 24
4 -3 -5 1 -9 9 -9 8 0 15 4 15 9 0 4 -5 8 -11 8 -5 0 -7 5 -4 10 4 6 11 8 16
5 5 -4 9 -1 9 4 0 16 -12 13 -40 -9 -42 -33 -47 -22 -7 16 20 20 37 40 37 45
0 13 -1 12 -43 -34z"/>
<path d="M4377 902 c-10 -10 -17 -22 -17 -27 0 -4 9 2 20 15 19 22 22 23 37 7
15 -15 15 -18 1 -34 -23 -28 -30 -43 -19 -43 6 0 11 5 11 11 0 14 30 43 37 35
3 -3 -2 -16 -13 -28 l-19 -23 23 19 c12 11 25 16 29 12 4 -4 1 -11 -7 -16 -9
-6 -10 -10 -3 -10 6 0 15 5 19 11 4 8 9 7 15 -2 6 -10 9 -11 9 -1 0 6 5 12 11
12 5 0 7 -4 4 -10 -3 -5 -1 -10 5 -10 22 0 3 25 -20 26 -12 1 -38 18 -57 38
-39 41 -44 43 -66 18z"/>
<path d="M2516 903 c6 -4 14 -15 17 -23 5 -11 6 -9 4 4 -1 11 -9 21 -17 23
-10 3 -11 2 -4 -4z"/>
<path d="M2663 895 c-3 -9 -3 -18 -1 -21 3 -3 8 4 11 16 6 23 -1 27 -10 5z"/>
<path d="M2767 895 c3 -8 9 -12 14 -9 12 7 11 11 -5 17 -10 4 -13 1 -9 -8z"/>
<path d="M3005 900 c-3 -5 -1 -10 4 -10 6 0 11 5 11 10 0 6 -2 10 -4 10 -3 0
-8 -4 -11 -10z"/>
<path d="M3285 900 c3 -5 8 -10 11 -10 2 0 4 5 4 10 0 6 -5 10 -11 10 -5 0 -7
-4 -4 -10z"/>
<path d="M3485 900 c-3 -5 -1 -10 4 -10 6 0 11 5 11 10 0 6 -2 10 -4 10 -3 0
-8 -4 -11 -10z"/>
<path d="M3865 899 c-4 -6 -5 -12 -2 -15 2 -3 7 2 10 11 7 17 1 20 -8 4z"/>
<path d="M4224 895 c-4 -8 -14 -15 -23 -16 -12 0 -13 -2 -2 -6 8 -3 20 2 28
13 13 17 13 17 26 0 8 -11 20 -16 28 -13 11 4 10 6 -2 6 -9 1 -19 8 -23 16 -3
8 -10 15 -16 15 -6 0 -13 -7 -16 -15z"/>
<path d="M4671 863 c-24 -23 -39 -43 -33 -43 7 0 12 5 12 10 0 6 5 10 11 10 5
0 7 -6 3 -12 -4 -7 -4 -10 0 -6 4 3 7 9 7 12 -1 4 10 19 24 34 14 15 25 30 25
34 0 10 2 12 -49 -39z"/>
<path d="M3135 890 c-3 -6 1 -7 9 -4 18 7 21 14 7 14 -6 0 -13 -4 -16 -10z"/>
<path d="M3175 891 c3 -5 0 -11 -7 -14 -7 -2 -5 -3 4 -2 21 4 70 -33 63 -46
-4 -5 -1 -9 4 -9 6 0 11 3 11 8 0 13 -47 62 -54 55 -3 -3 -6 -1 -6 5 0 7 -5
12 -11 12 -5 0 -8 -4 -4 -9z"/>
<path d="M3437 875 c-10 -14 -15 -30 -12 -35 3 -6 1 -10 -6 -10 -7 0 -9 -3 -6
-6 4 -4 13 -2 21 5 8 7 16 8 18 4 3 -4 3 -2 2 5 -2 6 2 12 8 12 6 0 8 3 5 6
-4 4 -13 1 -22 -6 -9 -8 -15 -8 -15 -2 0 15 21 27 45 25 16 -1 17 -1 2 3 -9 3
-15 10 -12 15 13 21 -11 7 -28 -16z"/>
<path d="M3810 889 c0 -5 5 -7 10 -4 6 3 10 8 10 11 0 2 -4 4 -10 4 -5 0 -10
-5 -10 -11z"/>
<path d="M4176 891 c-4 -5 3 -7 14 -4 23 6 26 13 6 13 -8 0 -17 -4 -20 -9z"/>
<path d="M4270 896 c0 -2 9 -6 20 -9 11 -3 18 -1 14 4 -5 9 -34 13 -34 5z"/>
<path d="M4630 889 c0 -5 5 -7 10 -4 17 10 11 -5 -10 -27 -32 -35 -23 -39 11
-6 23 24 27 33 17 39 -18 12 -28 11 -28 -2z"/>
<path d="M2680 879 c0 -7 -8 -18 -17 -25 -14 -10 -15 -15 -6 -24 6 -7 15 -10
21 -6 9 5 15 66 6 66 -2 0 -4 -5 -4 -11z m0 -39 c0 -5 -4 -10 -10 -10 -5 0
-10 5 -10 10 0 6 5 10 10 10 6 0 10 -4 10 -10z"/>
<path d="M2708 883 c6 -2 18 -2 25 0 6 3 1 5 -13 5 -14 0 -19 -2 -12 -5z"/>
<path d="M2755 862 c3 -28 1 -33 -13 -27 -13 5 -14 3 -5 -6 13 -13 37 -3 28
12 -4 5 -1 9 4 9 6 0 11 5 11 11 0 5 -4 8 -9 4 -5 -3 -12 3 -15 12 -2 10 -3 3
-1 -15z"/>
<path d="M2795 879 c-4 -6 -4 -13 -1 -16 3 -3 1 -15 -5 -27 -9 -19 -9 -19 4
-3 15 18 33 24 22 8 -9 -15 15 -25 28 -12 9 9 7 10 -7 5 -14 -5 -17 -4 -12 4
4 7 1 15 -8 18 -9 3 -16 10 -16 16 0 5 5 6 10 3 6 -3 10 -1 10 4 0 14 -17 14
-25 0z"/>
<path d="M3020 867 c-29 -44 -31 -47 -20 -47 5 0 10 5 10 11 0 14 30 43 37 35
3 -3 -2 -16 -13 -28 l-19 -23 23 19 c12 11 25 16 29 12 4 -4 1 -11 -7 -16 -9
-6 -10 -10 -3 -10 6 0 15 5 19 11 4 8 9 7 15 -2 6 -10 9 -11 9 -1 0 6 5 12 11
12 5 0 7 -4 4 -10 -3 -5 -1 -10 5 -10 22 0 3 25 -19 26 -12 1 -32 11 -44 22
l-23 21 -14 -22z"/>
<path d="M3500 868 c-30 -45 -31 -48 -20 -48 5 0 10 4 10 10 0 15 33 50 42 44
4 -3 8 0 8 5 0 19 -25 12 -40 -11z"/>
<path d="M3880 874 c0 -8 -4 -12 -10 -9 -5 3 -10 2 -10 -4 0 -5 6 -11 13 -14
6 -2 9 -8 4 -12 -4 -5 -13 -3 -19 3 -16 16 -25 15 -32 -4 -5 -13 -4 -14 7 -6
10 8 17 8 24 1 17 -17 30 -3 31 31 0 16 -1 30 -4 30 -2 0 -4 -7 -4 -16z"/>
<path d="M3930 864 c17 -15 28 -29 25 -32 -3 -3 -16 5 -30 18 -14 13 -25 18
-25 12 0 -7 5 -12 11 -12 8 0 7 -6 -2 -17 -11 -15 -11 -16 1 -6 10 9 17 10 27
1 10 -8 17 -8 25 0 9 9 4 18 -18 37 -16 14 -33 25 -37 25 -5 0 6 -12 23 -26z"/>
<path d="M4366 854 c-21 -19 -33 -34 -28 -34 6 0 14 5 18 11 4 8 9 7 16 -2 8
-11 9 -11 5 1 -2 8 5 23 16 33 11 9 18 19 16 21 -2 3 -22 -11 -43 -30z"/>
<path d="M4610 877 c0 -9 -3 -16 -7 -16 -26 4 -35 -2 -24 -15 8 -10 9 -16 1
-19 -6 -3 -5 -4 2 -3 7 2 12 11 10 21 -2 10 1 14 7 10 12 -7 27 22 17 32 -3 4
-6 -1 -6 -10z"/>
<path d="M3326 863 c-6 -14 -5 -15 5 -6 7 7 10 15 7 18 -3 3 -9 -2 -12 -12z"/>
<path d="M3550 870 c0 -5 9 -14 20 -20 11 -6 17 -16 14 -22 -4 -7 -3 -8 4 -4
16 9 16 9 -13 34 -14 12 -25 18 -25 12z"/>
<path d="M3830 870 c0 -5 5 -10 10 -10 6 0 10 5 10 10 0 6 -4 10 -10 10 -5 0
-10 -4 -10 -10z"/>
<path d="M4335 870 c-3 -5 -1 -10 4 -10 6 0 11 5 11 10 0 6 -2 10 -4 10 -3 0
-8 -4 -11 -10z"/>
<path d="M2700 858 c0 -4 9 -8 20 -8 11 0 20 4 20 8 0 4 -9 8 -20 8 -11 0 -20
-4 -20 -8z"/>
<path d="M3125 860 c3 -5 8 -10 11 -10 2 0 4 5 4 10 0 6 -5 10 -11 10 -5 0 -7
-4 -4 -10z"/>
<path d="M3245 860 c3 -5 8 -10 11 -10 2 0 4 5 4 10 0 6 -5 10 -11 10 -5 0 -7
-4 -4 -10z"/>
<path d="M4225 862 c-13 -9 -16 -42 -4 -42 5 0 9 9 9 20 0 28 20 25 21 -2 0
-22 1 -22 8 -3 7 18 -2 35 -19 35 -3 0 -9 -4 -15 -8z"/>
<path d="M4300 859 c0 -5 5 -7 10 -4 6 3 10 8 10 11 0 2 -4 4 -10 4 -5 0 -10
-5 -10 -11z"/>
<path d="M4525 860 c3 -5 8 -10 11 -10 2 0 4 5 4 10 0 6 -5 10 -11 10 -5 0 -7
-4 -4 -10z"/>
<path d="M4710 860 c0 -5 0 -13 1 -16 0 -4 -5 -11 -13 -16 -11 -8 -10 -9 1 -6
13 4 28 48 16 48 -3 0 -5 -4 -5 -10z"/>
<path d="M2528 849 c14 -5 20 -13 16 -20 -4 -8 -3 -9 5 -5 16 10 -5 36 -28 35
-10 0 -8 -3 7 -10z"/>
<path d="M3147 841 c-4 -17 -3 -21 5 -13 5 5 8 16 6 23 -3 8 -7 3 -11 -10z"/>
<path d="M3180 845 c10 -12 10 -15 0 -15 -8 0 -10 -3 -7 -6 4 -4 13 -2 21 5
10 8 16 9 19 1 3 -6 4 -5 3 2 -2 7 -9 12 -15 11 -6 -2 -11 2 -11 7 0 6 -5 10
-11 10 -8 0 -8 -5 1 -15z"/>
<path d="M3267 841 c-4 -17 -3 -21 5 -13 5 5 8 16 6 23 -3 8 -7 3 -11 -10z"/>
<path d="M3300 845 c10 -12 10 -15 0 -15 -8 0 -11 -3 -7 -6 3 -3 10 -3 16 0
12 8 3 36 -11 36 -6 0 -5 -6 2 -15z"/>
<path d="M3530 851 c8 -6 11 -11 6 -11 -6 0 -5 -5 2 -12 9 -9 15 -9 25 1 10
10 8 11 -6 5 -12 -4 -17 -2 -15 6 2 7 -4 15 -12 17 -13 4 -13 3 0 -6z"/>
<path d="M4187 841 c-4 -17 -3 -21 5 -13 5 5 8 16 6 23 -3 8 -7 3 -11 -10z"/>
<path d="M4277 840 c-3 -11 -1 -20 4 -20 5 0 9 9 9 20 0 11 -2 20 -4 20 -2 0
-6 -9 -9 -20z"/>
<path d="M4547 841 c-4 -17 -3 -21 5 -13 5 5 8 16 6 23 -3 8 -7 3 -11 -10z"/>
<path d="M3334 839 c-3 -6 -3 -13 0 -16 3 -4 6 -1 6 5 0 7 5 12 11 12 5 0 7
-4 4 -10 -3 -5 -2 -10 3 -10 6 0 12 6 15 13 6 15 -30 21 -39 6z"/>
<path d="M4309 833 c-13 -17 -13 -17 6 -3 11 8 22 16 24 17 2 2 0 3 -6 3 -6 0
-17 -8 -24 -17z"/>
</g>
</svg>
